<?xml version="1.0" encoding="UTF-8"?>
<svg width="25px" height="100px" viewBox="0 0 25 100" version="1.1" xmlns="http://www.w3.org/2000/svg" xmlns:xlink="http://www.w3.org/1999/xlink">
    <!-- Generator: sketchtool 48.2 (47327) - http://www.bohemiancoding.com/sketch -->
    <title>9C5E739F-53C2-4327-AB31-EF20386660F1</title>
    <desc>Created with sketchtool.</desc>
    <defs></defs>
    <g id="[D]-Car-details" stroke="none" stroke-width="1" fill="none" fill-rule="evenodd" transform="translate(-1255.000000, -1950.000000)" fill-opacity="0.7">
        <g id="Similar-cars" transform="translate(0.000000, 1822.000000)">
            <g id="Next-img-BTN-Copy" transform="translate(1267.500000, 178.000000) rotate(180.000000) translate(-1267.500000, -178.000000) translate(1255.000000, 128.000000)">
                <path d="M0,0 L20,0 C22.7614237,-5.07265313e-16 25,2.23857625 25,5 L25,95 C25,97.7614237 22.7614237,100 20,100 L0,100 L0,0 Z" id="Rectangle-11" fill="#FFFFFF"></path>
                <path d="M5.48720757,41.175 L5.48720757,41.175 C4.83806582,41.8241417 4.83749205,42.8764314 5.48592552,43.5262807 L11.9455409,50 L5.48592552,56.4737193 C4.83749205,57.1235686 4.83806582,58.1758583 5.48720757,58.825 L5.48720757,58.825 C6.13614215,59.4739346 7.18827299,59.4739346 7.83720757,58.825 L16.6622076,50 L7.83720757,41.175 C7.18827299,40.5260654 6.13614215,40.5260654 5.48720757,41.175 Z" id="Shape" fill="#333333" fill-rule="nonzero" transform="translate(10.831092, 50.000000) rotate(180.000000) translate(-10.831092, -50.000000) "></path>
            </g>
        </g>
    </g>
</svg>