<?xml version="1.0" encoding="utf-8"?>
<!-- Generator: Adobe Illustrator 21.1.0, SVG Export Plug-In . SVG Version: 6.00 Build 0)  -->
<svg version="1.1" id="Layer_1" xmlns="http://www.w3.org/2000/svg" xmlns:xlink="http://www.w3.org/1999/xlink" x="0px" y="0px"
	 viewBox="0 0 54 54" style="enable-background:new 0 0 54 54;" xml:space="preserve">
<style type="text/css">
	.st0{fill:#EEEEEE;stroke:#555555;stroke-width:3;}
	.st1{fill:#555555;}
	.st2{enable-background:new    ;}
</style>
<g transform="translate(2 2)">
	<circle class="st0" cx="25" cy="25" r="25"/>
	<g>
		<path class="st1" d="M16,24h18v2H16V24z M14,18h2v14h-2V18z"/>
		<path class="st1" d="M24,18h2v14h-2V18z M34,18h2v14h-2V18z"/>
	</g>
	<g class="st2">
		<path class="st1" d="M16.1,15h-1.4v-3.7l0-0.6l0-0.7c-0.2,0.2-0.4,0.4-0.5,0.4L13.6,11L13,10.2L15,8.6h1.1V15z"/>
	</g>
	<g class="st2">
		<path class="st1" d="M17.3,41h-4.5v-0.9l1.6-1.6c0.5-0.5,0.8-0.8,0.9-1c0.1-0.2,0.3-0.4,0.3-0.5s0.1-0.3,0.1-0.5
			c0-0.3-0.1-0.4-0.2-0.6c-0.1-0.1-0.3-0.2-0.6-0.2c-0.2,0-0.5,0.1-0.7,0.2s-0.5,0.3-0.7,0.5l-0.7-0.9c0.3-0.3,0.6-0.5,0.8-0.6
			s0.4-0.2,0.7-0.3c0.2-0.1,0.5-0.1,0.8-0.1c0.4,0,0.8,0.1,1.1,0.2s0.5,0.4,0.7,0.6s0.3,0.6,0.3,0.9c0,0.3-0.1,0.6-0.2,0.8
			c-0.1,0.3-0.3,0.5-0.5,0.8c-0.2,0.3-0.6,0.7-1.2,1.2l-0.8,0.8v0.1h2.8V41z"/>
	</g>
	<g class="st2">
		<path class="st1" d="M27,10c0,0.4-0.1,0.7-0.4,1s-0.6,0.5-1,0.6v0c0.5,0.1,0.9,0.2,1.2,0.5c0.3,0.2,0.4,0.6,0.4,1
			c0,0.6-0.2,1.1-0.7,1.4c-0.4,0.3-1.1,0.5-1.9,0.5c-0.7,0-1.3-0.1-1.9-0.3v-1.2c0.2,0.1,0.5,0.2,0.8,0.3s0.6,0.1,0.9,0.1
			c0.4,0,0.8-0.1,1-0.2s0.3-0.4,0.3-0.7c0-0.3-0.1-0.5-0.4-0.6s-0.6-0.2-1.2-0.2h-0.5v-1h0.5c0.5,0,0.9-0.1,1.1-0.2
			c0.2-0.1,0.3-0.4,0.3-0.7c0-0.5-0.3-0.7-0.9-0.7c-0.2,0-0.4,0-0.6,0.1s-0.5,0.2-0.7,0.4l-0.6-0.9c0.6-0.4,1.3-0.6,2.1-0.6
			c0.7,0,1.2,0.1,1.6,0.4C26.8,9.2,27,9.5,27,10z"/>
	</g>
	<g class="st2">
		<path class="st1" d="M27.4,39.7h-0.8V41h-1.3v-1.3h-2.7v-0.9l2.8-4.1h1.3v4h0.8V39.7z M25.3,38.6v-1.1c0-0.2,0-0.4,0-0.8
			c0-0.3,0-0.5,0-0.6h0c-0.1,0.2-0.2,0.5-0.4,0.7l-1.2,1.8H25.3z"/>
	</g>
	<g class="st2">
		<path class="st1" d="M35.1,10.9c0.6,0,1.1,0.2,1.5,0.5c0.4,0.3,0.6,0.8,0.6,1.4c0,0.7-0.2,1.3-0.7,1.7s-1.1,0.6-1.9,0.6
			c-0.7,0-1.3-0.1-1.7-0.3v-1.2c0.2,0.1,0.5,0.2,0.8,0.3c0.3,0.1,0.6,0.1,0.9,0.1c0.8,0,1.2-0.3,1.2-1c0-0.6-0.4-1-1.3-1
			c-0.2,0-0.3,0-0.5,0c-0.2,0-0.3,0.1-0.5,0.1L33,11.8l0.2-3.3h3.5v1.2h-2.3L34.3,11l0.2,0C34.6,10.9,34.9,10.9,35.1,10.9z"/>
	</g>
	<g class="st2">
		<path class="st1" d="M34.2,38.5V41h-1.4v-6.4h1.9c0.9,0,1.5,0.2,1.9,0.5c0.4,0.3,0.6,0.8,0.6,1.4c0,0.4-0.1,0.7-0.3,1
			c-0.2,0.3-0.5,0.5-0.9,0.7c1,1.4,1.6,2.4,1.9,2.8h-1.5l-1.5-2.5H34.2z M34.2,37.4h0.4c0.4,0,0.7-0.1,1-0.2s0.3-0.4,0.3-0.7
			c0-0.3-0.1-0.5-0.3-0.7c-0.2-0.1-0.5-0.2-1-0.2h-0.4V37.4z"/>
	</g>
</g>
</svg>
