<?xml version="1.0" encoding="utf-8"?>
<!-- Generator: Adobe Illustrator 16.0.0, SVG Export Plug-In . SVG Version: 6.00 Build 0)  -->
<!DOCTYPE svg PUBLIC "-//W3C//DTD SVG 1.1//EN" "http://www.w3.org/Graphics/SVG/1.1/DTD/svg11.dtd">
<svg version="1.1" id="Layer_1" xmlns="http://www.w3.org/2000/svg" xmlns:xlink="http://www.w3.org/1999/xlink" x="0px" y="0px"
	 width="55px" height="51px" viewBox="0 0 55 51" enable-background="new 0 0 55 51" xml:space="preserve">
<g opacity="0.7">
	<path fill-rule="evenodd" clip-rule="evenodd" fill="#333333" d="M44,43.867c-0.17,0.051-14.741,0.058-14.947,0.01
		c-0.003-0.057-0.008-0.118-0.008-0.18c-0.001-6.241-0.003-12.481,0.003-18.724c0.001-0.897,0.099-1.788,0.3-2.667
		c0.203-0.889,0.537-1.725,1.006-2.503c0.37-0.615,0.839-1.148,1.406-1.595c0.179-0.141,0.345-0.3,0.512-0.455
		c0.512-0.469,1.021-0.939,1.531-1.409c0.383-0.354,0.765-0.708,1.15-1.061c0.369-0.339,0.742-0.677,1.112-1.016
		c0.328-0.3,0.656-0.603,0.983-0.903c0.38-0.349,0.757-0.698,1.138-1.046c0.47-0.429,0.939-0.857,1.409-1.286
		c0.202-0.185,0.401-0.371,0.603-0.556c0.624-0.572,1.247-1.144,1.869-1.716c0.505-0.465,1.007-0.933,1.514-1.398
		c0.092-0.084,0.189-0.16,0.325-0.273c0.006,0.121,0.014,0.192,0.014,0.264c0,1.37-0.003,2.738,0,4.107
		c0.007,3.215,0.018,6.431,0.025,9.646c0.006,3.012,0.007,6.024,0.013,9.037c0.007,3.075,0.017,6.151,0.025,9.227
		c0.005,1.419,0.012,2.838,0.017,4.259C44,43.712,44,43.794,44,43.867z"/>
	<path fill-rule="evenodd" clip-rule="evenodd" fill="#333333" d="M25.947,43.894c-4.998,0-9.961,0-14.947,0
		c0-0.089,0-0.163,0-0.238c0-1.268-0.001-2.535,0-3.802c0.003-3.036,0.003-6.075,0.01-9.111c0.006-3.012,0.021-6.023,0.027-9.035
		c0.007-3.151,0.004-6.303,0.011-9.455c0.003-1.502,0.02-3.004,0.028-4.506c0.001-0.146-0.006-0.292-0.007-0.438
		c0-0.054,0.008-0.109,0.014-0.202c0.073,0.051,0.12,0.077,0.159,0.113c0.424,0.384,0.848,0.769,1.271,1.155
		c0.666,0.609,1.334,1.217,1.999,1.828c0.322,0.297,0.636,0.604,0.959,0.901c0.587,0.536,1.18,1.065,1.767,1.601
		c0.442,0.403,0.878,0.811,1.318,1.217c0.439,0.405,0.879,0.81,1.318,1.215c0.37,0.34,0.739,0.681,1.109,1.02
		c0.211,0.194,0.423,0.386,0.634,0.579c0.305,0.279,0.607,0.56,0.914,0.836c0.301,0.273,0.604,0.544,0.91,0.812
		c0.62,0.544,1.099,1.194,1.476,1.927c0.435,0.847,0.695,1.745,0.856,2.679c0.095,0.547,0.141,1.097,0.148,1.651
		c0.008,0.617,0.023,1.234,0.024,1.852c0.001,5.699,0.001,11.398,0.001,17.098C25.947,43.684,25.947,43.777,25.947,43.894z"/>
</g>
</svg>
