<svg xmlns="http://www.w3.org/2000/svg" xmlns:xlink="http://www.w3.org/1999/xlink" width="44" height="36" viewBox="0 0 44 36">
    <defs>
        <path id="a" d="M5 47.5V11h45.9v36.5z"/>
    </defs>
    <g fill="none" fill-rule="evenodd" transform="translate(-6 -11)">
        <path d="M0 0h55v50.97H0z"/>
        <mask id="b" fill="#fff">
            <use xlink:href="#a"/>
        </mask>
        <path fill="#333" fill-opacity=".7" d="M46.403 17.442l-.49-.56C41.431 12.053 34.08 11 27.917 11c-6.232 0-13.795 1.051-18.205 6.162-.071.093-.14.188-.21.28C7.33 20.033 6 23.744 6 28.715c0 15.336 12.465 17.786 21.917 17.786 9.524 0 21.987-2.45 21.987-17.786 0-4.97-1.33-8.682-3.501-11.273m-4.082 2.616l-.189-.305c-3.011-4.481-8.474-5.531-14.215-5.531s-11.343 1.12-14.284 5.672l-.316.547c5.052 2.887 10.785 2.94 14.6 10.235 3.505-7.518 9.3-7.624 14.404-10.618m-22.036 8.448c3.361 1.4 5.602 3.36 7.632 7.772 2.031-4.411 4.202-6.652 7.632-8.052l8.628-3.09.055.22c.14.98.21 2.17.21 3.36 0 12.183-8.052 14.635-16.525 14.564-8.472.07-16.454-2.38-16.454-14.565 0-.91 0-1.82.139-2.59l.125-.515 8.558 2.896" mask="url(#b)"/>
    </g>
</svg>
