<?xml version="1.0" encoding="utf-8"?>
<!-- Generator: Adobe Illustrator 21.1.0, SVG Export Plug-In . SVG Version: 6.00 Build 0)  -->
<svg version="1.1" id="Layer_1" xmlns="http://www.w3.org/2000/svg" xmlns:xlink="http://www.w3.org/1999/xlink" x="0px" y="0px"
	 viewBox="0 0 118 60" style="enable-background:new 0 0 118 60;" xml:space="preserve">
<style type="text/css">
	.st0{fill:none;stroke:#000000;stroke-width:1.5;stroke-linecap:round;stroke-miterlimit:10;}
	.st1{fill:none;stroke:#000000;stroke-width:1.5;stroke-miterlimit:10;}
	.st2{fill:none;stroke:#000000;stroke-linecap:round;stroke-linejoin:round;stroke-miterlimit:10;}
</style>
<g>
	<circle class="st1" cx="36.7" cy="35.6" r="6.7"/>
	<circle class="st1" cx="78.3" cy="35.6" r="6.7"/>
	<path class="st2" d="M78.9,22.9l-1.3,2.6H51.3l-0.6-2c0,0,4.3-3.7,13.1-3.7S78.9,22.9,78.9,22.9z"/>
	<path class="st0" d="M93.5,28.6l-0.2-0.3L92,25c-0.5-1.2-1.5-1.9-2.6-2c-1.1-0.1-3.2-0.3-5.3-0.3C76,18.5,63,16.2,55.1,18.8
		c-5.9,2-10.6,5-11.8,5.7c-2,0.2-4.4,0.1-10.9,1.9c-3.5,0.9-8.1,3.8-8.4,5.4c-0.3,1.6-0.4,3.9-0.3,4.5c0.2,1.2,1.2,2.1,2.5,2.3
		l4.3-0.1c-0.4-0.9-0.6-1.8-0.6-2.8c0-3.7,3-6.7,6.7-6.7c3.7,0,6.7,3,6.7,6.7c0,0.9-0.2,1.8-0.6,2.7L72,37.9
		c-0.3-0.7-0.4-1.5-0.4-2.3c0-3.7,3-6.7,6.7-6.7s6.7,3,6.7,6.7c0,0.7-0.1,1.4-0.3,2.1l5.4-0.1c1.2-0.2,2.4-0.9,3-2l0.5-0.9
		c0.5-0.8,0.7-1.7,0.7-2.6v-0.9C94.3,30.3,94,29.3,93.5,28.6z"/>
	<g>
		<rect x="51" y="28.1" width="0.8" height="7"/>
	</g>
</g>
</svg>
