<?xml version="1.0" encoding="utf-8"?>
<!-- Generator: Adobe Illustrator 21.1.0, SVG Export Plug-In . SVG Version: 6.00 Build 0)  -->
<svg version="1.1" id="Layer_1" xmlns="http://www.w3.org/2000/svg" xmlns:xlink="http://www.w3.org/1999/xlink" x="0px" y="0px"
	 viewBox="0 0 118 60" style="enable-background:new 0 0 118 60;" xml:space="preserve">
<style type="text/css">
	.st0{fill:none;stroke:#000000;stroke-width:1.5;stroke-miterlimit:10;}
	.st1{fill:none;stroke:#000000;stroke-width:1.5;stroke-linecap:round;stroke-miterlimit:10;}
</style>
<g>
	<circle class="st0" cx="36.6" cy="36.4" r="6.7"/>
	<circle class="st0" cx="80.8" cy="36.4" r="6.7"/>
	<path class="st1" d="M64.9,24.6c-0.6,0.1-0.6,0-1.1-0.3c-0.2,0-0.6,0.1-0.9,0.1c-0.7,0-1.3,0.4-1.3-0.7c0-1.1,0.6-2,1.3-2
		c0.4,0,0.7,0.8,0.9,1.2c0.3-0.6,0.8-1.6,1.3-1.6c0.9,0,1.7,1.1,1.7,2.5c0,1.1-0.4,0.9-0.9,0.8c-0.2,0-0.3-0.1-0.5-0.1L64.9,24.6z"
		/>
	<path class="st1" d="M87.3,26.9l1.1-0.4c3.9-1.6,1.3-2.2,0.6-3.2c-0.9-1.2-4.7,1.3-6.1,1.6c-0.5,0.2-6.3,1.1-6.3,0.9
		c-0.1-0.3-0.2-0.5-0.2-0.7c-0.1-0.2-0.2-0.3-0.3-0.6c-0.2-0.2-0.3-0.3-0.4-0.5c0,0-1.7-0.2-2.7-0.2c-0.9,0.1-1.3,0.8-1.3,0.8
		c-0.2,0.6-0.7,1.2-0.8,1.8c-0.3,0-0.7,0.1-1,0.1h-4.3c0.5-0.6,0.3-1.5,0-2.1"/>
	<path class="st1" d="M29.9,38.3l-1.3-0.1c-0.1,0-2.3,0.1-2.3-1.4c0-0.3,0-0.9-0.1-1.2c-0.4-1.3-1.1-2.7,0.2-4.2
		c0.2-0.2,0.4-0.7,0.5-1c0.2-1.7,2.4-3.1,17.3-4.4c0.3,0,0.8-0.2,1.1-0.5c1.7-1.6,8.1-7,10.6-8.3c0.3-0.2,0.6-0.2,1.1,0.2
		c0.3,0.2,0.3,0.6,0.2,0.9c-0.2,0.4-0.4,0.9-0.2,1.3c0.2,0.3-3.9,3.6-5.7,5.3c0.6,0.2,1,0.7,1.3,1.3c0.1,0.2,0.1,0.4,0.1,0.6h6.6
		c0-0.1,0.1-0.2,0.1-0.2c0.6-0.6,1.5-1.6,2.2-2.1"/>
	<path class="st1" d="M88.1,38l3.7-0.6c0.3-0.2,0.2-1,0-1.2c-0.3-0.2-0.1-0.6,0.3-2.4c0.5-2.1,0.1-3.5-0.6-4.2
		c-0.2-0.2-0.5-0.6-0.5-1c0-1.5-0.6-2.7-0.8-2.9"/>
	<path class="st1" d="M43.4,39.3c0,0,30-0.2,30.5-0.2"/>
	<g>
		<rect x="51.7" y="28.8" width="0.8" height="6.7"/>
	</g>
	<g>
		<rect x="66.4" y="28.8" width="0.8" height="4.6"/>
	</g>
</g>
</svg>
