<?xml version="1.0" encoding="utf-8"?>
<!-- Generator: Adobe Illustrator 21.1.0, SVG Export Plug-In . SVG Version: 6.00 Build 0)  -->
<svg version="1.1" id="Layer_1" xmlns="http://www.w3.org/2000/svg" xmlns:xlink="http://www.w3.org/1999/xlink" x="0px" y="0px"
	 viewBox="0 0 118 60" style="enable-background:new 0 0 118 60;" xml:space="preserve">
<style type="text/css">
	.st0{fill:none;stroke:#000000;stroke-width:1.5;stroke-miterlimit:10;}
	.st1{fill:none;stroke:#000000;stroke-miterlimit:10;}
</style>
<g>
	<path class="st0" d="M89.3,39.5h0.5l2-1.1c2.1-1.1,3.4-3.3,3.5-5.6v-1c0-0.5-0.2-0.9-0.5-1.2l-1.1-1.1v-3.3c0-0.9-0.3-1.7-0.9-2.4
		l-4.1-4.5l0,0c0-0.9-0.7-1.7-1.6-1.9c-4.8-0.9-19.9-3.3-31.8-0.1c-7.4,2-14.8,6-14.8,6S27.5,25,24.4,29c-1.1,1.4-1.5,3.3-1.7,4.9
		c-0.2,2.3,1.3,4.5,3.6,5l1.2,0.3c0-0.1,0-0.1,0-0.2 M41,39.4l34.8,0.1"/>
	<path class="st1" d="M48.8,21.8c0,0,8.1-4.2,21.5-3.8v6.3L48.7,26L48.8,21.8z"/>
	<path class="st1" d="M82.9,23.3l-10.2,0.8v-6c3.3,0.2,7,0.8,10.9,1.7c0.4,0.1,0.7,0.4,0.8,0.8c0.1,0.4,0,0.8-0.2,1.1L82.9,23.3z"/>
	<g>
		<rect x="48.3" y="28.3" width="0.8" height="5.6"/>
	</g>
	<circle class="st0" cx="34.1" cy="37.7" r="6.7"/>
	<circle class="st0" cx="82.3" cy="37.7" r="6.7"/>
	<g>
		<rect x="82.3" y="25" width="0.8" height="3.9"/>
	</g>
</g>
</svg>
