<?xml version="1.0" encoding="utf-8"?>
<!-- Generator: Adobe Illustrator 21.1.0, SVG Export Plug-In . SVG Version: 6.00 Build 0)  -->
<svg version="1.1" id="Layer_1" xmlns="http://www.w3.org/2000/svg" xmlns:xlink="http://www.w3.org/1999/xlink" x="0px" y="0px"
	 viewBox="0 0 118 60" style="enable-background:new 0 0 118 60;" xml:space="preserve">
<style type="text/css">
	.st0{fill:none;stroke:#000000;stroke-width:1.5;stroke-miterlimit:10;}
	.st1{fill:none;stroke:#000000;stroke-miterlimit:10;}
	.st2{fill:none;stroke:#000000;stroke-linecap:round;stroke-linejoin:round;stroke-miterlimit:10;}
</style>
<g>
	<ellipse transform="matrix(1 -4.177958e-03 4.177958e-03 1 -0.1811 0.1447)" class="st0" cx="34.5" cy="43.4" rx="6.7" ry="6.7"/>
	<ellipse transform="matrix(1 -4.177958e-03 4.177958e-03 1 -0.1797 0.3732)" class="st0" cx="89.2" cy="43.2" rx="6.7" ry="6.7"/>
	
		<rect x="55.6" y="13.3" transform="matrix(1 -4.177958e-03 4.177958e-03 1 -7.463358e-02 0.2831)" class="st1" width="24.2" height="9.4"/>
	<path class="st1" d="M99.8,22.8L82,22.8l0-9.6c0,0,10.5-0.2,14.7,0.1c1.1,0,1.7,1.6,1.9,2.1S99.8,22.8,99.8,22.8z"/>
	<path class="st2" d="M53.2,21.7c0,0.3-0.1,0.6-0.3,0.7c-0.1,0.1-0.4,0.3-0.7,0.3l-18.8,0.1l-0.6,0l-0.1-3l9.5-5.8
		c0.6-0.4,1.3-0.6,2-0.6l8.1,0c0.3,0,0.6,0.1,0.7,0.3c0.1,0.1,0.3,0.4,0.3,0.7L53.2,21.7z"/>
	<g>
		<rect x="53" y="25.4" transform="matrix(1 -4.177958e-03 4.177958e-03 1 -0.1377 0.2234)" width="0.8" height="15.3"/>
	</g>
	<g>
		<rect x="81.6" y="25.3" transform="matrix(1 -4.177958e-03 4.177958e-03 1 -0.1202 0.343)" width="0.8" height="7.2"/>
	</g>
	<g>
		<rect x="32.3" y="25.5" transform="matrix(1 -4.177958e-03 4.177958e-03 1 -0.1215 0.1367)" width="0.8" height="7.2"/>
	</g>
	<path class="st0" d="M101.4,14.8c-0.5-2.9-3-5-6-5c-12.8,0.2-46,0.6-51.5,1.1c-0.6,0.1-1.2,0.2-1.7,0.5
		c-3.4,1.7-15.2,8.4-20.3,13.5c-1.7,1.7-3.1,2.9-4.2,3.7c-1,0.7-1.6,1.9-1.7,3.1l-0.1,2.4c-0.2,0.4-0.3,0.7-0.5,1.1l-0.3,0.3
		c-0.6,0.1-1.1,0.5-1.2,1.1c-0.1,0.8-0.2,2.1-0.2,3c0,1.6,1.1,4,1.1,4c0.1,0.6,0.6,1,1.1,1c0.8,0,1.9,0,3.3,0c0.6,0,3.9,0.1,3.9,0.1
		l4.9,0c-0.1-0.4-0.1-0.8-0.1-1.3c0-3.7,3-6.7,6.7-6.7s6.7,3,6.7,6.7c0,0.4,0,0.9-0.1,1.3l41.6-0.1c-0.1-0.4-0.1-0.9-0.1-1.3
		c0-3.7,3-6.7,6.7-6.7c3.7,0,6.7,3,6.7,6.7c0,0.5,0,0.9-0.1,1.4l2.7,0c4.5,0,5.8-4.5,5.8-8C104.3,31.7,102.8,22.7,101.4,14.8z"/>
</g>
</svg>
