<svg xmlns="http://www.w3.org/2000/svg" width="24" height="24" viewBox="0 0 24 24">
    <g fill="none" fill-rule="evenodd">
        <path d="M.077.078h23.831v23.735H.077z"/>
        <path fill="#FFF" fill-rule="nonzero" d="M22.723 14.275a36.64 36.64 0 0 0-2.261-.124c-.231 0-.493 0-.693.109-.323.171-.477.56-.63.904-.739 1.714-2.277 3.007-4 3.678-2.385.919-5.216.654-7.324-.795-2.107-1.45-3.4-4.099-3.123-6.67.277-2.572 2.17-4.925 4.631-5.595 1.8-.764 3.723-.64 5.554.031 1.83.686 3.538 1.917 4.43 3.662.108.219.216.452.416.593.277.202.646.187 1 .171.63-.047 1.262-.094 1.908-.14.461-.031 1-.125 1.169-.561.092-.234.046-.499-.015-.748-.539-2.276-1.908-4.317-3.723-5.782C18.246 1.558 16.015.67 13.723.405 10.846.062 7.831.67 5.385 2.245A11.357 11.357 0 0 0 1.2 7.09C.738 8.119.508 9.179.308 10.286a12.023 12.023 0 0 0-.046 3.787c.138.888.369 1.76.692 2.602a11.622 11.622 0 0 0 4.784 5.61c2.216 1.31 4.831 1.84 7.385 1.653 2.385-.172 4.723-.967 6.646-2.4 1.923-1.434 3.4-3.507 3.985-5.844.092-.375.154-.826-.108-1.107-.2-.218-.523-.265-.8-.296-.046-.016-.077-.016-.123-.016"/>
        <path fill="#333" fill-rule="nonzero" d="M20.03 12.296c0-2.54-1.153-4.69-3.538-5.984-.492-.265-1.015-.468-1.538-.655-.339-.109-.677-.218-1.016-.312-.092-.03-.338-.062-.4-.14-.169-.218.97-.763 1.139-.841.17-.078.354-.14.492-.28.123-.141.093-.235-.092-.235-.43 0-.892.156-1.277.328-.415.187-.8.42-1.185.654-.046.031-.23.172-.307.156v-.031c.03-.172.338-.92.384-1.029.031-.062.139-.358-.015-.343-.077 0-.123.094-.17.156a3.91 3.91 0 0 1-.46.546c-.34.311-.862.67-1.078.779-.092.047-1.246.467-1.569.577a8.308 8.308 0 0 0-1.538.654c-2.4 1.294-3.539 3.444-3.539 5.985 0 .015.015.311.015.436.2 4.488 3.385 6.873 7.447 7.028.03 0 .4.016.4.016s.338-.016.4-.016c3.723-.14 6.707-2.15 7.338-5.922v-.015c.046-.28.077-.561.092-.842 0-.187.016-.67.016-.67"/>
        <path fill="#FFF" fill-rule="nonzero" d="M9.692 16.332a.68.68 0 0 1 0-.249c.046-.873 1-1.465.939-2.992-.046-1.06-.662-1.792-1.6-1.917-.523-.078-1.216.031-1.677.28-1.923 1.091-1.6 4.084-.123 5.424.815.732 1.877 1.153 2.938 1.356.57.109 1.062.015.508-.374-.539-.359-.923-.889-.985-1.528M14.63 16.332a.68.68 0 0 0 0-.249c-.045-.873-1-1.465-.938-2.992.046-1.06.662-1.792 1.6-1.917.523-.078 1.216.031 1.677.28 1.923 1.091 1.6 4.084.123 5.424-.815.732-1.877 1.153-2.938 1.356-.57.109-1.062.015-.508-.374.539-.359.939-.889.985-1.528M13.323 16.177c.092 0 .108-.047.03-.11l-.322-.233-.6-.421-.139-.094c-.092-.077-.154-.093-.261-.03-.093.062-.2.124-.293.202l-.646.467c-.046.032-.092.078-.154.11-.076.062-.061.109.031.109h2.354zM11.308 16.582c-.093 0-.108.047-.031.109l.661.483c.077.062.185.171.293.094.077-.047.138-.094.215-.14.154-.125.323-.234.492-.36a.468.468 0 0 1 .108-.077c.077-.062.062-.11-.03-.11h-1.708z"/>
        <path fill="#333" fill-rule="nonzero" d="M9.23 13.668c0 .451-.368.826-.815.826a.826.826 0 0 1 0-1.652c.462 0 .816.358.816.826M16.708 13.668c0 .451-.37.826-.816.826a.826.826 0 0 1 0-1.652c.446 0 .816.358.816.826"/>
    </g>
</svg>
