<svg xmlns="http://www.w3.org/2000/svg" width="32" height="32" viewBox="0 0 32 32">
    <g fill="none" fill-rule="evenodd">
        <path fill="#6BDAD5" fill-rule="nonzero" d="M30.297 19.034a48.853 48.853 0 0 0-3.015-.166c-.308 0-.656 0-.923.145-.43.229-.636.748-.841 1.205-.985 2.286-3.036 4.01-5.333 4.904-3.18 1.226-6.954.873-9.764-1.06-2.81-1.932-4.534-5.465-4.165-8.893.37-3.429 2.893-6.566 6.175-7.46 2.4-1.018 4.964-.852 7.405.042 2.44.914 4.718 2.555 5.908 4.883.143.29.287.602.553.79.37.27.862.249 1.334.228.84-.062 1.682-.125 2.543-.187.616-.042 1.334-.166 1.56-.748.122-.312.06-.665-.021-.998-.718-3.033-2.544-5.755-4.964-7.709-2.42-1.932-5.395-3.116-8.452-3.47C14.462.083 10.441.894 7.18 2.992A15.143 15.143 0 0 0 1.6 9.455c-.615 1.371-.923 2.784-1.19 4.26a16.03 16.03 0 0 0-.061 5.049c.184 1.184.492 2.348.923 3.47a15.496 15.496 0 0 0 6.38 7.48c2.953 1.746 6.44 2.452 9.845 2.203 3.18-.229 6.298-1.288 8.862-3.2 2.564-1.912 4.533-4.675 5.313-7.792.123-.499.205-1.102-.144-1.476-.266-.29-.697-.353-1.066-.394-.062-.021-.103-.021-.165-.021"/>
        <path fill="#42F0C4" fill-rule="nonzero" d="M9.333 9.35c.472-.373.964-.727 1.539-1.018.369-.207.78-.374 1.251-.56-.451.166-.861.353-1.23.54-.575.311-1.088.665-1.56 1.039"/>
        <path fill="#1226B4" fill-rule="nonzero" d="M26.708 16.395c0-3.387-1.539-6.255-4.718-7.98-.657-.353-1.354-.623-2.052-.872-.45-.146-.902-.291-1.353-.416-.123-.041-.452-.083-.534-.187-.225-.29 1.293-1.018 1.518-1.122.226-.104.472-.187.657-.374.164-.187.123-.312-.123-.312-.575 0-1.19.208-1.703.437-.554.25-1.067.56-1.58.873-.061.041-.307.228-.41.207v-.041c.041-.229.452-1.226.513-1.372.041-.083.185-.478-.02-.457-.103 0-.165.125-.226.208-.185.27-.39.499-.615.727-.452.416-1.15.894-1.436 1.04-.123.062-1.662.623-2.093.768-.697.229-1.395.499-2.05.873-3.2 1.724-4.719 4.592-4.719 7.979 0 .02.02.416.02.582.267 5.984 4.513 9.163 9.929 9.371.04 0 .533.021.533.021s.451-.02.533-.02c4.965-.188 8.944-2.868 9.785-7.897v-.02c.062-.375.103-.749.123-1.123 0-.249.02-.893.02-.893"/>
        <path fill="#FFF" fill-rule="nonzero" d="M12.923 21.777a.906.906 0 0 1 0-.333c.062-1.163 1.333-1.953 1.251-3.99-.061-1.412-.882-2.39-2.133-2.555-.697-.104-1.62.041-2.236.374-2.564 1.454-2.133 5.444-.164 7.23 1.087.978 2.503 1.539 3.918 1.809.759.145 1.415.02.677-.499-.718-.478-1.23-1.184-1.313-2.036M19.508 21.777a.906.906 0 0 0 0-.333c-.062-1.163-1.334-1.953-1.252-3.99.062-1.412.882-2.39 2.134-2.555.697-.104 1.62.041 2.236.374 2.564 1.454 2.133 5.444.164 7.23-1.087.978-2.503 1.539-3.918 1.809-.76.145-1.416.02-.677-.499.718-.478 1.251-1.184 1.313-2.036"/>
        <path fill="#42F0C4" fill-rule="nonzero" d="M17.764 21.569c.123 0 .144-.063.041-.146l-.43-.311-.8-.561-.185-.125c-.123-.104-.205-.125-.349-.042-.123.084-.267.167-.39.27l-.861.624c-.062.041-.123.104-.205.145-.103.083-.082.146.04.146h3.14zM15.077 22.11c-.123 0-.144.061-.041.145.287.228.595.436.882.644.103.083.246.228.39.124.102-.062.184-.124.287-.187.205-.166.43-.311.656-.478a.624.624 0 0 1 .144-.103c.102-.084.082-.146-.041-.146h-2.277z"/>
        <path fill="#42F0C4" fill-rule="nonzero" d="M17.764 21.569c.123 0 .144-.063.041-.146l-.43-.311-.8-.561-.185-.125c-.123-.104-.205-.125-.349-.042-.123.084-.267.167-.39.27l-.861.624c-.062.041-.123.104-.205.145-.103.083-.082.146.04.146h3.14z"/>
        <path fill="#FFF" fill-rule="nonzero" d="M12.923 21.777a.906.906 0 0 1 0-.333c.062-1.163 1.333-1.953 1.251-3.99-.061-1.412-.882-2.39-2.133-2.555-.697-.104-1.62.041-2.236.374-2.564 1.454-2.133 5.444-.164 7.23 1.087.978 2.503 1.539 3.918 1.809.759.145 1.415.02.677-.499-.718-.478-1.23-1.184-1.313-2.036M19.508 21.777a.906.906 0 0 0 0-.333c-.062-1.163-1.334-1.953-1.252-3.99.062-1.412.882-2.39 2.134-2.555.697-.104 1.62.041 2.236.374 2.564 1.454 2.133 5.444.164 7.23-1.087.978-2.503 1.539-3.918 1.809-.76.145-1.416.02-.677-.499.718-.478 1.251-1.184 1.313-2.036"/>
        <path fill="#6BDAD5" fill-rule="nonzero" d="M17.764 21.569c.123 0 .144-.063.041-.146l-.43-.311-.8-.561-.185-.125c-.123-.104-.205-.125-.349-.042-.123.084-.267.167-.39.27l-.861.624c-.062.041-.123.104-.205.145-.103.083-.082.146.04.146h3.14zM15.077 22.11c-.123 0-.144.061-.041.145.287.207.595.436.882.644.103.083.246.228.39.124.102-.062.184-.124.287-.187.205-.166.43-.311.656-.478a.624.624 0 0 1 .144-.103c.102-.084.082-.146-.041-.146h-2.277z"/>
        <path fill="#1226B4" fill-rule="nonzero" d="M12.308 18.223c0 .603-.493 1.102-1.087 1.102a1.102 1.102 0 0 1 0-2.203c.615 0 1.087.478 1.087 1.101M22.277 18.223c0 .603-.492 1.102-1.087 1.102a1.102 1.102 0 0 1 0-2.203c.595 0 1.087.478 1.087 1.101"/>
        <path d="M.103.104h31.774v31.647H.103z"/>
    </g>
</svg>
