<svg xmlns="http://www.w3.org/2000/svg" xmlns:xlink="http://www.w3.org/1999/xlink" width="24" height="24" viewBox="0 0 24 24">
    <defs>
        <path id="a" d="M5 5h14v14H5V5z"/>
    </defs>
    <g fill="none" fill-rule="evenodd">
        <path d="M0 0h24v24H0z"/>
        <mask id="b" fill="#fff">
            <use xlink:href="#a"/>
        </mask>
        <path fill="#333" fill-opacity=".7" d="M18.426 15.919l-4.062-4.049 3.798-3.79c.681-.68.804-1.658.12-2.334-.675-.677-1.655-.56-2.338.12l-3.796 3.788-4.097-4.082c-.678-.679-1.658-.796-2.34-.12-.677.677-.56 1.654.121 2.334l4.095 4.084-4.353 4.342c-.681.68-.799 1.657-.12 2.334.678.681 1.658.559 2.338-.12l4.356-4.343 4.06 4.05c.677.678 1.655.8 2.34.122.676-.68.559-1.657-.122-2.336" mask="url(#b)"/>
    </g>
</svg>
