<svg xmlns="http://www.w3.org/2000/svg" width="24" height="24" viewBox="0 0 24 24">
    <g fill="none" fill-rule="evenodd">
        <path d="M0 0h24v24H0z"/>
        <path fill="#333" fill-opacity=".7" d="M12 1c6.351 0 11.5 4.214 11.5 9.411 0 1.816-.629 3.51-1.717 4.949a2.427 2.427 0 0 1-.213.272l-.007.007c-.371.455-.79.881-1.25 1.275-3.18 3.004-8.415 6.581-9.106 6.03-.6-.48.99-2.826-.845-3.217a14.298 14.298 0 0 1-.382-.05h-.002C4.59 18.895.5 15.044.5 10.411.5 5.214 5.649 1 12 1z"/>
        <path fill="#FFF" d="M4.173 13.489h2.603c.37 0 .673-.286.673-.636V12.8c0-.35-.303-.636-.673-.636H4.902V8.136c0-.35-.303-.636-.673-.636h-.056c-.37 0-.673.286-.673.636v4.717c0 .35.303.636.673.636zM20.3 10.532v-.053c0-.35-.303-.636-.673-.636h-1.873V8.836h1.873c.37 0 .673-.286.673-.636v-.053c0-.35-.303-.636-.673-.636h-2.603c-.37 0-.673.286-.673.636v4.717c0 .35.303.636.673.636h2.603c.37 0 .673-.286.673-.636v-.053c0-.35-.303-.636-.673-.636h-1.873v-1.007h1.873c.37 0 .673-.286.673-.636zM15.295 13.3a.617.617 0 0 0 .195-.446V8.136c0-.35-.303-.636-.673-.636h-.057c-.37 0-.673.286-.673.636v2.769l-2.432-3.083a.682.682 0 0 0-.584-.322h-.057c-.37 0-.673.286-.673.636v4.717c0 .35.303.636.673.636h.057c.37 0 .673-.286.673-.636v-2.82l2.45 3.161a.653.653 0 0 0 .049.064c.067.087.16.147.262.183a.7.7 0 0 0 .255.048h.057c.11 0 .217-.026.314-.075a.472.472 0 0 0 .164-.115zm-6.63.19h.056c.37 0 .673-.286.673-.636V8.136c0-.35-.303-.636-.673-.636h-.056c-.37 0-.673.286-.673.636v4.717c0 .35.303.636.673.636z"/>
    </g>
</svg>
