<svg xmlns="http://www.w3.org/2000/svg" width="115" height="130" viewBox="0 0 115 130">
    <g fill="none" fill-rule="evenodd" transform="translate(-9 -9)">
        <path d="M0 0h150v150H0z"/>
        <path fill="#1226B4" fill-rule="nonzero" d="M109.3 93.188c-5.712-.826-11.825.237-17.5-.675h-.6C103.638 88.075 112.763 78.5 115.213 64v-.075c.241-1.442.416-2.93.525-4.462.075-.988.137-3.526.137-3.526 0-13.45-6.15-24.8-18.963-31.662A51.25 51.25 0 0 0 88.75 20.8c-1.775-.588-3.588-1.125-5.412-1.675-.5-.15-1.838-.313-2.175-.762-.888-1.163 5.175-4.025 6.062-4.413a7.013 7.013 0 0 0 2.563-1.45c.637-.7.5-1.25-.513-1.25a17.975 17.975 0 0 0-6.875 1.762 65.25 65.25 0 0 0-6.35 3.463c-.25.15-1.25.938-1.638.85v-.175c.188-.9 1.838-4.787 2.075-5.4.126-.35.776-1.863-.075-1.813-.425 0-.7.488-.912.788a25.188 25.188 0 0 1-2.5 2.888 34.625 34.625 0 0 1-5.775 4.137c-.5.262-6.637 2.5-8.412 3.063a51.35 51.35 0 0 0-8.226 3.412c-12.775 6.837-18.912 18.2-18.912 31.65 0 .163 0 1.625.1 2.263.825 18.562 11.475 30.337 26.513 35a4.563 4.563 0 0 1-2.713.612C44.812 93.037 37.587 83.963 30 77.112c-2.712-2.5-6.25.088-6.35 2.626-.1 2.537-.188 9.012 5.738 17.387a37.163 37.163 0 0 0 9.762 9.662c3.75 2.5 8.388 3.575 11.375 7.125 2.988 3.55 3.875 8.125 7.212 11.25 0 0 1.838 3.463-.625 3.638a42.125 42.125 0 0 0-13.625 3.975c-5 2.5-5.587 5.762-3.212 5.762H64.9c3.887 0 3.387-1.25 3.387-3.05 0-1.8.213-4.2.188-4.475 0 .263 2.738.838 5.238 1h.15l-.15.076c2.5-.163 5.212-.738 5.237-1 0 .275.188 2.85.188 4.475 0 1.625-.513 3.05 3.387 3.05h24.612c2.376 0 1.775-3.213-3.212-5.763a42.112 42.112 0 0 0-13.625-3.975c-1.513-.1-1.487-1.675-1.25-2.875a35.288 35.288 0 0 0 7.1-10.675c1.35-3.638 7.087-8.638 14.275-8.975 7.188-.337 12.913-1.987 12.85-4.7-.125-5.75-9.663-7.9-13.975-8.463z"/>
        <path fill="#1226B4" fill-rule="nonzero" d="M58.2 100a1.25 1.25 0 1 1-2.5 0 1.25 1.25 0 0 1 2.5 0M91.375 100a1.25 1.25 0 1 1-2.5 0 1.25 1.25 0 0 1 2.5 0M56.95 104.8h-.2a5.938 5.938 0 0 1-3.913-1.962l1.55-1.313a3.887 3.887 0 0 0 2.5 1.25 3.75 3.75 0 0 0 2.713-1.25l1.438 1.438a5.712 5.712 0 0 1-4.088 1.837z"/>
        <path fill="#6EDBD5" fill-rule="nonzero" d="M80 76.375c.525 0 .6-.25.175-.55l-1.763-1.25c-1.062-.737-2.137-1.463-3.175-2.225-.237-.175-.487-.313-.712-.487-.5-.376-.813-.513-1.375-.163-.563.35-1.05.688-1.55 1.063-1.137.85-2.313 1.65-3.45 2.5l-.788.562c-.424.3-.35.55.175.55H80z"/>
        <path fill="#FFF" fill-rule="nonzero" d="M60.575 77.225a8.75 8.75 0 0 1 0-1.362c.262-4.6 5.362-7.725 5-15.813-.237-5.625-3.575-9.475-8.588-10.162A15.8 15.8 0 0 0 48 51.4c-10.288 5.725-8.587 21.563-.7 28.637a32.275 32.275 0 0 0 15.738 7.175c3.025.563 5.675.113 2.7-1.962a11.337 11.337 0 0 1-5.163-8.037M87.05 77.225a9.237 9.237 0 0 0 0-1.362c-.25-4.6-5.362-7.725-5-15.813.225-5.625 3.575-9.475 8.588-10.162 3.079-.39 6.205.135 8.987 1.512 10.287 5.725 8.588 21.563.7 28.637a32.262 32.262 0 0 1-15.737 7.175c-3.025.563-5.663.113-2.688-1.962a11.35 11.35 0 0 0 5.162-8.037"/>
        <path fill="#6EDBD5" fill-rule="nonzero" d="M80 76.375c.525 0 .6-.25.175-.55l-1.763-1.25c-1.062-.737-2.137-1.463-3.175-2.225-.237-.162-.487-.313-.712-.487-.5-.376-.813-.513-1.375-.163-.563.35-1.05.688-1.55 1.063-1.137.85-2.313 1.65-3.45 2.5l-.788.575c-.424.3-.35.55.175.55L80 76.374zM69.225 78.525c-.525 0-.6.25-.175.55a654.85 654.85 0 0 0 3.55 2.5c.45.313 1 .862 1.588.513.387-.225.775-.5 1.137-.775.862-.638 1.75-1.25 2.6-1.863l.612-.438c.425-.3.35-.55-.175-.55l-9.137.063z"/>
        <path fill="#1226B4" fill-rule="nonzero" d="M57.9 63.212a4.338 4.338 0 1 1-8.675 0 4.338 4.338 0 0 1 8.675 0M97.875 63.212a4.338 4.338 0 1 1-8.675 0 4.338 4.338 0 0 1 8.675 0"/>
        <path fill="#6EDBD5" fill-rule="nonzero" d="M21.688 73.55c2.7 3.6 5.925 7.15 7.575 5.913 2.362-1.775 3.9-3.388 7.937.925 4.037 4.312.188 6.25-2.1 7.974-2.638 1.976-10.95-1.45-18.25-11.174-7.3-9.725-8.263-18.675-5.6-20.663 2.287-1.712 5.238-4.862 8.238.212 3 5.075 1.024 6.1-1.338 7.875-1.65 1.25.838 5.326 3.55 8.938h-.012z"/>
        <path fill="#C1EEEB" fill-rule="nonzero" d="M92.813 117.287c0-2.712-.438-24.812-.438-24.812l-5.138-.55.263 11.025H59.337V91.925l-4.862 1.737s.075 20.925.075 23.638c0 2.713-1.188 5 5.988 10.275 7.175 5.275 13.15 4.513 13.15 4.513s5.974.787 13.15-4.513c7.175-5.3 5.987-7.563 5.987-10.275"/>
        <circle cx="56.975" cy="100.037" r="1.212" fill="#1226B4" fill-rule="nonzero"/>
        <circle cx="90.15" cy="100.037" r="1.212" fill="#1226B4" fill-rule="nonzero"/>
        <path fill="#1226B4" fill-rule="nonzero" d="M59.55 101.513a3.75 3.75 0 0 1-2.712 1.25 3.887 3.887 0 0 1-2.5-1.25l-.776.662-.774.65a5.938 5.938 0 0 0 3.912 1.962h.2a5.713 5.713 0 0 0 4.05-1.912l-1.4-1.362zM92.688 101.513a3.675 3.675 0 0 1-2.713 1.25 3.9 3.9 0 0 1-2.5-1.25l-.775.662-.775.65a5.925 5.925 0 0 0 3.913 1.962h.2a5.713 5.713 0 0 0 4.05-1.912l-1.4-1.362zM87.15 110.25H60.225a.963.963 0 0 0-.962.963v3.925c0 4.487 4.224 8.124 9.425 8.124h10c5.2 0 9.424-3.637 9.424-8.124v-3.888a.963.963 0 0 0-.962-1z"/>
    </g>
</svg>
