<svg xmlns="http://www.w3.org/2000/svg" width="24" height="24" viewBox="0 0 24 24">
    <g fill="none" fill-rule="evenodd">
        <path d="M0 0h24v24H0z"/>
        <path fill="#333" fill-opacity=".7" fill-rule="nonzero" d="M12 2C6.48 2 2 6.48 2 12s4.48 10 10 10 10-4.48 10-10S17.52 2 12 2zm0 18c-4.41 0-8-3.59-8-8s3.59-8 8-8 8 3.59 8 8-3.59 8-8 8z"/>
        <path fill="#333" fill-opacity=".7" d="M16.041 10.92h-3.163V7.955c0-.53-.337-.956-.866-.956-.53 0-.864.426-.864.956v2.963h-3.19c-.53 0-.958.336-.958.865 0 .53.427.864.958.864h3.19v3.393c0 .53.337.959.864.959.532 0 .866-.429.866-.959v-3.393h3.163c.53 0 .959-.333.959-.864 0-.53-.429-.865-.959-.865"/>
    </g>
</svg>
