<?xml version="1.0" encoding="UTF-8"?>
<svg xmlns="http://www.w3.org/2000/svg" xmlns:xlink="http://www.w3.org/1999/xlink" width="15px" height="11px" viewBox="0 0 14 11" version="1.1">
<g id="surface1">
<path style=" stroke:none;fill-rule:evenodd;fill:rgb(74.117647%,23.921569%,26.666667%);fill-opacity:1;" d="M 0 0 L 19.949219 0 L 19.949219 0.847656 L 0 0.847656 Z M 0 1.691406 L 19.949219 1.691406 L 19.949219 2.539062 L 0 2.539062 Z M 0 3.382812 L 19.949219 3.382812 L 19.949219 4.234375 L 0 4.234375 Z M 0 5.078125 L 19.949219 5.078125 L 19.949219 5.921875 L 0 5.921875 Z M 0 6.769531 L 19.949219 6.769531 L 19.949219 7.617188 L 0 7.617188 Z M 0 8.460938 L 19.949219 8.460938 L 19.949219 9.308594 L 0 9.308594 Z M 0 10.152344 L 19.949219 10.152344 L 19.949219 11 L 0 11 Z M 0 10.152344 "/>
<path style=" stroke:none;fill-rule:evenodd;fill:rgb(100%,100%,100%);fill-opacity:1;" d="M 0 0.847656 L 19.949219 0.847656 L 19.949219 1.691406 L 0 1.691406 Z M 0 2.539062 L 19.949219 2.539062 L 19.949219 3.382812 L 0 3.382812 Z M 0 4.230469 L 19.949219 4.230469 L 19.949219 5.078125 L 0 5.078125 Z M 0 5.921875 L 19.949219 5.921875 L 19.949219 6.769531 L 0 6.769531 Z M 0 7.617188 L 19.949219 7.617188 L 19.949219 8.460938 L 0 8.460938 Z M 0 9.308594 L 19.949219 9.308594 L 19.949219 10.152344 L 0 10.152344 Z M 0 9.308594 "/>
<path style=" stroke:none;fill-rule:evenodd;fill:rgb(9.803922%,18.431373%,36.470588%);fill-opacity:1;" d="M 0 0 L 7.980469 0 L 7.980469 5.921875 L 0 5.921875 Z M 0 0 "/>
<path style=" stroke:none;fill-rule:evenodd;fill:rgb(100%,100%,100%);fill-opacity:1;" d="M 0.664062 0.253906 L 0.738281 0.488281 L 0.972656 0.488281 L 0.785156 0.632812 L 0.855469 0.867188 L 0.664062 0.722656 L 0.476562 0.867188 L 0.546875 0.632812 L 0.355469 0.488281 L 0.59375 0.488281 Z M 1.996094 0.253906 L 2.066406 0.488281 L 2.304688 0.488281 L 2.113281 0.632812 L 2.183594 0.867188 L 1.996094 0.722656 L 1.804688 0.867188 L 1.875 0.632812 L 1.6875 0.488281 L 1.921875 0.488281 Z M 3.324219 0.253906 L 3.398438 0.488281 L 3.628906 0.488281 L 3.441406 0.632812 L 3.511719 0.867188 L 3.320312 0.722656 L 3.132812 0.867188 L 3.207031 0.632812 L 3.015625 0.488281 L 3.25 0.488281 Z M 4.65625 0.253906 L 4.726562 0.488281 L 4.960938 0.488281 L 4.773438 0.632812 L 4.847656 0.867188 L 4.65625 0.722656 L 4.464844 0.867188 L 4.539062 0.632812 L 4.347656 0.488281 L 4.582031 0.488281 Z M 5.984375 0.253906 L 6.058594 0.488281 L 6.292969 0.488281 L 6.101562 0.632812 L 6.175781 0.867188 L 5.984375 0.722656 L 5.796875 0.867188 L 5.867188 0.632812 L 5.679688 0.488281 L 5.914062 0.488281 Z M 7.316406 0.253906 L 7.386719 0.488281 L 7.621094 0.488281 L 7.433594 0.632812 L 7.507812 0.867188 L 7.316406 0.722656 L 7.125 0.867188 L 7.199219 0.632812 L 7.007812 0.488281 L 7.242188 0.488281 Z M 1.332031 0.847656 L 1.402344 1.082031 L 1.636719 1.082031 L 1.449219 1.226562 L 1.515625 1.457031 L 1.332031 1.316406 L 1.140625 1.457031 L 1.210938 1.226562 L 1.023438 1.082031 L 1.257812 1.082031 Z M 2.660156 0.847656 L 2.734375 1.082031 L 2.96875 1.082031 L 2.777344 1.226562 L 2.851562 1.457031 L 2.660156 1.316406 L 2.46875 1.457031 L 2.542969 1.226562 L 2.351562 1.082031 L 2.589844 1.082031 Z M 3.992188 0.847656 L 4.0625 1.082031 L 4.296875 1.082031 L 4.109375 1.226562 L 4.179688 1.457031 L 3.992188 1.316406 L 3.800781 1.457031 L 3.871094 1.226562 L 3.683594 1.082031 L 3.917969 1.082031 Z M 5.320312 0.847656 L 5.394531 1.082031 L 5.628906 1.082031 L 5.4375 1.226562 L 5.511719 1.457031 L 5.320312 1.316406 L 5.132812 1.457031 L 5.203125 1.226562 L 5.011719 1.082031 L 5.25 1.082031 Z M 6.652344 0.847656 L 6.722656 1.082031 L 6.957031 1.082031 L 6.765625 1.226562 L 6.839844 1.457031 L 6.652344 1.316406 L 6.460938 1.457031 L 6.53125 1.226562 L 6.34375 1.082031 L 6.578125 1.082031 Z M 0.664062 1.4375 L 0.738281 1.675781 L 0.972656 1.675781 L 0.785156 1.820312 L 0.855469 2.054688 L 0.664062 1.90625 L 0.476562 2.054688 L 0.546875 1.816406 L 0.355469 1.671875 L 0.59375 1.671875 Z M 1.996094 1.4375 L 2.066406 1.671875 L 2.304688 1.671875 L 2.113281 1.816406 L 2.183594 2.050781 L 1.996094 1.90625 L 1.804688 2.050781 L 1.875 1.816406 L 1.6875 1.671875 L 1.921875 1.671875 Z M 3.324219 1.4375 L 3.398438 1.671875 L 3.628906 1.671875 L 3.441406 1.816406 L 3.511719 2.050781 L 3.320312 1.90625 L 3.132812 2.050781 L 3.207031 1.816406 L 3.015625 1.671875 L 3.25 1.671875 Z M 4.65625 1.4375 L 4.726562 1.671875 L 4.960938 1.671875 L 4.773438 1.816406 L 4.847656 2.050781 L 4.65625 1.90625 L 4.464844 2.050781 L 4.539062 1.816406 L 4.347656 1.671875 L 4.582031 1.671875 Z M 5.984375 1.4375 L 6.058594 1.671875 L 6.292969 1.671875 L 6.101562 1.816406 L 6.175781 2.050781 L 5.984375 1.90625 L 5.796875 2.050781 L 5.867188 1.816406 L 5.679688 1.671875 L 5.914062 1.671875 Z M 7.316406 1.4375 L 7.386719 1.671875 L 7.621094 1.671875 L 7.433594 1.816406 L 7.507812 2.050781 L 7.316406 1.90625 L 7.125 2.050781 L 7.199219 1.816406 L 7.007812 1.671875 L 7.242188 1.671875 Z M 1.332031 2.03125 L 1.402344 2.265625 L 1.636719 2.265625 L 1.449219 2.410156 L 1.519531 2.644531 L 1.332031 2.5 L 1.140625 2.644531 L 1.210938 2.410156 L 1.023438 2.265625 L 1.257812 2.265625 Z M 2.660156 2.03125 L 2.734375 2.265625 L 2.96875 2.265625 L 2.777344 2.410156 L 2.851562 2.644531 L 2.660156 2.5 L 2.46875 2.644531 L 2.542969 2.410156 L 2.351562 2.265625 L 2.589844 2.265625 Z M 3.992188 2.03125 L 4.0625 2.265625 L 4.296875 2.265625 L 4.109375 2.410156 L 4.179688 2.644531 L 3.992188 2.5 L 3.800781 2.644531 L 3.871094 2.410156 L 3.683594 2.265625 L 3.917969 2.265625 Z M 5.320312 2.03125 L 5.394531 2.265625 L 5.628906 2.265625 L 5.4375 2.410156 L 5.511719 2.644531 L 5.320312 2.5 L 5.132812 2.644531 L 5.203125 2.410156 L 5.011719 2.265625 L 5.25 2.265625 Z M 6.652344 2.03125 L 6.722656 2.265625 L 6.957031 2.265625 L 6.765625 2.410156 L 6.839844 2.644531 L 6.652344 2.5 L 6.460938 2.644531 L 6.53125 2.410156 L 6.34375 2.265625 L 6.578125 2.265625 Z M 0.664062 2.625 L 0.738281 2.859375 L 0.972656 2.859375 L 0.785156 3 L 0.855469 3.238281 L 0.664062 3.089844 L 0.476562 3.234375 L 0.546875 3 L 0.355469 2.855469 L 0.59375 2.855469 Z M 1.996094 2.625 L 2.066406 2.859375 L 2.304688 2.859375 L 2.113281 3 L 2.183594 3.234375 L 1.996094 3.089844 L 1.804688 3.234375 L 1.875 3 L 1.6875 2.859375 L 1.921875 2.859375 Z M 3.324219 2.625 L 3.398438 2.859375 L 3.628906 2.859375 L 3.441406 3 L 3.511719 3.238281 L 3.320312 3.089844 L 3.132812 3.234375 L 3.207031 3 L 3.015625 2.855469 L 3.25 2.855469 Z M 4.65625 2.625 L 4.726562 2.859375 L 4.960938 2.859375 L 4.773438 3 L 4.847656 3.238281 L 4.65625 3.089844 L 4.464844 3.234375 L 4.539062 3 L 4.347656 2.855469 L 4.582031 2.855469 Z M 5.984375 2.625 L 6.058594 2.859375 L 6.292969 2.859375 L 6.101562 3 L 6.175781 3.238281 L 5.984375 3.089844 L 5.796875 3.234375 L 5.867188 3 L 5.679688 2.855469 L 5.914062 2.855469 Z M 7.316406 2.625 L 7.386719 2.859375 L 7.621094 2.859375 L 7.433594 3 L 7.507812 3.238281 L 7.316406 3.089844 L 7.125 3.234375 L 7.199219 3 L 7.007812 2.855469 L 7.242188 2.855469 Z M 1.332031 3.214844 L 1.402344 3.449219 L 1.636719 3.449219 L 1.449219 3.59375 L 1.519531 3.828125 L 1.332031 3.683594 L 1.140625 3.828125 L 1.210938 3.59375 L 1.023438 3.449219 L 1.257812 3.449219 Z M 2.660156 3.214844 L 2.734375 3.449219 L 2.96875 3.449219 L 2.777344 3.59375 L 2.851562 3.828125 L 2.660156 3.683594 L 2.46875 3.828125 L 2.542969 3.59375 L 2.351562 3.449219 L 2.589844 3.449219 Z M 3.992188 3.214844 L 4.0625 3.449219 L 4.296875 3.449219 L 4.109375 3.59375 L 4.179688 3.828125 L 3.992188 3.683594 L 3.800781 3.828125 L 3.871094 3.59375 L 3.683594 3.449219 L 3.917969 3.449219 Z M 5.320312 3.214844 L 5.394531 3.449219 L 5.628906 3.449219 L 5.4375 3.59375 L 5.511719 3.828125 L 5.320312 3.683594 L 5.132812 3.828125 L 5.203125 3.59375 L 5.011719 3.449219 L 5.25 3.449219 Z M 6.652344 3.214844 L 6.722656 3.449219 L 6.957031 3.449219 L 6.765625 3.59375 L 6.839844 3.828125 L 6.652344 3.683594 L 6.460938 3.828125 L 6.53125 3.59375 L 6.34375 3.449219 L 6.578125 3.449219 Z M 0.664062 3.808594 L 0.738281 4.042969 L 0.972656 4.042969 L 0.785156 4.1875 L 0.855469 4.417969 L 0.664062 4.273438 L 0.476562 4.417969 L 0.546875 4.183594 L 0.355469 4.042969 L 0.59375 4.042969 Z M 1.996094 3.808594 L 2.066406 4.042969 L 2.304688 4.042969 L 2.113281 4.1875 L 2.1875 4.417969 L 1.996094 4.273438 L 1.804688 4.417969 L 1.878906 4.183594 L 1.6875 4.042969 L 1.921875 4.042969 Z M 3.324219 3.808594 L 3.398438 4.042969 L 3.628906 4.042969 L 3.441406 4.1875 L 3.511719 4.417969 L 3.320312 4.273438 L 3.132812 4.417969 L 3.207031 4.183594 L 3.015625 4.042969 L 3.25 4.042969 Z M 4.65625 3.808594 L 4.726562 4.042969 L 4.960938 4.042969 L 4.773438 4.1875 L 4.847656 4.417969 L 4.65625 4.273438 L 4.464844 4.417969 L 4.539062 4.183594 L 4.347656 4.042969 L 4.582031 4.042969 Z M 5.984375 3.808594 L 6.058594 4.042969 L 6.292969 4.042969 L 6.101562 4.1875 L 6.175781 4.417969 L 5.984375 4.273438 L 5.796875 4.417969 L 5.867188 4.183594 L 5.679688 4.042969 L 5.914062 4.042969 Z M 7.316406 3.808594 L 7.386719 4.042969 L 7.621094 4.042969 L 7.433594 4.1875 L 7.507812 4.417969 L 7.316406 4.273438 L 7.125 4.417969 L 7.199219 4.183594 L 7.007812 4.042969 L 7.242188 4.042969 Z M 1.332031 4.398438 L 1.402344 4.632812 L 1.636719 4.632812 L 1.449219 4.777344 L 1.519531 5.015625 L 1.332031 4.867188 L 1.140625 5.011719 L 1.210938 4.777344 L 1.023438 4.632812 L 1.257812 4.632812 Z M 2.660156 4.398438 L 2.734375 4.632812 L 2.96875 4.632812 L 2.777344 4.777344 L 2.851562 5.015625 L 2.660156 4.867188 L 2.46875 5.011719 L 2.542969 4.777344 L 2.351562 4.632812 L 2.589844 4.632812 Z M 3.992188 4.398438 L 4.0625 4.632812 L 4.296875 4.632812 L 4.109375 4.777344 L 4.179688 5.015625 L 3.992188 4.867188 L 3.800781 5.011719 L 3.871094 4.777344 L 3.683594 4.632812 L 3.917969 4.632812 Z M 5.320312 4.398438 L 5.394531 4.632812 L 5.628906 4.632812 L 5.4375 4.777344 L 5.511719 5.015625 L 5.320312 4.867188 L 5.132812 5.011719 L 5.203125 4.777344 L 5.011719 4.632812 L 5.25 4.632812 Z M 6.652344 4.398438 L 6.722656 4.632812 L 6.957031 4.632812 L 6.765625 4.777344 L 6.839844 5.015625 L 6.652344 4.867188 L 6.460938 5.011719 L 6.53125 4.777344 L 6.34375 4.632812 L 6.578125 4.632812 Z M 0.664062 4.992188 L 0.738281 5.226562 L 0.972656 5.226562 L 0.785156 5.371094 L 0.855469 5.605469 L 0.664062 5.460938 L 0.476562 5.605469 L 0.546875 5.367188 L 0.355469 5.226562 L 0.59375 5.226562 Z M 1.996094 4.992188 L 2.066406 5.226562 L 2.304688 5.226562 L 2.113281 5.371094 L 2.1875 5.605469 L 1.996094 5.460938 L 1.804688 5.605469 L 1.878906 5.367188 L 1.6875 5.226562 L 1.921875 5.226562 Z M 3.324219 4.992188 L 3.398438 5.226562 L 3.628906 5.226562 L 3.445312 5.371094 L 3.515625 5.605469 L 3.328125 5.460938 L 3.136719 5.605469 L 3.210938 5.367188 L 3.019531 5.226562 L 3.253906 5.226562 Z M 4.65625 4.992188 L 4.726562 5.226562 L 4.960938 5.226562 L 4.773438 5.371094 L 4.847656 5.605469 L 4.65625 5.460938 L 4.464844 5.605469 L 4.539062 5.367188 L 4.347656 5.226562 L 4.582031 5.226562 Z M 5.984375 4.992188 L 6.058594 5.226562 L 6.292969 5.226562 L 6.101562 5.371094 L 6.175781 5.605469 L 5.984375 5.460938 L 5.796875 5.605469 L 5.867188 5.367188 L 5.679688 5.226562 L 5.914062 5.226562 Z M 7.316406 4.992188 L 7.386719 5.226562 L 7.621094 5.226562 L 7.433594 5.371094 L 7.507812 5.605469 L 7.316406 5.460938 L 7.125 5.605469 L 7.199219 5.367188 L 7.007812 5.226562 L 7.242188 5.226562 Z M 7.316406 4.992188 "/>
</g>
</svg>
