<svg xmlns="http://www.w3.org/2000/svg" width="18" height="18" viewBox="0 0 18 18">
    <g fill="none" fill-rule="evenodd">
        <path d="M-3-3h24v24H-3z"/>
        <path fill="#FFFFFF" fill-opacity=".55" fill-rule="nonzero" d="M16 0H1.99C.88 0 .01.89.01 2L0 16c0 1.1.88 2 1.99 2H16c1.1 0 2-.9 2-2V2a2 2 0 0 0-2-2zm-.5 14.5H12c0 1.66-1.35 2-3 2s-3-.34-3-2H2.5a1 1 0 0 1-1-1v-11a1 1 0 0 1 1-1h13a1 1 0 0 1 1 1v11a1 1 0 0 1-1 1z"/>
        <g>
            <path d="M3 2h12v12H3z"/>
            <path fill="#FFFFFF" fill-opacity=".55" fill-rule="nonzero" d="M9 12.675l-.725-.66C5.7 9.68 4 8.14 4 6.25 4 4.71 5.21 3.5 6.75 3.5c.87 0 1.705.405 2.25 1.045A2.994 2.994 0 0 1 11.25 3.5C12.79 3.5 14 4.71 14 6.25c0 1.89-1.7 3.43-4.275 5.77L9 12.675z"/>
        </g>
    </g>
</svg>
