<?xml version="1.0" encoding="utf-8"?>
<!-- Generator: Adobe Illustrator 21.1.0, SVG Export Plug-In . SVG Version: 6.00 Build 0)  -->
<svg version="1.1" id="Layer_1" xmlns="http://www.w3.org/2000/svg" xmlns:xlink="http://www.w3.org/1999/xlink" x="0px" y="0px"
	 viewBox="0 0 118 60" style="enable-background:new 0 0 118 60;" xml:space="preserve">
<style type="text/css">
	.st0{fill:none;stroke:#000000;stroke-width:1.5;stroke-miterlimit:10;}
	.st1{fill:none;stroke:#000000;stroke-width:1.5;stroke-linejoin:round;stroke-miterlimit:10;}
	.st2{fill:none;stroke:#000000;stroke-miterlimit:10;}
</style>
<g>
	<ellipse transform="matrix(1 -4.177958e-03 4.177958e-03 1 -0.1667 0.1398)" class="st0" cx="33.4" cy="40" rx="6.7" ry="6.7"/>
	<ellipse transform="matrix(1 -4.177958e-03 4.177958e-03 1 -0.1655 0.3373)" class="st0" cx="80.6" cy="39.8" rx="6.7" ry="6.7"/>
	<path class="st1" d="M87.5,39.7c1.4,0,2.2-0.1,3.5-0.7s2.5-4.9,2.2-8.3c0.2,0.1,0.4,0.2,0.7,0.3c0.2,0.1,0.4,0.1,0.7,0.2
		c0.2,0,0.4,0,0.7,0c1.7-0.2,2.9-1.5,2.8-3.1l-0.8-8.8c-0.2-1.5-1.6-2.6-3.3-2.5l0,0c-0.9,0.1-1.7,0.6-2.2,1.2
		c-0.2,0.3-0.4,0.6-0.5,0.9c-0.2,0.4-0.2,0.7-0.2,1l0.3,3.5C91,23.1,90.8,23,90.8,23c0-4.8-1.7-8.1-1.7-8.1l1.3-0.9l-0.9-0.7
		l-20,0.1c-9.1,0-19.7,2.1-21,3.5c-1.3,1.4-7.6,7.4-7.6,7.4L24.6,27c0,0-2.1,4.6-3.2,4.9c-0.9,0.2-1,1.1-1,1.1c-2.3,5.5,4,8.1,4,8.1
		l2.4,0.3"/>
	<path class="st0" d="M40.3,41.4c9.6-0.1,24.4-0.5,33.9-0.8"/>
	<path class="st2" d="M46,24.2l4.3-4.8c0,0,6.1-3.2,19.5-2.9l0,6.3l-20.6,1.8L46.4,25C46,25,45.7,24.5,46,24.2z"/>
	<path class="st2" d="M87,21.8l-14.7,0.9l0-6c3.4-0.1,9.7-0.2,13.4,0.7c0.4,0.1,0.7,0.4,0.8,0.8c0.1,0.4,0.2,0.9,0.3,1.6L87,21.8z"
		/>
	<g>
		<rect x="45.8" y="28.1" transform="matrix(1 -4.177958e-03 4.177958e-03 1 -0.1259 0.1935)" width="0.8" height="4.3"/>
	</g>
	<g>
		<rect x="68.9" y="25.7" transform="matrix(1 -4.177958e-03 4.177958e-03 1 -0.1261 0.29)" width="0.8" height="9.2"/>
	</g>
</g>
</svg>
