<?xml version="1.0" encoding="utf-8"?>
<!-- Generator: Adobe Illustrator 21.1.0, SVG Export Plug-In . SVG Version: 6.00 Build 0)  -->
<svg version="1.1" id="Layer_1" xmlns="http://www.w3.org/2000/svg" xmlns:xlink="http://www.w3.org/1999/xlink" x="0px" y="0px"
	 viewBox="0 0 118 60" style="enable-background:new 0 0 118 60;" xml:space="preserve">
<style type="text/css">
	.st0{fill:none;stroke:#000000;stroke-width:1.5;stroke-miterlimit:10;}
	.st1{fill:none;stroke:#000000;stroke-linecap:round;stroke-linejoin:round;stroke-miterlimit:10;}
</style>
<g>
	<path class="st0" d="M33.2,42.3l45.2-0.8 M91.7,41.4l7.3,0c0.3-0.1,0.6-0.3,0.7-0.6l0.4-0.9l5-0.8c0.5-0.1,0.9-0.5,0.9-1l0-4.8
		c0-0.5-0.4-1-0.9-1l-0.6-0.1c-0.4-3.2-0.2-5.6-0.6-7.6c-1-4.1-2.7-6.1-5.2-9.1l0.9,0c0.4,0,0.8-0.3,0.8-0.8l0-0.8
		c0-0.4-0.3-0.8-0.8-0.8l-48.1,0.2c-0.8,0-1.6,0.2-2.3,0.6l-16.4,9.8c0,0-15.4,0.8-18,3.3c-1.3,1.3-1.4,3.8-1.9,6.7
		c-0.4,2.9-1.3,6-0.7,6.6c0.6,0.7,1.6,1,1.6,1l0.4,0.8c0.3,0.5,0.8,0.8,1.3,0.8l2.6-0.1l2,0"/>
	<g>
		<path class="st1" d="M57.3,23.6c0,0.2-0.1,0.4-0.2,0.5c-0.1,0.1-0.3,0.2-0.5,0.2l-13,0.1l-0.4,0l0-4.1l6.6-4
			c0.4-0.3,0.9-0.4,1.4-0.4l5.6,0c0.2,0,0.4,0.1,0.5,0.2c0.1,0.1,0.2,0.3,0.2,0.5L57.3,23.6z"/>
		<path class="st1" d="M74.5,23.4c-0.4,0.5-1.1,0.8-1.8,0.9l-11.4,0.2c-0.2,0-0.4-0.1-0.5-0.2c-0.1-0.1-0.2-0.3-0.2-0.5l0-7.5
			c0-0.4,0.3-0.7,0.7-0.7l11.6,0c0.4,0,0.7,0.3,0.7,0.6l1.5,5.3C75.1,22.2,75,22.9,74.5,23.4z"/>
		<path class="st1" d="M99.4,23.3c-0.1,0.1-0.2,0.2-0.3,0.2l-18.2,0.3c-0.9,0-1.8-0.5-2.3-1.2l-2.2-6c-0.1-0.2-0.1-0.5,0.1-0.6
			c0.1-0.2,0.3-0.3,0.6-0.3l17.4-0.1c0.3,0,0.6,0.2,0.7,0.5c0,0,1.2,1,2.1,2.5c0.8,1.2,2.1,4.5,2.1,4.5
			C99.5,23.1,99.5,23.2,99.4,23.3z"/>
	</g>
	<g>
		<rect x="56.4" y="27.1" transform="matrix(1 -4.177958e-03 4.177958e-03 1 -0.1285 0.2374)" width="0.8" height="7.6"/>
	</g>
	<g>
		<rect x="74.7" y="26.6" transform="matrix(1 -4.177958e-03 4.177958e-03 1 -0.1264 0.3141)" width="0.8" height="7.6"/>
	</g>
	<ellipse transform="matrix(1 -4.177958e-03 4.177958e-03 1 -0.1677 0.1106)" class="st0" cx="26.4" cy="40.2" rx="6.7" ry="6.7"/>
	<ellipse transform="matrix(1 -4.177958e-03 4.177958e-03 1 -0.1662 0.3558)" class="st0" cx="85.1" cy="40" rx="6.7" ry="6.7"/>
</g>
</svg>
