<?xml version="1.0" encoding="utf-8"?>
<!-- Generator: Adobe Illustrator 21.1.0, SVG Export Plug-In . SVG Version: 6.00 Build 0)  -->
<svg version="1.1" id="Layer_1" xmlns="http://www.w3.org/2000/svg" xmlns:xlink="http://www.w3.org/1999/xlink" x="0px" y="0px"
	 viewBox="0 0 118 60" style="enable-background:new 0 0 118 60;" xml:space="preserve">
<style type="text/css">
	.st0{fill:none;stroke:#000000;stroke-width:1.5;stroke-miterlimit:10;}
	.st1{fill:none;stroke:#000000;stroke-width:1.5;stroke-linecap:round;stroke-miterlimit:10;}
	.st2{fill:none;stroke:#000000;stroke-linecap:round;stroke-linejoin:round;stroke-miterlimit:10;}
</style>
<g>
	<circle class="st0" cx="33.4" cy="36.4" r="6.7"/>
	<circle class="st0" cx="84.5" cy="36.4" r="6.7"/>
	<path class="st1" d="M84.4,29.7c3.7,0,6.8,3,6.8,6.7c0,0.2,0,0.5,0,0.7c3.1-0.1,5-0.1,5-0.1l0.5-5.7l0-0.1
		c-0.1-1.3-0.3-2.6-0.7-3.9c-0.2-0.7-0.8-2-1.2-2.9c-0.3-0.6-0.8-0.9-1.4-1l-5.9-0.4c-1.8-1.2-3.8-2.3-5.8-3.2
		c-2-0.9-4.5-1.7-6.2-2.2c-1.4-0.4-8.5-1-12.6-0.8c-3.8,0.1-6.8,0.6-9,1.3c-1.9,0.6-3.3,1.4-5.6,2.6c-2.1,1.1-4.2,2.3-6.1,3.5
		c-2.6,0.2-5.3,0.4-8,0.7c-1.7,0.2-5.2,0.5-8.5,1.9c-0.9,0.4-2,0.9-2.9,2c-0.8,0.9-1.3,2-1.5,3.2l0,5.8l0.8,0.1
		c1.1,0.1,2.4,0.2,3.6,0.3c0.1,0,0.6,0,1.4,0c-0.3-1-0.4-2.2-0.1-3.4c0.6-2.6,2.7-4.7,5.3-5.1c4.2-0.7,7.9,2.5,7.9,6.6
		c0,0.6-0.1,1.2-0.2,1.7c11-0.2,26.2-0.5,38-0.7"/>
	<g>
		<rect x="60.8" y="27.5" width="0.8" height="7.1"/>
	</g>
	<path class="st2" d="M62.5,19.6l-0.9,3.7c-0.2,0.8-0.9,1.4-1.8,1.5l-14.2,0.6c0,0,3.9-2.5,7.4-4.2C56.2,19.6,62.5,19.6,62.5,19.6z"
		/>
	<path class="st2" d="M65.4,19.6l-0.9,5L82,24.7c0.5,0,0.6-0.6,0.2-0.9c-1.4-0.9-3.8-2.3-6-3.3C73.1,18.9,65.4,19.6,65.4,19.6z"/>
</g>
</svg>
