<?xml version="1.0" encoding="utf-8"?>
<!-- Generator: Adobe Illustrator 21.1.0, SVG Export Plug-In . SVG Version: 6.00 Build 0)  -->
<svg version="1.1" id="Layer_1" xmlns="http://www.w3.org/2000/svg" xmlns:xlink="http://www.w3.org/1999/xlink" x="0px" y="0px"
	 viewBox="0 0 118 60" style="enable-background:new 0 0 118 60;" xml:space="preserve">
<style type="text/css">
	.st0{fill:none;stroke:#000000;stroke-width:1.5;stroke-miterlimit:10;}
	.st1{fill:none;stroke:#000000;stroke-miterlimit:10;}
</style>
<g>
	<ellipse transform="matrix(1 -4.177958e-03 4.177958e-03 1 -0.161 0.1297)" class="st0" cx="31" cy="38.6" rx="6.7" ry="6.7"/>
	<ellipse transform="matrix(1 -4.177958e-03 4.177958e-03 1 -0.1596 0.3457)" class="st0" cx="82.7" cy="38.4" rx="6.7" ry="6.7"/>
	<g>
		<rect x="60" y="25.8" transform="matrix(1 -4.177958e-03 4.177958e-03 1 -0.1255 0.2525)" width="0.8" height="8.8"/>
	</g>
	<path class="st1" d="M45.4,19.1c0.8-1,3.6-2.4,14.3-2l0.3,5.8L43.4,23c-0.6,0-1-0.8-0.5-1.2C43.8,20.9,44.9,19.7,45.4,19.1z"/>
	<path class="st1" d="M62.6,17.5c0-0.2,0.2-0.4,0.5-0.4l5,0.3c0.9,0,1.6,0.5,1.6,1.2l0.7,4.4l-7.7,0L62.6,17.5z"/>
	<path class="st0" d="M100.3,31.9l-0.3,0c0,0-0.1-4.7-0.1-7.4c0-1.1-0.9-1.9-2-1.9l-24.5,0.1l-0.9-5.8c-0.1-0.7-0.7-1.2-1.4-1.3
		c-3-0.4-11.5-1.3-20.9-0.3c-11.7,1.3-7.8,6.4-17,7.8c-9.2,1.4-15,2.5-15.1,4.1c-0.1,1.6-2,3.7-2,3.7s-0.2,6.2,1.5,6.8
		c0.9,0.3,4.8,1.2,4.8,1.2l1.7,0.1c0-0.1,0-0.2,0-0.3c0-3.7,3-6.7,6.7-6.7c3.7,0,6.7,3,6.7,6.7c0,0.3,0,0.6-0.1,0.9l0.5,0l37-0.2
		c0,0,0.4,0,1,0c0-0.3-0.1-0.6-0.1-0.9c0-3.7,3-6.7,6.7-6.7c3.7,0,6.7,3,6.7,6.7c0,0.3,0,0.7-0.1,1c3.9,0,6.8,0,9.6-0.1
		c0.6,0,1.1-0.1,1.5-0.2c0.8-0.2,1.4-0.9,1.4-1.8l0-4C101.7,32.5,101.1,31.9,100.3,31.9z"/>
</g>
</svg>
