<svg xmlns="http://www.w3.org/2000/svg" width="182" height="40" viewBox="0 0 182 40">
    <g fill="none" fill-rule="nonzero">
        <path fill="#1226B4" d="M38.93 21.535c0-6.186-2.837-11.395-8.744-14.558-1.21-.651-2.512-1.163-3.767-1.582-.838-.279-1.628-.511-2.512-.79-.233-.047-.837-.14-.977-.372-.418-.559 2.372-1.86 2.79-2.047.42-.186.885-.326 1.21-.651.28-.326.233-.558-.232-.558-1.07 0-2.186.372-3.163.79-1.023.466-1.954 1.024-2.93 1.582-.14.046-.605.418-.745.372v-.093c.093-.419.838-2.233.93-2.512.047-.14.373-.837-.046-.837-.186 0-.325.233-.418.372-.373.465-.698.93-1.117 1.349-.837.744-2.14 1.628-2.65 1.907-.233.14-3.07 1.116-3.861 1.395-1.303.419-2.558.93-3.768 1.582C3.023 10.047.186 15.256.186 21.442c0 .046.047.744.047 1.07.465 10.883 8.325 16.697 18.325 17.07.047 0 .977.046.977.046s.837-.047.977-.047c9.162-.325 16.511-5.209 18.093-14.418v-.047a27.48 27.48 0 0 0 .232-2.046c.047-.372.093-1.535.093-1.535"/>
        <path fill="#FFF" d="M13.488 31.349c0-.186-.046-.419 0-.605.14-2.14 2.465-3.535 2.326-7.256-.093-2.604-1.628-4.372-3.954-4.697-1.255-.186-2.976.046-4.14.697-4.743 2.652-3.953 9.907-.325 13.163 2 1.814 4.605 2.837 7.256 3.302 1.396.28 2.605.047 1.256-.883-1.349-.884-2.28-2.186-2.419-3.721M25.628 31.349v-.605c-.14-2.14-2.465-3.535-2.326-7.256.093-2.604 1.628-4.372 3.954-4.697 1.256-.186 2.977.046 4.14.697 4.744 2.652 3.953 9.907.325 13.163-2 1.814-4.605 2.837-7.256 3.302-1.395.28-2.605.047-1.256-.883 1.303-.884 2.28-2.186 2.419-3.721"/>
        <path fill="#1EFFBC" d="M22.419 30.977c.232 0 .279-.093.093-.233-.28-.186-.559-.372-.791-.558a16.08 16.08 0 0 1-1.442-1.023c-.093-.093-.232-.14-.326-.233-.232-.186-.372-.232-.65-.093-.233.14-.466.326-.698.465-.512.372-1.07.745-1.582 1.163-.14.093-.232.186-.372.28-.186.139-.14.232.093.232h5.675zM17.442 31.953c-.233 0-.28.094-.093.233.558.419 1.07.79 1.628 1.163.186.14.465.418.744.232.186-.093.372-.232.512-.372.372-.279.79-.558 1.209-.837.093-.046.186-.14.279-.186.186-.14.14-.233-.093-.233h-4.186z"/>
        <path fill="#1226B4" d="M61.535 19.581c-.047-.046-.047-.046 0 0-.651-3.488-3.256-6.14-7.675-6.14-4.976 0-8.65 3.35-8.65 8.326 0 5.024 3.627 8.326 8.65 8.326 4.42 0 7.07-2.651 7.675-6.14.046-.232 0-.697-.698-.79l-3.256-.233c-.279 0-.65-.046-.837.605-.465 1.488-1.395 2.232-2.837 2.232-1.721 0-2.93-1.162-2.93-4 0-2.837 1.209-4 2.93-4 1.442 0 2.372.698 2.837 2.186V20c0 .047 0 .093.047.093.093.233.186.512.79.465l3.303-.232c.325-.047.697-.14.65-.745M80 26.14c-.14 0-.28.046-.465.046-.605 0-.977-.372-.977-1.163v-5.395c0-4.372-3.07-6.186-7.256-6.186-4.372 0-6.883 2.046-7.674 5.07 0 .279-.093.65.558.837l3.86.279c.28 0 .652 0 .884-.558.326-.837.93-1.35 1.954-1.35 1.395 0 2 .792 2 2.094v.233l-4.419.744c-3.442.604-5.628 1.907-5.628 4.976 0 2.698 2 4.28 5.116 4.28 2.512 0 4.326-.977 5.256-2.791.512 1.814 2.047 2.79 4 2.79 1.396 0 2.465-.325 3.256-.79.186-.14.326-.326.326-.837v-1.582c0-.186-.093-.744-.791-.697zm-7.023-3.07c0 2.046-1.303 3.256-2.93 3.256-.977 0-1.582-.512-1.582-1.35 0-1.023.79-1.441 2.186-1.72l2.326-.419v.233zM94.698 14.558v-.14c0-.232-.047-.511-.605-.744a5.068 5.068 0 0 0-1.581-.279c-2.093 0-3.768 1.442-4.326 3.21v-2.326a.466.466 0 0 0-.465-.465h-4.698a.466.466 0 0 0-.465.465v14.837c0 .28.233.465.465.465h4.744c.28 0 .466-.232.466-.465v-6.744c0-2.651 1.302-3.628 3.441-3.628.652 0 1.21.093 1.721.233h.093c.372.093.884.093.977-.698l.233-3.72M123.116 29.256V19.72c0-3.302-1.256-6.326-5.628-6.326-2.65 0-4.558 1.35-5.395 3.117-.651-1.86-2.14-3.117-4.93-3.117-2.372 0-4.093 1.07-4.93 2.791v-1.907a.466.466 0 0 0-.466-.465h-4.79a.466.466 0 0 0-.465.465v14.837c0 .28.232.465.465.465h4.744c.279 0 .465-.232.465-.465V21.86c0-2.372.651-3.953 2.558-3.953 1.721 0 2.14 1.116 2.14 3.302v7.907c0 .28.232.465.465.465h4.791c.279 0 .465-.232.465-.465V21.86c0-2.372.65-3.953 2.558-3.953 1.72 0 2.14 1.116 2.14 3.302v7.907c0 .28.232.465.511.465H122.605a.44.44 0 0 0 .511-.325M142.186 26.14c-.14 0-.279.046-.465.046-.605 0-.977-.372-.977-1.163v-5.395c0-4.372-3.07-6.186-7.256-6.186-4.372 0-6.883 2.046-7.674 5.07 0 .279-.093.65.558.837l3.86.279c.28 0 .652 0 .884-.558.326-.837.93-1.35 1.954-1.35 1.395 0 2 .792 2 2.094v.233l-4.419.744c-3.442.604-5.628 1.907-5.628 4.976 0 2.698 2 4.28 5.117 4.28 2.511 0 4.325-.977 5.255-2.791.512 1.814 2.047 2.79 4 2.79 1.396 0 2.465-.325 3.21-.79.186-.14.325-.326.325-.837v-1.582c.093-.186 0-.744-.744-.697zm-7.023-3.07c0 2.046-1.303 3.256-2.93 3.256-.977 0-1.582-.512-1.582-1.35 0-1.023.837-1.441 2.186-1.72l2.326-.419v.233zM161.256 29.163V19.72c0-3.302-1.396-6.326-5.721-6.326-2.372 0-4.233 1.07-5.116 2.791v-1.907a.466.466 0 0 0-.466-.465h-4.79a.466.466 0 0 0-.465.465v14.837c0 .28.232.465.465.465h4.744c.279 0 .465-.232.465-.465V21.86c0-2.372.79-3.953 2.744-3.953 1.721 0 2.326 1.116 2.326 3.302v7.907c0 .28.232.465.465.465H160.698c.325.047.558-.14.558-.418M180.326 26.14c-.14 0-.28.046-.466.046-.604 0-.976-.372-.976-1.163v-5.395c0-4.372-3.07-6.186-7.256-6.186-4.372 0-6.884 2.046-7.675 5.07 0 .279-.093.65.559.837l3.907.279c.279 0 .65 0 .883-.558.326-.837.93-1.35 1.954-1.35 1.395 0 2 .792 2 2.094v.233l-4.419.744c-3.442.604-5.628 1.907-5.628 4.976 0 2.698 2 4.28 5.117 4.28 2.511 0 4.325-.977 5.255-2.791.512 1.814 2.047 2.79 4 2.79 1.396 0 2.466-.325 3.21-.79.186-.14.325-.326.325-.837v-1.582c.047-.186-.046-.744-.79-.697zm-7.024-3.07c0 2.046-1.302 3.256-2.93 3.256-.977 0-1.581-.512-1.581-1.35 0-1.023.79-1.441 2.186-1.72l2.325-.419v.233z"/>
        <path fill="#1EFFBC" d="M22.419 30.977c.232 0 .279-.093.093-.233-.28-.186-.559-.372-.791-.558a16.08 16.08 0 0 1-1.442-1.023c-.093-.093-.232-.14-.326-.233-.232-.186-.372-.232-.65-.093-.233.14-.466.326-.698.465-.512.372-1.07.745-1.582 1.163-.14.093-.232.186-.372.28-.186.139-.14.232.093.232h5.675z"/>
        <path fill="#FFF" d="M13.488 31.349c0-.186-.046-.419 0-.605.14-2.14 2.465-3.535 2.326-7.256-.093-2.604-1.628-4.372-3.954-4.697-1.255-.186-2.976.046-4.14.697-4.743 2.652-3.953 9.907-.325 13.163 2 1.814 4.605 2.837 7.256 3.302 1.396.28 2.605.047 1.256-.883-1.349-.884-2.28-2.186-2.419-3.721M25.628 31.349v-.605c-.14-2.14-2.465-3.535-2.326-7.256.093-2.604 1.628-4.372 3.954-4.697 1.256-.186 2.977.046 4.14.697 4.744 2.652 3.953 9.907.325 13.163-2 1.814-4.605 2.837-7.256 3.302-1.395.28-2.605.047-1.256-.883 1.303-.884 2.28-2.186 2.419-3.721"/>
        <path fill="#6BDAD5" d="M22.419 30.977c.232 0 .279-.093.093-.233-.28-.186-.559-.372-.791-.558a16.08 16.08 0 0 1-1.442-1.023c-.093-.093-.232-.14-.326-.233-.232-.186-.372-.232-.65-.093-.233.14-.466.326-.698.465-.512.372-1.07.745-1.582 1.163-.14.093-.232.186-.372.28-.186.139-.14.232.093.232h5.675zM17.442 31.953c-.233 0-.28.094-.093.233.558.419 1.07.79 1.628 1.163.186.14.465.418.744.232.186-.093.372-.232.512-.372.372-.279.79-.558 1.209-.837.093-.046.186-.14.279-.186.186-.14.14-.233-.093-.233h-4.186z"/>
        <path fill="#1226B4" d="M12.326 24.837c0 1.116-.884 2-2 2-1.117 0-2-.884-2-2s.883-2 2-2c1.116 0 2 .93 2 2M30.744 24.837c0 1.116-.884 2-2 2s-2-.884-2-2 .884-2 2-2 2 .93 2 2"/>
    </g>
</svg>
