<svg xmlns="http://www.w3.org/2000/svg" width="24" height="24" viewBox="0 0 24 24">
    <g fill="none" fill-rule="evenodd">
        <path d="M0 0h24v24H0z"/>
        <path d="M4 14.777v5.568h15.713v-5.568z"/>
        <g fill="#FFFFFF" fill-opacity=".7" fill-rule="nonzero">
            <path d="M11.667 12C14.06 12 16 9.761 16 7s-.637-5-4.333-5C7.97 2 7.333 4.239 7.333 7s1.94 5 4.334 5zM20.991 19.671c-.078-4.78-1.725-6.142-6.672-7.004 0 0-.696.857-2.319.857s-2.32-.857-2.32-.857c-4.892.852-6.578 2.194-6.668 6.849-.007.38-.01.4-.012.356v.502s2.178 2.293 9 2.293 9-2.293 9-2.293v-.372c-.001.028-.004-.025-.009-.331z"/>
        </g>
    </g>
</svg>
