<?xml version="1.0" encoding="UTF-8"?>
<svg width="24px" height="24px" viewBox="0 0 24 24" version="1.1" xmlns="http://www.w3.org/2000/svg" xmlns:xlink="http://www.w3.org/1999/xlink">
    <!-- Generator: Sketch 49.2 (51160) - http://www.bohemiancoding.com/sketch -->
    <title>##Int_Icon/#Contact/FAQ/White</title>
    <desc>Created with Sketch.</desc>
    <defs></defs>
    <g id="##Int_Icon/#Contact/FAQ/White" stroke="none" stroke-width="1" fill="none" fill-rule="evenodd">
        <g id="question-mark" transform="translate(1.000000, 1.000000)" fill="#FFFFFF" fill-rule="nonzero">
            <path d="M10.8531739,0.000956521739 C4.77854348,0.0822608696 -0.0796304348,5.07315217 0.00119565217,11.1480217 C0.0825,17.2202609 5.07291304,22.0798696 11.1473043,21.9990435 C17.2207391,21.9172609 22.0798696,16.9263696 21.9990435,10.8519783 C21.9177391,4.77926087 16.927087,-0.0801086957 10.8531739,0.000956521739 Z M10.8206522,17.6956522 L10.759913,17.6946957 C9.82443478,17.6669565 9.16491304,16.9777826 9.19145652,16.0561739 C9.21752174,15.1503478 9.89306522,14.4927391 10.7976957,14.4927391 L10.8519783,14.4936957 C11.8135217,14.5221522 12.4656304,15.2043913 12.4386087,16.1525435 C12.4118261,17.061 11.7468043,17.6956522 10.8206522,17.6956522 Z M14.7555435,9.8858913 C14.5355435,10.1984348 14.0517826,10.5865435 13.4422391,11.0614565 L12.771,11.5248913 C12.4025,11.8113696 12.1801087,12.0808696 12.0966522,12.3460652 C12.0308913,12.5548261 11.9986087,12.6100652 11.9928696,13.0347609 L11.991913,13.1426087 L9.42891304,13.1426087 L9.43632609,12.9257174 C9.46765217,12.0342391 9.48965217,11.5098261 9.8591087,11.0765217 C10.4387609,10.3959565 11.7173913,9.57263043 11.7716739,9.53771739 C11.9548478,9.39973913 12.1093261,9.24263043 12.2243478,9.07476087 C12.4933696,8.70386957 12.6124565,8.4118913 12.6124565,8.12493478 C12.6124565,7.72678261 12.4943261,7.35852174 12.2606957,7.03067391 C12.0361522,6.71430435 11.6095435,6.55408696 10.992587,6.55408696 C10.3806522,6.55408696 9.96169565,6.74826087 9.71108696,7.14665217 C9.45330435,7.55628261 9.32297826,7.98647826 9.32297826,8.426 L9.32297826,8.53528261 L6.68034783,8.53528261 L6.68513043,8.42121739 C6.75328261,6.80254348 7.33102174,5.63702174 8.4016087,4.95693478 C9.07428261,4.52386957 9.91123913,4.30434783 10.8878478,4.30434783 C12.1662391,4.30434783 13.2454348,4.61497826 14.0950652,5.22763043 C14.9559348,5.84841304 15.392587,6.77815217 15.392587,7.99102174 C15.392587,8.66943478 15.1783261,9.30671739 14.7555435,9.8858913 Z" id="Shape"></path>
        </g>
    </g>
</svg>