<svg xmlns="http://www.w3.org/2000/svg" width="24" height="24" viewBox="0 0 24 24">
    <path fill="#000" fill-opacity=".55" fill-rule="nonzero" d="M11.853 1.001C5.78 1.082.92 6.073 1.001 12.148c.082 6.072 5.072 10.932 11.146 10.851C18.221 22.917 23.08 17.926 23 11.852 22.918 5.779 17.927.92 11.853 1.001zm-.032 17.695l-.061-.001c-.936-.028-1.595-.717-1.569-1.639.027-.906.702-1.563 1.607-1.563h.054c.962.03 1.614.711 1.587 1.66-.027.908-.692 1.543-1.618 1.543zm3.935-7.81c-.22.312-.704.7-1.314 1.175l-.671.464c-.369.286-.59.556-.674.821-.066.209-.098.264-.104.689l-.001.108h-2.563l.007-.217c.032-.892.054-1.416.423-1.85.58-.68 1.858-1.503 1.913-1.538.183-.138.337-.295.452-.463.27-.371.388-.663.388-.95 0-.398-.118-.766-.351-1.094-.225-.317-.651-.477-1.268-.477-.612 0-1.031.194-1.282.593a2.38 2.38 0 0 0-.388 1.279v.11H7.68l.005-.115c.068-1.618.646-2.784 1.717-3.464.672-.433 1.51-.653 2.486-.653 1.278 0 2.357.311 3.207.924.86.62 1.298 1.55 1.298 2.763 0 .678-.215 1.316-.637 1.895z"/>
</svg>
