<svg xmlns="http://www.w3.org/2000/svg" xmlns:xlink="http://www.w3.org/1999/xlink" width="24" height="24" viewBox="0 0 24 24">
    <defs>
        <path id="a" d="M0 18.23V0h19.838v18.23z"/>
    </defs>
    <g fill="none" fill-rule="evenodd">
        <path d="M0 0h24v24H0z"/>
        <g transform="translate(2 3)">
            <mask id="b" fill="#fff">
                <use xlink:href="#a"/>
            </mask>
            <path fill="#333" fill-opacity=".7" d="M14.002 0c-1.57 0-3.019.618-4.082 1.652A5.851 5.851 0 0 0 5.837 0 5.718 5.718 0 0 0 2.48 1.082C1.054 2.11.157 3.665.018 5.35c-.143 1.748.524 3.458 1.877 4.818l6.844 6.879L9.92 18.23l1.182-1.183 6.845-6.879c1.352-1.361 2.017-3.071 1.872-4.82-.139-1.685-1.035-3.238-2.459-4.266A5.72 5.72 0 0 0 14.002 0m0 1.667c.825 0 1.656.245 2.383.766 2.08 1.499 2.518 4.407.38 6.56L9.92 15.868 3.075 8.993c-2.143-2.153-1.7-5.061.38-6.56a4.052 4.052 0 0 1 2.382-.766c1.815 0 3.59 1.19 4.083 3.223a4.184 4.184 0 0 1 4.082-3.223" mask="url(#b)"/>
        </g>
    </g>
</svg>
