<?xml version="1.0" encoding="UTF-8"?>
<svg width="24px" height="24px" viewBox="0 0 24 24" version="1.1" xmlns="http://www.w3.org/2000/svg" xmlns:xlink="http://www.w3.org/1999/xlink">
    <!-- Generator: Sketch 49.2 (51160) - http://www.bohemiancoding.com/sketch -->
    <title>##Int_Icon/Language/White</title>
    <desc>Created with Sketch.</desc>
    <defs></defs>
    <g id="##Int_Icon/Language/White" stroke="none" stroke-width="1" fill="none" fill-rule="evenodd">
        <g id="worlwide" transform="translate(2.000000, 2.000000)" fill="#FFFFFF" fill-rule="nonzero">
            <path d="M17.0618359,2.93277344 C15.2060547,1.07699219 12.7489063,0.041640625 10.1299219,0.00703125 C10.0842969,0.002890625 10.0390234,0 9.99457031,0 C9.95011719,0 9.90484375,0.002890625 9.85921875,0.00703125 C7.24023438,0.0416015625 4.78308594,1.07695312 2.92730469,2.93273437 C1.03960937,4.82050781 0,7.33035156 0,9.99996094 C0,12.6695703 1.03960937,15.1794531 2.92734375,17.0671875 C4.783125,18.9229687 7.24023438,19.9583203 9.85925781,19.9928906 C9.90488281,19.9970703 9.95015625,19.9999219 9.99457031,19.9999219 C10.0390234,19.9999219 10.0842969,19.9970312 10.1299219,19.9928906 C12.7489453,19.9583203 15.2060938,18.9229687 17.0618359,17.0671875 C18.9495312,15.1794922 19.9891406,12.6696484 19.9891406,9.99996094 C19.9891797,7.33035156 18.9495703,4.82050781 17.0618359,2.93277344 Z M3.7675,3.77292969 C4.82925781,2.71117188 6.11460938,1.95449219 7.5171875,1.54566406 C7.20105469,1.90960938 6.89375,2.32820313 6.60773437,2.79207031 C6.24292969,3.38371094 5.92707031,4.02496094 5.66257812,4.70296875 L2.95808594,4.70296875 C3.20417969,4.37746094 3.47394531,4.06648438 3.7675,3.77292969 Z M2.20109375,5.89113281 L5.26253906,5.89113281 C4.94417969,7.00527344 4.75589844,8.19222656 4.709375,9.40589844 L1.20832031,9.40589844 C1.29054687,8.16355469 1.62996094,6.97128906 2.20109375,5.89113281 Z M2.20113281,14.1088281 C1.62992188,13.0286719 1.29050781,11.8364063 1.20828125,10.5940625 L4.70933594,10.5940625 C4.75585937,11.8077734 4.94414062,12.9947266 5.2625,14.1088281 L2.20113281,14.1088281 Z M3.76753906,16.2270313 C3.47390625,15.9334766 3.20414062,15.6225391 2.95808594,15.2969922 L5.66261719,15.2969922 C5.92710938,15.975 6.24292969,16.61625 6.60777344,17.2078906 C6.89378906,17.6717578 7.20109375,18.0903516 7.51722656,18.4542969 C6.1146875,18.0454688 4.82933594,17.2887891 3.76753906,16.2270313 Z M9.40046875,18.5672656 C8.90550781,18.2434375 8.24089844,17.5928125 7.61902344,16.5842969 C7.36960938,16.1798437 7.14542969,15.7490625 6.94726563,15.2970312 L9.40042969,15.2970312 L9.40042969,18.5672656 L9.40046875,18.5672656 Z M9.40046875,14.1088281 L6.50222656,14.1088281 C6.15503906,13.0079687 5.94898437,11.8177734 5.89835938,10.5940625 L9.40046875,10.5940625 L9.40046875,14.1088281 Z M9.40046875,9.40589844 L5.89835938,9.40589844 C5.94894531,8.1821875 6.155,6.99195312 6.50222656,5.89113281 L9.40046875,5.89113281 L9.40046875,9.40589844 Z M9.40046875,4.70292969 L6.94730469,4.70292969 C7.14546875,4.25089844 7.36964844,3.82011719 7.6190625,3.41566406 C8.24089844,2.40714844 8.90554687,1.75648438 9.40050781,1.43269531 L9.40050781,4.70292969 L9.40046875,4.70292969 Z M17.7880469,5.89113281 C18.3592578,6.97132812 18.6986328,8.16355469 18.7808594,9.40589844 L15.2797656,9.40589844 C15.2332422,8.1921875 15.0449609,7.00523437 14.7266016,5.89113281 L17.7880469,5.89113281 Z M16.2216797,3.77292969 C16.5152344,4.06648438 16.785,4.37746094 17.0310938,4.70296875 L14.3266016,4.70296875 C14.0621094,4.02496094 13.7462891,3.38371094 13.3814453,2.79207031 C13.0954297,2.32820313 12.7881641,1.90960938 12.4719922,1.54566406 C13.8745313,1.95449219 15.1598828,2.71117188 16.2216797,3.77292969 Z M10.5886719,1.43269531 C11.0836328,1.75652344 11.7482422,2.40714844 12.3701172,3.41566406 C12.6195312,3.82011719 12.8437109,4.25089844 13.041875,4.70292969 L10.5887109,4.70292969 L10.5887109,1.43269531 L10.5886719,1.43269531 Z M10.5886719,5.89113281 L13.4869141,5.89113281 C13.8341406,6.99199219 14.0401953,8.18226562 14.0907813,9.40589844 L10.5886719,9.40589844 L10.5886719,5.89113281 Z M14.0907422,10.5940625 C14.0401562,11.8177734 13.8341016,13.0080078 13.486875,14.1088281 L10.5886328,14.1088281 L10.5886328,10.5940625 L14.0907422,10.5940625 Z M10.5886719,18.5672656 L10.5886719,15.2970312 L13.0418359,15.2970312 C12.8436719,15.7490625 12.6194922,16.1798437 12.3700781,16.5842969 C11.7482422,17.5928516 11.0836328,18.2434375 10.5886719,18.5672656 Z M16.2216797,16.2270703 C15.1598828,17.2888281 13.8745703,18.0454688 12.4719922,18.4543359 C12.788125,18.0903906 13.0954297,17.6717969 13.3814453,17.2079297 C13.74625,16.6162891 14.0621094,15.9750391 14.3266016,15.2970313 L17.0310938,15.2970313 C16.7850391,15.6225391 16.5152344,15.9335156 16.2216797,16.2270703 Z M17.7880469,14.1088281 L14.7266016,14.1088281 C15.0449609,12.9947266 15.2332813,11.8077734 15.2797656,10.5940625 L18.7808203,10.5940625 C18.6985938,11.8364063 18.3591797,13.0286719 17.7880469,14.1088281 Z" id="Shape"></path>
        </g>
    </g>
</svg>