<svg xmlns="http://www.w3.org/2000/svg" width="24" height="24" viewBox="0 0 24 24">
    <g fill="none" fill-rule="evenodd">
        <path d="M0 0h24v24H0z"/>
        <path fill="#333" fill-opacity=".7" d="M3.79 4.937l6.914 6.465c.369.29.881.423 1.374.398.496.025 1.005-.104 1.377-.398l6.914-6.465c.651-.516.504-.937-.326-.937H4.116c-.83 0-.976.421-.325.937"/>
        <path d="M2 6.39v13.472h20.16V6.39z"/>
        <path fill="#333" fill-opacity=".7" d="M20.956 6.351l-7.67 6.77c-.335.25-.772.374-1.203.37-.438.004-.874-.12-1.209-.37l-7.671-6.77c-.663-.5-1.203-.23-1.203.6v11.108c0 .83.68 1.513 1.51 1.513h17.14c.831 0 1.51-.684 1.51-1.513V6.95c0-.83-.54-1.1-1.204-.6"/>
    </g>
</svg>
