<svg xmlns="http://www.w3.org/2000/svg" xmlns:xlink="http://www.w3.org/1999/xlink" width="24" height="24" viewBox="0 0 24 24">
    <defs>
        <path id="a" d="M.367 4.865h6.921V.109H.368v4.756z"/>
    </defs>
    <g fill="none" fill-rule="evenodd">
        <path d="M0 0h24v24H0z"/>
        <g transform="rotate(15 -43.015 57.135)">
            <mask id="b" fill="#fff">
                <use xlink:href="#a"/>
            </mask>
            <path fill="#FFF" d="M6.943 3.121a.64.64 0 0 1 .272.862l-.298.554a.639.639 0 0 1-.869.249L.532 1.824c-.314-.17-.112-.38.053-.686L.883.582c.164-.307.228-.592.544-.422L6.943 3.12z" mask="url(#b)"/>
        </g>
        <path fill="#FFF" d="M15.31 8.204a6.243 6.243 0 0 1-1.249 6.505 6.283 6.283 0 0 1-8.868.358 6.22 6.22 0 0 1-1.604-2.363 6.244 6.244 0 0 1 1.247-6.505 6.236 6.236 0 0 1 4.36-2.016 6.235 6.235 0 0 1 4.509 1.658 6.213 6.213 0 0 1 1.604 2.363zM5.215 12.08a4.47 4.47 0 0 0 1.16 1.706 4.502 4.502 0 0 0 3.255 1.198 4.498 4.498 0 0 0 3.15-1.456 4.513 4.513 0 0 0 .902-4.7A4.54 4.54 0 0 0 6.115 7.38a4.51 4.51 0 0 0-.9 4.7z"/>
        <path fill="#FFF" d="M5.101 6.443a5.914 5.914 0 1 0 8.695 8.02 5.914 5.914 0 0 0-8.695-8.02m7.945 7.33a4.895 4.895 0 1 1-7.195-6.639 4.895 4.895 0 1 1 7.195 6.639"/>
    </g>
</svg>
