<?xml version="1.0" standalone="no"?>
<!DOCTYPE svg PUBLIC "-//W3C//DTD SVG 1.1//EN" "http://www.w3.org/Graphics/SVG/1.1/DTD/svg11.dtd" >
<svg>
<metadata>
Created by FontForge 20120731 at Sun Jul 31 06:47:58 2016
 By www-data
Copyright (c) 2007 by Prinya R. nont. All rights reserved.
</metadata>
<defs>
<font id="DBSaiKrokX-Bold" horiz-adv-x="0" >
  <font-face 
    font-family="DB SaiKrok X"
    font-weight="700"
    font-stretch="normal"
    units-per-em="1000"
    panose-1="2 0 5 6 6 0 0 2 0 4"
    ascent="800"
    descent="-200"
    x-height="528"
    cap-height="714"
    bbox="-558 -495 1460 1137"
    underline-thickness="20"
    underline-position="-133"
    unicode-range="U+0020-F882"
  />
<missing-glyph horiz-adv-x="621" 
d="M633 600v-21h9q10 -1 10 13q0 2 -2 5t-8 3h-9zM638 578h-5v-22h-7v52h16q18 0 18 -16q0 -10 -4.5 -12t-10.5 -2l15 -22h-8zM642 549q20 0 26.5 10.5t6.5 19.5q0 36 -33 36q-34 0 -34 -36q0 -12 8 -21t26 -9zM642 620q20 0 29 -12t9 -29q0 -12 -9 -23.5t-29 -11.5
q-18 0 -28.5 11.5t-10.5 23.5q0 16 10.5 28.5t28.5 12.5zM302 474q24 -2 56 -6t64 -10t59 -14q27 -10 41 -20q-30 60 -93 92.5t-129 32.5q-51 0 -97.5 -19.5t-76.5 -59.5q27 3 54 4.5t54 1.5h34t34 -2zM562 592v-212q-72 22 -164 38t-196 16q-72 0 -140 -10q9 33 28.5 64
t49.5 54.5t69.5 36.5t87.5 13q46 0 83.5 -10t65.5 -25t47.5 -33t28.5 -32q0 -2 0 9.5t-1 28t-1 34.5v28h42zM230 190q0 12 -8.5 18t-17.5 6q-10 0 -18 -6t-8 -18t8 -17t18 -5q9 0 17.5 5t8.5 17zM48 208q0 34 13.5 61.5t36 45.5t51 27t58.5 9t57.5 -8.5t49.5 -24.5t35 -42
t13 -62v-174h158v304h42v-342h-283v38h43v179q0 45 -33 67.5t-81 22.5q-45 0 -80.5 -24.5t-35.5 -70.5v-160l86 87q-8 3 -19.5 15t-11.5 34q0 27 16.5 43t43.5 16q26 0 41.5 -17.5t15.5 -41.5q0 -21 -8 -32t-14 -17q-3 -3 -25.5 -25t-50.5 -47q-16 -15 -33 -31t-37 -36h-48
v206z" />
    <glyph glyph-name="plusminus" unicode="&#x2b;&#x2d;" horiz-adv-x="568" 
d="M540 400q0 -20 -14 -35t-42 -15h-148v-149q0 -28 -16 -41.5t-35 -13.5q-21 0 -37 13t-16 42v149h-148q-28 0 -42 16q-14 14 -14 34t14 36.5t42 16.5h148v149q0 28 16 41.5t37 13.5q20 0 35.5 -13.5t15.5 -41.5v-149h148q28 0 42 -16.5t14 -36.5zM484 104q28 0 42 -17
t14 -36q0 -20 -14 -35q-14 -16 -42 -16h-400q-28 0 -42 16t-14 35q0 20 14 36.5t42 16.5h400z" />
    <glyph glyph-name="ellipsis" unicode="&#x2e;&#x2e;&#x2e;" horiz-adv-x="1305" 
d="M1170 72q0 -34 -24 -58t-58 -24t-59 24t-25 58t24 59q26 25 60 25t58 -25t24 -59zM735 72q0 -34 -24 -58q-25 -24 -59 -24t-58 24t-24 58t24 59t58 25t58.5 -25t24.5 -59zM302 72q0 -34 -25 -58t-59 -24t-58.5 24t-24.5 58t24 59q25 25 59 25t59 -25t25 -59z" />
    <glyph glyph-name="lessequal" unicode="&#x3c;&#x3d;" horiz-adv-x="522" 
d="M454 292q32 -18 39.5 -41t-2 -40t-34.5 -22.5t-57 12.5l-334 193q-20 12 -32 25t-12 34q0 22 12 35.5t32 25.5l334 194q28 16 52 10t33.5 -22t3.5 -40q-7 -24 -35 -40l-278 -162zM454 82q32 -18 39.5 -41t-2 -40t-34.5 -22.5t-57 12.5l-334 193q-33 18 -40.5 42t3 41.5
t35 22t56.5 -13.5z" />
    <glyph glyph-name="greaterequal" unicode="&#x3e;&#x3d;" horiz-adv-x="522" 
d="M70 292l280 162l-280 162q-30 16 -36 39t4 40t33 23t53 -10l335 -194q20 -12 31.5 -25t11.5 -36q0 -21 -12 -34t-31 -25l-335 -193q-32 -18 -56 -13.5t-35 21.5t-3.5 41t40.5 42zM405 276q32 18 56.5 13t34.5 -22.5t2 -41t-39 -41.5l-335 -193q-32 -18 -56 -13.5
t-35 21.5t-3 41t40 42z" />
    <glyph glyph-name="fongmanfunnuthai" unicode="&#xe4f;&#x22;" horiz-adv-x="801" 
d="M528 776q-2 -27 -17 -41.5t-32 -14.5t-32 14t-17 42l-7 156q-2 28 16.5 42t38.5 14q21 0 39.5 -14t16.5 -42zM366 776q-2 -27 -17 -41.5t-32 -14.5t-32 14t-17 42l-7 156q-2 28 16.5 42t38.5 14q21 0 40 -14q20 -14 18 -42zM746 328q0 -72 -27 -133t-74.5 -108
t-110.5 -73t-135 -26q-70 0 -133.5 26t-110.5 73t-75 108t-28 133q0 70 28 132t75 108.5t110 73t134 26.5q72 0 135 -26.5t110.5 -73t74.5 -108.5t27 -132zM644 328q0 51 -20 96.5t-53 78.5t-77 52t-95 19t-95 -19t-77 -52t-53 -78t-20 -97q0 -51 20 -95.5t53 -78.5
t77 -53.5t95 -19.5t95 19.5t77 53.5t53 78.5t20 95.5zM591 328q0 -39 -15 -74t-41.5 -60.5t-60.5 -40.5t-75 -15q-39 0 -73.5 15t-61 40.5t-42 61t-15.5 73.5q0 39 15.5 73.5t42 60.5t61 41t73.5 15q40 0 74.5 -15t61 -41t41.5 -60.5t15 -73.5zM494 328q0 40 -27 67.5
t-68 27.5q-40 0 -67 -27q-28 -28 -28 -68q0 -42 27 -68t68 -26q40 0 67.5 26t27.5 68z" />
    <glyph glyph-name="topatakphintuthai" unicode="&#xe0f;&#xe3a;" horiz-adv-x="561" 
d="M530 -114q-2 -34 -10 -52t-32 -40q-22 -21 -55 -21.5t-53 20.5l-53 49l-54 -50q-38 -36 -87 -2q-28 21 -53 46.5t-37 37.5q-21 21 -18.5 42.5t18 36t39 17t42.5 -15.5l55 -52l48 46q20 18 48 17t46 -17l34 -32v416q0 50 -28.5 75t-76.5 23l-105 -1v-354q0 -34 -19 -54.5
t-59 -20.5h-50q-30 0 -48.5 16t-18.5 41q0 33 22.5 44t50.5 13v354q0 26 17 43t45 19l165 2q39 0 79.5 -9t73 -32t53.5 -62t21 -99v-444zM536 -333q0 -30 -21 -51t-51 -21t-50.5 21t-20.5 51t20.5 51t50.5 21t51 -21t21 -51z" />
    <glyph glyph-name="topataksarauthai" unicode="&#xe0f;&#xe38;" horiz-adv-x="561" 
d="M531 -114q0 -34 -9 -52t-33 -40q-22 -21 -54.5 -21.5t-53.5 20.5l-53 49l-54 -50q-38 -36 -86 -2q-28 21 -53 46.5t-37 37.5q-21 21 -19 42.5t17.5 36t39.5 17.5q22 2 42 -16l56 -52l48 46q20 18 47.5 17t45.5 -17l35 -32l-2 416q0 50 -28.5 75t-76.5 23l-105 -1v-354
q0 -34 -19 -54.5t-59 -20.5h-50q-30 0 -48.5 16t-18.5 41q0 33 22.5 44t50.5 13v354q0 26 17 43t45 19l165 2q39 0 79.5 -9t73 -32t53.5 -62t21 -99zM530 -435q0 -22 -11.5 -41t-41.5 -19q-27 0 -43 16.5t-16 43.5v59h-20q-26 0 -45 13t-19 42q0 27 18 43t46 16h73
q26 0 42.5 -17t16.5 -43v-113z" />
    <glyph glyph-name="dochadaphinthuthai" unicode="&#xe0e;&#xe3a;" horiz-adv-x="561" 
d="M530 -123q0 -34 -16 -57.5t-38.5 -34.5t-48 -9t-45.5 20l-61 57l-61 -57q-22 -21 -47 -20.5t-41 15t-18 37.5q0 24 22 46q8 8 31 32t49 44q24 24 52 28t50 -17l50 -45v416q0 50 -29 75t-77 23l-106 -1l2 -355q0 -74 -80 -74h-48q-30 0 -48.5 16t-18.5 41q0 33 22.5 44
t50.5 13v354q0 26 16 43t44 19l166 2q40 0 80.5 -9t73 -32t53.5 -62t21 -99v-453zM536 -333q0 -30 -21 -51t-51 -21t-50.5 21t-20.5 51t20.5 51t50.5 21t51 -21t21 -51z" />
    <glyph glyph-name="dochadasarauthai" unicode="&#xe0e;&#xe38;" horiz-adv-x="561" 
d="M530 -123q0 -34 -16 -57.5t-38.5 -34.5t-48 -9t-45.5 20l-61 57l-61 -57q-22 -21 -47 -20.5t-41 15t-18 37.5q0 24 22 46q8 8 31 32t49 44q24 24 52 28t50 -17l50 -45v416q0 50 -29 75t-77 23l-106 -1l2 -355q0 -74 -80 -74h-48q-30 0 -48.5 16t-18.5 41q0 33 22.5 44
t50.5 13v354q0 26 16 43t44 19l166 2q40 0 80.5 -9t73 -32t53.5 -62t21 -99v-453zM530 -435q0 -22 -11.5 -41t-41.5 -19q-27 0 -43 16.5t-16 43.5v59h-20q-26 0 -45 13t-19 42q0 27 18 43t46 16h73q26 0 42.5 -17t16.5 -43v-113z" />
    <glyph glyph-name=".notdef" horiz-adv-x="621" 
d="M633 600v-21h9q10 -1 10 13q0 2 -2 5t-8 3h-9zM638 578h-5v-22h-7v52h16q18 0 18 -16q0 -10 -4.5 -12t-10.5 -2l15 -22h-8zM642 549q20 0 26.5 10.5t6.5 19.5q0 36 -33 36q-34 0 -34 -36q0 -12 8 -21t26 -9zM642 620q20 0 29 -12t9 -29q0 -12 -9 -23.5t-29 -11.5
q-18 0 -28.5 11.5t-10.5 23.5q0 16 10.5 28.5t28.5 12.5zM302 474q24 -2 56 -6t64 -10t59 -14q27 -10 41 -20q-30 60 -93 92.5t-129 32.5q-51 0 -97.5 -19.5t-76.5 -59.5q27 3 54 4.5t54 1.5h34t34 -2zM562 592v-212q-72 22 -164 38t-196 16q-72 0 -140 -10q9 33 28.5 64
t49.5 54.5t69.5 36.5t87.5 13q46 0 83.5 -10t65.5 -25t47.5 -33t28.5 -32q0 -2 0 9.5t-1 28t-1 34.5v28h42zM230 190q0 12 -8.5 18t-17.5 6q-10 0 -18 -6t-8 -18t8 -17t18 -5q9 0 17.5 5t8.5 17zM48 208q0 34 13.5 61.5t36 45.5t51 27t58.5 9t57.5 -8.5t49.5 -24.5t35 -42
t13 -62v-174h158v304h42v-342h-283v38h43v179q0 45 -33 67.5t-81 22.5q-45 0 -80.5 -24.5t-35.5 -70.5v-160l86 87q-8 3 -19.5 15t-11.5 34q0 27 16.5 43t43.5 16q26 0 41.5 -17.5t15.5 -41.5q0 -21 -8 -32t-14 -17q-3 -3 -25.5 -25t-50.5 -47q-16 -15 -33 -31t-37 -36h-48
v206z" />
    <glyph glyph-name=".null" 
 />
    <glyph glyph-name="nonmarkingreturn" horiz-adv-x="424" 
 />
    <glyph glyph-name="space" unicode=" " horiz-adv-x="375" 
 />
    <glyph glyph-name="exclam" unicode="!" horiz-adv-x="294" 
d="M201 230q0 -30 -17.5 -46t-37.5 -16t-36.5 16t-16.5 46l-6 414q-2 30 17.5 45t42.5 15q22 0 41 -15t19 -45zM147 -8q-33 0 -49.5 20.5t-16.5 44t16.5 43.5t49.5 20t49.5 -20t16.5 -43.5t-16.5 -44t-49.5 -20.5z" />
    <glyph glyph-name="quotedbl" unicode="&#x22;" horiz-adv-x="331" 
d="M286 514q-2 -27 -16.5 -41t-32 -14t-32.5 14.5t-16 40.5l-7 156q-2 28 16 43t39 15t40 -14q19 -16 15 -44zM142 514q-2 -27 -16.5 -41t-32 -14t-32.5 14.5t-16 40.5l-7 156q-2 28 17 43t38 15q21 0 40 -14q19 -16 17 -44z" />
    <glyph glyph-name="numbersign" unicode="#" horiz-adv-x="562" 
d="M550 459q-3 -18 -20 -31q-16 -12 -42 -12h-50l-18 -124h50q28 0 40 -14t10 -31t-18 -31.5t-44 -14.5h-52l-22 -161q-4 -26 -21.5 -37t-36 -10t-32.5 14t-10 35l20 159h-92l-23 -161q-4 -26 -21.5 -37t-36.5 -10t-32 14t-11 35l22 159h-50q-27 0 -39.5 14.5t-10.5 31.5
t18 31t46 14h49l18 124h-49q-28 0 -40.5 14t-10 31t18.5 31q16 15 44 15h49l24 159q4 26 21.5 37t36.5 9.5t33 -14t11 -35.5l-23 -156h92l24 159q4 26 21.5 37t36 9.5t33 -14t11.5 -35.5l-22 -156h49q26 0 39.5 -14t9.5 -34zM243 416l-18 -124h93l18 124h-93z" />
    <glyph glyph-name="dollar" unicode="$" horiz-adv-x="508" 
d="M489 207q0 -76 -51 -134q-52 -59 -146 -75v-26q0 -20 -12.5 -30t-28 -10t-28.5 10t-13 30v20q-48 3 -91 16q-43 12 -71 32q-26 18 -31 42t5.5 42t33 24t54.5 -12q20 -12 43 -21.5t57 -12.5v230q-33 9 -66.5 23t-61.5 36.5t-45 56.5t-17 82q0 33 13 65t39 56.5t60 41.5
t78 19v22q0 20 13 30t28.5 10t28 -10t12.5 -29v-23q82 -9 128 -49q20 -18 21 -39t-10 -36.5t-32 -21t-48 9.5q-15 8 -29 15t-30 12v-180q33 -12 68.5 -28.5t64 -41.5t46.5 -60.5t18 -85.5zM210 608q-32 -6 -50.5 -27t-21 -47t15 -50t56.5 -36v160zM372 207q0 28 -19 56
t-61 43v-198q40 12 60 39t20 60z" />
    <glyph glyph-name="percent" unicode="%" horiz-adv-x="756" 
d="M196 369q-54 0 -90.5 25.5t-54.5 63.5t-18.5 83t18 83.5t54.5 63.5q35 26 91 26t93 -25.5t55.5 -64t18.5 -83.5t-18.5 -83t-55.5 -63.5t-93 -25.5zM303 24q-12 -27 -34.5 -36t-42.5 -3.5t-31 23.5t1 48l274 626q10 27 32 36.5t42 3.5t30.5 -25t-1.5 -47zM567 -6
q-56 0 -91.5 25.5t-54.5 64t-19 83.5t18 83t55 63.5t92 25.5q56 0 92.5 -25.5t55.5 -63.5t19 -83t-19 -83.5t-55.5 -64t-92.5 -25.5zM196 450q34 0 52 28.5t18 63t-18 62.5q-18 29 -52 29t-51 -28.5t-17 -63t17 -63t51 -28.5zM567 75q36 0 53.5 28.5t17.5 63t-18 63
t-53 28.5q-34 0 -51.5 -28.5t-17.5 -63t17.5 -63t51.5 -28.5z" />
    <glyph glyph-name="ampersand" unicode="&#x26;" horiz-adv-x="661" 
d="M616 3q-16 -12 -39 -9.5t-41 21.5l-66 77q-51 -50 -104.5 -74t-104.5 -26t-95 13.5t-78 45.5q-39 34 -56.5 85.5t-9.5 105.5t43 104t101 86q-24 28 -43 60q-19 34 -19 74q0 39 15.5 67.5t40 47t56.5 27.5t63 9q32 0 63.5 -9t56 -27t40 -45.5t15.5 -65.5q0 -32 -9.5 -56
t-26 -44t-37.5 -36t-42 -29q10 -12 27.5 -32.5t36.5 -42t37 -42.5q18 -20 30 -34q16 21 28 43.5t26 42.5q14 22 34 26t36 -5t24 -28t-3 -43l-19 -38q-16 -34 -54 -80l72 -82q21 -26 20.5 -49t-18.5 -38zM339 564q0 26 -18 40q-19 14 -41 14q-21 0 -38 -14q-18 -14 -18 -42
q0 -26 48 -78q27 16 47 37t20 43zM238 352q-58 -33 -81 -72.5t-20 -75.5t27 -64.5t61 -37.5t83 5.5t91 62.5z" />
    <glyph glyph-name="quotesingle" unicode="'" horiz-adv-x="202" 
d="M152 528q-2 -30 -18 -45t-34 -15t-33 15t-16 45l-7 147q-2 30 17 46.5t39 16.5q22 0 41 -16.5t18 -46.5z" />
    <glyph glyph-name="parenleft" unicode="(" horiz-adv-x="253" 
d="M219 -4q15 -30 10.5 -55t-28.5 -33q-21 -8 -43 3t-34 35q-10 21 -25 55.5t-28.5 81t-23 105t-9.5 127.5q0 68 9.5 126.5t23 105.5t28.5 81t25 54q14 27 36.5 36.5t41 2.5t26.5 -29q8 -24 -9 -58q-9 -21 -21 -53t-22 -73.5t-17 -90t-7 -102.5t7 -103.5t17 -90.5t22 -73
t21 -52z" />
    <glyph glyph-name="parenright" unicode=")" horiz-adv-x="253" 
d="M226 315q0 -68 -9.5 -126.5t-23 -105.5t-28.5 -81t-25 -54q-14 -27 -36.5 -36.5t-41 -2.5t-26.5 29q-8 24 9 58q9 20 21 52.5t22.5 74t17 90t6.5 102.5t-7 103.5t-17 90.5t-22 73t-21 52q-16 34 -8.5 57t26 30.5t41 -1.5t36.5 -36q10 -21 25 -55.5t28.5 -81t23 -105
t9.5 -127.5z" />
    <glyph glyph-name="asterisk" unicode="*" horiz-adv-x="387" 
d="M348 454q-10 -20 -32 -23t-38 9l-47 38q2 -14 6.5 -34t2.5 -38t-12 -31q-8 -13 -34 -13t-36.5 13t-11 31t3.5 38q3 20 6 34l-46 -38q-16 -14 -38 -10q-21 4 -33 24t-3 40q8 18 26 26l56 23l-56 21q-18 8 -27 28t3 41t34 22.5t36 -10.5l48 -37q-3 14 -6.5 33t-3 38t11 32
t36.5 13t35 -13t11 -31t-3 -38t-6 -34l47 37q16 12 37 9.5t33 -22.5q12 -21 3 -40.5t-25 -27.5l-58 -21l58 -23q16 -8 25 -26.5t-3 -39.5z" />
    <glyph glyph-name="plus" unicode="+" horiz-adv-x="568" 
d="M540 266q0 -20 -14 -36t-42 -16h-148v-148q0 -28 -16 -42t-35 -14q-21 0 -37 14t-16 42v148h-148q-28 0 -42 16t-14 36t14 36t42 16h148v148q0 28 16 42t37 14q20 0 35 -14q16 -14 16 -42v-148h148q28 0 42 -16t14 -36z" />
    <glyph glyph-name="comma" unicode="," horiz-adv-x="247" 
d="M134 -99q-16 -30 -38 -38.5t-39.5 0t-25 29.5t6.5 51l61 135q14 28 37.5 34t44 -3.5t30 -32t-6.5 -50.5z" />
    <glyph glyph-name="hyphen" unicode="-" horiz-adv-x="376" 
d="M87 213q-32 0 -46.5 16.5t-14.5 36.5t15 37t46 17h204q32 0 47.5 -17t15.5 -37t-16 -36.5t-47 -16.5h-204z" />
    <glyph glyph-name="period" unicode="." horiz-adv-x="235" 
d="M188 62q0 -30 -20.5 -50.5t-50.5 -20.5q-28 0 -48.5 20.5t-20.5 50.5q0 28 20 48t49 20q30 0 50.5 -20t20.5 -48z" />
    <glyph glyph-name="slash" unicode="/" horiz-adv-x="427" 
d="M134 9q-12 -27 -35 -37t-43 -4t-30.5 26t1.5 50l273 652q10 27 32 36.5t42 3.5t31 -25t-1 -49z" />
    <glyph glyph-name="zero" unicode="0" horiz-adv-x="561" 
d="M537 352q0 -90 -20.5 -156.5t-54.5 -111t-81 -66t-101 -21.5t-100 21.5t-81 66t-55 111t-20 156.5t20 157t55 112t81 67t100 22t101 -22t81 -67t54.5 -112t20.5 -157zM412 352q0 74 -12 123.5t-30.5 78t-42.5 40.5q-25 12 -47 12t-45 -12t-42 -40.5t-31 -78t-12 -123.5
q0 -76 12 -125t31 -77t42 -39t45 -11q24 0 47.5 11t42 39t30.5 77t12 125z" />
    <glyph glyph-name="one" unicode="1" horiz-adv-x="561" 
d="M366 58q0 -32 -19 -48t-42 -16t-42 16t-19 48v536h-74q-34 0 -52 17t-18 39t18 39t52 17h134q27 0 44 -16q18 -16 18 -38v-594z" />
    <glyph glyph-name="two" unicode="2" horiz-adv-x="561" 
d="M504 519q0 -40 -16.5 -85.5t-58.5 -93.5l-204 -238h239q27 0 41 -16t14 -35t-14.5 -35t-40.5 -16h-350q-22 0 -36.5 10t-20 25t-2.5 32t17 32l262 303q22 26 36 57t14 57q0 39 -31 63.5t-68 24.5q-39 0 -68 -17t-37 -47q0 -30 -19 -44t-42 -14t-42 15t-19 46q4 33 21 64
t45.5 54t68 37t91.5 14t93 -15.5t69 -42t43 -61.5t15 -74z" />
    <glyph glyph-name="three" unicode="3" horiz-adv-x="561" 
d="M506 208q0 -52 -19 -92t-51 -67t-76 -41t-93 -14q-78 0 -129.5 31t-76.5 70t-21 75t38 48q32 10 48 -6.5t32 -41t38 -47.5q24 -23 70 -23q52 0 84 30q32 28 32 72q0 56 -33.5 83t-78.5 30q-33 2 -47.5 17.5t-14.5 34.5t14 36t38 21q48 10 75 38t27 63q0 39 -28 60t-68 21
q-46 0 -66 -21t-20 -42q0 -30 -19 -45t-42 -15t-42 15t-19 45q0 32 14.5 62.5t41.5 53.5t65.5 38t86.5 15q45 0 84.5 -13t68.5 -36.5t47 -56.5q17 -34 17 -74q0 -50 -20.5 -89t-57.5 -65q48 -26 74.5 -72t26.5 -98z" />
    <glyph glyph-name="four" unicode="4" horiz-adv-x="561" 
d="M554 208q0 -22 -17 -38t-41 -16h-31v-97q0 -32 -18.5 -48.5t-42 -16.5t-42 17t-18.5 48v97h-274q-21 0 -33.5 11t-18.5 26t-4 31t12 28l294 419q14 20 38 31.5t47.5 11.5t41.5 -15.5t18 -51.5v-384h31q24 0 41 -16t17 -37zM344 502l-172 -241h172v241z" />
    <glyph glyph-name="five" unicode="5" horiz-adv-x="561" 
d="M518 238q0 -117 -74 -180q-76 -62 -194 -62q-69 0 -122 26q-52 26 -78 58q-20 24 -17 46t18 36.5t37 15.5q22 2 42 -16q20 -20 48 -38t74 -18q68 0 104.5 37t36.5 89q0 36 -16.5 65t-46.5 44.5t-71 17t-89 -16.5q-16 -6 -37.5 -7.5t-39 5t-27.5 23.5t-6 47l36 235
q3 24 23.5 42t54.5 18h274q27 0 41.5 -16.5t14.5 -36t-14 -36t-42 -16.5h-236l-23 -140q72 20 132 9t104.5 -43.5t68.5 -82t24 -105.5z" />
    <glyph glyph-name="six" unicode="6" horiz-adv-x="561" 
d="M516 228q0 -50 -16.5 -92.5t-47 -74t-75 -50.5t-98.5 -19q-56 0 -100 19t-74.5 52t-47.5 79t-17 98q0 76 28 145t68.5 128.5t88 107t87.5 78.5q27 21 54 20t42 -16t11.5 -41t-37.5 -54q-36 -30 -68 -62.5t-66 -83.5q22 6 55 6q52 0 92 -19t67 -51t40.5 -75.5t13.5 -94.5z
M390 231q0 63 -28 97t-84 34q-21 0 -46.5 -10t-42.5 -22q-10 -21 -14 -45.5t-4 -53.5q0 -56 27 -93q28 -36 80 -36q54 0 83 37.5t29 91.5z" />
    <glyph glyph-name="seven" unicode="7" horiz-adv-x="561" 
d="M249 34q-14 -27 -37.5 -35.5t-45.5 -2t-32 27.5q-12 20 2 48l251 528h-301q-30 0 -44.5 16.5t-14 37t15.5 36.5t43 16h361q27 0 44 -9t25 -23t7 -31t-10 -35z" />
    <glyph glyph-name="eight" unicode="8" horiz-adv-x="561" 
d="M514 206q0 -45 -15.5 -84.5t-45.5 -68.5t-73.5 -45.5t-99.5 -16.5t-99 16.5t-73 45.5t-46 68t-16 85q0 68 32.5 115t74.5 67q-34 24 -53 62q-18 38 -18 82q0 81 54 130.5t144 49.5q94 0 147 -49t53 -131q0 -44 -19 -82t-53 -60q42 -22 74 -69t32 -115zM362 530
q0 36 -21 58t-61 22q-39 0 -59.5 -22t-20.5 -58q0 -33 23 -58t57 -25q36 0 59 25t23 58zM392 207q0 48 -29.5 84t-80.5 36t-80.5 -36t-29.5 -84q0 -57 34 -85t76 -28q44 0 77 28t33 85z" />
    <glyph glyph-name="nine" unicode="9" horiz-adv-x="561" 
d="M518 468q0 -76 -27 -145t-68.5 -128.5t-89 -107t-87.5 -78.5q-27 -21 -54 -20t-41.5 16t-11.5 40t38 55q34 30 66.5 62.5t65.5 80.5q-22 -5 -54 -5q-52 0 -92 19t-67 51t-40.5 76.5t-13.5 95.5q0 48 16.5 91t47 75t75 51t98.5 19q56 0 100 -19t74.5 -52t47.5 -79t17 -98z
M388 477q0 56 -27 92.5t-81 36.5t-83 -37.5t-29 -91.5q0 -63 29 -97t83 -34q21 0 46.5 9t42.5 23q19 37 19 99z" />
    <glyph glyph-name="colon" unicode=":" horiz-adv-x="235" 
d="M188 370q0 -27 -20.5 -46.5t-50.5 -19.5q-28 0 -48.5 20t-20.5 46q0 27 20 46.5t49 19.5q30 0 50.5 -19.5t20.5 -46.5zM188 54q0 -27 -20.5 -46.5t-50.5 -19.5q-28 0 -48.5 19.5t-20.5 46.5q0 28 20 47t49 19q30 0 50.5 -19t20.5 -47z" />
    <glyph glyph-name="semicolon" unicode=";" horiz-adv-x="235" 
d="M188 368q0 -27 -20.5 -46.5t-50.5 -19.5q-28 0 -48.5 19t-20.5 47q0 27 20 46.5t49 19.5q30 0 50.5 -19.5t20.5 -46.5zM114 -86q-16 -28 -38 -35.5t-39 0t-25 27.5t6 49l62 127q14 27 37.5 33.5t44 -3.5t30.5 -31q8 -21 -8 -48z" />
    <glyph glyph-name="less" unicode="&#x3c;" horiz-adv-x="522" 
d="M454 82q32 -18 39.5 -41t-2 -40t-34.5 -22.5t-57 12.5l-334 193q-20 12 -32 25t-12 34q0 22 12 35.5t32 25.5l334 194q28 16 52 10t33.5 -22t3.5 -40q-7 -24 -35 -40l-278 -162z" />
    <glyph glyph-name="equal" unicode="=" horiz-adv-x="595" 
d="M90 309q-30 0 -46 16.5t-16 36.5t16 37t46 17h416q30 0 45 -17t15 -37t-15 -36.5t-45 -16.5h-416zM90 116q-30 0 -46 16t-16 36.5t16 37t46 16.5h416q30 0 45 -16.5t15 -37t-15 -36.5t-45 -16h-416z" />
    <glyph glyph-name="greater" unicode="&#x3e;" horiz-adv-x="522" 
d="M494 243q0 -21 -12 -34t-34 -25l-334 -193q-32 -18 -56.5 -13.5t-34 21.5t-1.5 41t40 42l278 162l-278 162q-30 16 -36 39t3.5 40t32 23t52.5 -10l334 -194q21 -12 33.5 -25.5t12.5 -35.5z" />
    <glyph glyph-name="question" unicode="?" horiz-adv-x="469" 
d="M438 531q3 -81 -36.5 -132t-113.5 -75v-82q0 -32 -19 -47t-42 -15t-42 15t-19 47v94q0 42 25 59t55 31t54 34t22 68q-3 42 -26.5 61t-63.5 19q-44 0 -59 -20t-24 -42t-21 -40q-12 -16 -46 -12q-44 4 -51 39t14 74t69 71.5t117 32.5q92 0 148 -49t59 -131zM297 60
q0 -27 -20.5 -46.5t-50.5 -19.5q-28 0 -48 19.5t-20 46.5t20 46.5t48 19.5q30 0 50.5 -19.5t20.5 -46.5z" />
    <glyph glyph-name="at" unicode="@" horiz-adv-x="822" 
d="M555 135q-26 0 -50.5 10.5t-36.5 31.5q-28 -24 -56 -32.5t-58 -8.5q-34 0 -64 14.5t-51 38t-33 54t-12 63.5q0 50 15.5 96t45 81.5t70.5 57t93 21.5q30 0 60 -10t52 -34q6 24 24 33t36 6t29 -16t5 -33l-70 -253q-6 -24 12 -24t40 11.5t42 33.5t34 54.5t16 74.5
q2 54 -20 99.5t-60 78.5t-87 51t-105 18q-63 0 -117.5 -23t-95.5 -63.5t-64 -95t-23 -118.5q0 -62 23 -115.5t64.5 -93t98 -63t123.5 -23.5q34 0 60.5 3.5t51.5 10.5t49 17t54 24q32 15 53 10t29 -20.5t-1 -37.5t-37 -38q-40 -24 -105 -44.5t-161 -20.5q-90 0 -165 28.5
t-129 80.5t-84 124t-30 158q0 82 30 154.5t84.5 126.5t129.5 85.5t165 31.5q84 0 153 -28.5t117.5 -76t74.5 -107.5q28 -61 26 -124q-3 -81 -29.5 -135t-63.5 -85.5t-78 -45t-74 -13.5zM498 411q-9 24 -27.5 39t-48.5 15q-28 0 -51 -14.5t-38 -36.5t-23 -50t-8 -55
q0 -34 19 -56t43 -22q36 0 60 14.5t36 28.5z" />
    <glyph glyph-name="A" unicode="A" horiz-adv-x="636" 
d="M628 62q12 -30 -4 -48q-16 -17 -38 -20q-33 -4 -53 15t-33.5 47t-20.5 57t-13 46h-295l-45 -123q-10 -27 -34 -36.5t-46 -5.5t-35 21.5t-2 44.5l234 603q10 26 31.5 39.5t43.5 13.5t43 -13t32 -40zM318 556l-110 -298h220z" />
    <glyph glyph-name="B" unicode="B" horiz-adv-x="547" 
d="M416 384q48 -16 77 -51t39 -77.5t0 -88t-41 -82.5t-83 -61q-50 -24 -124 -24h-160q-40 0 -55 21t-15 45v572q0 30 18 48.5t51 18.5h144q87 0 138 -38.5t68 -90.5t2.5 -106t-59.5 -86zM176 600v-178h84q48 0 73 27.5t27.5 61t-20 61.5t-70.5 28h-94zM292 106q60 0 92 33
t32 74t-32 74t-98 33h-110v-214h116z" />
    <glyph glyph-name="C" unicode="C" horiz-adv-x="603" 
d="M574 644q22 -18 25.5 -43t-9 -42t-36.5 -22t-56 18q-33 22 -60 34.5t-72 12.5q-52 0 -92 -20t-68.5 -53.5t-43 -79t-14.5 -97.5q0 -51 14.5 -95.5t41.5 -78.5t66.5 -53.5t91.5 -19.5q26 0 45 3.5t36 9.5t35 14q17 10 38 20q30 14 52.5 5t31.5 -27.5t3 -42.5
q-6 -25 -33 -41q-32 -20 -86 -36t-122 -16q-81 0 -144.5 28t-106 76t-64 114t-21.5 140t21.5 140t64 115t106.5 77t148 28q74 0 127.5 -23t80.5 -45z" />
    <glyph glyph-name="D" unicode="D" horiz-adv-x="640" 
d="M632 357q0 -78 -21 -143.5t-62 -112.5t-100 -74t-135 -27h-184q-39 0 -53.5 22t-14.5 47v569q0 30 16 48.5t52 18.5h172q84 0 146 -28.5t102.5 -76.5t61 -111t20.5 -132zM510 357q0 50 -11 94t-37.5 77t-68.5 52.5t-102 19.5h-113v-494h118q58 0 99 20.5t67 55t37 80
t11 95.5z" />
    <glyph glyph-name="E" unicode="E" horiz-adv-x="462" 
d="M130 0q-34 0 -53 22t-19 47v569q0 26 19 46.5t53 20.5h264q32 0 48 -17.5t16 -37.5t-16 -36.5t-48 -16.5h-216v-191h197q32 0 48.5 -17t16.5 -37t-17 -37t-48 -17h-197v-188h216q32 0 48 -17.5t16 -38t-16 -37.5t-48 -17h-264z" />
    <glyph glyph-name="F" unicode="F" horiz-adv-x="438" 
d="M180 597v-187h182q32 0 47 -17.5t15 -38t-16 -37.5q-14 -17 -46 -17h-182v-242q0 -32 -19 -48t-42 -16t-42 16t-19 48v581q0 26 17 46.5t55 20.5h262q32 0 47 -17t15 -37t-16 -38q-14 -17 -46 -17h-212z" />
    <glyph glyph-name="G" unicode="G" horiz-adv-x="655" 
d="M652 309q0 -56 -14 -112t-49 -101t-95 -74q-60 -28 -148 -28q-81 0 -140.5 31t-100.5 82t-60 115q-19 62 -19 130q0 74 21.5 140t64 115t106.5 77t148 28q74 0 128 -23t80 -45q22 -18 25 -43t-10 -43t-37 -22t-54 18q-33 24 -60 35t-72 11q-54 0 -94.5 -19.5t-68 -52.5
t-41.5 -78.5t-14 -97.5q0 -46 14 -91t39 -81t63 -58t87 -22q45 0 79 16t56 41.5t33 55.5t11 60v11h-119q-32 0 -47.5 17t-15.5 38t16 38t47 17h153q50 0 69 -23.5t19 -61.5z" />
    <glyph glyph-name="H" unicode="H" horiz-adv-x="651" 
d="M598 62q0 -36 -18.5 -54t-42 -18t-42 18t-18.5 54v246h-301v-246q0 -36 -19 -54t-42 -18t-42 18t-19 54v582q0 36 19 54.5t42 18.5t42 -18.5t19 -54.5v-232h301v232q0 36 18.5 54.5t42 18.5t42 -18.5t18.5 -54.5v-582z" />
    <glyph glyph-name="I" unicode="I" horiz-adv-x="232" 
d="M177 57q0 -32 -18.5 -48.5t-42 -16.5t-42 17t-18.5 48v593q0 32 18.5 48t42 16t41.5 -16q19 -16 19 -48v-593z" />
    <glyph glyph-name="J" unicode="J" horiz-adv-x="390" 
d="M350 182q0 -86 -44.5 -136t-143.5 -50q-26 0 -66 9t-68 31q-27 22 -30.5 47t9.5 41t36 19.5t49 -14.5q21 -15 34.5 -21t43.5 -6q60 0 60 72v476q0 32 18.5 48t41 16t41.5 -16t19 -48v-468z" />
    <glyph glyph-name="K" unicode="K" horiz-adv-x="553" 
d="M536 4q-20 -14 -45 -10.5t-45 24.5l-269 278v-240q0 -32 -18.5 -48.5t-42 -16.5t-42 16.5t-18.5 48.5v594q0 32 18.5 48t42 16t41.5 -16q19 -16 19 -48v-203l239 233q30 30 56 30.5t42 -14.5t15 -40.5t-25 -47.5l-244 -236l271 -279q24 -24 25 -48.5t-20 -40.5z" />
    <glyph glyph-name="L" unicode="L" horiz-adv-x="429" 
d="M128 0q-38 0 -55 21t-17 48v581q0 32 18.5 48t42 16t41.5 -16q19 -16 19 -48v-539h189q32 0 47.5 -17.5t15.5 -38.5t-15.5 -38t-47.5 -17h-238z" />
    <glyph glyph-name="M" unicode="M" horiz-adv-x="733" 
d="M693 56q0 -32 -18.5 -47t-40.5 -14t-41 17q-19 14 -19 46v328l14 154l-39 -153l-121 -348q-16 -43 -62 -43q-44 0 -60 43l-122 347l-37 151l12 -151v-329q0 -30 -18.5 -45.5t-40.5 -15.5t-41 15t-19 46v583q0 30 21 50.5t61 20.5q32 0 53 -13.5t35 -52.5l156 -447
l158 447q14 39 35 52.5t51 13.5q40 0 61.5 -20.5t21.5 -50.5v-584z" />
    <glyph glyph-name="N" unicode="N" horiz-adv-x="681" 
d="M627 52q0 -21 -15 -36.5t-36 -20t-44.5 3t-39.5 33.5l-296 436l-25 51l3 -55v-407q0 -33 -19 -49.5t-40.5 -16.5t-40 16.5t-18.5 49.5v599q0 21 15 36.5t36 20t44 -4t41 -32.5l294 -438l26 -50l-4 52v412q0 32 19 48.5t41 16.5t40.5 -16.5t18.5 -48.5v-600z" />
    <glyph glyph-name="O" unicode="O" horiz-adv-x="712" 
d="M682 352q0 -68 -21 -131t-62 -113.5t-102 -81t-141 -30.5q-81 0 -142.5 30.5t-103 81t-62.5 114.5q-21 62 -21 130t21 132.5t62.5 115t102.5 81t143 30.5q81 0 141.5 -30.5t101.5 -81t62 -115t21 -132.5zM567 352q0 46 -12.5 92t-39 82t-66 58t-93.5 22t-93 -22t-65 -58
t-38 -82t-12 -92q0 -48 12 -93t38 -81t65 -57.5t93 -21.5t93.5 21.5t66 57.5t39 81t12.5 93z" />
    <glyph glyph-name="P" unicode="P" horiz-adv-x="538" 
d="M537 483q0 -42 -15.5 -81.5t-46.5 -71.5t-77 -51t-106 -19h-116v-202q0 -32 -19 -48t-42 -16t-42 16t-19 48v581q0 28 17 47.5t55 19.5h164q62 0 108 -18.5t77 -50t46.5 -72t15.5 -82.5zM418 483q0 45 -30.5 82t-96.5 37h-115v-238h120q58 0 89 37t33 82z" />
    <glyph glyph-name="Q" unicode="Q" horiz-adv-x="712" 
d="M682 352q0 -63 -16 -120.5t-51 -105.5q12 -9 29.5 -21t30 -27t15.5 -31.5t-12 -36.5q-16 -20 -36 -19.5t-40 9.5t-38 23.5t-30 22.5q-36 -24 -81 -37t-97 -13q-81 0 -142.5 30.5t-103 81t-62.5 114.5q-21 62 -21 130t21 132.5t62.5 115t102.5 81t143 30.5
q81 0 141.5 -30.5t101.5 -81t62 -115t21 -132.5zM567 352q0 46 -12.5 92t-39 82t-66 58t-93.5 22t-93 -22t-65 -58t-38 -82t-12 -92q0 -48 12 -93t38 -81t65 -57.5t93 -21.5q48 0 82 18q-12 9 -30 21t-32 27t-19 33t12 38q18 21 39.5 20t43.5 -12.5t41 -27t31 -24.5
q21 34 32 76t11 84z" />
    <glyph glyph-name="R" unicode="R" horiz-adv-x="535" 
d="M532 495q0 -36 -12.5 -71.5t-38 -63.5t-63.5 -48.5t-88 -26.5l176 -192q24 -26 21 -49t-20.5 -36.5t-43 -12.5t-47.5 25l-240 260v-223q0 -32 -19 -48.5t-42 -16.5t-42 17t-19 48v581q0 28 17 48t55 20h164q60 0 105.5 -18t75.5 -48t45.5 -67.5t15.5 -77.5zM414 495
q0 39 -28.5 72t-94.5 33h-115v-212h120q57 0 86.5 33.5t31.5 73.5z" />
    <glyph glyph-name="S" unicode="S" horiz-adv-x="508" 
d="M489 207q0 -44 -16.5 -82.5t-48 -68t-77 -46t-104.5 -16.5q-78 0 -124.5 19t-73.5 43q-22 18 -24.5 42t9.5 41t36 21t56 -18q20 -15 46 -27.5t74 -12.5q32 0 55 10t37 25t21.5 33t7.5 34q0 38 -24.5 61t-62.5 39.5t-82 31.5t-81.5 37.5t-62 57.5t-24.5 91q0 46 18 82
t49 59.5t72 35.5t85 12q74 0 115 -18.5t69 -41.5q22 -18 24 -42.5t-10.5 -41.5t-36.5 -21t-54 18q-27 21 -47 30.5t-60 9.5q-48 0 -72.5 -23t-24.5 -55q0 -18 9.5 -31t24 -24t31 -17.5t31.5 -12.5q42 -18 85.5 -35.5t77.5 -42.5t55.5 -62t21.5 -94z" />
    <glyph glyph-name="T" unicode="T" horiz-adv-x="505" 
d="M312 596v-538q0 -32 -19 -48t-42 -16t-42 16t-19 48v538h-127q-32 0 -47.5 17t-15.5 38t16 38t47 17h377q32 0 47 -17t15 -38t-16 -38q-14 -17 -46 -17h-128z" />
    <glyph glyph-name="U" unicode="U" horiz-adv-x="693" 
d="M638 284q0 -90 -28 -146.5t-71 -88t-95 -42.5t-98 -11q-48 0 -99.5 11t-94 42.5t-70.5 88t-28 146.5v366q0 27 16 44q18 17 46 17q30 0 46 -17.5t16 -43.5v-398q0 -72 46 -112t122 -40t122 40t46 112v398q0 27 17 44t45 17t45 -17.5t17 -43.5v-366z" />
    <glyph glyph-name="V" unicode="V" horiz-adv-x="586" 
d="M582 660q0 -20 -8 -38l-214 -571q-8 -21 -22 -38t-46 -17q-33 0 -46.5 17t-20.5 38l-216 571q-6 16 -6 38q0 21 15 36q14 15 40 15q34 0 48 -19.5t23 -45.5l163 -445q2 3 11 29t22.5 66t30 89.5t35.5 100.5t37 98q20 48 36 84q8 21 22 32t39 11q26 0 41.5 -15t15.5 -36z
" />
    <glyph glyph-name="W" unicode="W" horiz-adv-x="826" 
d="M820 657q0 -21 -6 -47l-106 -547q-4 -26 -21 -46.5t-59 -20.5q-32 0 -54 12q-22 14 -34 54l-116 379l-10 67l-12 -67l-114 -379q-12 -40 -35 -53t-53 -13q-44 0 -60 21t-22 46l-106 547q-3 16 -3.5 27t-0.5 20q0 21 15 37.5t41 16.5q54 -1 66 -53l71 -403l7 -95l18 94
l125 412q8 26 24.5 35.5t38.5 9.5q21 0 37.5 -9.5t24.5 -35.5l126 -412l16 -94l8 95l72 403q9 52 64 53q27 0 42.5 -16.5t15.5 -37.5z" />
    <glyph glyph-name="X" unicode="X" horiz-adv-x="618" 
d="M614 46q0 -24 -19 -37t-40 -13q-15 0 -29 6t-30 26l-187 256l-187 -256q-15 -21 -28.5 -26.5t-30.5 -5.5q-21 0 -39 13t-18 37q0 15 6 26.5t10 17.5l215 288l-177 237q-18 22 -18 45q0 24 18 37.5t39 13.5q16 0 30.5 -6t29.5 -27l150 -210l151 210q15 21 29.5 27t30.5 6
q21 0 38.5 -13.5t17.5 -37.5q0 -20 -16 -45l-178 -237l214 -288q6 -6 12 -17.5t6 -26.5z" />
    <glyph glyph-name="Y" unicode="Y" horiz-adv-x="535" 
d="M532 660q0 -18 -16 -44l-188 -289v-270q0 -27 -16 -44t-45 -17q-28 0 -44.5 17t-16.5 44v270l-186 289q-16 26 -17 44q0 26 18 38.5t39 12.5q38 -1 58 -35l149 -229l149 229q12 20 27 27.5t31 7.5q22 0 40 -12.5t18 -38.5z" />
    <glyph glyph-name="Z" unicode="Z" horiz-adv-x="552" 
d="M546 54q0 -27 -19 -40.5t-43 -13.5h-409q-69 0 -69 56q0 14 4 26t16 28l344 490h-286q-26 0 -44 13t-18 39q0 27 18 40t44 13h386q26 0 44 -12t18 -33q0 -18 -5 -31t-19 -32l-346 -491h322q24 0 43 -13t19 -39z" />
    <glyph glyph-name="bracketleft" unicode="[" horiz-adv-x="256" 
d="M244 -30q0 -21 -16 -36t-38 -15h-68q-33 0 -48 18q-16 17 -16 43v671q0 24 15 42.5t49 18.5h68q22 0 38 -15.5t16 -36.5t-16 -36q-16 -16 -38 -16h-18v-586h18q22 0 38 -15t16 -37z" />
    <glyph glyph-name="backslash" unicode="\" horiz-adv-x="430" 
d="M416 44q0 -24 -16 -38t-40 -14t-37 13t-19 25l-271 584q-15 32 -15 49q0 24 16 37q18 14 40 14q26 0 37.5 -13t17.5 -26l271 -583q16 -32 16 -48z" />
    <glyph glyph-name="bracketright" unicode="]" horiz-adv-x="256" 
d="M198 -20q0 -26 -15 -43.5t-48 -17.5h-69q-22 0 -38 15t-16 36q0 22 16 37t38 15h18v586h-18q-22 0 -38 15.5t-16 36.5t16 36.5t38 15.5h69q33 0 48 -18.5t15 -42.5v-671z" />
    <glyph glyph-name="asciicircum" unicode="^" horiz-adv-x="595" 
d="M558 320q0 -24 -17 -38t-39 -14q-21 0 -34.5 14t-29.5 45l-141 259l-139 -259q-16 -32 -30 -45.5t-36 -13.5q-21 0 -37.5 14t-16.5 38q0 14 6 26t13 24l174 310q9 18 24 34t42 16q28 0 43.5 -16t23.5 -34l174 -310q8 -12 14 -24t6 -26z" />
    <glyph glyph-name="underscore" unicode="_" horiz-adv-x="496" 
d="M550 -99q0 -26 -18 -38.5t-36 -12.5h-496q-18 0 -36 13t-18 38q0 26 18 37.5t36 11.5h496q18 0 36 -11.5t18 -37.5z" />
    <glyph glyph-name="grave" unicode="`" horiz-adv-x="262" 
d="M258 644q0 -14 -13 -36.5t-41 -22.5q-18 1 -40 11l-114 46q-46 20 -46 52q0 6 3 17t10 20t17 15.5t24 6.5q18 -1 41 -11l114 -46q45 -20 45 -52z" />
    <glyph glyph-name="a" unicode="a" horiz-adv-x="558" 
d="M508 51q0 -30 -18.5 -43.5t-36.5 -13.5t-35.5 13t-19.5 38q-56 -51 -131 -51q-62 0 -106.5 23t-75.5 61.5t-46 87t-15 101.5q0 51 15 99t46 85t76 59t106 22q75 0 131 -46q3 26 20.5 36t34.5 10q18 0 36.5 -12.5t18.5 -42.5v-426zM399 266q0 33 -8.5 63.5t-24.5 53.5
t-40 37.5t-56 14.5q-34 0 -59 -14.5t-41 -38.5t-23 -53t-7 -61t7 -63t23 -56t41 -40.5t59 -15.5q30 0 54 15t40.5 39.5t25.5 55.5t9 63z" />
    <glyph glyph-name="b" unicode="b" horiz-adv-x="552" 
d="M534 267q0 -52 -15 -101.5t-44 -88t-75 -61t-106 -22.5q-36 0 -70 13t-62 38q-2 -27 -20 -39t-36 -12t-37 13t-19 43v654q0 30 19 42.5t37 12.5t37 -12.5t19 -42.5v-216q27 22 61.5 33t70.5 11q60 0 106 -22t75 -60t44 -85t15 -98zM420 267q0 32 -7.5 61t-23 53
t-40.5 38.5t-59 14.5q-32 0 -56 -14.5t-40.5 -38t-25 -54t-8.5 -63.5q0 -30 9 -61t26 -55.5t41 -40t54 -15.5q34 0 59 15.5t40.5 41t23 56t7.5 62.5z" />
    <glyph glyph-name="c" unicode="c" horiz-adv-x="450" 
d="M438 410q-12 -16 -33 -20t-42 12q-18 15 -41.5 25.5t-55.5 7.5q-68 -6 -102 -55.5t-34 -113.5q0 -33 8.5 -63.5t25 -53.5t41.5 -38t57 -17q30 -2 53 6t47 23q27 18 45.5 11.5t27.5 -23.5t6 -38t-18 -31q-16 -14 -52.5 -29t-79.5 -17q-66 -3 -117 17t-85.5 57.5
t-52.5 87.5t-18 108q0 48 14 94t42 83t71 62t101 29q63 6 109.5 -9t74.5 -41q20 -20 20 -39.5t-12 -34.5z" />
    <glyph glyph-name="d" unicode="d" horiz-adv-x="552" 
d="M502 51q0 -30 -18.5 -42.5t-36.5 -12.5t-36 12t-21 38q-56 -50 -132 -50q-62 0 -107 22t-74 60.5t-44 88t-15 101.5q0 51 15 98.5t44 85t74 60t107 22.5q38 0 72 -11t60 -34v215q0 30 19 42.5t38 12.5q18 0 36.5 -12.5t18.5 -42.5v-653zM393 266q0 33 -9 63.5t-25.5 53.5
t-40.5 37.5t-56 14.5q-34 0 -59 -14.5t-40.5 -38.5t-23 -53t-7.5 -61t7.5 -62t23 -56t40.5 -41.5t59 -15.5q32 0 56 15.5t40.5 40.5t25.5 56t9 61z" />
    <glyph glyph-name="e" unicode="e" horiz-adv-x="516" 
d="M501 274q-3 -56 -65 -55h-310q6 -54 41 -88.5t99 -34.5q26 0 44 3t34 10t30 17t31 24q27 21 46.5 18.5t29 -17.5t9.5 -36t-14 -37q-27 -30 -82.5 -56t-125.5 -26q-68 0 -116 23t-80 61t-47 88t-15 102q0 118 66 190q64 72 186 72q62 0 108 -21t76 -57t43.5 -82.5
t11.5 -97.5zM387 308q-2 22 -10 44.5t-23.5 40.5t-38.5 29.5t-53 11.5q-63 0 -98 -38q-34 -38 -40 -88h263z" />
    <glyph glyph-name="f" unicode="f" horiz-adv-x="256" 
d="M208 663q-24 0 -24 -21v-106h41q33 0 49 -16t16 -35t-16 -34.5t-49 -15.5h-41v-377q0 -32 -17 -47t-39 -15t-39 16q-17 14 -17 46v377h-21q-30 0 -45.5 15.5t-15.5 34.5t15 35t46 16h21v103q0 56 38 89.5t92 33.5h26q32 0 48 -16t17 -34t-15 -33.5t-48 -15.5h-22z" />
    <glyph glyph-name="g" unicode="g" horiz-adv-x="559" 
d="M510 52q0 -58 -18 -107t-52 -85t-81 -55t-104 -19q-33 0 -71 8t-71 22t-55 33t-22 41q0 16 11 35t43 19q18 0 34.5 -8t36 -17t44.5 -17t57 -8q36 0 60 13t39 34t21 47t6 51v1q-48 -44 -118 -44q-62 0 -108 23t-78 60.5t-47.5 86t-15.5 100.5q0 51 15.5 99.5t47.5 86
t78 60t108 22.5q34 0 66 -13t54 -29q6 22 24 32t39 10q16 0 36.5 -13t20.5 -43v-426zM398 266q0 32 -7 61t-23 53t-40 38t-58 14t-58 -14t-40 -38t-24 -54q-7 -28 -7 -60t7.5 -62t23.5 -54t40 -38t58 -14t58 14t40 38t23 54t7 62z" />
    <glyph glyph-name="h" unicode="h" horiz-adv-x="541" 
d="M501 54q0 -26 -15.5 -43t-44.5 -17q-27 0 -43.5 17t-16.5 43v278q0 57 -33 77.5t-72 20.5q-18 0 -37 -7t-34 -21.5t-24.5 -34t-9.5 -43.5v-270q0 -26 -16.5 -43t-44.5 -17q-27 0 -43.5 17t-16.5 43v652q0 26 16 43t44 17t44.5 -17t16.5 -43v-212q30 22 63 30q34 8 68 8
q33 0 68 -9.5t64.5 -32t48 -60.5t18.5 -94v-282z" />
    <glyph glyph-name="i" unicode="i" horiz-adv-x="234" 
d="M186 648q0 -28 -19.5 -47t-49.5 -19t-50.5 19t-20.5 47q0 27 20.5 46.5t50.5 19.5t49.5 -19.5t19.5 -46.5zM177 54q0 -27 -16.5 -43.5t-43.5 -16.5q-28 0 -44 16.5t-16 43.5v418q0 26 15.5 43t44.5 17q27 0 43.5 -17t16.5 -43v-418z" />
    <glyph glyph-name="j" unicode="j" horiz-adv-x="265" 
d="M222 648q0 -28 -19.5 -47t-49.5 -19t-50.5 19t-20.5 47q0 27 20.5 46.5t50.5 19.5t49.5 -19.5t19.5 -46.5zM210 -111q0 -56 -37.5 -88.5t-91.5 -32.5h-25q-32 0 -48.5 15t-18 33.5t14.5 33.5t48 15h23q23 1 23 23v582q0 32 17 48t39 16t39 -16t17 -48v-581z" />
    <glyph glyph-name="k" unicode="k" horiz-adv-x="466" 
d="M478 42q0 -21 -16 -34.5t-38 -13.5q-21 0 -33.5 7t-28.5 23l-191 189v-159q0 -26 -16.5 -43t-44.5 -17q-27 0 -43.5 17t-16.5 43v652q0 26 16 42.5t44 16.5t44.5 -16.5t16.5 -42.5v-331l162 129q16 12 32 20q15 8 29 8q26 0 39.5 -15.5t13.5 -36.5q-1 -26 -29 -46
l-182 -137l216 -201q16 -15 21 -26.5t5 -27.5z" />
    <glyph glyph-name="l" unicode="l" horiz-adv-x="220" 
d="M171 54q0 -26 -16.5 -43t-44.5 -17q-27 0 -43.5 17t-16.5 43v652q0 26 16 42.5t44 16.5t44.5 -16.5t16.5 -42.5v-652z" />
    <glyph glyph-name="m" unicode="m" horiz-adv-x="834" 
d="M795 54q0 -26 -15.5 -43t-44.5 -17q-28 0 -44 17t-16 43v286q0 48 -21.5 70t-73.5 22q-40 0 -68.5 -31t-28.5 -74v-273q0 -26 -16.5 -43t-43.5 -17q-28 0 -44 17t-16 43v279q0 50 -21.5 74.5t-71.5 24.5q-39 0 -69 -31t-30 -74v-273q0 -26 -16.5 -43t-44.5 -17
q-27 0 -43.5 17t-16.5 43v422q0 26 16 42t44 16q22 0 37 -11t21 -29q20 16 49 28t74 12q44 0 82 -15q37 -15 63 -54q26 28 66 49q42 20 94 20q36 0 72 -10t63.5 -32t45.5 -60t18 -94v-284z" />
    <glyph glyph-name="n" unicode="n" horiz-adv-x="541" 
d="M501 54q0 -26 -15.5 -43t-44.5 -17q-27 0 -43.5 17t-16.5 43v278q0 57 -33 77.5t-72 20.5q-18 0 -37 -7t-34 -21.5t-24.5 -34t-9.5 -43.5v-270q0 -26 -16.5 -43t-44.5 -17q-27 0 -43.5 17t-16.5 43v420q0 26 16 42t44 16q22 0 37 -11t21 -29q30 24 64 32q36 8 70 8
q33 0 68 -9.5t64.5 -32t48 -60.5t18.5 -94v-282z" />
    <glyph glyph-name="o" unicode="o" horiz-adv-x="534" 
d="M516 264q0 -51 -16.5 -99.5t-48 -86.5t-78 -61t-106.5 -23q-62 0 -108.5 23t-77.5 61t-47 86.5t-16 99.5t16 99.5t47 86.5t78 60t108 22q60 0 106.5 -22t78 -60t48 -86.5t16.5 -99.5zM394 264q0 32 -6.5 61t-22 53t-39.5 38t-59 14q-34 0 -58.5 -14t-40 -38t-23 -53
t-7.5 -61t7.5 -62t23 -54t39.5 -38t59 -14q34 0 58.5 14t40 38t22 54t6.5 62z" />
    <glyph glyph-name="p" unicode="p" horiz-adv-x="559" 
d="M537 264q0 -51 -15.5 -99.5t-46.5 -86.5t-76 -61t-103 -23q-40 0 -72 13.5t-54 31.5v-193q0 -26 -16 -42.5t-44 -16.5q-27 0 -43.5 16.5t-16.5 42.5v628q0 26 16 42t44 16q48 0 58 -42q42 42 128 42q58 0 103 -23t76 -60.5t46.5 -85.5t15.5 -99zM417 264q0 32 -6.5 61
t-22.5 53t-40 38t-58 14t-58.5 -14t-40 -38t-23.5 -53t-8 -61t8 -62t23.5 -54t39.5 -38q25 -14 59 -14t58 14t40 38t22.5 54t6.5 62z" />
    <glyph glyph-name="q" unicode="q" horiz-adv-x="559" 
d="M510 -154q0 -26 -16.5 -42.5t-43.5 -16.5q-28 0 -45 16.5t-17 42.5v194q-21 -18 -53 -31q-33 -13 -73 -13q-58 0 -103 23t-76 60.5t-46.5 86t-15.5 100.5q0 51 15.5 98.5t46.5 85.5t76 61t103 23q88 0 130 -42q10 42 58 42q27 0 44 -16q16 -16 16 -42v-630zM398 266
q0 32 -7 61t-23 53t-40 38t-58 14t-58 -14t-40 -38t-24 -54q-7 -28 -7 -60t7.5 -62t23.5 -54t40 -38t58 -14t58 14t40 38t23 54t7 62z" />
    <glyph glyph-name="r" unicode="r" horiz-adv-x="328" 
d="M339 476q0 -26 -19.5 -41t-49.5 -19q-16 -3 -34 -13.5t-32.5 -27.5t-23.5 -39q-10 -20 -10 -46v-236q0 -26 -17 -43t-45 -17q-27 0 -43.5 17t-16.5 43v420q0 26 16.5 42t43.5 16q26 0 41.5 -13t18.5 -35q21 21 48 34.5t57 13.5t48 -15t18 -41z" />
    <glyph glyph-name="s" unicode="s" horiz-adv-x="441" 
d="M430 156q0 -44 -18 -74.5t-48 -50t-67 -28.5t-75 -9q-40 0 -79 9t-69 25t-48 35t-18 42q0 24 18 37.5t37 13.5q20 0 33.5 -10t29 -21t38 -20t61.5 -9q44 0 64.5 18t20.5 34q0 14 -9 24t-21 17t-26 13t-24 10q-32 10 -69 22t-67.5 30t-51.5 45t-21 69q0 40 16.5 70t45 49
t64.5 29q37 10 77 10q28 0 62 -7t63 -20.5t48.5 -33t19.5 -45.5q0 -21 -14.5 -35.5t-40.5 -14.5q-18 0 -31 8t-27 18t-33 18t-47 8q-38 0 -60 -13.5t-22 -34.5q0 -12 9 -21t22 -16.5t26.5 -13t22.5 -7.5q32 -12 68.5 -25t68 -31t51.5 -45t20 -69z" />
    <glyph glyph-name="t" unicode="t" horiz-adv-x="273" 
d="M276 488q0 -26 -16.5 -39t-43.5 -13h-20v-384q0 -26 -16 -42t-44 -16t-44 16t-16 42v384h-19q-27 0 -43.5 13t-16.5 39q0 24 16.5 37t43.5 13h19v92q0 26 16 42t44 16t44 -16t16 -42v-92h20q27 0 43.5 -13t16.5 -37z" />
    <glyph glyph-name="u" unicode="u" horiz-adv-x="541" 
d="M492 54q0 -26 -16 -43t-44 -17q-46 0 -57 42q-30 -24 -64.5 -33t-68.5 -9t-70 10t-65 32t-48 60.5t-19 95.5v282q0 26 17 42t43 16q28 0 45 -16t17 -42v-278q0 -28 9 -47.5t24 -31t34 -16.5t38 -5q18 0 36.5 7.5t33.5 22t25 33.5t10 43v272q0 26 16.5 42t43.5 16
q28 0 44 -16t16 -42v-420z" />
    <glyph glyph-name="v" unicode="v" horiz-adv-x="453" 
d="M458 478q0 -9 -3 -17.5t-8 -19.5l-151 -401q-8 -21 -20 -33.5t-40 -12.5q-30 0 -42 13t-20 33l-152 401q-4 10 -7 19.5t-3 17.5q0 26 17 40t39 14q30 0 42 -12q13 -14 19 -30l107 -301l104 301q6 16 19 29t43 13q21 0 38.5 -14t17.5 -40z" />
    <glyph glyph-name="w" unicode="w" horiz-adv-x="775" 
d="M774 482q0 -12 -8 -38l-145 -396q-18 -54 -66 -54q-47 0 -65 54l-98 291l-100 -291q-18 -54 -64 -54q-48 0 -66 54l-146 396q-8 26 -7 38q0 16 14.5 33t44.5 17q21 0 37.5 -10t26.5 -42l98 -294l94 282q9 26 21 45q13 19 47 19t46 -19t21 -45l95 -282l97 294
q10 32 26.5 42t38.5 10q30 0 44 -17t14 -33z" />
    <glyph glyph-name="x" unicode="x" horiz-adv-x="460" 
d="M471 48q0 -22 -15.5 -38t-41.5 -16q-33 0 -51 26l-133 172l-132 -172q-18 -26 -53 -26q-24 0 -39.5 16t-15.5 38q0 20 20 48l149 183l-129 159q-18 22 -18 42q0 21 14 36.5t38 15.5q21 0 32.5 -7t19.5 -17l114 -144l115 144q8 9 19 16.5t32 7.5q24 0 38 -15.5t14 -36.5
q0 -20 -18 -42l-128 -159l148 -183q21 -28 21 -48z" />
    <glyph glyph-name="y" unicode="y" horiz-adv-x="463" 
d="M448 482q0 -9 -2 -19.5t-10 -32.5l-222 -600q-8 -16 -22 -29t-36 -13q-21 0 -39 14t-18 38q0 9 3 19.5t12 30.5l52 136l-146 404q-8 21 -11 31.5t-3 20.5q0 24 18 37t38 13q22 0 38 -12q16 -14 22 -30l108 -302l104 302q8 16 21.5 29t37.5 13q20 0 37.5 -13t17.5 -37z
" />
    <glyph glyph-name="z" unicode="z" horiz-adv-x="441" 
d="M436 51q0 -26 -16 -38.5t-44 -12.5h-313q-32 0 -46 14t-14 31q0 14 5.5 25t15.5 26l234 330h-184q-27 0 -43.5 13t-16.5 38q0 24 16 37.5t44 13.5h294q30 0 44 -14t14 -31q0 -14 -5 -25t-16 -26l-239 -330h210q27 0 43.5 -12.5t16.5 -38.5z" />
    <glyph glyph-name="braceleft" unicode="{" horiz-adv-x="285" 
d="M285 -39q1 -43 -55 -43h-38q-60 0 -89 31t-29 85v120q0 44 -2.5 73t-32.5 37q-21 8 -38 17t-17 34q0 26 17 35.5t38 15.5q30 8 32.5 37t2.5 73v121q0 54 29 85.5t89 31.5h38q56 0 55 -44q1 -44 -55 -44h-14q-28 0 -28 -29v-156q0 -54 -18 -83q-18 -30 -40 -43
q22 -12 40 -41.5t18 -84.5v-155q0 -30 28 -30h14q56 0 55 -43z" />
    <glyph glyph-name="bar" unicode="|" horiz-adv-x="220" 
d="M168 50q0 -22 -14 -39t-44 -17q-28 0 -43 16q-15 18 -15 40v660q0 22 14 38q16 17 44 17q30 0 44 -16.5t14 -38.5v-660z" />
    <glyph glyph-name="braceright" unicode="}" horiz-adv-x="285" 
d="M300 315q0 -26 -16 -35q-18 -10 -40 -16q-30 -8 -32 -37t-2 -73v-118q0 -54 -29 -85.5t-88 -31.5h-37q-26 0 -42 9.5t-16 33.5t16 34t42 10h13q27 0 27 30v153q0 56 17 85t40 41q-22 14 -39.5 43t-17.5 83v156q0 29 -27 29h-13q-26 0 -42 10t-16 34q0 22 16 33t42 11h37
q58 0 87.5 -31.5t29.5 -85.5v-121q0 -44 2 -72.5t32 -37.5q21 -6 38.5 -15.5t17.5 -35.5z" />
    <glyph glyph-name="asciitilde" unicode="~" horiz-adv-x="595" 
d="M548 294q0 -26 -13 -49t-34 -41t-47 -29t-52 -11q-34 0 -63.5 10t-56 23t-48 23.5t-39.5 10.5q-10 0 -19.5 -10.5t-19 -23.5t-24 -23t-34.5 -10t-36 12t-16 32q0 24 14 48t35 42t46 29.5t51 11.5q34 0 64 -10.5t56 -23.5t47.5 -23t39.5 -10q10 0 19.5 10t19.5 23t24 23.5
t36 10.5q20 -2 35 -13.5t15 -31.5z" />
    <glyph glyph-name="uni00A0" unicode="&#xa0;" horiz-adv-x="375" 
 />
    <glyph glyph-name="cent" unicode="&#xa2;" horiz-adv-x="477" 
d="M384 522q15 -16 14.5 -33.5t-10.5 -29.5t-26 -15q-16 -4 -30 10q-14 12 -32 20v-242q16 8 30 17q15 10 31.5 6.5t27 -15.5t10 -28.5t-20.5 -31.5q-10 -8 -31 -18t-47 -15v-42q0 -20 -12 -28.5t-26 -8.5t-26 10q-12 8 -12 28v42q-72 16 -107.5 74t-35.5 132q0 34 8.5 67
t26.5 61t45 47.5t63 28.5v44q0 20 12 29t26 9t26 -9t12 -28v-42q27 -3 48 -13.5t36 -25.5zM224 466q-26 -15 -40 -45.5t-14 -66.5q0 -39 14 -69.5t40 -46.5v228z" />
    <glyph glyph-name="sterling" unicode="&#xa3;" horiz-adv-x="604" 
d="M568 51q0 -16 -12 -33q-12 -16 -44 -16h-461q-30 0 -45.5 14t-15.5 31t15 32t45 19q22 2 32.5 15t14 32.5t3 40t-0.5 34.5v95h-47q-30 0 -44 15t-14 33q0 20 13.5 35.5t43.5 15.5h48v94q0 69 15.5 111.5t45 64.5t71 30t90.5 8q68 0 114.5 -9t74.5 -32t41 -63
q13 -38 13 -100q0 -30 -18 -44.5t-39 -14.5t-39 14.5t-18 44.5q0 34 -4 54t-16 30t-34 13q-20 3 -58 3q-44 0 -68 -3t-36 -13.5t-15 -33t-3 -60.5v-94h180q32 0 44 -16.5t12 -34.5q0 -16 -13 -32t-43 -16h-180v-93q0 -10 1 -20t1 -19q0 -21 -4 -41t-19 -38h317
q32 -2 44 -18.5t12 -34.5z" />
    <glyph glyph-name="yen" unicode="&#xa5;" horiz-adv-x="532" 
d="M530 663q0 -12 -5 -21.5t-12 -21.5l-95 -149h44q32 0 47.5 -16.5t15.5 -36.5t-15.5 -37t-47.5 -17h-111l-24 -37v-35h135q32 0 47.5 -16t15.5 -36.5t-15.5 -37t-47.5 -16.5h-135v-134q0 -26 -16.5 -43t-44.5 -17t-44 18q-16 16 -16 42v134h-134q-32 0 -47.5 16.5
t-15.5 37t15.5 36.5t47.5 16h134v35l-24 37h-110q-32 0 -47.5 17t-15.5 37t15.5 36.5t47.5 16.5h40l-94 149q-8 12 -12 21.5t-4 21.5q0 26 18 38.5t38 12.5q16 0 32 -8q15 -6 27 -26l149 -233l150 233q12 20 26 27t30 7q22 0 40 -12.5t18 -38.5z" />
    <glyph glyph-name="copyright" unicode="&#xa9;" horiz-adv-x="940" 
d="M894 414q0 -87 -33 -163.5t-91 -134.5t-134 -91t-164 -33q-87 0 -163.5 33t-134 91t-90.5 134.5t-33 163.5t33 163.5t90.5 134.5t134.5 91t163 33q87 0 163.5 -33t134.5 -91t91 -134.5t33 -163.5zM792 414q0 68 -25.5 127t-69 102.5t-101.5 69t-122 25.5t-122 -25.5
t-101.5 -69t-69 -102.5t-25.5 -127t25.5 -127t69 -102.5t101.5 -69t122 -25.5t122 25.5t101.5 69t69 102.5t25.5 127zM630 530q-12 -15 -29 -19t-37 11q-15 14 -33.5 22t-44.5 6q-54 -6 -81 -47t-27 -97t27 -97.5t79 -44.5q21 -3 41.5 3.5t38.5 18.5q16 9 34 4.5t29.5 -17
t11.5 -29.5q1 -18 -19 -32q-15 -10 -45.5 -24t-68.5 -16q-56 -3 -98 14.5t-70 49.5t-42 76t-14 94q0 40 12 80t35 72.5t59 53.5q36 22 82 28q52 4 92 -9t62 -35q15 -16 15 -35t-9 -31z" />
    <glyph glyph-name="guillemotleft" unicode="&#xab;" horiz-adv-x="435" 
d="M303 266q18 -27 41.5 -57.5t39 -58t18.5 -51.5q2 -23 -21 -37q-20 -12 -40 -6t-32 24l-107 157q-8 12 -8 27.5t8 29.5l107 158q15 22 35 25t35 -7t21 -28.5t-7 -39.5zM134 266q18 -27 41 -57.5t39.5 -58t19.5 -51.5q2 -23 -21 -37q-21 -12 -40.5 -6t-31.5 24l-107 157
q-9 12 -9.5 27.5t9.5 29.5l107 158q15 22 35 25t35 -7t21 -28.5t-7 -39.5z" />
    <glyph glyph-name="registered" unicode="&#xae;" horiz-adv-x="939" 
d="M894 414q0 -87 -33 -163.5t-91 -134.5t-134 -91t-164 -33q-87 0 -163.5 33t-134 91t-90.5 134.5t-33 163.5t33 163.5t90.5 134.5t134.5 91t163 33q87 0 163.5 -33t134.5 -91t91 -134.5t33 -163.5zM792 414q0 68 -25.5 127t-69 102.5t-101.5 69t-122 25.5t-122 -25.5
t-101.5 -69t-69 -102.5t-25.5 -127t25.5 -127t69 -102.5t101.5 -69t122 -25.5t122 25.5t101.5 69t69 102.5t25.5 127zM680 506q0 -63 -34 -97t-73 -43l81 -122q18 -27 11 -47.5t-25 -30.5t-40 -6t-38 30l-103 170h-49v-147q0 -21 -12 -37t-40 -16q-26 0 -38 16t-12 37v393
q0 20 14 32.5t32 12.5q42 0 97.5 2.5t106.5 -7.5t86.5 -41t35.5 -99zM578 508q0 28 -23.5 40t-62.5 10l-82 -2v-102h79q15 0 31 1t28.5 7t21 16.5t8.5 31.5v-2z" />
    <glyph glyph-name="guillemotright" unicode="&#xbb;" horiz-adv-x="435" 
d="M393 294q21 -30 0 -57l-107 -157q-15 -21 -35 -24.5t-35.5 5.5t-21.5 28t8 40l90 137q-18 27 -41 56.5t-39 58.5t-18 52t20 37q20 12 40 6q20 -4 32 -24zM225 294q9 -14 8 -29.5t-8 -27.5l-107 -157q-15 -21 -35.5 -24.5t-36.5 5.5t-21 28t9 40l90 137q-18 27 -41 56.5
t-39 58.5t-19 52t21 37q20 12 40 6q20 -4 32 -24z" />
    <glyph glyph-name="onequarter" unicode="&#xbc;" horiz-adv-x="805" 
d="M746 116q0 -14 -11 -24.5t-25 -10.5h-10v-49q0 -21 -12 -31.5t-26 -10.5t-26 10t-12 32v49h-146q-14 0 -22 6.5t-11 16.5t-1 20t6 18l162 236q8 12 23 19.5t29 7.5t25 -10.5t11 -32.5v-210h10q15 0 25.5 -10.5t10.5 -25.5zM244 27q-16 -24 -35.5 -30.5t-34 -1.5t-18.5 21
q-3 18 12 40l412 622q15 24 34.5 31.5t34.5 3t20 -20.5t-11 -38zM242 340q0 -21 -12 -31.5t-26.5 -10.5t-26.5 11t-12 31v296h-36q-21 0 -32 11t-11 25.5t10 26t33 11.5h75q16 0 27 -10t11 -25v-335zM624 266l-80 -114h80v114z" />
    <glyph glyph-name="onehalf" unicode="&#xbd;" horiz-adv-x="804" 
d="M738 294q0 -24 -10 -50t-32 -55l-106 -125h121q18 0 27 -10t9 -23t-9 -23.5t-27 -10.5h-192q-30 0 -36.5 22.5t7.5 40.5l146 171q26 29 26 61q0 20 -15 32t-35 12q-44 0 -52 -32q0 -16 -12 -26t-26.5 -11t-26.5 8t-12 31q4 40 37.5 70t91.5 30t92 -33.5t34 -78.5zM214 26
q-16 -24 -35.5 -31t-34 -1t-18.5 22q-3 18 12 40l412 622q15 24 34.5 31.5t34.5 2t20 -21.5t-11 -38zM242 340q0 -21 -12 -31.5t-26.5 -10.5t-26.5 11t-12 31v296h-36q-21 0 -32 11t-11 25.5t10 26t33 11.5h75q38 0 38 -36v-334z" />
    <glyph glyph-name="threequarters" unicode="&#xbe;" horiz-adv-x="804" 
d="M272 27q-16 -24 -36 -30.5t-34 -1.5t-18 21q-4 18 11 40l413 622q15 24 34.5 31.5t34.5 3t19 -20.5t-10 -38zM742 117q0 -15 -10 -25.5t-26 -10.5h-8v-49q0 -21 -12 -31.5t-26.5 -10.5t-26.5 10t-12 32v49h-145q-14 0 -22 6.5t-11 16.5t-2 20t6 18l162 236
q8 12 22.5 19.5t29 7.5t26 -10.5t11.5 -32.5v-210h8q15 0 25.5 -10.5t10.5 -24.5zM342 428q0 -63 -40 -94t-96 -31q-44 0 -73 18q-29 19 -45 41q-14 22 -12 39t11 27t22 12t23 -6q10 -6 18 -24q9 -14 20.5 -26t35.5 -12q27 0 43.5 16t16.5 36q0 30 -17.5 44t-41.5 15
q-21 2 -30 12.5t-8 22.5t10 23t22 14q26 4 38.5 19.5t12.5 31.5q0 40 -46 40q-24 0 -33 -10t-9 -20q0 -20 -12 -29t-26.5 -9t-26.5 10q-12 8 -12 28q0 38 32.5 69.5t86.5 31.5q51 0 87.5 -29.5t36.5 -77.5q0 -56 -39 -85q51 -33 51 -97zM621 266l-79 -114h79v114z" />
    <glyph glyph-name="multiply" unicode="&#xd7;" horiz-adv-x="525" 
d="M346 270l114 -116q22 -22 20 -46t-17.5 -40t-40.5 -16q-24 0 -47 22l-113 112l-114 -112q-22 -22 -46 -20t-40 17.5t-17 40t23 47.5l110 111l-110 111q-22 24 -21 48.5t16 40.5t39 18q24 0 46 -22l114 -112l113 112q22 22 47 21t40.5 -17t17.5 -40t-20 -46z" />
    <glyph glyph-name="divide" unicode="&#xf7;" horiz-adv-x="525" 
d="M326 430q0 -27 -19 -45.5t-46 -18.5t-46 19t-19 45q0 27 19 46t46 19t46 -19t19 -46zM488 270q0 -24 -17.5 -38t-44.5 -14h-322q-26 0 -44 14t-18 38q0 26 18 40t46 14h317q28 0 46.5 -14t18.5 -40zM326 116q0 -27 -19 -46t-46 -19t-46 18.5t-19 46.5q0 27 19 45.5
t46 18.5t46 -18.5t19 -45.5z" />
    <glyph glyph-name="kokaithai" unicode="&#xe01;" horiz-adv-x="531" 
d="M500 54q0 -27 -17 -43.5t-43 -16.5q-28 0 -45 16.5t-17 43.5v279q0 51 -29 77t-76 26q-48 0 -76.5 -26t-28.5 -77v-279q0 -27 -16.5 -43.5t-43.5 -16.5q-28 0 -45 16.5t-17 43.5v278q0 60 21 99.5t54 63.5t73 33t79 9t79.5 -9.5t73 -33.5t53.5 -63t21 -99v-278z" />
    <glyph glyph-name="khokhaithai" unicode="&#xe02;" horiz-adv-x="489" 
d="M458 158q0 -81 -56 -122.5t-138 -41.5q-39 0 -73.5 10.5t-60.5 31.5t-42 52.5t-16 75.5q0 42 18 73t39 59t39 54t18 54q0 6 -5 16t-23 10q-16 0 -22 -9.5t-10 -21.5t-14 -22.5t-34 -13.5q-40 -4 -55 22t-5.5 59.5t44 62.5t94.5 29q72 0 109.5 -40t37.5 -92
q0 -48 -17.5 -80t-37.5 -58t-37 -51t-17 -56q0 -33 24 -49t46 -16q28 0 50 14.5t22 50.5v318q0 28 16.5 44t43.5 16q28 0 45 -15.5t17 -44.5v-319z" />
    <glyph glyph-name="khokhuatthai" unicode="&#xe03;" horiz-adv-x="489" 
d="M458 158q0 -81 -56 -122.5t-138 -41.5q-39 0 -73.5 10.5t-60.5 31.5t-42 52.5t-16 75.5q0 28 9 51t22.5 44t30 41t31.5 40h-9q-38 0 -65.5 12t-46 32t-27.5 43t-9 45q0 27 16 45.5t45 18.5q33 0 46 -20.5t13 -44.5q0 -10 8 -17.5t20 -7.5q18 0 23 10q5 8 5 16q0 26 16 45
t46 19q20 0 32.5 -10t18.5 -24t8.5 -30t2.5 -30q0 -8 -1 -15t-3 -17q-3 -32 -9.5 -55t-17 -43.5t-25 -39t-32.5 -41.5q-12 -18 -19 -34.5t-7 -37.5q0 -33 24 -49t46 -16q28 0 50 15t22 50l-2 318q0 28 17.5 44t44.5 16q28 0 45 -15.5t17 -44.5v-319z" />
    <glyph glyph-name="khokhwaithai" unicode="&#xe04;" horiz-adv-x="531" 
d="M500 54q0 -27 -17 -43.5t-43 -16.5q-28 0 -45 16.5t-17 43.5v279q0 51 -29 77t-76 26q-48 0 -76.5 -26t-28.5 -77v-7q15 0 42 1t52.5 -2t43.5 -15q18 -14 16 -42q-2 -27 -19 -38.5t-41 -14.5t-50 -1t-44 2v-162q0 -27 -16.5 -43.5t-43.5 -16.5q-28 0 -45 16.5t-17 43.5
v278q0 60 21 99.5t54 63.5t73 33t79 9t79.5 -9.5t73 -33.5t53.5 -63t21 -99v-278z" />
    <glyph glyph-name="khokhonthai" unicode="&#xe05;" horiz-adv-x="579" 
d="M549 52q0 -27 -16.5 -42.5t-44.5 -15.5q-27 0 -43.5 16.5t-16.5 43.5v326l-20 -16q-26 -18 -50.5 -16t-47 13t-42.5 28q-18 17 -32 29h-10q-8 0 -19.5 -8t-24 -25t-21.5 -45t-9 -67q0 -48 13 -88.5t42 -62.5l1 106q0 27 10 44.5t25 28.5t33 15.5t34 4.5q15 0 32.5 -0.5
t31.5 -6.5t23 -17.5t9 -32.5q-2 -54 -62 -54h-16v-159q0 -26 -16 -43q-16 -16 -44 -14q-62 2 -106.5 25t-74.5 60.5t-45 87t-15 103.5q0 68 20.5 118t52.5 84t71 50t75 16q18 0 26 -4q7 -4 19 -14l60 -52q2 -2 6 0q26 22 52.5 45.5t66.5 23.5q30 0 51.5 -18t21.5 -48v-419z
" />
    <glyph glyph-name="khorakhangthai" unicode="&#xe06;" horiz-adv-x="543" 
d="M512 184q0 -56 -20.5 -92t-50.5 -58t-66 -31t-69 -9q-32 0 -66 8q-34 6 -58 32q-9 -40 -56 -40q-28 0 -45 16.5t-17 43.5v128v4q0 2 2 4q6 54 33 85t66 65q-39 0 -67 12t-46.5 32t-27.5 43t-9 45q0 27 16.5 45.5t46.5 18.5q32 0 45 -20.5t13 -44.5q0 -10 8.5 -17.5
t20.5 -7.5q18 0 23.5 10t5.5 16q0 64 60 64q21 0 32.5 -9t18.5 -23t8.5 -30t1.5 -32q0 -36 -6 -63t-18 -49t-30.5 -42.5t-42.5 -44.5q-15 -12 -23.5 -25.5t-8.5 -34.5q0 -14 7 -29.5t22 -29t36.5 -23t51.5 -9.5q34 0 60.5 22t26.5 69v294q0 26 16 43q18 17 46 17
q27 0 43.5 -17.5t16.5 -42.5v-293z" />
    <glyph glyph-name="ngonguthai" unicode="&#xe07;" horiz-adv-x="436" 
d="M402 470v-136t-2 -136q0 -58 -18.5 -97t-47 -63t-63.5 -34t-69 -10q-42 0 -86 15t-76 55q-20 24 -15 47t22 35.5t41 9.5t42 -30q9 -12 28.5 -21t41.5 -9q34 0 57 22.5t23 76.5v222h-18q-32 0 -47 17.5t-15 39t16 39t50 17.5h74q28 0 45 -16.5t17 -43.5z" />
    <glyph glyph-name="chochanthai" unicode="&#xe08;" horiz-adv-x="481" 
d="M450 54q0 -26 -16.5 -43t-43.5 -17q-28 0 -45 16.5t-17 43.5l2 160h-118q-32 0 -48.5 17.5t-16 39t17.5 39t49 17.5l116 -1v13q0 51 -27 74t-85 23q-39 0 -60.5 -12.5t-33.5 -30.5q-20 -30 -43.5 -34.5t-41.5 6.5t-26.5 33t5.5 44q26 39 71.5 68.5t132.5 29.5
q102 0 166 -48q66 -48 64 -144z" />
    <glyph glyph-name="chochingthai" unicode="&#xe09;" horiz-adv-x="562" 
d="M531 54q0 -27 -16.5 -43.5t-44.5 -16.5q-21 0 -34 9q-12 9 -20 33q-24 -26 -60 -34q-34 -8 -66 -8t-68 8t-65 28.5t-48 56t-17 90.5v29h-10q-32 0 -47 17t-15 38t16 38t50 17h67q33 0 46 -16t15 -42t0 -55t1.5 -54.5t20 -42t56.5 -16.5q21 0 42.5 7t37.5 21t27 35t11 48
v102q0 72 -31 100.5t-107 28.5q-48 0 -74 -19t-43 -39t-33 -34q-16 -12 -48 -2q-28 9 -35 33.5t3 45.5q24 48 84 84.5t150 36.5q57 0 104.5 -12t81 -39t51.5 -70t18 -105v-258z" />
    <glyph glyph-name="chochangthai" unicode="&#xe0a;" horiz-adv-x="502" 
d="M472 159q0 -40 -15.5 -71t-43 -51.5t-64.5 -30.5t-77 -10q-39 0 -75.5 10t-64 31t-44 53t-16.5 75q0 42 18 73.5t39 59.5t39 53t18 54q0 6 -6 16.5t-24 10.5q-16 0 -21 -10t-9 -22t-13 -22t-35 -14q-40 -4 -55 22t-5.5 60t44 62.5t94.5 28.5q57 0 96 -33q40 -32 50 -88
q4 -26 -3 -51t-19.5 -47t-27.5 -43t-27 -38q-14 -18 -23 -36q-8 -19 -8 -41q0 -33 28 -48q28 -16 50 -16q28 0 53.5 15t25.5 49v146q0 10 -2.5 28t-20.5 26q-16 8 -14.5 29.5t16.5 30.5q16 9 18.5 29.5t2.5 24.5l-1 52q0 30 17 45t44 15t44 -15t17 -45v-58q0 -15 -8 -38.5
t-30 -39.5q22 -16 30 -40t8 -40v-151z" />
    <glyph glyph-name="sosothai" unicode="&#xe0b;" horiz-adv-x="502" 
d="M472 158q0 -40 -15.5 -71t-43 -51.5t-64.5 -31t-77 -10.5q-39 0 -75.5 10.5t-64 31.5t-44 52.5t-16.5 75.5q0 28 9 51t22.5 44t30 41t31.5 40h-9q-38 0 -65.5 13t-46 32t-27.5 42t-9 45q0 27 16 45.5t45 18.5q33 0 46 -20q13 -22 13 -44q0 -26 28 -26q18 0 24 10t6 16
q0 26 15 45t45 19q20 0 32.5 -10t18.5 -24t8.5 -30t2.5 -28v-14.5t-2 -15.5q-3 -50 -25.5 -95.5t-60.5 -87.5q-26 -30 -26 -72q0 -33 28 -49t50 -16q28 0 53.5 15t25.5 50v147q0 10 -2.5 28t-20.5 26q-16 8 -14.5 29.5t16.5 30.5q16 9 18.5 29.5t2.5 24.5l-1 52q0 30 17 45
t44 15t44 -15t17 -45v-58q0 -15 -8 -38.5t-30 -39.5q22 -16 30 -40t8 -40v-152z" />
    <glyph glyph-name="chochoethai" unicode="&#xe0c;" horiz-adv-x="825" 
d="M795 192q0 -54 -17.5 -92t-45 -61.5t-61 -34t-67.5 -10.5q-36 0 -65 10t-50 36q-3 -22 -19 -34q-18 -12 -40 -12q-27 0 -43.5 16.5t-16.5 43.5v279q0 51 -25 76t-72 23l-105 -2v-314h14q28 -2 48 -16q19 -14 19 -42q0 -26 -18.5 -42t-48.5 -16h-56q-42 0 -61 20t-19 55
v396q0 24 17 41.5t45 18.5l164 1q40 0 79 -9t70.5 -31t51 -61t19.5 -99v-124q0 -22 10 -43t25 -36t34 -24t41 -9q28 0 50 22.5t22 70.5v288q0 26 16 43t44 17t44.5 -16.5t16.5 -43.5v-285z" />
    <glyph glyph-name="yoyingthai" unicode="&#xe0d;" horiz-adv-x="825" 
d="M795 190q0 -104 -60 -151q-59 -47 -151 -47q-42 0 -80.5 11t-68 34t-47.5 61q-18 36 -18 92v143q0 51 -25 75t-72 24l-105 -2v-316h15q27 0 46.5 -14t19.5 -42q0 -27 -18 -42.5t-48 -15.5h-57q-42 0 -61 20t-19 55v395q0 26 16 43t46 17l164 2q40 0 79 -9t70.5 -32
t51 -62t19.5 -99v-141q0 -52 27 -73.5t63 -21.5t64 26q28 28 28 74v282q0 28 16 44t44 16t44.5 -17t16.5 -43v-286zM772 -136q-34 -38 -77 -58t-110 -20q-68 0 -110.5 20t-76.5 58q-20 20 -21.5 45t19.5 41q18 16 40.5 14t40.5 -21q22 -24 44 -37.5t64 -13.5q40 0 62 14
q23 13 45 37q22 22 46 21.5t39 -15.5t16 -39t-21 -46z" />
    <glyph glyph-name="dochadathai" unicode="&#xe0e;" horiz-adv-x="561" 
d="M530 -123q0 -34 -16 -57.5t-38.5 -34.5t-48 -9t-45.5 20l-61 57l-61 -57q-22 -21 -47 -20.5t-41 15t-18 37.5q0 24 22 46q8 8 31 32t49 44q24 24 52 28t50 -17l50 -45v416q0 50 -29 75t-77 23l-106 -1l2 -355q0 -74 -80 -74h-48q-30 0 -48.5 16t-18.5 41q0 33 22.5 44
t50.5 13v354q0 26 16 43t44 19l166 2q40 0 80.5 -9t73 -32t53.5 -62t21 -99v-453z" />
    <glyph glyph-name="topatakthai" unicode="&#xe0f;" horiz-adv-x="561" 
d="M530 -114q-2 -34 -10 -52t-32 -40q-22 -21 -55 -21.5t-53 20.5l-53 49l-54 -50q-38 -36 -87 -2q-28 21 -53 46.5t-37 37.5q-21 21 -18.5 42.5t18 36t39 17t42.5 -15.5l55 -52l48 46q20 18 48 17t46 -17l34 -32v416q0 50 -28.5 75t-76.5 23l-105 -1v-354q0 -34 -19 -54.5
t-59 -20.5h-50q-30 0 -48.5 16t-18.5 41q0 33 22.5 44t50.5 13v354q0 26 17 43t45 19l165 2q39 0 79.5 -9t73 -32t53.5 -62t21 -99v-444z" />
    <glyph glyph-name="thothanthai" unicode="&#xe10;" horiz-adv-x="483" 
d="M452 520v-39v-86t-1 -110t-1 -109v-84.5v-37.5q0 -27 -16.5 -43.5t-43.5 -16.5q-28 0 -45 16.5t-17 43.5l2 160h-118q-32 0 -48 17.5t-16 39t17 39t49 17.5l116 -1v13q0 51 -27 74t-85 23q-39 0 -60 -12q-22 -12 -34 -32q-20 -28 -43.5 -32t-42 7t-26.5 32t6 43
q26 39 71.5 68.5t132.5 29.5q30 0 61 -5t47 -17q0 30 17 46t45 16q27 0 43.5 -17t16.5 -43zM450 -180q0 -30 -20 -52t-54 -22q-40 0 -60 19t-48 46q-10 -9 -23.5 -25t-29 -27t-33.5 -13t-38 16l-92 86q-21 20 -17.5 42t19 37t39 17t42.5 -16l54 -52q10 9 21.5 23t24.5 25.5
t27 12.5t32 -13l34 -34v29q0 24 17 39.5t45 15.5t44 -16t16 -40v-98z" />
    <glyph glyph-name="thonangmonthothai" unicode="&#xe11;" horiz-adv-x="583" 
d="M554 54q0 -27 -16 -43.5t-44 -16.5t-45 16.5t-17 43.5l2 340q0 30 -41 30q-50 0 -84.5 -28t-56 -70t-31 -90t-9.5 -88v-94q0 -27 -16 -43.5t-44 -16.5t-45 16.5t-17 43.5l2 108q0 57 14 102.5t28 75.5q-36 2 -61 15t-41 32t-22.5 42t-6.5 43q0 27 17.5 45.5t45.5 18.5
q32 0 45 -20.5t13 -44.5q0 -25 18 -25q16 0 17 8t1 18q0 26 15 45t45 19q45 0 56 -38q26 20 60 30t68 10q26 0 52.5 -5t48 -19t35.5 -40t14 -64v-356z" />
    <glyph glyph-name="thophuthaothai" unicode="&#xe12;" horiz-adv-x="876" 
d="M844 177q0 -48 -16 -82.5t-42 -57t-59 -33t-65 -10.5q-36 0 -68 10t-56 35q-4 -22 -20 -33.5t-38 -11.5q-27 0 -43.5 16.5t-16.5 43.5v318l-14 -9q-26 -15 -47 -15t-43 10q-26 12 -45 30q-19 16 -35 30h-10q-8 0 -19.5 -8t-24 -25t-21.5 -45t-9 -67q0 -36 7 -67.5
t23 -54.5t39 -37.5t57 -14.5h7q34 4 53 -10t21.5 -32.5t-11.5 -37.5t-42 -23q-3 -2 -6 -2h-21q-64 0 -111.5 22.5t-79 61t-46.5 88.5t-15 104q0 68 20.5 118t52.5 84t71 50t75 16q18 0 26 -4q7 -4 19 -14l60 -52q2 -2 6 0q26 22 52.5 45.5t66.5 23.5q34 0 50 -21.5t16 -44.5
v-265q0 -22 9.5 -42t24.5 -35t34.5 -24t40.5 -9q27 0 49.5 18t22.5 62v301q0 26 16.5 43t43.5 17q28 0 44.5 -17.5t16.5 -42.5v-300z" />
    <glyph glyph-name="nonenthai" unicode="&#xe13;" horiz-adv-x="825" 
d="M795 54q0 -27 -16.5 -43.5t-43.5 -16.5q-47 0 -59 39q-24 -21 -53 -30t-62 -9q-34 0 -68 10.5t-61 34t-44.5 61.5t-17.5 92v141q0 51 -25 77t-72 24l-105 -4v-314h14q28 -2 48 -16q19 -14 19 -42q0 -26 -18.5 -42t-48.5 -16h-56q-42 0 -61 20t-19 55v395q0 26 17 43
t45 17l164 4q40 0 79 -9t70.5 -32t51 -62t19.5 -99v-143q0 -48 22 -70.5t50 -22.5q20 0 40 9t35 24t25 36t10 43v269q0 26 16 43t44 17t44.5 -17.5t16.5 -42.5v-423z" />
    <glyph glyph-name="dodekthai" unicode="&#xe14;" horiz-adv-x="576" 
d="M546 54q0 -27 -16 -44q-18 -16 -46 -16q-27 0 -43.5 16.5t-16.5 43.5v248q0 21 -3.5 44t-17 41.5t-39.5 31.5t-70 13q-68 0 -105 -41t-39 -118q0 -30 7.5 -62.5t24 -58.5t43.5 -41t67 -11q34 6 53 -8t21.5 -35t-12 -40t-42.5 -21q-8 -2 -15 -2h-18q-63 0 -110 22t-79 59
t-47.5 87.5t-15.5 107.5q0 66 21 116t57 84t84.5 51t106.5 17q74 0 121.5 -21t76 -52t40.5 -69q12 -40 12 -74v-268z" />
    <glyph glyph-name="totaothai" unicode="&#xe15;" horiz-adv-x="579" 
d="M549 52q0 -27 -16.5 -42.5t-44.5 -15.5q-27 0 -43.5 16.5t-16.5 43.5v333l-20 -15q-33 -18 -57 -21q-23 -3 -49 18q-12 10 -35 29.5t-41 19.5q-8 0 -19.5 -8t-24 -25t-21.5 -45t-9 -67q0 -30 6.5 -62.5t23 -58.5t43.5 -41t67 -11q34 6 53 -8t21.5 -35t-12 -40t-42.5 -21
q-8 -2 -15 -2h-18q-63 0 -110 22t-79 59t-47.5 87.5t-15.5 107.5q0 68 19.5 118t51 84t70.5 50t78 16q16 0 29 -6t21 -14l55 -50q2 -2 6 0q30 27 52.5 48t66.5 21q30 0 51.5 -18t21.5 -48v-419z" />
    <glyph glyph-name="thothungthai" unicode="&#xe16;" horiz-adv-x="531" 
d="M501 54q0 -27 -16.5 -43.5t-44.5 -16.5q-27 0 -43.5 16.5t-16.5 43.5v279q0 51 -30 77q-29 26 -77 24l-103 -4v-314h14q27 -2 46 -16q20 -14 20 -42q0 -26 -18 -42t-48 -16h-56q-42 0 -61 20t-19 55v395q0 26 16 43q18 17 46 17l163 4q40 0 80.5 -9t73 -32t53.5 -62
t21 -99v-278z" />
    <glyph glyph-name="thothahanthai" unicode="&#xe17;" horiz-adv-x="525" 
d="M495 54q0 -27 -15.5 -43.5t-44.5 -16.5q-28 0 -44.5 16.5t-16.5 43.5v315q0 34 -18 47q-18 14 -46 14q-27 0 -52.5 -12t-44.5 -31t-31 -43t-12 -48v-242q0 -27 -17 -43.5t-43 -16.5q-28 0 -45 16.5t-17 43.5v423q0 28 17 44t46 16q26 0 42.5 -16.5t16.5 -43.5
q24 30 68 45t77 15t65 -7.5t58 -27t41.5 -54t15.5 -88.5v-306z" />
    <glyph glyph-name="thothongthai" unicode="&#xe18;" horiz-adv-x="502" 
d="M472 164q0 -44 -19 -76t-51 -53t-73 -32t-85 -11q-21 0 -53.5 4t-64.5 13t-55 26t-23 45v127q0 27 16.5 43.5t43.5 16.5q28 0 45 -16.5t17 -43.5v-102q16 -6 38.5 -8.5t34.5 -2.5q48 0 79 20q32 20 32 46q0 39 -28 55.5t-94 32.5q-30 8 -63.5 17t-62 26t-47.5 44t-19 67
q2 38 22 64t52 42t70 23t74 7q20 0 45 -3t51 -11t49 -21.5t38 -34.5q21 -27 16.5 -49.5t-22 -33.5t-41.5 -7q-24 2 -42 28q-14 14 -40 22t-54 8q-51 0 -74.5 -14t-23.5 -23q0 -12 16 -21.5t36 -16.5t41 -11t33 -5q38 -8 72 -21.5t59 -34.5t40 -52t15 -73z" />
    <glyph glyph-name="nonuthai" unicode="&#xe19;" horiz-adv-x="525" 
d="M494 54q0 -27 -17 -43.5t-43 -16.5q-22 0 -35 9t-24 39q-26 -27 -62.5 -37.5t-68.5 -10.5t-67 8t-64 28.5t-48 56.5t-19 90v300q0 26 17 43t45 17q27 0 43.5 -17.5t16.5 -42.5v-301q0 -46 22 -65q24 -19 58 -19q21 0 43.5 7t40.5 22t29 37t11 50v269q0 26 16 43
q18 17 46 17q27 0 43.5 -17.5t16.5 -42.5v-423z" />
    <glyph glyph-name="bobaimaithai" unicode="&#xe1a;" horiz-adv-x="531" 
d="M501 198q0 -60 -21 -99t-53.5 -62t-72.5 -33t-81 -10q-39 0 -79 9t-72 32t-53 62t-21 101v279q0 26 16.5 43t43.5 17q28 0 45 -17.5t17 -42.5v-281q0 -51 28 -76.5t75 -25.5q48 0 77.5 26t29.5 76v281q0 26 16 43t44 17t44.5 -17.5t16.5 -42.5v-279z" />
    <glyph glyph-name="poplathai" unicode="&#xe1b;" horiz-adv-x="531" 
d="M500 200q0 -58 -21 -98t-53.5 -63.5t-73 -33t-79.5 -9.5t-79 9t-73 32t-54 62t-21 101v277q0 27 17 43.5t45 16.5q27 0 43.5 -17.5t16.5 -42.5v-279q0 -51 28.5 -76.5t76.5 -25.5q46 0 75.5 25.5t29.5 76.5v488q0 27 16 44q18 16 46 16q27 0 43.5 -17t16.5 -43v-486z" />
    <glyph glyph-name="phophungthai" unicode="&#xe1c;" horiz-adv-x="586" 
d="M556 96q0 -12 -4 -29t-15 -34t-29 -28t-44 -11q-21 0 -41.5 10.5t-38.5 25.5t-34 31.5t-28 28.5q0 2 -1 2l-79 -77q-21 -21 -44 -19q-22 0 -45 14q-52 32 -89 97t-37 169q0 40 13.5 87.5t42 88t70.5 65.5t99 20q27 -3 41.5 -21t13.5 -38t-17 -36q-18 -16 -52 -14
q-18 -3 -33.5 -17.5t-28 -36.5t-20.5 -48t-8 -53q0 -33 5.5 -56t13 -39t15.5 -26t16 -18l54 49q30 30 67.5 29.5t61.5 -22.5l54 -48v336q0 26 16.5 43t43.5 17q28 0 44.5 -17t16.5 -43v-382z" />
    <glyph glyph-name="fofathai" unicode="&#xe1d;" horiz-adv-x="586" 
d="M556 96q0 -12 -4 -29t-15 -33t-29 -27t-44 -11q-21 0 -41.5 10t-38.5 24.5t-34 31t-28 28.5q0 2 -1 2l-79 -77q-21 -21 -40 -22q-18 -1 -44 15q-52 32 -91.5 96t-39.5 172q0 40 13.5 87.5t42 88t70.5 65.5t99 20q27 -3 41.5 -20t13.5 -37.5t-17 -35.5q-18 -16 -52 -16
q-18 -3 -33.5 -17.5t-28 -36.5t-20.5 -48t-8 -53q0 -33 5.5 -56t13 -39t15.5 -26t16 -18l54 49q30 30 67.5 29.5t61.5 -22.5l54 -46v542q0 27 16.5 43.5t43.5 16.5q28 0 44.5 -17t16.5 -43v-590z" />
    <glyph glyph-name="phophanthai" unicode="&#xe1e;" horiz-adv-x="633" 
d="M603 162q0 -34 -13.5 -65t-36 -53.5t-53 -36t-65.5 -13.5q-61 0 -109 39q-22 -18 -50 -28.5t-58 -10.5q-36 0 -67 13.5t-53.5 36t-36 53.5t-13.5 65v316q0 26 16 43q18 17 46 17q27 0 43.5 -17t16.5 -43v-325q0 -20 13 -34t35 -14q21 0 34.5 13.5t13.5 34.5v324
q0 27 16 44t44 17t44.5 -17t16.5 -44v-324q0 -21 13.5 -34.5t33.5 -13.5q21 0 34.5 13.5t13.5 33.5v326q0 26 16 43t44 17t44.5 -17t16.5 -43v-316z" />
    <glyph glyph-name="fofanthai" unicode="&#xe1f;" horiz-adv-x="633" 
d="M603 162q0 -34 -13.5 -65t-36 -53.5t-53 -36t-65.5 -13.5q-61 0 -109 39q-22 -18 -50 -28.5t-58 -10.5q-36 0 -67 13.5t-53.5 36t-36 53.5t-13.5 65v316q0 26 16 43q18 17 46 17q27 0 43.5 -17t16.5 -43v-325q0 -20 13 -34t35 -14q21 0 34.5 13.5t13.5 34.5v324
q0 27 16 44t44 17t44.5 -17t16.5 -44v-324q0 -21 13.5 -34.5t33.5 -13.5q21 0 34.5 13.5t13.5 33.5v535q0 26 16 43t44 17t44.5 -17.5t16.5 -42.5v-525z" />
    <glyph glyph-name="phosamphaothai" unicode="&#xe20;" horiz-adv-x="561" 
d="M530 54q0 -27 -17 -43.5t-45 -16.5q-27 0 -43.5 16.5t-16.5 43.5v279q0 50 -29 75.5t-77 23.5l-104 -2v-355q0 -34 -19 -54.5t-59 -20.5h-50q-30 0 -48.5 15t-18.5 42q0 33 22.5 44t50.5 13v356q0 26 17 43t45 17l165 4q39 0 79.5 -9t73 -32t53.5 -62t21 -99v-278z" />
    <glyph glyph-name="momathai" unicode="&#xe21;" horiz-adv-x="525" 
d="M495 184q0 -56 -20.5 -92t-51 -58t-66.5 -31q-35 -9 -67 -9t-64 7t-61 35q-3 -21 -19.5 -31.5t-37.5 -10.5q-27 0 -43.5 16.5t-16.5 43.5v423q0 26 16.5 43t43.5 17q28 0 45 -17.5t17 -42.5v-276q0 -27 10 -48t27 -34.5t38 -20t41 -6.5q34 0 61 22t27 69v294q0 26 16 43
t44 17t44.5 -17.5t16.5 -42.5v-293z" />
    <glyph glyph-name="yoyakthai" unicode="&#xe22;" horiz-adv-x="511" 
d="M482 198q0 -60 -21 -99t-53.5 -62t-73 -33t-79.5 -10q-36 0 -75.5 9t-73.5 30t-56 55.5t-22 85.5q0 36 16 62t40 43q-24 18 -37.5 48.5t-13.5 59.5q0 64 45 105q44 42 112 42h32q28 0 46 -15t18 -42q0 -26 -18 -41.5t-46 -15.5h-26q-21 2 -31.5 -8t-10.5 -25
q0 -16 6 -25.5t16 -13t21 -3.5h23q32 0 49 -16.5t18 -36.5t-16 -37t-57 -17q-24 0 -44 -18.5t-20 -45.5q0 -34 29 -57t76 -23q46 0 75.5 26t29.5 76v281q0 27 16 43q18 17 46 17q27 0 43.5 -16.5t16.5 -43.5v-279z" />
    <glyph glyph-name="roruathai" unicode="&#xe23;" horiz-adv-x="465" 
d="M438 150q0 -40 -19 -70t-48 -50t-67 -29t-76 -9q-22 0 -48.5 3t-53 11.5t-49.5 22t-38 34.5q-20 24 -15.5 46.5t22 34.5t41.5 9t42 -29q15 -14 43 -22t54 -8q46 0 68 18t22 35q0 32 -26 45.5t-52 20.5q-38 10 -75 20.5t-67 28.5t-49 48q-19 28 -19 78q0 42 20 71.5t49 47
t65 24.5t68 7q48 0 96 -15t80 -55q18 -26 13 -48t-21.5 -33.5t-39.5 -8.5q-24 2 -42 28q-15 16 -33.5 23t-52.5 7q-36 0 -59 -15t-23 -33q0 -15 8 -25.5t20 -17t25 -10t27 -8.5q38 -10 75 -20.5t67 -29.5t49 -48t19 -79z" />
    <glyph glyph-name="ruthai" unicode="&#xe24;" horiz-adv-x="531" 
d="M500 -140q0 -27 -17 -43.5t-45 -16.5q-27 0 -43.5 17t-16.5 43v472q0 50 -28.5 75t-76.5 23l-105 -1v-313h15q27 -2 47 -16q19 -14 19 -42q0 -26 -18 -42t-48 -16h-57q-42 0 -61 20t-19 55v395q0 26 17 42t45 16l164 4q40 0 80.5 -9t73 -32t53.5 -62t21 -99v-470z" />
    <glyph glyph-name="lolingthai" unicode="&#xe25;" horiz-adv-x="535" 
d="M506 54q0 -27 -17 -43.5t-45 -16.5q-27 0 -43.5 16.5t-16.5 43.5v180q-34 -12 -74 -13.5t-74 -1.5q-46 0 -66 -19.5t-20 -40.5q0 -26 26 -46t90 -11q32 6 51 -7.5t22 -33t-9 -38.5t-44 -25q-63 -12 -111.5 -3t-81.5 32.5t-49.5 57t-16.5 73.5q0 32 12 61.5t36 53t60 37.5
t84 14q32 0 67 1t68 3q20 2 25 9t5 19q0 8 -5 21t-19.5 26t-40 22.5t-65.5 9.5t-62 -11.5t-44 -27.5q-26 -21 -50 -19.5t-39 16.5t-16 38t21 45q32 30 79 48t111 18q72 0 120.5 -18t78 -47.5t41.5 -68t12 -78.5v-276z" />
    <glyph glyph-name="luthai" unicode="&#xe26;" horiz-adv-x="561" 
d="M530 -140q0 -27 -17 -43.5t-45 -16.5q-27 0 -43.5 17t-16.5 43v472q0 50 -29 75t-77 23l-104 -1v-354q0 -34 -19 -54.5t-59 -20.5h-50q-30 0 -48.5 16t-18.5 41q0 33 22.5 44t50.5 13v354q0 26 17 43t45 17l165 4q39 0 79.5 -9t73 -32t53.5 -62t21 -99v-470z" />
    <glyph glyph-name="wowaenthai" unicode="&#xe27;" horiz-adv-x="469" 
d="M446 266q0 -57 -18 -107.5t-53 -88t-86 -58t-117 -16.5q-44 3 -80 18q-36 14 -52 28q-16 10 -18 31t7 38t27.5 23.5t45.5 -11.5q24 -15 46 -23q23 -8 53 -6q33 2 58 17t41 38t24.5 53t8.5 64q0 64 -33.5 113.5t-101.5 55.5q-33 3 -56.5 -7.5t-41.5 -25.5q-21 -16 -42 -12
q-20 4 -32 20q-12 15 -12 35q0 19 19 39q28 26 74.5 41t110.5 9q58 -4 101 -29t71 -62t42 -83t14 -94z" />
    <glyph glyph-name="sosalathai" unicode="&#xe28;" horiz-adv-x="529" 
d="M500 327v-273q0 -27 -17 -43.5t-45 -16.5q-27 0 -43.5 16.5t-16.5 43.5v276q0 45 -31 75.5t-77 30.5t-74 -25t-28 -78v-6h86q28 0 47.5 -13.5t19.5 -43.5q0 -26 -16.5 -40t-44.5 -14h-92v-162q0 -27 -16 -44q-18 -16 -46 -16q-27 0 -43.5 16.5t-16.5 43.5v278
q0 60 20.5 99.5t52 63.5t71.5 33t78 9q26 0 54.5 -5.5t55.5 -23.5v14q0 26 16 43q18 17 46 17q27 0 43.5 -17t16.5 -43v-195z" />
    <glyph glyph-name="sorusithai" unicode="&#xe29;" horiz-adv-x="529" 
d="M562 273q-2 -28 -20 -38.5t-44 -14.5q8 -226 -225 -226q-39 0 -79.5 10t-73.5 33t-53.5 62t-20.5 99v279q0 27 17 43.5t45 16.5q27 0 43.5 -16.5t16.5 -43.5v-281q0 -51 29 -76.5t77 -25.5q46 0 75 26t29 76v20q-60 -3 -100.5 14.5t-55.5 77.5q-3 26 10.5 41t33 20t39 -3
t28.5 -30q4 -12 15.5 -13t29.5 1v153q0 27 16 43q18 17 46 17q27 0 43.5 -16.5t16.5 -44.5q0 -39 -1 -81.5t-1 -66.5q28 2 47 -13t17 -42z" />
    <glyph glyph-name="sosuathai" unicode="&#xe2a;" horiz-adv-x="535" 
d="M506 56q0 -27 -17 -43.5t-45 -16.5q-27 0 -43.5 16t-16.5 44v180q-34 -12 -74 -14t-74 -2q-46 0 -66 -19t-20 -41q0 -26 26 -46t90 -10q32 6 51 -8t22 -33t-9 -38t-44 -25q-63 -12 -111.5 -3t-81.5 32t-49.5 57t-16.5 73q0 32 12 61.5t36 53t60 38t84 14.5q32 0 67 0.5
t68 3.5q20 2 25 8.5t5 18.5q0 8 -5 21.5t-19.5 26t-40 22t-65.5 9.5t-62 -11t-44 -27q-26 -21 -50 -19.5t-39 16.5t-16 38t21 44q32 30 79 48t111 18q40 0 73 -8.5t59 -20.5v8q0 27 15 43.5t45 16.5q27 0 43.5 -17t16.5 -43v-466z" />
    <glyph glyph-name="hohipthai" unicode="&#xe2b;" horiz-adv-x="528" 
d="M498 54q0 -28 -16 -44q-18 -16 -46 -16q-27 0 -43.5 16.5t-16.5 43.5v174q0 44 -19 69t-49 31l-140 -86v-188q0 -27 -16 -44q-18 -16 -46 -16t-44.5 16.5t-16.5 43.5v148v275q0 27 16.5 43.5t44.5 16.5t45 -17.5t15 -42.5v-102l238 149q28 18 52 12t36 -23.5t9 -40
t-30 -38.5l-51 -34q36 -26 57 -69t21 -106v-171z" />
    <glyph glyph-name="lochulathai" unicode="&#xe2c;" horiz-adv-x="615" 
d="M585 148q0 -32 -13.5 -60t-36 -49t-52.5 -33t-63 -12q-26 0 -55 10t-50 28q-20 -18 -48.5 -28t-53.5 -10q-34 0 -64.5 12t-52.5 33t-35 49t-13 60v329q0 26 16 43q18 17 46 17q27 0 43.5 -17.5t16.5 -42.5v-331q0 -16 12.5 -28.5t30.5 -12.5t31 12q12 13 12 29l-1 150
q0 26 16.5 43t44.5 17t45 -18q17 -16 17 -42l-2 -150q0 -16 13 -28.5t31 -12.5t31 11.5t13 27.5v198q0 30 -13 44t-51 18q-22 2 -37 16t-19.5 32.5t4 39t32.5 34.5l110 71q28 18 52.5 12t37 -23.5t9.5 -40.5t-29 -39l-47 -29q36 -18 54 -50.5t18 -86.5v-192z" />
    <glyph glyph-name="oangthai" unicode="&#xe2d;" horiz-adv-x="561" 
d="M531 267q0 -70 -21 -121.5t-55.5 -85t-81 -50t-97.5 -16.5q-56 0 -104 16.5t-81.5 49.5t-51 82.5t-11.5 115.5q3 32 22 50q18 19 50 19h128q33 0 49.5 -17.5t16.5 -39t-16 -39t-47 -17.5h-77q0 -50 35.5 -82.5t86.5 -32.5q26 0 50 8.5t42 27.5t28 51.5t10 80.5
q0 92 -42.5 130t-102.5 38q-44 0 -73 -17q-30 -16 -52 -37q-22 -22 -47 -21.5t-40.5 15.5t-17 39t20.5 46q34 34 87 58t121 24q51 0 99.5 -14.5t86.5 -47t61.5 -85t23.5 -128.5z" />
    <glyph glyph-name="honokhukthai" unicode="&#xe2e;" horiz-adv-x="561" 
d="M530 267q0 -70 -20.5 -121.5t-55 -85t-81 -50t-97.5 -16.5q-56 0 -104 16.5t-81.5 49.5t-51 82.5t-11.5 115.5q3 32 22 50q18 19 50 19l128 -1q33 0 49.5 -17.5t16.5 -38.5t-16 -38.5t-47 -17.5h-77q0 -50 35.5 -82.5t86.5 -32.5q26 0 50 8.5t42 27.5t28 51.5t10 80.5
q0 92 -42.5 130t-102.5 38q-44 0 -73 -17q-30 -16 -52 -37q-22 -22 -47 -21.5t-40.5 15.5t-17 39t20.5 46q34 34 87 58t121 24q34 0 75 -8.5t75 -26.5v17q0 27 16 44q16 16 44 16t44 -18q16 -16 16 -42v-257z" />
    <glyph glyph-name="paiyannoithai" unicode="&#xe2f;" horiz-adv-x="549" 
d="M519 48q0 -27 -16.5 -43.5t-44.5 -16.5q-27 0 -43.5 16.5t-16.5 43.5v298q-32 -39 -72.5 -55.5t-88.5 -16.5q-63 0 -103.5 23t-62 56t-26.5 71t5 67t32 45t53 6q30 -9 36.5 -32.5t-3.5 -47.5q-10 -26 8.5 -52t60.5 -26q30 0 48.5 12t32.5 30t24 39t24 39t32 30t46 12
q20 0 34 -8t23 -21t13.5 -27t4.5 -28v-414z" />
    <glyph glyph-name="saraathai" unicode="&#xe30;" horiz-adv-x="432" 
d="M380 398q-26 -50 -73 -70t-91 -20q-54 0 -100.5 24t-64.5 74q-12 32 0 53t33 28t44.5 1t31.5 -29q14 -33 58 -33q21 0 35 8q15 6 25 26q12 24 35 29t42.5 -5t29.5 -32t-5 -54zM380 105q-26 -50 -73 -70t-91 -20q-54 0 -100.5 24t-64.5 75q-12 32 0 53t33 27.5t44 0.5
q24 -7 32 -29q14 -32 58 -32q21 0 35 7q15 7 25 27q12 24 35 28.5t42.5 -5t29.5 -32t-5 -54.5z" />
    <glyph glyph-name="maihanakatthai" unicode="&#xe31;" 
d="M87 680q0 -27 -14.5 -40.5t-48.5 -13.5h-188q-46 0 -74 6.5t-43 23t-19 46.5t-4 78q0 32 16 47t44 15q26 -2 39 -15t13 -49q0 -30 4.5 -37t25.5 -7h188q34 0 47.5 -15t13.5 -39z" />
    <glyph glyph-name="saraaathai" unicode="&#xe32;" horiz-adv-x="418" 
d="M388 54q0 -26 -16 -43t-45 -17q-28 0 -44 17t-16 43v309q0 45 -23.5 60t-59.5 15q-24 0 -40 -13.5t-31 -26t-32 -18.5t-39 8q-21 14 -24 37q-2 23 14 45q32 39 73 55.5t84 16.5q32 0 67 -7t64.5 -26.5t48 -54t18.5 -90.5z" />
    <glyph glyph-name="saraamthai" unicode="&#xe33;" horiz-adv-x="418" 
d="M34 738q0 -52 -36 -88t-88 -36t-88 36t-36 88t36 88t88 36t88 -36t36 -88zM388 54q0 -26 -16 -43t-45 -17q-28 0 -44 17t-16 43v309q0 45 -23.5 60t-59.5 15q-24 0 -40 -13.5t-31 -26t-32 -18.5t-39 8q-21 14 -24 37q-2 23 14 45q32 39 73 55.5t84 16.5q32 0 67 -7
t64.5 -26.5t48 -54t18.5 -90.5zM-44 736q0 20 -13 33.5t-33 13.5t-33 -13.5t-13 -33.5t13 -32t33 -12t33 12t13 32z" />
    <glyph glyph-name="saraithai" unicode="&#xe34;" 
d="M-39 682q2 -28 -16.5 -41.5t-44.5 -13.5h-299q-27 0 -45 13.5t-16 41.5q0 27 16 40.5t42 13.5h304q26 0 42.5 -13.5t16.5 -40.5z" />
    <glyph glyph-name="saraiithai" unicode="&#xe35;" 
d="M-30 684q0 -57 -63 -57h-297q-28 0 -46 13.5t-17 41.5q2 27 18.5 40.5t41.5 13.5h252v52q0 26 13.5 42t40.5 18q28 0 43 -18q14 -18 14 -46v-100z" />
    <glyph glyph-name="sarauethai" unicode="&#xe36;" 
d="M8 747q0 -42 -26.5 -74.5t-65.5 -42.5q-14 -3 -22 -3h-17h-276q-27 0 -45 13.5t-16 41.5q0 27 16 40.5t42 13.5h166q-2 2 -1 11q0 51 36 87q35 36 85 36q51 0 87.5 -36t36.5 -87zM-69 747q0 20 -13.5 33.5t-33.5 13.5t-33 -14t-13 -33q0 -20 14 -33q12 -12 32 -12
t33.5 12.5t13.5 32.5z" />
    <glyph glyph-name="saraueethai" unicode="&#xe37;" 
d="M-39 684q0 -27 -16.5 -42t-44.5 -15h-299q-27 0 -45 13.5t-16 41.5q0 27 16 40.5t42 13.5h124v48q0 24 11.5 43t41.5 21q22 0 33.5 -12t16 -29.5t4 -37t-0.5 -33.5h30v48q0 24 10 43t40 21t42 -20q12 -20 12 -46z" />
    <glyph glyph-name="sarauthai" unicode="&#xe38;" 
d="M-38 -225q0 -22 -11 -41t-41 -19q-27 0 -42.5 16.5t-15.5 43.5v59h-22q-26 0 -44 13t-18 42q0 27 18 43t44 16h74q26 0 42 -17t16 -43v-113z" />
    <glyph glyph-name="sarauuthai" unicode="&#xe39;" 
d="M-38 -188q0 -24 -11 -42.5t-30 -31t-43 -19.5t-50 -7t-51.5 5t-46 18t-32.5 32t-12 45v22h-13q-26 0 -44.5 13t-18.5 42q0 27 18 43t45 16h66q26 0 42.5 -17t16.5 -43v-59q0 -9 5 -16.5t23 -7.5q12 0 19 7.5t7 17.5v64q0 22 11 41.5t41 19.5q26 0 42 -16.5t16 -43.5v-83z
" />
    <glyph glyph-name="phinthuthai" unicode="&#xe3a;" 
d="M-24 -117q0 -30 -20 -51t-50 -21t-51 21t-21 51t21 51t51 21t50 -21t20 -51z" />
    <glyph glyph-name="PUCR2005" unicode="&#xe3e;" 
 />
    <glyph glyph-name="bahtthai" unicode="&#xe3f;" horiz-adv-x="576" 
d="M436 382q46 -15 76.5 -47.5t42 -74.5t3.5 -86.5t-35.5 -82t-75 -63t-115.5 -28.5q-3 -2 -11 -2v-31q0 -18 -14.5 -27.5t-27.5 -9.5q-15 0 -26 9.5t-11 27.5v31h-125q-39 0 -53 20.5t-14 44.5v576q0 30 17 48t49 18h126v36q0 18 12.5 27.5t27 9.5t27 -9t12.5 -28v-36h6
q76 -8 119 -48.5t55.5 -92t-4.5 -103t-61 -79.5zM326 603q-2 0 -2 -0.5t-3 0.5v-180h3q36 10 52 36.5t15 55.5t-18 54.5t-47 33.5zM242 604h-80v-186h80v186zM326 100q62 2 91.5 36t29 73t-31.5 73t-89 39h-5v-221h5zM242 321h-80v-221h80v221z" />
    <glyph glyph-name="saraethai" unicode="&#xe40;" horiz-adv-x="220" 
d="M178 52q0 -60 -60 -60q-30 0 -45.5 17t-15.5 43v425q0 27 16.5 43.5t43.5 16.5q28 0 44.5 -16.5t16.5 -42.5v-426z" />
    <glyph glyph-name="saraaethai" unicode="&#xe41;" horiz-adv-x="403" 
d="M358 52q0 -60 -60 -60q-30 0 -45.5 17t-15.5 43v425q0 27 16.5 43.5t43.5 16.5q28 0 44.5 -16.5t16.5 -42.5v-426zM178 52q0 -60 -60 -60q-30 0 -45.5 17t-15.5 43v425q0 27 16.5 43.5t43.5 16.5q28 0 44.5 -16.5t16.5 -42.5v-426z" />
    <glyph glyph-name="saraothai" unicode="&#xe42;" horiz-adv-x="250" 
d="M334 776q12 -20 14 -42t-22 -38q-21 -14 -46 -8q-24 4 -37 30q-9 15 -25.5 25.5t-36 13.5t-37.5 -2t-30 -21l64 -76q8 -10 13 -20.5t5 -31.5v-554q0 -27 -16 -43.5t-44 -16.5q-32 0 -46.5 20t-14.5 40l1 550q0 8 -2 10l-8 8l-63 76q-12 16 -12 31t3 25q21 51 66 78.5
t96.5 30.5t101 -18t76.5 -67z" />
    <glyph glyph-name="saraaimaimuanthai" unicode="&#xe43;" horiz-adv-x="250" 
d="M268 704q-3 -26 -11.5 -47t-19.5 -37q-8 -12 -16.5 -23t-16.5 -21q-10 -10 -10 -33v-489q0 -21 -15 -41.5t-45 -20.5q-28 0 -45 17t-17 45v501q0 32 11 50.5t25.5 34.5t27.5 32q12 14 16 40q3 16 -7 31q-11 15 -33 15q-21 0 -32 -13t-8 -29q3 -22 -0.5 -42t-38.5 -29
q-16 -4 -29.5 0.5t-23.5 13.5t-17 21t-8 26q-4 33 6.5 61.5t32 50.5t52 35t66.5 13q78 0 120 -47t36 -115z" />
    <glyph glyph-name="saraaimaimalaithai" unicode="&#xe44;" horiz-adv-x="250" 
d="M194 58q0 -26 -15 -46t-45 -20q-28 0 -45 16t-17 50l2 522q0 4 8 21t18.5 36.5l21 39t16.5 31.5q-30 -32 -61 -33t-56 19l-71 62q-26 28 -22 48q2 20 16 34q15 16 40.5 19.5t49.5 -17.5l54 -48l22 16l28 23q34 29 69 29q32 0 55 -24q24 -24 14 -64l-82 -190v-524z" />
    <glyph glyph-name="lakkhangyaothai" unicode="&#xe45;" horiz-adv-x="418" 
d="M388 -140q0 -26 -16 -43t-45 -17q-27 0 -43 18q-17 16 -17 42v502q0 45 -22.5 59.5t-60.5 14.5q-24 0 -40 -13t-31 -26t-31 -19t-38 9q-22 14 -25 37t14 44q30 39 71.5 55.5t85.5 16.5q32 0 66.5 -7t64 -26t48.5 -54t19 -90v-503z" />
    <glyph glyph-name="maiyamokthai" unicode="&#xe46;" horiz-adv-x="666" 
d="M609 -140q0 -27 -16.5 -43.5t-44.5 -16.5q-27 0 -43.5 17t-16.5 43v538q-39 -39 -80.5 -47.5t-87.5 33.5q-16 14 -34 31t-28 9q-10 -10 2 -19q18 -15 16 -36t-17 -37t-38 -19t-49 19q-26 21 -35 44.5t-8 47.5t10 44.5t21 32.5q15 16 39.5 27.5t50.5 15.5t51.5 -2
t43.5 -24l43 -41q8 -9 18 1q27 26 49 46t61 20q27 0 45 -9.5t28.5 -24t15 -30.5t4.5 -28v-592z" />
    <glyph glyph-name="maitaikhuthai" unicode="&#xe47;" 
d="M-54 860q0 -20 -13 -35t-39 -15h-198q-46 0 -46 -46q0 -12 5 -25t12 -19l33 33q12 14 25.5 17.5t25.5 1.5t21 -10q10 -8 14 -18q8 -24 17 -31t13 -7q18 0 19 11t0.5 25t3 27t26.5 17q33 6 50 -20t14 -60t-29 -63t-78 -29q-33 0 -52.5 8t-36.5 28q-20 -20 -39 -30
q-18 -12 -46 -4q-44 12 -73 51t-29 98q0 38 13 65.5t36 44.5t50.5 25.5t57.5 8.5h191q27 0 39.5 -14t12.5 -35z" />
    <glyph glyph-name="maiekthai" unicode="&#xe48;" 
d="M-32 952q0 -27 -14 -44.5t-42 -16.5q-27 2 -40 17.5t-13 41.5v127q0 26 12.5 43t41.5 17q27 0 41 -17.5t14 -45.5v-122z" />
    <glyph glyph-name="maithothai" unicode="&#xe49;" 
d="M-16 1006q-34 -58 -90 -85t-116 -27q-30 0 -41 16.5t-11 37.5v42h-30q-22 0 -39 12t-17 36t16 37q18 13 40 13h74q22 0 37 -14t15 -38v-44q30 4 48 23q20 19 36 43q14 20 32 22.5t32.5 -6.5t20 -27.5t-6.5 -40.5z" />
    <glyph glyph-name="maitrithai" unicode="&#xe4a;" 
d="M66 938q0 -21 -14 -32.5t-34 -11.5l-38 -2q-82 -8 -73 59l3 19q2 12 -2 12q-2 0 -2 -2q2 -2 0 -4q-8 -9 -16 -17.5t-18 -13.5t-20 -3q-12 2 -22 15l-18 19q-2 0 -1 4q1 2 -1 2q-4 0 -4 -4t2 -8l3 -19q4 -24 -7.5 -38.5t-28.5 -16.5t-32 8t-17 34l-4 18q-8 56 18 86t64 30
q20 0 31.5 -7t23.5 -19q12 12 24 19q11 7 31 7q34 0 58.5 -23t24.5 -71l18 2q16 2 33.5 -9t17.5 -33z" />
    <glyph glyph-name="maichattawathai" unicode="&#xe4b;" 
d="M34 1017q0 -26 -16 -37q-16 -10 -38 -10h-28v-14q0 -22 -11 -40t-37 -16q-24 0 -34.5 16t-10.5 36v18h-29q-22 0 -39 11t-16 36q2 26 17.5 35.5t36.5 9.5h30v20q0 21 10.5 35.5t34.5 14.5q26 2 37 -14t11 -40v-16h30q22 0 36 -10.5t16 -34.5z" />
    <glyph glyph-name="thanthakhatthai" unicode="&#xe4c;" 
d="M36 904q0 -24 -15 -35t-36 -11l-25 -2q-16 -2 -19 -11t-1 -21q2 -27 -13 -41.5t-35 -15.5t-35.5 12t-15.5 39l-1 24q-2 39 26 71.5t80 36.5l38 1q22 2 37 -10.5t15 -36.5z" />
    <glyph glyph-name="nikhahitthai" unicode="&#xe4d;" 
d="M34 738q0 -52 -36 -88t-88 -36t-88 36t-36 88t36 88t88 36t88 -36t36 -88zM-44 736q0 20 -13 33.5t-33 13.5t-33 -13.5t-13 -33.5t13 -32t33 -12t33 12t13 32z" />
    <glyph glyph-name="yamakkanthai" unicode="&#xe4e;" 
d="M2 657q0 -21 -14.5 -35t-35.5 -14h-21q-48 0 -79.5 31t-31.5 79q0 18 8 38q6 21 20 36q-32 28 -31 69q-2 48 38 85q41 36 117 36q27 0 40.5 -13t13.5 -29t-14 -29t-40 -13q-32 0 -47 -11t-16.5 -24.5t10 -25t33.5 -11.5q16 0 32 -10t16 -32q0 -21 -15 -32.5t-36 -10.5
q-14 0 -26.5 -0.5t-12.5 -22.5q0 -6 7 -12t19 -7h16q20 0 35 -10.5t15 -31.5z" />
    <glyph glyph-name="fongmanthai" unicode="&#xe4f;" horiz-adv-x="949" 
d="M861 381q0 -80 -30 -150.5t-82.5 -122.5t-122.5 -82t-150 -30t-150.5 30t-123 82t-82.5 123t-30 150q0 80 30 150.5t82.5 122.5t123 82t150.5 30t150 -30t122.5 -82t82.5 -122.5t30 -150.5zM756 381q0 58 -22.5 110.5t-61 91t-89.5 61t-106 22.5q-57 0 -107 -22.5
t-88.5 -61t-61 -90.5t-22.5 -111q0 -58 22.5 -110.5t61 -91t88.5 -61t107 -22.5q56 0 106.5 22.5t89 61t61 91t22.5 110.5zM672 381q0 -40 -15 -76.5t-42 -63.5t-63 -42t-76 -15t-76.5 15t-63.5 42t-42 63t-15 77q0 40 15 76.5t42 63.5t63 42q37 15 77 15t76 -15t63 -42
t42 -63.5t15 -76.5zM566 381q0 38 -26 64t-64 26t-64 -26.5t-26 -63.5q0 -38 26 -64t64 -26t64 26t26 64z" />
    <glyph glyph-name="zerothai" unicode="&#xe50;" horiz-adv-x="613" 
d="M564 212q0 -52 -20 -93t-55.5 -69t-82 -42t-100.5 -14q-52 0 -99 14t-82 42t-56 68q-21 42 -21 94q0 56 20 97t55.5 68t83 40t99.5 13q54 0 101 -13t82.5 -40t55 -68t19.5 -97zM454 212q0 63 -40 92.5t-108 29.5t-108 -30t-40 -92q0 -56 42 -89t106 -33t106 34t42 88z
" />
    <glyph glyph-name="onethai" unicode="&#xe51;" horiz-adv-x="613" 
d="M556 213q0 -84 -45.5 -135t-113 -72.5t-143.5 -16.5t-136 32q-27 12 -33.5 33t2.5 38.5t31 24.5t54 -7q36 -18 84 -23t91 7t72 41.5t29 77.5q0 63 -41 93t-109 30q-22 0 -45 -4t-43 -12t-32 -21t-12 -32q0 -16 18 -30.5t58 0.5q28 14 52 4.5t33 -27.5t-1 -40t-47 -36
q-50 -16 -91 -12t-70.5 24t-45.5 50.5t-16 66.5q0 42 23 73.5t59 51.5t79 30t81 10q56 0 103 -13.5t82 -41t54 -69t19 -95.5z" />
    <glyph glyph-name="twothai" unicode="&#xe52;" horiz-adv-x="613" 
d="M586 213q0 -26 -3 -63.5t-10 -57.5q-3 -12 -11 -27t-24 -30t-38.5 -25t-52.5 -10h-234q-36 0 -66.5 10t-54.5 29t-38 49t-14 70q0 81 -1 152.5t-19 153.5q-14 60 43 67q30 4 44.5 -13t21.5 -38q24 -76 24.5 -158t0.5 -163q0 -61 72 -61h192q26 0 38 12t15 32q3 16 4 32
t1 38q0 64 -12 96q-6 16 -11 19t-9 3q-6 0 -11 -14t-8 -33t-5 -35q-3 -18 -3 -22q-2 -16 -14.5 -26.5t-28.5 -13t-29 7.5t-17 34q0 4 -1 21t-3.5 35t-7 32t-10.5 14q-12 0 -17 -10.5t-7 -24t-1 -27.5t1 -20t-1 -11.5t4 -8.5q22 -9 30.5 -26.5t4 -33t-22 -25t-43.5 -5.5
q-39 4 -59.5 34t-23.5 68q-6 104 31.5 149.5t97.5 45.5q54 0 80 -45q21 45 70 45q72 0 104 -57t32 -165z" />
    <glyph glyph-name="threethai" unicode="&#xe53;" horiz-adv-x="613" 
d="M573 212q0 -64 -7.5 -104t-15.5 -62q-8 -21 -22.5 -38t-44.5 -14q-59 6 -43 69q9 39 15.5 73t6.5 74q0 9 -1 28.5t-5 39.5t-13 35t-26 15q-21 0 -34 -30.5t-17 -72.5q-3 -24 -14.5 -42.5t-41.5 -18.5t-41 18.5t-14 42.5q-6 42 -18.5 72.5t-34.5 30.5q-18 0 -27.5 -14
t-14 -33t-5.5 -39t-1 -32q0 -50 6 -72q2 -8 4 -13q0 -5 2 -9q8 -16 17 -17q26 -3 37.5 -19.5t11 -35t-14 -33.5t-40.5 -15q-46 -2 -76.5 22t-44.5 78q-6 20 -8 34q-6 30 -6 82q0 45 10 86t31 71.5t54 48.5t79 16q27 -2 53.5 -17t40.5 -41q15 26 41.5 41t52.5 17q46 2 79 -16
t52.5 -48.5t28.5 -71.5t9 -86z" />
    <glyph glyph-name="fourthai" unicode="&#xe54;" horiz-adv-x="613" 
d="M576 51q0 -21 -14 -35t-49 -18q-76 -4 -123 17q-38 -8 -69 -13q-31 -4 -61 -6q-51 -3 -93.5 12.5t-73 44.5t-47 70t-16.5 89q0 100 64.5 157t172.5 57h147q28 0 42.5 19t26.5 39t27.5 34t47.5 6q36 -12 37 -45t-22 -68t-64 -62t-91 -27h-162q-51 0 -83.5 -29t-32.5 -85
q0 -50 30.5 -82.5t81.5 -32.5q12 2 22.5 2.5t22.5 2.5q-26 33 -24.5 65.5t18.5 59t45 41.5q28 16 56 14q52 -4 60 -44q4 -27 -8 -37.5t-25.5 -16.5t-22 -13t5.5 -26q18 -26 47 -31t57 -8t49 -11t21 -40z" />
    <glyph glyph-name="fivethai" unicode="&#xe55;" horiz-adv-x="613" 
d="M576 54q0 -21 -14 -35.5t-49 -16.5q-72 -4 -123 16q-38 -8 -69 -13t-61 -7q-51 -3 -93.5 13.5t-73 46t-47 70t-16.5 86.5q0 68 33 121t105 75q-2 8 -2.5 13t-0.5 7q0 46 35.5 75t85.5 29q51 0 86.5 -29t35.5 -75l6 -1q28 0 42.5 18.5t27 39t27.5 35t47 4.5q34 -10 35 -43
t-21.5 -67.5t-63 -62t-90.5 -27.5h-162q-51 0 -83.5 -29t-32.5 -85q0 -50 30.5 -83t81.5 -31h22q11 0 23 2q-26 33 -24.5 67t18.5 59.5t45 41.5t56 12q52 -4 60 -43q4 -27 -8 -37.5t-25.5 -16.5t-22 -12.5t5.5 -26.5q18 -26 47 -31t57 -8t49 -11t21 -40zM328 429
q0 14 -11 24.5t-29 10.5t-30 -11t-12 -24q0 -14 12 -23.5t30 -9.5t29 9.5t11 23.5z" />
    <glyph glyph-name="sixthai" unicode="&#xe56;" horiz-adv-x="613" 
d="M584 212q0 -58 -23 -100.5t-61 -70t-87 -40.5t-103 -11q-154 6 -192 97q-20 45 -9 82t36.5 62t61.5 39t69 14.5t55.5 -13t22.5 -41.5q0 -16 -8 -27t-19.5 -16t-23.5 -7q-11 -2 -19 -2q-32 0 -46 -13t-11 -30t24 -31t61 -16q68 -3 116 29.5t48 94.5q0 57 -38 89
q-40 32 -104 32q-27 0 -64 -9q-36 -10 -57 -26q-9 -6 -22 -9t-26 -0.5t-26 10t-21 23.5q-16 32 -32.5 60t-40.5 44q-30 21 -33 43.5t9.5 38.5t36.5 20t46 -9q30 -20 54 -52q24 -31 42 -63q30 15 68 21.5t66 6.5q110 0 180 -55t70 -165z" />
    <glyph glyph-name="seventhai" unicode="&#xe57;" horiz-adv-x="639" 
d="M606 219q-15 -112 -67.5 -170t-130.5 -55q-30 2 -50 22t-12 54l10 55t6 87v28t-2.5 41t-9 37t-18.5 16q-20 0 -22 -26t-3 -58t-11 -58.5t-44 -26.5q-36 0 -45 26.5t-10 58.5t-3 58t-22 26q-15 0 -21.5 -12.5t-8.5 -32t-1.5 -40.5t0.5 -37q0 -4 0.5 -22.5t3.5 -39t9 -36.5
t16 -18q26 -3 38 -19.5t11.5 -34.5t-15 -33t-40.5 -15q-45 0 -71.5 22.5t-40.5 56t-19 71.5t-5 69q0 46 8.5 87.5t26.5 72.5t46.5 47t68.5 15q45 -3 74 -47q28 45 74 47q60 2 91 -33.5t43 -85.5t11 -105t-7 -93q12 18 22 45t15 62q3 27 3 88.5t-12 148.5q-3 28 8 46
q10 16 40 18t44 -18q13 -20 16 -42q10 -75 12 -131t-6 -116z" />
    <glyph glyph-name="eightthai" unicode="&#xe58;" horiz-adv-x="613" 
d="M560 526q34 -12 35 -45t-22 -68t-64 -63t-91 -28h-164q-51 0 -84.5 -29t-33.5 -85q0 -44 24 -74q22 -28 48 -36l70 66q15 15 32 19.5t32 1.5t26.5 -12t15.5 -21q9 -30 21 -42q11 -12 31 -12q27 0 33.5 15t7.5 33.5t8 35t34 19.5q28 2 44.5 -12.5t22.5 -37.5t0 -50
t-23 -51t-47 -40t-70 -16q-48 0 -80 14q-32 12 -52 44q-16 -15 -29 -27.5t-27.5 -20t-32.5 -10.5q-17 -2 -43 6q-68 18 -112 74t-44 138q0 54 19 94t52 66.5t77 39.5q44 14 94 14h146q28 0 43 19t27 40.5t28 35.5t48 5z" />
    <glyph glyph-name="ninethai" unicode="&#xe59;" horiz-adv-x="619" 
d="M602 452q-2 -4 -4 -12t-7 -17q-15 -39 -43.5 -66t-76.5 -25q-40 2 -55.5 -27t6.5 -67q12 -21 22 -40.5t21 -35.5q16 -30 31.5 -57t21.5 -35q15 -22 7.5 -41t-25.5 -28t-41 -4t-36 27l-163 268q-15 24 -28.5 32.5t-35.5 5.5q-12 -2 -24 -11t-20 -24.5t-10 -36.5
q-2 -20 5 -46q10 -33 23.5 -55t25.5 -34.5t22 -18t13 -5.5q27 6 43.5 -6.5t20 -32.5t-6.5 -38.5t-39 -24.5q-34 -8 -67.5 6.5t-61.5 42.5t-49 65t-32 77q-16 57 -8 101.5t32 76.5t59.5 49t73.5 18.5t74 -13t62 -45.5q20 32 54 43t64 11q12 0 19.5 6t13 14.5t8.5 18t5 18.5
q9 26 31 35.5t42.5 4t31.5 -23.5t1 -50z" />
    <glyph glyph-name="angkhankhuthai" unicode="&#xe5a;" horiz-adv-x="774" 
d="M744 48q0 -27 -16 -44q-18 -16 -46 -16q-27 0 -43.5 16.5t-16.5 43.5v423q0 26 12 50.5t48 24.5t49 -26q13 -24 13 -50v-422zM519 48q0 -27 -16.5 -43.5t-44.5 -16.5q-27 0 -43.5 16.5t-16.5 43.5v298q-32 -39 -72.5 -55.5t-88.5 -16.5q-63 0 -103.5 23t-62 56t-26.5 71
t5 67t32 45t53 6q30 -9 36.5 -32.5t-3.5 -47.5q-10 -26 8.5 -52t60.5 -26q33 0 53 16t35 37.5t27 45t30 39.5q24 24 62 24q20 0 34 -8t23 -21t13.5 -27t4.5 -28v-414z" />
    <glyph glyph-name="khomutthai" unicode="&#xe5b;" horiz-adv-x="1297" 
d="M879 315h317q33 0 48.5 -15.5t15.5 -39.5q0 -26 -14 -42q-14 -17 -48 -17h-361l-53 53l-37 -52l-47 -62q-20 -26 -43 -25t-43 23l-74 92q-15 -36 -38.5 -71t-54.5 -63t-72.5 -45.5t-92.5 -17.5q-54 0 -99 17.5t-77 48.5t-49.5 74t-17.5 94q0 50 15 88t37.5 65.5
t49.5 44.5t51 23q48 12 71 -5t23 -41q0 -16 -12.5 -32t-39.5 -26q-36 -14 -59 -43t-23 -73q0 -52 35 -88t87 -36q46 0 79.5 22.5t55 55.5t31.5 71.5t10 69.5q0 57 46 57q32 0 59 -33l102 -127q21 28 41 55t42 54q21 24 39.5 25.5t42.5 -22.5z" />
    <glyph glyph-name="ZWSP" unicode="&#x200b;" 
 />
    <glyph glyph-name="endash" unicode="&#x2013;" horiz-adv-x="750" 
d="M92 214q-30 0 -45 17.5t-15 39t16 39.5q14 17 46 17h560q32 0 47.5 -17.5t15.5 -39t-15 -39t-45 -17.5h-565z" />
    <glyph glyph-name="emdash" unicode="&#x2014;" horiz-adv-x="1500" 
d="M92 214q-30 0 -45 17.5t-15 39t16 39.5q14 17 46 17h1302q32 0 48 -17.5t16 -39t-15 -39t-45 -17.5h-1308z" />
    <glyph glyph-name="quoteleft" unicode="&#x2018;" horiz-adv-x="256" 
d="M216 478q-3 -38 -26 -46q-22 -8 -56 -4q-50 8 -69.5 34.5t-21 60t8.5 67.5t18 55q14 36 34 57t55 9q15 -6 20 -15.5t4 -21.5t-5 -24t-7 -23q-4 -15 -8 -25.5t-10 -31.5q-9 -32 -4 -36t29 -8q18 -3 29.5 -13.5t8.5 -34.5z" />
    <glyph glyph-name="quoteright" unicode="&#x2019;" horiz-adv-x="256" 
d="M188 494q-15 -36 -35.5 -57t-54.5 -9q-15 6 -20.5 15.5t-4 21.5t4.5 24q4 13 8 23q6 15 10 26q4 10 8 30q4 16 5 25t-2 12t-10 3.5t-17 3.5q-18 3 -29.5 13.5t-8.5 34.5q3 38 24.5 47t56.5 4q50 -8 69.5 -34.5t21.5 -60.5t-7.5 -67.5t-18.5 -54.5z" />
    <glyph glyph-name="quotedblleft" unicode="&#x201c;" horiz-adv-x="405" 
d="M382 494q-3 -36 -24.5 -46t-55.5 -6q-50 8 -69.5 35t-22 61t7.5 67.5t19 54.5q15 36 35 57t55 9q15 -6 20 -16t4 -22t-5 -24t-7 -22q-6 -15 -10.5 -28.5t-8.5 -33.5q-4 -18 -5 -25t2.5 -9.5t10.5 -2.5q6 1 17 -1q18 -3 29 -13.5t8 -34.5zM194 494q-3 -38 -25.5 -47
t-57.5 -5q-50 8 -69.5 35t-20.5 61t8.5 67.5t18.5 54.5q14 36 34 57t54 9q15 -6 20.5 -16t4 -22t-5 -24t-7.5 -22q-4 -15 -9 -28.5t-9 -33.5q-4 -18 -5 -25t2 -9.5t10 -2.5q7 1 19 -1q18 -3 29.5 -13.5t8.5 -34.5z" />
    <glyph glyph-name="quotedblright" unicode="&#x201d;" horiz-adv-x="405" 
d="M358 506q-14 -34 -34 -55.5t-54 -9.5q-16 4 -21 14t-4 22.5t5.5 24.5t7.5 22q6 16 10 29q6 13 10 32q4 18 4 25.5t-3 9.5t-10 1.5t-17 2.5q-18 3 -29 14.5t-9 36.5q3 38 25 45q23 8 57 2q50 -8 69 -34t20.5 -59t-8.5 -67t-19 -56zM171 506q-14 -34 -33.5 -55.5
t-53.5 -9.5q-16 4 -21 14t-4 22.5t5.5 24.5t7.5 22q4 16 9.5 29t8.5 32q4 18 5 25.5t-2 9.5t-11 2t-18 2q-16 3 -28 14.5t-9 36.5q4 36 25.5 44.5t55.5 2.5q50 -8 69 -34t21 -59t-8 -67t-19 -56z" />
    <glyph glyph-name="bullet" unicode="&#x2022;" horiz-adv-x="466" 
d="M405 246q0 -36 -13.5 -67.5t-37.5 -55.5t-55.5 -37.5t-67.5 -13.5t-67.5 13.5t-55.5 37.5t-37.5 55.5t-13.5 67.5t13.5 67.5t37.5 55.5t55.5 37.5t67.5 13.5t67.5 -13.5t55.5 -37.5t37.5 -55.5t13.5 -67.5z" />
    <glyph glyph-name="Euro" unicode="&#x20ac;" horiz-adv-x="691" 
d="M650 645q22 -18 24 -42.5t-10.5 -42t-36.5 -22t-54 17.5q-32 24 -59.5 36t-72.5 12q-63 0 -109 -28t-72 -76h151q32 0 47.5 -17t15.5 -37t-16 -36.5t-47 -16.5h-186q-2 -9 -2.5 -19t-0.5 -22q0 -9 1 -18.5t2 -18.5h186q32 0 47.5 -16.5t15.5 -36.5t-16 -37t-47 -17h-155
q27 -48 72.5 -78t107.5 -30q50 0 82 14t74 34q30 14 52 6t31 -28t3 -43t-33 -39q-33 -20 -87 -36.5t-122 -16.5q-122 0 -200 59.5t-113 157.5h-69q-32 0 -47.5 17t-15.5 37t15.5 36.5t47.5 16.5h48q0 9 -1 19t-1 18q0 12 1 22t1 19h-48q-32 0 -47.5 16.5t-15.5 36.5t15.5 37
t47.5 17h70q33 96 112 156t205 60q74 0 128 -24.5t81 -46.5z" />
    <glyph glyph-name="trademark" unicode="&#x2122;" horiz-adv-x="810" 
d="M760 312q0 -18 -11 -27t-24.5 -9t-25 10t-11.5 28v240l-88 -251q-9 -27 -36 -27t-36 27l-88 247v-236q0 -18 -11.5 -28t-24 -10t-24 9t-11.5 27v356q0 16 12 29t36 13q20 0 32.5 -8.5t20.5 -32.5l94 -265l94 265q8 24 21 32.5t32 8.5q24 0 36 -13t12 -29zM218 639v-327
q0 -20 -11.5 -29.5t-25 -9.5t-24.5 9.5t-11 29.5v327h-77q-18 0 -27.5 10.5t-9.5 23.5t9.5 23t27.5 10h227q18 0 27.5 -10t9.5 -23t-9.5 -23.5t-27.5 -10.5h-78z" />
    <glyph glyph-name="uni25CC" unicode="&#x25cc;" horiz-adv-x="1005" 
d="M388 268l-72 -22l26 70q19 -28 46 -48zM468 620l34 67l34 -66q-8 2 -16 1.5t-16 -0.5h-18t-18 -2zM532 234l-30 -63l-31 63q8 -2 16.5 -2.5t16.5 -0.5t14 0.5t14 2.5zM698 460l62 -32l-62 -29q2 8 2 14.5v14.5v16t-2 16zM312 396l-68 34l68 34q-2 -9 -2.5 -18.5
t-0.5 -17.5t0.5 -16t2.5 -16zM346 544l-19 70l67 -24q-28 -18 -48 -46zM660 308l18 -62l-62 20q28 20 44 42zM615 590l73 24l-25 -71q-21 27 -48 47z" />
    <glyph glyph-name="thothannobasethai" unicode="&#xf700;" horiz-adv-x="483" 
d="M452 520v-39v-86t-1 -110t-1 -109v-84.5v-37.5q0 -27 -16.5 -43.5t-43.5 -16.5q-28 0 -45 16.5t-17 43.5l2 160h-118q-32 0 -48 17.5t-16 39t17 39t49 17.5l116 -1v13q0 51 -27 74t-85 23q-39 0 -60 -12q-22 -12 -34 -32q-20 -28 -43.5 -32t-42 7t-26.5 32t6 43
q26 39 71.5 68.5t132.5 29.5q64 0 108 -16q2 26 18 41t44 15q27 0 43.5 -17t16.5 -43z" />
    <glyph glyph-name="saraileftthai" unicode="&#xf701;" 
d="M-182 694q2 -28 -16 -41.5t-46 -13.5h-230q-28 0 -46 13.5t-17 41.5q2 27 18.5 40.5t41.5 13.5h235q26 0 42 -13.5t18 -40.5z" />
    <glyph glyph-name="saraiileftthai" unicode="&#xf702;" 
d="M-182 696q0 -57 -62 -57h-230q-28 0 -46 13.5t-17 41.5q2 27 18.5 40.5t41.5 13.5h185v52q0 26 13 42t41 18q28 0 42 -18t14 -46v-100z" />
    <glyph glyph-name="saraueleftthai" unicode="&#xf703;" 
d="M-158 759q0 -42 -26 -74.5t-65 -42.5q-14 -3 -22 -3h-17h-188q-27 0 -44.5 13.5t-16.5 41.5q0 27 16.5 40.5t42.5 13.5h78q-2 3 -2 11q0 51 36 87t86 36q51 0 86.5 -36t35.5 -87zM-234 759q0 20 -14 33q-12 14 -32 14t-33.5 -14t-13.5 -33q0 -20 13.5 -32.5t33.5 -12.5
t33 12.5t13 32.5z" />
    <glyph glyph-name="saraueeleftthai" unicode="&#xf704;" 
d="M-182 696q0 -57 -62 -57h-230q-28 0 -46 13.5t-17 41.5q2 27 18.5 40.5t41.5 13.5h57v48q0 24 11 43t40 21q24 0 35.5 -12t15 -29.5t3 -37t-0.5 -33.5h31v48q0 24 10.5 43t40.5 21t41 -20q11 -20 11 -46v-98z" />
    <glyph glyph-name="maieklowleftthai" unicode="&#xf705;" 
d="M-200 693q0 -28 -14 -45.5t-42 -15.5q-27 0 -40.5 16t-13.5 42v124q0 26 13 42t41 18q28 0 42 -17t14 -45v-119z" />
    <glyph glyph-name="maitholowleftthai" unicode="&#xf706;" 
d="M-126 764q-39 -68 -102.5 -99.5t-135.5 -31.5q-33 0 -46 18t-13 42l-1 53h-38q-26 0 -44 13t-18 42q0 26 18 40.5t44 14.5h88q26 0 42 -15.5t16 -42.5v-54q38 3 61.5 25.5t41.5 52.5q15 22 36 25t37.5 -7t22.5 -31t-9 -45z" />
    <glyph glyph-name="maitrilowleftthai" unicode="&#xf707;" 
d="M-168 682q0 -24 -16.5 -36t-37.5 -13l-26 -1q-45 -3 -67.5 12.5t-16.5 53.5l4 24q2 14 -4 14q-4 0 -6 -7q-9 -9 -18.5 -19.5t-19.5 -16t-22 -3.5t-25 16l-21 23q-4 7 -6 7q-6 0 -3 -16l3 -22q4 -27 -8.5 -43t-30.5 -19t-35.5 8.5t-21.5 37.5l-3 22q-9 64 20 99t73 35
q22 0 36 -9t28 -23q16 15 30 23.5t35 8.5q39 0 68 -27t28 -83l6 1q20 2 38.5 -9.5t18.5 -37.5z" />
    <glyph glyph-name="maichattawalowleftthai" unicode="&#xf708;" 
d="M-153 753q2 -27 -16.5 -40t-44.5 -13h-36v-19q0 -26 -13 -45.5t-41 -19.5q-27 2 -39.5 19t-12.5 43v22h-36q-26 0 -45 12t-17 41q2 28 19 39.5t41 11.5h38v26q0 26 12 41t40 15q28 2 41 -16t13 -44v-22h38q26 0 41.5 -12t17.5 -39z" />
    <glyph glyph-name="thanthakhatlowleftthai" unicode="&#xf709;" 
d="M-135 790q2 -27 -15.5 -39.5t-43.5 -12.5l-30 -2q-21 -2 -23 -14q-3 -11 -1 -26q2 -32 -14.5 -47.5t-37.5 -16t-39.5 12.5t-20.5 42v30q0 22 7.5 43.5t22.5 39.5t38.5 29t53.5 13l43 1q27 2 43.5 -12t16.5 -41z" />
    <glyph glyph-name="maieklowrightthai" unicode="&#xf70a;" 
d="M-38 693q0 -28 -15 -45.5t-41 -15.5q-27 0 -41.5 16t-14.5 42v124q0 30 17 45t39 15t39 -16q17 -14 17 -46v-119z" />
    <glyph glyph-name="maitholowrightthai" unicode="&#xf70b;" 
d="M22 764q-39 -68 -102.5 -99.5t-135.5 -31.5q-33 0 -45.5 18t-12.5 42l-2 53h-38q-26 0 -43.5 13t-17.5 42q0 26 18 41q17 14 43 14h89q26 0 41.5 -15.5t15.5 -42.5v-54q38 3 62 25.5t42 52.5q15 22 35.5 25t37.5 -7t22.5 -31t-9.5 -45z" />
    <glyph glyph-name="maitrilowrightthai" unicode="&#xf70c;" 
d="M4 682q0 -24 -16 -36t-38 -13l-43 -1q-45 -3 -67.5 12.5t-16.5 53.5l3 24q2 14 -3 14q-3 0 -6 -7q-9 -9 -19 -19.5t-20 -16t-22 -3.5q-10 2 -24 16l-22 23q-4 7 -6 7q-8 0 -4 -16l4 -22q4 -27 -8 -43t-30 -19t-36 8q-18 12 -22 38l-2 22q-9 64 20 99q28 35 72 35
q22 0 36 -9t29 -23q15 15 29 24q14 8 36 8q39 0 68 -27t26 -83l26 1q20 2 38 -9.5t18 -37.5z" />
    <glyph glyph-name="maichattawalowrightthai" unicode="&#xf70d;" 
d="M54 753q2 -27 -16 -40t-46 -13h-32v-20q0 -26 -13 -45.5t-41 -19.5q-27 2 -40 19q-12 16 -12 42v24h-37q-26 0 -45.5 12t-17.5 41q2 28 19 39.5t41 11.5h40v27q0 26 12 41.5t40 15.5q28 2 41 -16t13 -44v-24h36q26 0 41 -12t17 -39z" />
    <glyph glyph-name="thanthakhatlowrightthai" unicode="&#xf70e;" 
d="M44 790q0 -27 -17.5 -39.5t-41.5 -12.5l-67 -2q-21 -2 -23.5 -13.5t-2.5 -26.5q2 -32 -15.5 -47.5t-38.5 -16t-39 12.5t-18 42l-1 30q0 45 30 83t92 42l82 1q26 0 43 -13t17 -40z" />
    <glyph glyph-name="yoyingnobasethai" unicode="&#xf70f;" horiz-adv-x="825" 
d="M795 190q0 -104 -60 -151q-59 -47 -151 -47q-42 0 -80.5 11t-68 34t-47.5 61q-18 36 -18 92v143q0 51 -25 75t-72 24l-105 -2v-316h15q27 0 46.5 -14t19.5 -42q0 -27 -18 -42.5t-48 -15.5h-57q-42 0 -61 20t-19 55v395q0 26 16 43t46 17l164 2q40 0 79 -9t70.5 -32
t51 -62t19.5 -99v-141q0 -52 27 -73.5t63 -21.5t64 26q28 28 28 74v282q0 28 16 44t44 16t44.5 -17t16.5 -43v-286z" />
    <glyph glyph-name="maihanakatleftthai" unicode="&#xf710;" 
d="M-172 687q0 -27 -14 -41q-16 -13 -50 -13h-127q-46 0 -74 6.5t-43 23.5t-19.5 47t-4.5 78q0 32 16.5 46.5t43.5 14.5q26 -2 39 -14.5t13 -48.5q0 -30 5 -37.5t25 -7.5h128q34 0 48 -15t14 -39z" />
    <glyph glyph-name="nikhahitleftthai" unicode="&#xf711;" 
d="M-188 738q0 -52 -36 -88t-88 -36t-88 36t-36 88t36 88t88 36t88 -36t36 -88zM-266 736q0 20 -13 33.5t-33 13.5t-33 -13.5t-13 -33.5t13 -32t33 -12t33 12t13 32z" />
    <glyph glyph-name="maitaikhuleftthai" unicode="&#xf712;" 
d="M-158 860q0 -20 -12.5 -35t-39.5 -15h-198q-45 0 -45 -46q0 -12 4.5 -25t12.5 -19l32 33q12 14 26 17.5t26 1.5t21 -10t13 -18q8 -24 17.5 -31t12.5 -7q18 0 19.5 11t1 25t3.5 27t26 17q33 6 50 -20t14 -60t-29.5 -63t-78.5 -29q-33 0 -52.5 8t-35.5 28q-20 -20 -39 -30
q-19 -12 -47 -4q-44 12 -73 51t-29 98q0 38 13.5 65.5t36 44.5t50.5 25.5t58 8.5h190q27 0 39.5 -14t12.5 -35z" />
    <glyph glyph-name="maiekupperleftthai" unicode="&#xf713;" 
d="M-184 945q0 -21 -12 -36q-10 -15 -36 -15t-37 14t-11 36v116q0 20 9.5 36t36.5 16q28 0 39 -17t11 -37v-113z" />
    <glyph glyph-name="maithoupperleftthai" unicode="&#xf714;" 
d="M-150 1008q-34 -58 -88 -85t-118 -27q-28 0 -39 16t-11 38v42h-32q-21 0 -37.5 12t-16.5 36t16 36.5t38 12.5h76q22 0 36 -13.5t14 -37.5v-45q30 4 50 23t36 43q14 20 31.5 22.5t32 -6.5t19.5 -27t-7 -40z" />
    <glyph glyph-name="maitriupperleftthai" unicode="&#xf715;" 
d="M-92 945q0 -21 -14 -32t-34 -11l-37 -2q-81 -8 -73 58l2 20q3 12 -1 12q-2 0 -1.5 -2t-1.5 -4l-16 -18t-18 -13.5t-20 -2.5q-10 0 -21 14l-18 20q-1 0 -1 3q0 2 -2 3q-4 0 -4 -4t2 -8l4 -20q4 -24 -8 -38t-28.5 -16t-31.5 7.5t-18 33.5l-3 18q-8 56 17.5 86.5t63.5 30.5
q20 0 32 -7.5t24 -19.5q12 12 24 19.5t31 7.5q34 0 58.5 -23t24.5 -71l18 1q16 2 33 -9t17 -33z" />
    <glyph glyph-name="maichattawaupperleftthai" unicode="&#xf716;" 
d="M-102 1017q0 -26 -16 -36.5t-38 -10.5h-27v-14q0 -22 -11.5 -40t-36.5 -16q-24 0 -34.5 16t-10.5 36v18h-30q-22 0 -40 11t-16 36q2 26 18 35.5t36 9.5h32v20q0 21 10.5 35.5t34.5 14.5q26 2 37 -14t11 -40v-16h29q22 0 36 -10.5t16 -34.5z" />
    <glyph glyph-name="thanthakhatupperleftthai" unicode="&#xf717;" 
d="M-152 963q0 -27 -18 -40t-40 -13l-28 -1q-21 -2 -23.5 -13.5t-2.5 -27.5q2 -32 -15.5 -47t-38.5 -16t-39 13t-18 42l-3 30q0 44 32 82q30 39 92 42l42 2q26 2 43 -12t17 -41z" />
    <glyph glyph-name="saraulowthai" unicode="&#xf718;" 
d="M-38 -420q0 -22 -11 -41t-41 -19q-27 0 -42.5 16.5t-15.5 43.5v58h-22q-26 0 -44 14t-18 42q0 27 18 42.5t44 15.5h74q26 0 42 -16t16 -44v-112z" />
    <glyph glyph-name="sarauulowthai" unicode="&#xf719;" 
d="M-38 -382q0 -24 -11 -43t-30 -32t-43 -19q-24 -7 -50 -7t-51.5 5.5t-46 18t-32.5 31t-12 46.5v20h-13q-26 0 -44.5 14t-18.5 42q0 27 18 42.5t45 15.5h66q26 0 42.5 -16t16.5 -44v-58q0 -9 5 -16.5t23 -7.5q12 0 19 8t7 18v62q0 22 11 42t41 20q26 0 42 -16.5t16 -43.5
v-82z" />
    <glyph glyph-name="phinthulowthai" unicode="&#xf71a;" 
d="M-39 -312q0 -30 -21 -51t-51 -21t-51 21t-21 51t21 51t51 21t51 -21t21 -51z" />
    <glyph glyph-name="lochula.short" unicode="&#xf71d;" horiz-adv-x="615" 
d="M585 148q0 -32 -13.5 -60t-36 -49t-52.5 -33t-63 -12q-26 0 -55 10t-50 28q-20 -18 -48.5 -28t-53.5 -10q-34 0 -64.5 12t-52.5 33t-35 49t-13 60v329q0 26 16 43q18 17 46 17q27 0 43.5 -17.5t16.5 -42.5v-331q0 -16 12.5 -28.5t30.5 -12.5t31 12q12 13 12 29l-1 150
q0 26 16.5 43t44.5 17t45 -18q17 -16 17 -42l-2 -150q0 -16 13 -28.5t31 -12.5t31 11.5t13 27.5v198q0 30 -13 44t-51 18q-22 2 -37 16t-19.5 32.5t4 39t32.5 34.5l110 71q28 18 52.5 12t37 -23.5t9.5 -40.5t-29 -39l-47 -29q36 -18 54 -50.5t18 -86.5v-192z" />
    <glyph glyph-name="rulakkhangyao" unicode="&#xf881;" horiz-adv-x="837" 
d="M807 -140q0 -26 -16.5 -43t-44.5 -17t-45 18q-17 16 -17 42l2 502q0 45 -23.5 59.5t-59.5 14.5q-42 0 -67.5 -23t-40.5 -37q5 -21 5 -46v-470q0 -27 -17 -43.5t-45 -16.5q-27 0 -43.5 17t-16.5 43v472q0 50 -28.5 75t-76.5 23l-105 -1v-313h15q27 -2 47 -16
q19 -14 19 -42q0 -26 -18 -42t-48 -16h-57q-42 0 -61 20t-19 55v395q0 26 17 42t45 16l164 4q48 2 96 -12q50 -14 84 -50q30 39 71 54.5t85 15.5q32 0 66 -7t63 -26t49 -54t20 -90z" />
    <glyph glyph-name="lulakkhangyao" unicode="&#xf882;" horiz-adv-x="868" 
d="M837 -140q0 -26 -16.5 -43t-44.5 -17t-45 18q-17 16 -17 42l2 502q0 45 -23.5 59.5t-59.5 14.5q-20 0 -36.5 -6.5t-30.5 -16t-24.5 -20.5t-16.5 -17q5 -21 5 -46v-470q0 -27 -17 -43.5t-45 -16.5q-27 0 -43.5 17t-16.5 43v472q0 50 -29 75t-77 23l-104 -1v-354
q0 -34 -19 -54.5t-59 -20.5h-50q-30 0 -48.5 16t-18.5 41q0 33 22.5 44t50.5 13v354q0 26 17 43t45 17l165 4q48 2 96 -12q49 -14 83 -50q30 39 71 54.5t85 15.5q32 0 66 -7t63 -26t49 -54t20 -90z" />
    <glyph glyph-name="saraamleft" horiz-adv-x="418" 
d="M388 54q0 -26 -16 -43t-45 -17q-28 0 -44 17t-16 43v309q0 45 -23.5 60t-59.5 15q-24 0 -40 -13.5t-31 -26t-32 -18.5t-39 8q-21 14 -24 37q-2 23 14 45q32 39 73 55.5t84 16.5q32 0 67 -7t64.5 -26.5t48 -54t18.5 -90.5zM-188 738q0 -52 -36 -88t-88 -36t-88 36t-36 88
t36 88t88 36t88 -36t36 -88zM-266 736q0 20 -13 33.5t-33 13.5t-33 -13.5t-13 -33.5t13 -32t33 -12t33 12t13 32z" />
    <glyph glyph-name="uni0E33.alt1" horiz-adv-x="418" 
d="M388 54q0 -26 -16 -43t-45 -17q-28 0 -44 17t-16 43v309q0 45 -23.5 60t-59.5 15q-24 0 -40 -13.5t-31 -26t-32 -18.5t-39 8q-21 14 -24 37q-2 23 14 45q32 39 73 55.5t84 16.5q32 0 67 -7t64.5 -26.5t48 -54t18.5 -90.5zM-188 738q0 -52 -36 -88t-88 -36t-88 36t-36 88
t36 88t88 36t88 -36t36 -88zM-266 736q0 20 -13 33.5t-33 13.5t-33 -13.5t-13 -33.5t13 -32t33 -12t33 12t13 32z" />
    <glyph glyph-name="yamakkanleftthai" 
d="M-196 657q0 -21 -14.5 -35t-35.5 -14h-21q-48 0 -79.5 31t-31.5 79q0 18 8 38q6 21 20 36q-32 28 -31 69q-2 48 38 85q41 36 117 36q27 0 40.5 -13t13.5 -29t-14 -29t-40 -13q-32 0 -47 -11t-16.5 -24.5t10 -25t33.5 -11.5q16 0 32 -10t16 -32q0 -21 -15 -32.5t-36 -10.5
q-14 0 -26.5 -0.5t-12.5 -22.5q0 -6 7 -12t19 -7h16q20 0 35 -10.5t15 -31.5z" />
    </font>
</defs>
</svg>
