<?xml version="1.0" standalone="no"?>
<!DOCTYPE svg PUBLIC "-//W3C//DTD SVG 1.1//EN" "http://www.w3.org/Graphics/SVG/1.1/DTD/svg11.dtd" >
<svg>
<metadata>
Created by FontForge 20120731 at Sun Jul 31 06:48:55 2016
 By www-data
Copyright (c) 2007 by Prinya R. nont. All rights reserved.
</metadata>
<defs>
<font id="DBSaiKrokX" horiz-adv-x="0" >
  <font-face 
    font-family="DB SaiKrok X"
    font-weight="400"
    font-stretch="normal"
    units-per-em="1000"
    panose-1="2 0 5 6 6 0 0 2 0 4"
    ascent="800"
    descent="-200"
    x-height="528"
    cap-height="712"
    bbox="-540 -480 1444.08 1119.19"
    underline-thickness="20"
    underline-position="-133"
    unicode-range="U+0020-F882"
  />
<missing-glyph horiz-adv-x="621" 
d="M633 600v-21h9q10 -1 10 13q0 2 -2 5t-8 3h-9zM638 578h-5v-22h-7v52h16q18 0 18 -16q0 -10 -4.5 -12t-10.5 -2l15 -22h-8zM642 549q20 0 26.5 10.5t6.5 19.5q0 36 -33 36q-34 0 -34 -36q0 -12 8 -21t26 -9zM642 620q20 0 29 -12t9 -29q0 -12 -9 -23.5t-29 -11.5
q-18 0 -28.5 11.5t-10.5 23.5q0 16 10.5 28.5t28.5 12.5zM302 474q24 -2 56 -6t64 -10t59 -14q27 -10 41 -20q-30 60 -93 92.5t-129 32.5q-51 0 -97.5 -19.5t-76.5 -59.5q27 3 54 4.5t54 1.5h34t34 -2zM562 592v-212q-72 22 -164 38t-196 16q-72 0 -140 -10q9 33 28.5 64
t49.5 54.5t69.5 36.5t87.5 13q46 0 83.5 -10t65.5 -25t47.5 -33t28.5 -32q0 -2 0 9.5t-1 28t-1 34.5v28h42zM230 190q0 12 -8.5 18t-17.5 6q-10 0 -18 -6t-8 -18t8 -17t18 -5q9 0 17.5 5t8.5 17zM48 208q0 34 13.5 61.5t36 45.5t51 27t58.5 9t57.5 -8.5t49.5 -24.5t35 -42
t13 -62v-174h158v304h42v-342h-283v38h43v179q0 45 -33 67.5t-81 22.5q-45 0 -80.5 -24.5t-35.5 -70.5v-160l86 87q-8 3 -19.5 15t-11.5 34q0 27 16.5 43t43.5 16q26 0 41.5 -17.5t15.5 -41.5q0 -21 -8 -32t-14 -17q-3 -3 -25.5 -25t-50.5 -47q-16 -15 -33 -31t-37 -36h-48
v206z" />
    <glyph glyph-name="plusminus" unicode="&#x2b;&#x2d;" horiz-adv-x="568" 
d="M321 339v-163q0 -20 -11.5 -30t-25.5 -10t-25 10t-11 30v163h-164q-20 0 -29.5 11.5t-9.5 25.5t9.5 25t29.5 11h164v164q0 20 11 29.5t25 9.5t25.5 -9.5t11.5 -29.5v-164h163q20 0 30 -11t10 -25t-10 -25.5t-30 -11.5h-163zM84 0q-20 0 -29.5 11t-9.5 25.5t9.5 26
t29.5 11.5h400q20 0 30 -11.5t10 -26t-10 -25.5t-30 -11h-400z" />
    <glyph glyph-name="ellipsis" unicode="&#x2e;&#x2e;&#x2e;" horiz-adv-x="1305" 
d="M1154 58q0 -27 -20 -46.5t-46 -19.5q-28 0 -48 20t-20 46q0 28 20 48t48 20q27 0 46.5 -20t19.5 -48zM718 58q0 -27 -19 -46.5t-47 -19.5q-27 0 -46.5 20t-19.5 46q0 28 20 48t46 20q27 0 46.5 -20t19.5 -48zM285 58q0 -27 -19.5 -46.5t-47.5 -19.5q-27 0 -46.5 20
t-19.5 46q0 28 19 48t47 20t47.5 -20t19.5 -48z" />
    <glyph glyph-name="lessequal" unicode="&#x3c;&#x3d;" horiz-adv-x="522" 
d="M447 249q22 -14 26.5 -30.5t-2 -28.5t-23.5 -16q-16 -4 -38 10l-335 194q-20 12 -28 21t-8 24q0 16 8.5 26t27.5 22l335 193q22 12 38.5 8.5t23 -15.5t2.5 -27.5t-27 -29.5l-305 -176zM69 201q-22 14 -26.5 30.5t2 28.5t23.5 16q16 4 38 -10l341 -197q22 -14 26.5 -30.5
t-2 -28.5t-23.5 -16q-16 -4 -38 10z" />
    <glyph glyph-name="greaterequal" unicode="&#x3e;&#x3d;" horiz-adv-x="522" 
d="M69 249l305 175l-305 176q-22 14 -26.5 29.5t2 27.5t23 15.5t38.5 -8.5l335 -193q20 -12 28 -21.5t8 -26.5q0 -15 -8.5 -24t-27.5 -21l-335 -194q-22 -14 -38.5 -10t-23 16t-2 28.5t26.5 30.5zM106 4q-22 -14 -38.5 -10t-23 16t-2.5 29t27 30l341 197q22 14 38.5 10
t23 -16t2.5 -29t-27 -30z" />
    <glyph glyph-name="fongmanfunnuthai" unicode="&#xe4f;&#x22;" horiz-adv-x="801" 
d="M502 747q0 -21 -10 -31t-23 -10t-23.5 10t-10.5 31l-7 157q0 20 13 30.5t29 10.5t28 -10.5t10 -30.5zM362 747q0 -21 -11 -31t-23.5 -10t-23 10t-10.5 31l-8 157q0 20 13 30.5t29 10.5t28.5 -10.5t12.5 -30.5zM730 328q0 -68 -26 -127.5t-71 -103t-106 -69t-128 -25.5
q-68 0 -127.5 25.5t-105.5 69t-72 103.5q-26 59 -26 127t26 126.5t72 103t106 69.5t127 25q68 0 128.5 -25t105.5 -69.5t71 -103t26 -126.5zM658 328q0 54 -20 102t-55 83.5t-82.5 56t-101.5 20.5t-101.5 -20.5t-82.5 -56t-55 -83.5t-20 -102t20 -102t55 -83t82.5 -56
t101.5 -21t101.5 21t82.5 56t55 83t20 102zM576 328q0 -36 -14 -68t-38 -55t-56.5 -37.5t-68.5 -14.5t-68.5 14.5t-56.5 37.5t-38 55t-14 68t14 68t38 55t56.5 37t68.5 14t68.5 -14t56.5 -37t38 -55t14 -68zM508 328q0 48 -30.5 79t-78.5 31t-78.5 -31t-30.5 -79t30.5 -78.5
t78.5 -30.5t78.5 30.5t30.5 78.5z" />
    <glyph glyph-name="dochadaphinthuthai" unicode="&#xe0e;&#xe3a;" horiz-adv-x="531" 
d="M492 -332q0 -24 -16.5 -40t-40.5 -16t-40.5 16t-16.5 40t16.5 41t40.5 17t40.5 -17t16.5 -41zM482 -160q0 -26 -12 -45t-38 -25q-15 -3 -30.5 -1.5t-31.5 15.5l-80 80l-72 -72q-34 -34 -62 -8q-15 12 -14.5 31t16.5 35l102 99q12 12 27.5 12.5t27.5 -11.5l81 -79v467
q0 63 -35 92.5t-89 29.5l-124 -1v-138v-129t2 -132q0 -60 -62 -60h-48q-50 0 -49 44q-1 40 49 40h24v399q0 20 12 33q10 14 30 14l166 2q38 0 75 -9t67 -31t49 -60t19 -96v-496z" />
    <glyph glyph-name="topatakphintuthai" unicode="&#xe0f;&#xe3a;" horiz-adv-x="531" 
d="M492 -332q0 -24 -16.5 -40t-40.5 -16t-40.5 16t-16.5 40t16.5 41t40.5 17t40.5 -17t16.5 -41zM297 -144l-66 -68q-16 -15 -33.5 -14t-29.5 13l-88 90q-14 14 -14 30.5t15 28.5q27 28 54 0l63 -62l60 60q15 14 37.5 14t36.5 -14l64 -63v467q0 63 -34.5 92.5t-88.5 29.5
l-123 -1v-397q0 -30 -13.5 -46t-46.5 -16h-50q-50 0 -49 44q-1 40 49 40h24v399q0 20 11.5 33.5t32.5 13.5l165 2q38 0 75.5 -9t66.5 -31t48 -60t19 -96v-496q0 -26 -12 -45t-38 -25q-15 -3 -30.5 -1.5t-31.5 15.5z" />
    <glyph glyph-name="dochadasarauthai" unicode="&#xe0e;&#xe38;" horiz-adv-x="531" 
d="M482 -435q0 -21 -8.5 -33t-29.5 -12q-44 0 -44 45v73h-36q-21 0 -34.5 11t-13.5 30q0 21 14 32t34 11h74q44 0 44 -44v-113zM482 -160q0 -26 -12 -45t-38 -25q-15 -3 -30.5 -1.5t-31.5 15.5l-80 80l-72 -72q-34 -34 -62 -8q-15 12 -14.5 31t16.5 35l102 99
q12 12 27.5 12.5t27.5 -11.5l81 -79v467q0 63 -35 92.5t-89 29.5l-124 -1v-138v-129t2 -132q0 -60 -62 -60h-48q-50 0 -49 44q-1 40 49 40h24v399q0 20 12 33q10 14 30 14l166 2q38 0 75 -9t67 -31t49 -60t19 -96v-496z" />
    <glyph glyph-name="topataksarauthai" unicode="&#xe0f;&#xe38;" horiz-adv-x="531" 
d="M482 -435q0 -21 -8.5 -33t-29.5 -12q-44 0 -44 45v73h-36q-21 0 -34.5 11t-13.5 30q0 21 14 32t34 11h74q44 0 44 -44v-113zM297 -144l-66 -68q-16 -15 -33.5 -14t-29.5 13l-88 90q-14 14 -14 30.5t15 28.5q27 28 54 0l63 -62l60 60q15 14 37.5 14t36.5 -14l64 -63v467
q0 63 -34.5 92.5t-88.5 29.5l-123 -1v-397q0 -30 -13.5 -46t-46.5 -16h-50q-50 0 -49 44q-1 40 49 40h24v399q0 20 11.5 33.5t32.5 13.5l165 2q38 0 75.5 -9t66.5 -31t48 -60t19 -96v-496q0 -26 -12 -45t-38 -25q-15 -3 -30.5 -1.5t-31.5 15.5z" />
    <glyph glyph-name=".notdef" horiz-adv-x="621" 
d="M633 600v-21h9q10 -1 10 13q0 2 -2 5t-8 3h-9zM638 578h-5v-22h-7v52h16q18 0 18 -16q0 -10 -4.5 -12t-10.5 -2l15 -22h-8zM642 549q20 0 26.5 10.5t6.5 19.5q0 36 -33 36q-34 0 -34 -36q0 -12 8 -21t26 -9zM642 620q20 0 29 -12t9 -29q0 -12 -9 -23.5t-29 -11.5
q-18 0 -28.5 11.5t-10.5 23.5q0 16 10.5 28.5t28.5 12.5zM302 474q24 -2 56 -6t64 -10t59 -14q27 -10 41 -20q-30 60 -93 92.5t-129 32.5q-51 0 -97.5 -19.5t-76.5 -59.5q27 3 54 4.5t54 1.5h34t34 -2zM562 592v-212q-72 22 -164 38t-196 16q-72 0 -140 -10q9 33 28.5 64
t49.5 54.5t69.5 36.5t87.5 13q46 0 83.5 -10t65.5 -25t47.5 -33t28.5 -32q0 -2 0 9.5t-1 28t-1 34.5v28h42zM230 190q0 12 -8.5 18t-17.5 6q-10 0 -18 -6t-8 -18t8 -17t18 -5q9 0 17.5 5t8.5 17zM48 208q0 34 13.5 61.5t36 45.5t51 27t58.5 9t57.5 -8.5t49.5 -24.5t35 -42
t13 -62v-174h158v304h42v-342h-283v38h43v179q0 45 -33 67.5t-81 22.5q-45 0 -80.5 -24.5t-35.5 -70.5v-160l86 87q-8 3 -19.5 15t-11.5 34q0 27 16.5 43t43.5 16q26 0 41.5 -17.5t15.5 -41.5q0 -21 -8 -32t-14 -17q-3 -3 -25.5 -25t-50.5 -47q-16 -15 -33 -31t-37 -36h-48
v206z" />
    <glyph glyph-name=".null" 
 />
    <glyph glyph-name="nonmarkingreturn" horiz-adv-x="424" 
 />
    <glyph glyph-name="space" unicode=" " horiz-adv-x="375" 
 />
    <glyph glyph-name="exclam" unicode="!" horiz-adv-x="294" 
d="M184 224q0 -24 -12 -36t-25 -12t-25 12t-12 36l-6 433q0 24 13 35.5t30 11.5t30 -11.5t13 -35.5zM147 -9q-26 0 -38.5 15.5t-12.5 35.5t13 35.5t38 15.5q24 0 36.5 -15.5t12.5 -35.5t-12.5 -35.5t-36.5 -15.5z" />
    <glyph glyph-name="quotedbl" unicode="&#x22;" horiz-adv-x="331" 
d="M270 514q0 -21 -10.5 -30.5t-23 -9.5t-23.5 10t-11 30l-7 158q0 20 13.5 30t29.5 10t28 -10t10 -30zM129 514q0 -21 -10.5 -30.5t-23.5 -9.5t-23 10t-10 30l-8 158q0 20 13 30t28.5 10t28 -10t12.5 -30z" />
    <glyph glyph-name="numbersign" unicode="#" horiz-adv-x="531" 
d="M486 498q20 0 28 -10t6 -22.5t-14 -22t-34 -9.5h-62l-22 -160h66q21 0 29.5 -10t6.5 -22t-15 -23t-33 -11h-62l-26 -178q-3 -20 -15 -29t-25.5 -8t-23.5 10t-8 25l26 180h-124l-25 -178q-3 -20 -15 -29t-25.5 -8t-23 10t-8.5 25l25 180h-67q-21 0 -29 11t-6 23t15 22
t33 10h62l22 160h-66q-21 0 -29 9.5t-5.5 22t14.5 22.5t32 10h64l25 178q3 20 15 29t25.5 8t23 -10.5t8.5 -24.5l-25 -180h122l26 178q3 20 15 29t25.5 8t23.5 -10.5t8 -24.5l-26 -180h68zM214 434l-20 -160h121l23 160h-124z" />
    <glyph glyph-name="dollar" unicode="$" horiz-adv-x="477" 
d="M458 201q0 -75 -51 -133t-146 -70v-43q0 -12 -7.5 -18t-17.5 -6t-17 6t-7 18v39q-50 2 -96 14.5t-72 33.5q-18 12 -23 30t2 31.5t23 18.5q18 4 40 -10q21 -12 52 -24q30 -12 74 -14v270q-33 8 -67 21t-61.5 35.5t-45 55.5t-17.5 81q0 33 13.5 64.5t39 56t60 39.5t78.5 15
v38q0 12 7 18t17 6t17.5 -6t7.5 -18v-38q42 -3 77.5 -15.5t54.5 -32.5q15 -15 16.5 -31.5t-7 -27.5t-24.5 -14q-14 -3 -34 9q-15 8 -32.5 18t-50.5 16v-220q34 -12 69.5 -28.5t63.5 -41t46 -59t18 -84.5zM212 636q-48 -2 -75 -32t-27 -67q0 -34 24 -65q26 -30 78 -42v206z
M372 201q0 39 -27 75t-84 52v-252q56 10 83.5 45.5t27.5 79.5z" />
    <glyph glyph-name="percent" unicode="%" horiz-adv-x="735" 
d="M186 376q-51 0 -84.5 25t-51 62.5t-17.5 81t17.5 81t51 62t84.5 24.5q52 0 87 -24.5t52 -62t17 -81t-17 -81t-52 -62.5t-87 -25zM273 16q-9 -20 -25.5 -28t-31 -5t-21.5 17t1 36l274 654q8 20 23 27t29.5 4t22 -17t-1.5 -36zM549 -6q-51 0 -85 25t-51 62t-17 81t17 81
t51 62t85 25q52 0 86.5 -25t52 -62t17.5 -81t-17.5 -81t-52 -62t-86.5 -25zM186 432q27 0 45 16.5t27 41t9 54t-9 54t-27 41.5t-45 17t-45 -17t-27 -41.5t-9 -54t9 -54t27 -41t45 -16.5zM549 50q27 0 45 16t27 41t9 54t-9 54t-27 41.5t-45 16.5t-45 -16.5t-27 -41.5t-9 -54
t9 -54t27 -41t45 -16z" />
    <glyph glyph-name="ampersand" unicode="&#x26;" horiz-adv-x="661" 
d="M602 68q18 -22 16 -40.5t-13 -27.5t-27.5 -7.5t-28.5 17.5l-79 95q-50 -56 -102 -82t-101 -29.5t-92 12.5t-75 44q-36 36 -53 86t-8 104t47 105t108 85q-28 32 -51 66t-23 78q0 46 23 78t59 48t77 16t77 -16t59 -47t23 -75q0 -60 -38 -100t-86 -67q38 -47 72 -85
q28 -34 53 -64t32 -38q22 26 38.5 58t27.5 50q10 16 23.5 19t25 -4t17 -22t-2.5 -33q-6 -15 -18 -37q-9 -16 -24.5 -40.5t-38.5 -49.5zM356 573q0 36 -23.5 54t-51 18t-51 -18.5t-23.5 -56.5q0 -22 17.5 -47t43.5 -55q30 16 59 43.5t29 61.5zM242 374q-54 -30 -83 -66
t-37 -72t2.5 -69t34.5 -56q21 -21 52 -31.5t65 -6t72 25.5t72 63z" />
    <glyph glyph-name="quotesingle" unicode="'" horiz-adv-x="202" 
d="M135 528q-2 -22 -12.5 -33t-23 -11t-22 11t-9.5 33l-8 148q0 22 13 34t28.5 12t28.5 -12q12 -12 12 -34z" />
    <glyph glyph-name="parenleft" unicode="(" horiz-adv-x="238" 
d="M189 -24q14 -30 9.5 -47t-17.5 -22t-29 3q-18 8 -28 28q-10 21 -25 56.5t-28.5 83.5t-22.5 107t-9 130q0 69 9 129t22.5 108t28.5 83t25 57q10 21 27 29t30 2.5t17 -22.5t-9 -45q-9 -22 -21 -57t-22.5 -79t-18 -96t-7.5 -109t7.5 -109t18 -96t22.5 -78.5t21 -55.5z" />
    <glyph glyph-name="parenright" unicode=")" horiz-adv-x="238" 
d="M195 315q0 -70 -9 -129.5t-22.5 -107.5t-28.5 -83t-25 -57q-10 -21 -27 -28.5t-30 -2.5t-17 22t9 47q9 21 21 55.5t22.5 78.5t18 96t7.5 109t-7.5 109t-18 96t-22.5 78q-12 36 -21 58q-14 28 -9.5 45t17.5 22.5t29 -3.5q18 -8 28 -28q10 -21 25 -56.5t28.5 -83.5
t22.5 -108t9 -129z" />
    <glyph glyph-name="asterisk" unicode="*" horiz-adv-x="387" 
d="M336 462q-8 -14 -23.5 -17t-24.5 7l-78 62l15 -98q3 -12 -4 -26t-27 -14q-21 0 -28 14q-8 14 -6 26l17 98l-78 -62q-10 -9 -24.5 -6.5t-22.5 16.5t-2 27t18 18l92 36l-92 35q-12 4 -18 19t1 29q8 14 22.5 15t25.5 -7l78 -62l-17 98q-2 12 5 26t29 14q21 0 27.5 -14
t3.5 -26l-15 -98l78 62q9 8 24.5 6t23.5 -16t2 -28t-18 -18l-94 -35l94 -36q12 -4 18 -17.5t-2 -27.5z" />
    <glyph glyph-name="plus" unicode="+" horiz-adv-x="568" 
d="M321 234v-164q0 -20 -11.5 -29t-25.5 -9t-25 10q-11 8 -11 28v164h-164q-20 0 -29.5 11t-9.5 25.5t9.5 26t29.5 11.5h164v163q0 20 11 29.5t25 9.5t25.5 -10t11.5 -29v-163h163q20 0 30 -11.5t10 -26t-10 -25.5t-30 -11h-163z" />
    <glyph glyph-name="comma" unicode="," horiz-adv-x="247" 
d="M118 -92q-12 -22 -27.5 -29t-27.5 -1.5t-16.5 21t5.5 38.5l62 135q9 21 26.5 25.5t32.5 -2.5t21.5 -23t-5.5 -38z" />
    <glyph glyph-name="hyphen" unicode="-" horiz-adv-x="444" 
d="M412 270q0 -15 -12 -25.5t-32 -10.5h-293q-21 0 -33 10.5t-12 25.5q0 38 48 38h286q48 0 48 -38z" />
    <glyph glyph-name="period" unicode="." horiz-adv-x="235" 
d="M171 45q0 -22 -15.5 -38t-38.5 -16q-21 0 -37 15.5t-16 38.5q0 21 16 37t37 16q22 0 38 -16t16 -37z" />
    <glyph glyph-name="slash" unicode="/" horiz-adv-x="403" 
d="M104 16q-9 -20 -25.5 -28t-31 -5t-22 17t1.5 36l273 654q8 20 23.5 27t30 4t21 -17t-2.5 -36z" />
    <glyph glyph-name="zero" unicode="0" horiz-adv-x="531" 
d="M506 352q0 -93 -20 -160.5t-53 -111.5t-76 -65t-91 -21t-92 21t-77 65t-52 112t-19 160t19 160t52 112.5t77 66t92 21.5t91 -21.5t76 -66t53 -112.5t20 -160zM414 352q0 78 -12 133t-33 88t-48 48t-55 15q-30 0 -56.5 -15t-47 -48t-32.5 -88t-12 -133q0 -81 12 -134.5
t32.5 -86.5t47 -47t56.5 -14q28 0 55 14t48 47t33 86.5t12 134.5z" />
    <glyph glyph-name="one" unicode="1" horiz-adv-x="531" 
d="M333 40q0 -24 -13.5 -36t-29.5 -12t-29 12t-13 36v584h-94q-24 0 -36 13t-12 28.5t12 28t36 12.5h136q21 0 32 -12t11 -28v-626z" />
    <glyph glyph-name="two" unicode="2" horiz-adv-x="531" 
d="M471 530q0 -39 -15.5 -84.5t-55.5 -93.5l-229 -278h277q18 0 28 -11.5t10 -26t-10 -25.5t-28 -11h-349q-30 0 -39.5 25t10.5 50l263 319q26 30 40 66q14 34 14 66q0 26 -10.5 46t-27 34.5t-37.5 22t-42 7.5q-44 0 -79 -20t-44 -62q0 -22 -13.5 -34.5t-29.5 -12.5
t-29 11.5t-13 33.5q4 32 19 61t40.5 51.5t62 36t84.5 13.5t86 -15t64 -40.5t39.5 -59t13.5 -69.5z" />
    <glyph glyph-name="three" unicode="3" horiz-adv-x="531" 
d="M472 201q0 -104 -63 -156.5t-157 -52.5q-45 0 -81 13t-61.5 32t-41.5 43t-22 46q-8 27 0 44.5t22 21.5t30 -3t25 -30q15 -38 47 -64t80 -26q58 0 97 35.5t39 89.5q0 69 -39 101q-39 33 -91 37q-22 2 -33 12t-12 23.5t9 25.5q10 13 28 17q52 12 84 46t32 78q0 51 -34 76
q-34 26 -80 26q-52 0 -78 -26q-25 -24 -25 -56q0 -22 -13.5 -34.5t-29.5 -12.5t-29 11.5t-13 33.5q0 28 12.5 57.5t37 53t60.5 37.5q34 14 78 14q42 0 79 -13t64 -35t42 -54t15 -69q0 -58 -27 -101.5t-75 -65.5q60 -16 92 -65.5t32 -109.5z" />
    <glyph glyph-name="four" unicode="4" horiz-adv-x="531" 
d="M514 200q0 -16 -11 -27t-27 -11h-44v-122q0 -24 -13.5 -36t-29 -12t-29.5 12t-14 36v122h-290q-14 0 -23 7.5t-13.5 18t-3 23.5t9.5 23l294 441q14 20 33 29.5t36 8t30 -14t13 -38.5v-423h44q16 0 27 -10.5t11 -26.5zM346 568l-222 -331h222v331z" />
    <glyph glyph-name="five" unicode="5" horiz-adv-x="531" 
d="M484 232q0 -117 -68 -177.5t-180 -60.5q-64 0 -114 26t-74 56q-15 18 -12.5 35.5t12.5 28t25 12.5t29 -12q21 -21 51.5 -43t83.5 -22q76 0 117.5 44.5t41.5 106.5q0 45 -19.5 79t-53 52t-79.5 19.5t-97 -18.5q-16 -6 -32.5 -6.5t-28.5 5.5t-19 18.5t-4 35.5l36 246
q3 21 18 35t42 14h275q18 0 27.5 -12t9.5 -25t-9.5 -25t-27.5 -12h-254l-28 -192q74 27 134 19.5t104.5 -38.5t69 -81t24.5 -108z" />
    <glyph glyph-name="six" unicode="6" horiz-adv-x="531" 
d="M483 222q0 -48 -15.5 -90t-44.5 -73.5t-69 -49.5t-90 -18q-51 0 -91.5 18t-69 50.5t-44 77.5t-15.5 97q0 78 26 148.5t66 130.5t86 108q46 49 87 83q20 16 40 17t30.5 -10t6.5 -31t-30 -44q-42 -39 -83 -81.5t-79 -118.5q26 12 47 16t47 4q46 0 83 -17t62 -49t37.5 -74.5
t12.5 -93.5zM393 225q0 72 -31.5 114t-99.5 42q-26 0 -55 -12q-29 -13 -48 -29q-21 -50 -21 -115q0 -62 30 -107.5t94 -45.5t97.5 45t33.5 108z" />
    <glyph glyph-name="seven" unicode="7" horiz-adv-x="531" 
d="M218 24q-9 -21 -26.5 -27.5t-32.5 -2.5t-23 18q-8 16 2 38l261 582h-329q-21 0 -29.5 12t-8.5 25t10 25t28 12h362q44 0 54 -24q10 -25 -4 -55z" />
    <glyph glyph-name="eight" unicode="8" horiz-adv-x="531" 
d="M482 198q0 -44 -14.5 -82t-42 -66t-68.5 -44t-91 -16q-52 0 -92 16t-68 44t-42 66t-14 82q0 40 12 73t31 58t43 40t47 19q-45 14 -71 57t-26 97q0 76 48 124q50 48 132 48q87 0 134 -48t47 -124q0 -52 -27 -94q-26 -43 -70 -58q22 -4 45 -20t42 -41t32 -58t13 -73z
M364 538q0 44 -25 74t-73 30q-46 0 -73 -30t-27 -74q0 -40 28 -72t72 -32q45 0 71.5 32.5t26.5 71.5zM394 200q0 27 -8 52.5t-24.5 45.5t-40.5 33t-54 13t-54 -13t-40.5 -33t-24.5 -46t-8 -52q0 -69 39 -103t88 -34q50 0 88.5 34t38.5 103z" />
    <glyph glyph-name="nine" unicode="9" horiz-adv-x="531" 
d="M484 474q0 -78 -26 -148.5t-66 -130.5t-86 -108.5t-87 -82.5q-20 -16 -39.5 -17t-29.5 10t-6.5 31t30.5 44q42 39 81 81.5t79 116.5q-26 -10 -43.5 -15t-50.5 -5q-48 0 -84 18t-61 50t-37.5 74.5t-12.5 93.5q0 48 15.5 90t44.5 73.5t69 49.5t90 18q51 0 91.5 -18
t69 -50.5t44 -77.5t15.5 -97zM392 483q0 30 -8 57.5t-23.5 48.5t-39 34t-55.5 13q-33 0 -57.5 -13t-40.5 -34t-24.5 -48.5t-8.5 -57.5q0 -72 31.5 -114t99.5 -42q26 0 56 12q29 13 47 29q12 26 17.5 54t5.5 61z" />
    <glyph glyph-name="colon" unicode=":" horiz-adv-x="235" 
d="M171 378q0 -22 -15.5 -38t-38.5 -16q-21 0 -37 16t-16 38q0 21 16 36.5t37 15.5q22 0 38 -15.5t16 -36.5zM171 45q0 -22 -15.5 -38t-38.5 -16q-21 0 -37 15.5t-16 38.5q0 21 16 37t37 16q22 0 38 -16t16 -37z" />
    <glyph glyph-name="semicolon" unicode=";" horiz-adv-x="235" 
d="M171 378q0 -22 -15.5 -38t-38.5 -16q-21 0 -37 16t-16 38q0 21 16 36.5t37 15.5q22 0 38 -15.5t16 -36.5zM99 -92q-12 -22 -27.5 -29t-27.5 -1.5t-17 21t6 38.5l61 135q9 21 26.5 25.5t32.5 -2.5t22 -23t-5 -38z" />
    <glyph glyph-name="less" unicode="&#x3c;" horiz-adv-x="522" 
d="M447 69q22 -14 26.5 -30.5t-2 -28.5t-23.5 -16q-16 -4 -38 10l-335 194q-20 12 -28 21t-8 24q0 16 8.5 26t27.5 22l335 193q22 12 38.5 8.5t23 -15.5t2.5 -27.5t-27 -29.5l-305 -176z" />
    <glyph glyph-name="equal" unicode="=" horiz-adv-x="595" 
d="M90 328q-22 0 -33 12t-11 26.5t11 26.5t33 12h416q22 0 32.5 -12t10.5 -26.5t-10.5 -26.5t-32.5 -12h-416zM90 135q-22 0 -33 12t-11 26.5t11 26.5t33 12h416q22 0 32.5 -12t10.5 -26.5t-10.5 -26.5t-32.5 -12h-416z" />
    <glyph glyph-name="greater" unicode="&#x3e;" horiz-adv-x="522" 
d="M477 243q0 -15 -9 -24t-27 -21l-335 -194q-22 -14 -39 -10.5t-24 16t-2 29.5t28 30l305 175l-305 176q-22 14 -27.5 30t1.5 27.5t24 15t39 -8.5l335 -193q18 -12 27 -22t9 -26z" />
    <glyph glyph-name="question" unicode="?" horiz-adv-x="441" 
d="M406 540q3 -81 -35 -132q-39 -52 -115 -74v-98q0 -24 -13 -36t-30.5 -12t-31 12t-13.5 36v98q0 34 22 55t48 25q27 6 43.5 21t26.5 33t13 38q3 18 3 32q-3 51 -33 76q-29 24 -73 24q-38 0 -69.5 -23t-34.5 -66q-2 -18 -15 -26.5t-29 -6t-28 14t-10 31.5q2 32 18 60
t41.5 48t58 32t66.5 12q86 0 136.5 -46.5t53.5 -127.5zM266 45q0 -22 -16 -38t-38 -16q-21 0 -37 15.5t-16 38.5q0 21 15.5 37t37.5 16t38 -16t16 -37z" />
    <glyph glyph-name="at" unicode="@" horiz-adv-x="793" 
d="M754 414q-3 -80 -25.5 -132t-54.5 -84t-68 -44.5t-66 -12.5t-53 12t-33 39h-1q-30 -30 -59.5 -40.5t-60.5 -10.5q-32 0 -59.5 13.5t-47.5 36t-32 52t-12 60.5q0 50 15.5 94.5t44 80t68.5 56.5q40 20 90 20q38 0 71 -16t48 -55l11 36q4 16 17.5 23t26 5.5t21.5 -9.5t5 -22
l-75 -262q-4 -16 1 -31t26 -15q24 0 46.5 14.5t40.5 41t30 62.5q11 36 13 79q2 58 -20.5 104t-61 78.5t-87.5 48.5t-102 16q-64 0 -119 -24t-95.5 -64t-63 -95t-22.5 -117q0 -64 23.5 -118t65.5 -94t98 -61.5t122 -21.5q45 0 78.5 6t59.5 15t46 18.5t36 17.5q22 10 37.5 6.5
t21 -15t-0.5 -26.5t-26 -25q-39 -22 -102 -42q-64 -21 -158 -21q-84 0 -153 25.5t-119 72t-78 113t-28 150.5q0 78 29 146t79 117t120 77t152 28q78 0 141 -25.5t108 -67.5t69 -97.5t22 -115.5zM500 411q-10 32 -34 51q-24 20 -62 20q-36 0 -62.5 -17.5t-44 -43t-25.5 -57
t-8 -58.5q0 -39 23 -68.5t58 -29.5q42 0 70.5 18t40.5 36z" />
    <glyph glyph-name="A" unicode="A" horiz-adv-x="607" 
d="M597 42q8 -21 -2 -33t-26.5 -14.5t-33 6t-22.5 26.5l-49 139h-320l-50 -139q-8 -21 -24 -28.5t-32 -4.5t-26 15t-2 30l236 633q8 21 23.5 31.5t33.5 10.5t34.5 -10.5t24.5 -31.5zM303 622l-135 -386h270z" />
    <glyph glyph-name="B" unicode="B" horiz-adv-x="532" 
d="M354 380q52 -8 87.5 -39.5t50.5 -74t10.5 -90t-32.5 -87t-77 -65.5t-125 -24h-158q-32 0 -42.5 15t-10.5 36v601q0 54 51 54h144q64 0 105.5 -21.5t63 -54.5t26.5 -73.5t-6 -76.5t-33 -63.5t-54 -36.5zM142 632v-224h102q38 0 64 16.5t40.5 41t16 54t-10.5 54t-37 41.5
t-62 17h-113zM278 75q48 2 80 22t47 48.5t14 62.5t-18 62t-49 47t-80 19h-130v-261h136z" />
    <glyph glyph-name="C" unicode="C" horiz-adv-x="588" 
d="M548 645q15 -14 17 -32.5t-7 -31.5t-25.5 -16t-38.5 14q-21 16 -52.5 34.5t-90.5 18.5q-57 0 -100.5 -23t-73.5 -61t-45.5 -89t-15.5 -107t15 -106t44 -88t72 -61t99 -23q63 0 100.5 19t63.5 31q22 10 38 4.5t22 -20t1 -32.5t-25 -30q-30 -20 -81 -37t-119 -17
q-76 0 -135 27t-100 76t-62 115t-21 142t20.5 142.5t61 115t101.5 76.5t140 28q72 0 121.5 -24t75.5 -45z" />
    <glyph glyph-name="D" unicode="D" horiz-adv-x="625" 
d="M598 357q0 -80 -20 -145t-58 -112.5t-94 -73.5t-128 -26h-182q-30 0 -41 16t-11 38v598q0 54 52 54h170q80 0 138.5 -28t97.5 -76t57.5 -112t18.5 -133zM513 357q0 54 -12 104.5t-39.5 87.5t-73.5 60t-112 23h-130v-557h134q64 0 109 24t72.5 63t39.5 90t12 105z" />
    <glyph glyph-name="E" unicode="E" horiz-adv-x="447" 
d="M116 0q-26 0 -40 16.5t-14 37.5v598q0 21 14 37.5t40 16.5h264q21 0 31.5 -12.5t10.5 -27t-11 -27t-31 -12.5h-234v-235h214q22 0 33 -12t11 -26.5t-11 -26.5t-33 -12h-214v-237h234q21 0 31.5 -12t10.5 -27t-11 -27t-31 -12h-264z" />
    <glyph glyph-name="F" unicode="F" horiz-adv-x="423" 
d="M147 626v-233h199q21 0 31.5 -12.5t10.5 -27t-10 -27t-32 -12.5h-199v-274q0 -24 -13.5 -36t-29.5 -12t-29 12t-13 36v612q0 22 12 38t42 16h260q21 0 31.5 -12.5t10.5 -27.5t-10 -27.5t-32 -12.5h-229z" />
    <glyph glyph-name="G" unicode="G" horiz-adv-x="640" 
d="M620 308q0 -57 -14 -113.5t-47 -100.5t-88 -72t-139 -28q-76 0 -133 30t-95 80t-57 115t-19 133q0 76 20.5 142.5t61 115t101.5 76.5t140 28q72 0 121.5 -24t75.5 -45q15 -14 17 -32.5t-7 -31.5t-25.5 -16t-38.5 14q-21 16 -52.5 34.5t-90.5 18.5q-58 0 -102.5 -23
t-73.5 -61t-44 -89t-15 -107q0 -51 13 -101t41 -90.5t69 -66t97 -25.5q51 0 87.5 18.5t60.5 48t36 65t12 67.5v29h-136q-22 0 -33 12.5t-11 27.5t11.5 28t32.5 13h153q40 0 55.5 -18.5t15.5 -51.5z" />
    <glyph glyph-name="H" unicode="H" horiz-adv-x="621" 
d="M566 46q0 -27 -14 -39.5t-29.5 -12.5t-29 13t-13.5 39v276h-338v-276q0 -27 -13 -39.5t-29 -12.5t-29.5 13t-13.5 39v614q0 27 13.5 39.5t29.5 12.5t29 -12.5t13 -39.5v-261h338v261q0 27 13.5 39.5t29 12.5t29.5 -12.5t14 -39.5v-614z" />
    <glyph glyph-name="I" unicode="I" horiz-adv-x="202" 
d="M144 40q0 -24 -13.5 -36t-29 -12t-29.5 12t-14 36v626q0 24 14 35t29.5 11t29 -11t13.5 -35v-626z" />
    <glyph glyph-name="J" unicode="J" horiz-adv-x="367" 
d="M308 172q0 -86 -40 -132t-130 -46q-26 0 -62 9q-38 9 -60 30q-21 18 -24.5 36.5t4.5 30.5t25 14.5t35 -12.5q14 -10 32 -21t58 -11q39 0 58.5 26t19.5 68v502q0 24 12.5 35t28 11t29.5 -11t14 -35v-494z" />
    <glyph glyph-name="K" unicode="K" horiz-adv-x="529" 
d="M502 68q20 -21 18.5 -39.5t-13.5 -27.5t-31.5 -7t-35.5 20l-296 322v-296q0 -24 -13.5 -36t-29 -12t-29.5 12t-14 36v626q0 24 14 35t29.5 11t29 -11t13.5 -35v-258l270 276q24 24 43.5 26t30 -9t9 -30t-19.5 -37l-257 -260z" />
    <glyph glyph-name="L" unicode="L" horiz-adv-x="385" 
d="M112 0q-28 0 -41 16t-13 38v612q0 24 14 35t29.5 11t29 -11t13.5 -35v-586h207q21 0 31.5 -13t10.5 -27t-10.5 -27t-31.5 -13h-239z" />
    <glyph glyph-name="M" unicode="M" horiz-adv-x="733" 
d="M676 40q0 -24 -13 -35t-29 -11t-29 12t-13 36v480l2 57l-15 -55l-169 -496q-12 -34 -44 -34t-44 34l-168 496l-14 55l2 -57l-1 -480q0 -24 -12.5 -36t-28.5 -12t-29 11t-13 35v616q0 24 15 40t49 16q26 0 43 -11t29 -47l170 -501h5l171 501q12 36 28 47t42 11
q34 0 49.5 -16t15.5 -40z" />
    <glyph glyph-name="N" unicode="N" horiz-adv-x="651" 
d="M594 38q0 -16 -11 -28t-27 -15.5t-33 2.5t-31 27l-327 508l-30 65l6 -73v-484q0 -24 -12.5 -36t-28.5 -12t-29 12t-13 36v630q0 15 11.5 27.5t27 16.5t33.5 -2t32 -28l332 -518l26 -61l-8 67v496q0 24 12.5 35t28 11t28.5 -11t13 -35v-630z" />
    <glyph glyph-name="O" unicode="O" horiz-adv-x="681" 
d="M650 352q0 -69 -20.5 -133.5t-59.5 -114.5t-96.5 -80t-133.5 -30q-75 0 -133.5 30t-97.5 80t-59 115t-20 133q0 69 20 134.5t59 115.5t98 80t133 30q75 0 133 -30t97 -80t59.5 -115.5t20.5 -134.5zM570 352q0 51 -13.5 102.5t-42 91.5t-71.5 66t-103 26t-102.5 -26
t-69.5 -66t-39.5 -91t-12.5 -103q0 -51 12.5 -101.5t39.5 -91.5t69.5 -66t102.5 -25t103 25t71.5 66t42 91.5t13.5 101.5z" />
    <glyph glyph-name="P" unicode="P" horiz-adv-x="514" 
d="M142 270v-230q0 -24 -13 -36t-29 -12t-29.5 12t-13.5 36v612q0 24 12.5 39t41.5 15h163q76 0 127.5 -32t77 -81t25.5 -105t-25.5 -105t-76 -81t-124.5 -32h-136zM280 345q45 0 76.5 21t47.5 53.5t17 69t-15 69t-48 53.5t-82 21h-134v-287h138z" />
    <glyph glyph-name="Q" unicode="Q" horiz-adv-x="679" 
d="M650 352q0 -68 -19 -130t-57 -111l62 -47q18 -15 19.5 -32t-7.5 -28.5t-25.5 -13.5t-34.5 12l-69 52q-34 -28 -79.5 -44t-99.5 -16q-75 0 -133.5 30t-97.5 80t-59 115t-20 133q0 69 20 134.5t59 115.5t98 80t133 30q75 0 133 -30t97 -80t59.5 -115.5t20.5 -134.5z
M570 352q0 51 -13.5 102.5t-42 91.5t-71.5 66t-103 26t-102.5 -26t-69.5 -66t-39.5 -91t-12.5 -103q0 -51 12.5 -101.5t39.5 -91.5t69.5 -66t102.5 -25q68 0 116 34l-72 56q-20 15 -22 32t7 28.5t26 13.5t35 -12l83 -62q30 42 43.5 92.5t13.5 101.5z" />
    <glyph glyph-name="R" unicode="R" horiz-adv-x="514" 
d="M477 68q18 -21 16.5 -39.5t-14.5 -27.5t-31 -7t-34 20l-248 283h-24v-257q0 -24 -13 -36t-29 -12t-29.5 12t-13.5 36v612q0 24 12.5 39t41.5 15h163q75 0 125.5 -30t75.5 -75.5t25 -99t-25 -99t-75 -75.5q-48 -30 -122 -30zM280 372q66 0 101 40.5t35.5 89t-34 89.5
t-106.5 41h-134v-260h138z" />
    <glyph glyph-name="S" unicode="S" horiz-adv-x="477" 
d="M456 200q0 -42 -15 -80t-44 -65.5t-72 -44t-97 -16.5q-75 0 -117.5 19t-68.5 39q-16 14 -18 32t7 31t26.5 16t38.5 -14q21 -16 49.5 -31.5t80.5 -15.5q36 0 62.5 12t44 30t25.5 41t8 43q0 45 -25 71.5t-62 45.5t-81.5 34.5t-82 37t-62.5 56.5t-25 90q0 45 17 79t44.5 56
t65 34t81.5 12q70 0 108 -18q36 -20 62 -42q15 -14 17.5 -31.5t-6.5 -30t-26 -14.5t-39 14q-21 16 -44 31q-22 15 -72 15q-56 0 -86 -29t-30 -70q0 -38 25 -60.5t62 -39.5t81 -33.5t81 -42t62 -63.5t25 -98z" />
    <glyph glyph-name="T" unicode="T" horiz-adv-x="466" 
d="M276 626v-586q0 -24 -13.5 -36t-29 -12t-29.5 12t-14 36v586h-145q-22 0 -32.5 12.5t-10.5 27.5t10 27.5t33 12.5h377q22 0 32.5 -12.5t10.5 -27.5t-10.5 -27.5t-32.5 -12.5h-146z" />
    <glyph glyph-name="U" unicode="U" horiz-adv-x="663" 
d="M604 279q0 -88 -25 -143.5t-65 -87.5t-89 -43t-93 -11q-45 0 -94 11t-89.5 43t-66 87t-25.5 144v387q0 21 12 34q11 12 31 12q46 0 46 -46v-420q0 -86 50 -131.5t136 -45.5t136 45.5t50 131.5v420q0 46 43 46t43 -46v-387z" />
    <glyph glyph-name="V" unicode="V" horiz-adv-x="552" 
d="M548 676q0 -21 -6 -34l-215 -600q-8 -21 -18.5 -34.5t-32.5 -13.5t-33 13.5t-18 34.5l-215 600q-6 14 -6 34q0 14 11 25t27 11q27 0 36.5 -16t17.5 -40l180 -520q0 2 -1.5 -2t1 3t11.5 31t28 82t53 155t86 251q9 24 19 40q9 16 35 16q18 0 29 -11t11 -25z" />
    <glyph glyph-name="W" unicode="W" horiz-adv-x="826" 
d="M802 672q0 -16 -4 -44l-108 -577q-4 -22 -16 -39.5t-46 -17.5q-26 0 -43 10.5t-29 46.5q-40 135 -72 247q-14 46 -26 91.5t-22 81.5t-16 57.5t-6 23.5l-144 -501q-10 -36 -28 -47q-16 -10 -42 -10q-33 0 -46 17q-14 17 -18 40l-106 577q-3 15 -3.5 25.5t-0.5 18.5
q0 16 10 28q8 12 28 12q40 0 48 -40l94 -558l163 564q6 21 17.5 27.5t27.5 6.5t27 -6.5t17 -27.5l163 -560l95 554q6 40 46 40q20 0 30 -12t10 -28z" />
    <glyph glyph-name="X" unicode="X" horiz-adv-x="589" 
d="M580 30q0 -15 -12 -25.5t-28 -10.5q-10 0 -20 4t-24 24l-202 288l-202 -288q-12 -20 -22 -24t-22 -4q-15 0 -27 10.5t-12 25.5q0 12 4.5 20t8.5 16l222 314l-184 259q-15 20 -15 36t11.5 26.5t27.5 10.5q12 0 22.5 -5t22.5 -23l165 -242l166 242q12 18 23 23t23 5
q15 0 26 -10t11 -27q1 -16 -13 -36l-185 -259l222 -314q4 -8 8.5 -16t4.5 -20z" />
    <glyph glyph-name="Y" unicode="Y" horiz-adv-x="496" 
d="M495 676q1 -14 -13 -37l-191 -307v-292q1 -46 -43 -46t-44 46v292l-189 307q-8 12 -11 21q-2 8 -2 16q0 16 11 26t27 10q12 0 23 -6t21 -22l164 -267l163 267q10 16 20.5 22t22.5 6q16 0 28.5 -10t12.5 -26z" />
    <glyph glyph-name="Z" unicode="Z" horiz-adv-x="552" 
d="M528 38q0 -18 -12 -28t-32 -10h-409q-51 0 -51 39q0 12 3 21.5t13 26.5l364 545h-320q-20 0 -32 9t-12 28q0 18 12 27.5t32 9.5h386q21 0 32.5 -9.5t11.5 -21.5q0 -14 -4 -24.5t-16 -30.5l-365 -545h355q20 0 32 -8.5t12 -28.5z" />
    <glyph glyph-name="bracketleft" unicode="[" horiz-adv-x="238" 
d="M228 -44q0 -38 -38 -37h-68q-24 0 -35.5 13.5t-11.5 34.5v697q0 21 11.5 34.5t35.5 13.5h68q16 0 27 -11t11 -26q0 -16 -10 -27q-12 -12 -28 -12h-34v-642h34q38 0 38 -38z" />
    <glyph glyph-name="backslash" unicode="\" horiz-adv-x="403" 
d="M384 30q0 -16 -11 -26t-28 -10q-16 0 -25.5 9t-15.5 21l-271 608q-13 33 -13 43q0 16 11 26.5t27 10.5t25.5 -9t15.5 -21l271 -607q14 -35 14 -45z" />
    <glyph glyph-name="bracketright" unicode="]" horiz-adv-x="238" 
d="M164 -33q0 -21 -11 -34.5t-36 -13.5h-69q-15 0 -26.5 10.5t-11.5 26.5t11.5 27t26.5 11h34v642h-34q-15 0 -26.5 11t-11.5 28q0 15 11.5 26t26.5 11h69q26 0 36.5 -13t10.5 -35v-697z" />
    <glyph glyph-name="asciicircum" unicode="^" horiz-adv-x="595" 
d="M540 320q0 -34 -38 -34q-16 0 -26 12t-23 38l-156 290l-155 -290q-15 -26 -23.5 -38t-26.5 -12q-15 0 -25.5 9t-10.5 25q0 10 5 21t11 21l174 310q10 16 21 28t30 12q21 0 31 -12q12 -12 22 -28l172 -310q6 -9 12 -20.5t6 -21.5z" />
    <glyph glyph-name="underscore" unicode="_" horiz-adv-x="496" 
d="M496 -129q0 -20 -12 -29q-14 -10 -30 -10h-412q-18 0 -30 10t-12 29q0 18 12 27.5t30 9.5h412q16 0 29 -9.5t13 -27.5z" />
    <glyph glyph-name="grave" unicode="`" horiz-adv-x="202" 
d="M212 644q0 -12 -9 -27t-29 -15q-10 0 -34 8l-114 47q-21 9 -28 19t-7 18q0 12 9 27q8 15 28 15q8 0 15 -2t20 -6l114 -47q21 -9 28 -18.5t7 -18.5z" />
    <glyph glyph-name="a" unicode="a" horiz-adv-x="552" 
d="M492 36q0 -22 -13.5 -32t-25.5 -10q-14 0 -26.5 10t-12.5 32v40l-2 -2q-57 -80 -145 -80q-57 0 -99 22.5t-70.5 60t-43 87t-14.5 103.5q0 52 14.5 101t43 85.5t70.5 58.5t99 22q45 0 79 -18t66 -52l2 -4v30q0 24 13 34t26 10q12 0 25.5 -10t13.5 -34v-454zM416 266
q0 36 -9 71t-27 63t-46 45t-64 17q-40 0 -68 -18t-46 -46t-25.5 -62t-7.5 -68t7.5 -69t25.5 -65t46 -49t68 -19q36 0 64 19t46 48t27 64.5t9 68.5z" />
    <glyph glyph-name="b" unicode="b" horiz-adv-x="552" 
d="M518 267q0 -54 -14 -103.5t-42 -87t-70 -60t-98 -22.5q-42 0 -80 20t-66 60l-2 2v-40q0 -22 -13 -32t-27 -10q-12 0 -26 10t-14 32v680q0 24 14 33.5t26 9.5q14 0 27 -9.5t13 -33.5v-262q27 40 62 60t86 20q56 0 98 -22t70 -58.5t42 -85.5t14 -101zM436 268q0 33 -7 67.5
t-25 62.5t-46 46t-68 18q-36 0 -63 -17t-46 -45t-28 -63t-9 -71q0 -33 9 -68.5t28 -64.5t46 -48t63 -19q40 0 68 19t46 49t25 65t7 69z" />
    <glyph glyph-name="c" unicode="c" horiz-adv-x="441" 
d="M418 483q15 -15 15.5 -31t-8 -27t-23 -14t-27.5 9q-21 16 -47 29t-64 10q-39 -3 -66.5 -21t-45.5 -45t-27 -61t-9 -68q0 -36 9 -70.5t27 -61.5t45 -45q27 -17 64 -19q44 -3 69.5 9.5t41.5 22.5q15 10 28.5 7t21 -14.5t6.5 -26.5q0 -16 -16 -26q-16 -12 -49 -27.5
t-73 -18.5q-62 -3 -110 17.5t-80 57t-49 87t-17 108.5q0 50 13 96t40 83t67 61t94 28q60 6 102 -8.5t68 -40.5z" />
    <glyph glyph-name="d" unicode="d" horiz-adv-x="552" 
d="M486 36q0 -22 -13.5 -32t-25.5 -10q-14 0 -27.5 10t-13.5 32v39l-1 -1q-56 -80 -147 -80q-56 0 -98 22.5t-69.5 60t-42 87t-14.5 103.5q0 52 14.5 101t42 85.5t69.5 58.5t98 22q38 0 64 -9t42.5 -22t26 -26t15.5 -21v260q0 24 14 33.5t27 9.5q12 0 25.5 -9.5t13.5 -33.5
v-680zM410 266q0 36 -9 71t-28 63t-47 45t-64 17q-40 0 -68 -18t-45 -46t-25 -62t-8 -68t8 -69t25 -65t45 -49t68 -19q36 0 64 19t47 48t28 64.5t9 68.5z" />
    <glyph glyph-name="e" unicode="e" horiz-adv-x="516" 
d="M484 303v-28t-4 -22t-14 -14t-30 -5h-328q3 -72 43.5 -118.5t114.5 -46.5q33 0 56.5 6.5t41.5 16.5t31 20t22 18q15 14 29 13t22.5 -10t8.5 -25q1 -16 -13 -32q-26 -30 -77 -55t-119 -25q-63 0 -108.5 22t-74.5 60.5t-43.5 88t-14.5 103.5q0 122 61.5 193t173.5 71
q54 0 95.5 -19t69 -51t41.5 -74t16 -87zM402 294q2 27 -6 57t-26 54t-45 39.5t-63 15.5q-39 0 -68 -14t-48.5 -38t-29.5 -53t-10 -61h296z" />
    <glyph glyph-name="f" unicode="f" horiz-adv-x="256" 
d="M208 693q-21 0 -30.5 -11.5t-9.5 -27.5v-129h57q22 0 33.5 -11.5t11.5 -24.5t-11 -24.5t-34 -11.5h-57v-413q0 -24 -13 -36t-27 -12t-27 12t-13 36v413h-37q-21 0 -31.5 11.5t-10.5 24.5t10.5 24.5t31.5 11.5h37v126q0 51 33 82t81 31h26q22 0 35 -11.5t14 -24t-11 -24.5
q-10 -11 -36 -11h-22z" />
    <glyph glyph-name="g" unicode="g" horiz-adv-x="552" 
d="M490 38q0 -58 -17 -105t-48.5 -80t-75 -50t-97.5 -17q-34 0 -69.5 9t-65.5 22t-49 31q-18 18 -18 34q0 14 8 27t29 13q15 0 30 -10t35 -21t46 -21t62 -10q42 0 69 15t43 38.5t23 53t7 57.5v50l-2 -5q-21 -34 -54.5 -54.5t-78.5 -20.5q-56 0 -99.5 22.5t-72.5 60t-45 86.5
t-16 101t16 101t45 86.5t73 60t99 22.5q44 0 80.5 -21t52.5 -47l2 -2v26q0 24 15 34t33 10q12 0 26 -10t14 -34v-452zM411 264q0 33 -7.5 67.5t-24.5 62.5t-44 46t-68 18q-40 0 -68 -18t-45.5 -46t-24.5 -62.5t-7 -67.5q0 -34 7 -69t24.5 -62.5t45 -45.5t68.5 -18
q40 0 67.5 18t44.5 45.5t24.5 62.5t7.5 69z" />
    <glyph glyph-name="h" unicode="h" horiz-adv-x="534" 
d="M476 40q0 -46 -44 -46t-44 46v296q0 34 -11 57.5t-28 38t-39 20.5t-43 6t-43 -9t-39 -26.5t-28 -41.5q-11 -25 -11 -53v-288q0 -46 -46 -46q-20 0 -31.5 13t-11.5 33v680q0 21 12 34q11 12 31 12q46 0 46 -46v-254q28 39 68 54q40 14 78 14q30 0 62.5 -9t59.5 -31.5
t44.5 -60t17.5 -93.5v-300z" />
    <glyph glyph-name="i" unicode="i" horiz-adv-x="202" 
d="M154 658q0 -22 -16 -38t-38 -16q-21 0 -36.5 16t-15.5 38t16 38t36 16q22 0 38 -16t16 -38zM146 40q0 -46 -46 -46q-20 0 -31.5 13t-11.5 33v448q0 21 12 34q11 12 31 12q46 0 46 -46v-448z" />
    <glyph glyph-name="j" unicode="j" horiz-adv-x="202" 
d="M154 658q0 -22 -16 -38t-38 -16q-21 0 -36.5 16t-15.5 38t16 38t36 16q22 0 38 -16t16 -38zM142 -105q0 -51 -33.5 -82t-81.5 -31h-27q-22 0 -35 11.5t-14 24t11 24.5q10 11 36 11h23q20 0 29 12q10 13 10 29v594q0 24 13 36t28.5 12t28 -12t12.5 -36v-593z" />
    <glyph glyph-name="k" unicode="k" horiz-adv-x="459" 
d="M453 28q0 -15 -11.5 -24.5t-25.5 -9.5q-16 0 -26 5t-26 22l-218 229v-210q0 -46 -46 -46q-20 0 -31.5 13t-11.5 33v678q0 22 12 34q11 13 31 13q46 -1 46 -47v-372l188 161q15 12 27.5 19.5t24.5 7.5q16 0 26 -11t10 -28q0 -10 -5 -18.5t-18 -18.5l-198 -158l231 -226
q12 -12 16.5 -23t4.5 -23z" />
    <glyph glyph-name="l" unicode="l" horiz-adv-x="202" 
d="M146 40q0 -46 -46 -46q-20 0 -31.5 13t-11.5 33v678q0 22 12 34q11 13 31 13q46 -1 46 -47v-678z" />
    <glyph glyph-name="m" unicode="m" horiz-adv-x="826" 
d="M770 40q0 -46 -44 -46t-44 46v304q0 57 -26 85.5t-84 28.5q-50 0 -82 -38q-32 -40 -32 -92v-288q0 -46 -44 -46t-44 46v296q0 57 -25 89.5t-84 32.5q-22 0 -43.5 -11t-37 -28t-25 -40t-9.5 -51v-288q0 -46 -46 -46q-20 0 -31.5 13t-11.5 33v448q0 21 12 34q11 12 31 12
q46 0 46 -46v-23q26 40 63 54.5t73 14.5q46 0 84 -19t58 -71q20 34 63 62t99 28q33 0 66.5 -9t59.5 -31.5t42 -60t16 -93.5v-300z" />
    <glyph glyph-name="n" unicode="n" horiz-adv-x="534" 
d="M476 40q0 -46 -44 -46t-44 46v296q0 34 -11 57.5t-28 38t-39 20.5t-43 6t-43 -9t-39 -26.5t-28 -41.5q-11 -25 -11 -53v-288q0 -46 -46 -46q-20 0 -31.5 13t-11.5 33v448q0 21 12 34q11 12 31 12q46 0 46 -46v-22q26 39 67 53.5t79 14.5q30 0 62.5 -9t59.5 -31.5
t44.5 -60t17.5 -93.5v-300z" />
    <glyph glyph-name="o" unicode="o" horiz-adv-x="534" 
d="M500 264q0 -52 -16 -101t-45 -86.5t-73 -60t-99 -22.5q-56 0 -99.5 22.5t-72.5 60t-45 86.5t-16 101t16 101t45 86.5t73 60t99 22.5q56 0 99.5 -22.5t72.5 -60t45 -86.5t16 -101zM411 264q0 33 -7.5 67.5t-24.5 62.5t-44 46t-68 18q-40 0 -68 -18t-45.5 -46t-24.5 -62.5
t-7 -67.5q0 -34 7 -69t24.5 -62.5t45 -45.5t68.5 -18q40 0 67.5 18t44.5 45.5t24.5 62.5t7.5 69z" />
    <glyph glyph-name="p" unicode="p" horiz-adv-x="552" 
d="M516 264q0 -52 -15 -101t-43.5 -86.5t-70.5 -60t-96 -22.5q-42 0 -80.5 19.5t-62.5 55.5v-234q0 -21 -11 -35t-32 -14q-43 0 -43 46v656q0 46 43 46t43 -46v-32q21 45 60.5 61.5t82.5 16.5q54 0 96 -22.5t70.5 -60t43.5 -86.5t15 -101zM429 264q0 33 -7.5 67.5
t-24.5 62.5t-44 46t-68 18q-40 0 -68 -18t-45.5 -46t-24.5 -62.5t-7 -67.5q0 -34 7 -69t24.5 -62.5t45 -45.5t68.5 -18q40 0 67.5 18t44.5 45.5t24.5 62.5t7.5 69z" />
    <glyph glyph-name="q" unicode="q" horiz-adv-x="552" 
d="M490 -168q0 -21 -12 -33.5t-31 -12.5q-45 0 -45 46v237q-22 -36 -60 -55q-38 -20 -82 -20q-54 0 -95.5 22.5t-71 60t-44.5 86.5t-15 101t15 101t44.5 86.5t71 60t95.5 22.5q44 0 84 -17t58 -61v32q0 46 45 46q20 0 31.5 -13t11.5 -33v-656zM411 264q0 33 -7.5 67.5
t-24.5 62.5t-44 46t-68 18q-40 0 -68 -18t-45.5 -46t-24.5 -62.5t-7 -67.5q0 -34 7 -69t24.5 -62.5t45 -45.5t68.5 -18q40 0 67.5 18t44.5 45.5t24.5 62.5t7.5 69z" />
    <glyph glyph-name="r" unicode="r" horiz-adv-x="312" 
d="M315 489q1 -38 -55 -48q-20 -3 -40 -15t-37 -32t-27 -46.5t-10 -56.5v-251q0 -46 -46 -46q-20 0 -31.5 13t-11.5 33v448q0 21 12 34q11 12 31 12q46 0 46 -46v-42q15 34 47.5 61t72.5 27q24 0 36.5 -13.5t12.5 -31.5z" />
    <glyph glyph-name="s" unicode="s" horiz-adv-x="441" 
d="M414 148q0 -40 -16 -69t-43 -48t-61 -28t-72 -9q-42 0 -78 9t-63 24t-42 33t-15 34q0 18 13 29t26 11q16 0 29 -10t28.5 -23t39.5 -22.5t65 -9.5q48 0 75 22.5t27 49.5q0 28 -21.5 45.5t-53.5 30.5t-70 25t-69.5 30t-53 45t-21.5 69q0 76 54 113q56 37 132 37q30 0 61 -8
t57 -20t42 -30t16 -37q0 -15 -9 -26t-29 -11q-14 0 -26 9t-27 18.5t-35 18.5t-50 9q-38 0 -68 -16.5t-30 -50.5q0 -26 21 -42t53 -29t70 -26t70 -32t53 -46t21 -69z" />
    <glyph glyph-name="t" unicode="t" horiz-adv-x="258" 
d="M252 490q0 -38 -44 -37h-36v-413q0 -46 -43 -46t-43 46v413h-36q-44 -1 -44 37t44 38h36v114q0 46 43 46t43 -46v-114h36q44 0 44 -38z" />
    <glyph glyph-name="u" unicode="u" horiz-adv-x="534" 
d="M476 40q0 -46 -44 -46t-44 46v16l-1 1q-30 -38 -68.5 -50.5t-76.5 -12.5q-32 0 -64 9t-59 31.5t-44.5 59t-17.5 94.5v300q0 21 12 34q11 12 31 12q46 0 46 -46v-296q0 -34 11 -58t28 -38.5t39 -20.5t43 -6t43 9.5t39 26.5t28 41t11 54v288q0 46 44 46t44 -46v-448z" />
    <glyph glyph-name="v" unicode="v" horiz-adv-x="423" 
d="M417 494q0 -14 -9 -36l-152 -426q-8 -20 -16 -29t-28 -9q-21 0 -30.5 9t-16.5 29l-151 426q-10 22 -10 36q0 20 12 30t29 10q21 0 31 -9t14 -25l122 -368q8 26 16 53q10 27 20 57q16 51 37 116q21 66 47 142q6 16 15.5 25t30.5 9q16 0 27.5 -10t11.5 -30z" />
    <glyph glyph-name="w" unicode="w" horiz-adv-x="736" 
d="M734 495q0 -19 -6 -35l-146 -421q-9 -26 -20.5 -35.5t-30.5 -9.5q-16 0 -29 10q-12 10 -20 35q-33 105 -54.5 172.5t-34 107t-18.5 57t-7.5 23t-0.5 3.5q1 -4 1 -2l-114 -361q-8 -26 -20 -35.5t-30 -9.5t-30 10t-21 35l-144 421q-7 26 -7 35q0 12 10 25q10 14 32 14
q15 0 27.5 -8t20.5 -37l114 -365q0 2 -1 0.5t0.5 3l7 21t17.5 55.5t33 104.5t53 167.5q9 28 18.5 43t33.5 15t33.5 -15t18.5 -43q33 -102 54 -167.5t33.5 -104.5t17.5 -55.5t6 -21.5t0.5 -3t-0.5 0l113 365q9 28 21.5 36.5t27.5 8.5q21 0 31 -13.5t10 -25.5z" />
    <glyph glyph-name="x" unicode="x" horiz-adv-x="460" 
d="M454 33q0 -16 -11 -27.5t-29 -11.5q-22 0 -38 20l-146 202l-146 -202q-15 -20 -39 -20q-16 0 -27.5 11t-11.5 28q0 8 3 18.5t15 23.5l156 204l-138 180q-14 19 -14 35t10 28t26 12q15 0 22.5 -6t15.5 -15l128 -169l128 169q6 9 14.5 15t23.5 6q16 0 26 -12t10 -28
q0 -15 -15 -35l-137 -180l156 -204q18 -26 18 -42z" />
    <glyph glyph-name="y" unicode="y" horiz-adv-x="441" 
d="M423 496q0 -8 -3 -16q-2 -10 -9 -32l-219 -630q-10 -32 -44 -32q-15 0 -26.5 10t-11.5 27q0 8 2 16.5t10 31.5l55 149l-149 428q-8 22 -10 32q-2 8 -2 16q0 16 12 27t29 11q16 0 27.5 -10t15.5 -23q26 -76 48 -143q22 -66 38 -116q10 -30 19 -56.5t17 -50.5l120 366
q4 14 15 23.5t27 9.5q15 0 27 -11t12 -27z" />
    <glyph glyph-name="z" unicode="z" horiz-adv-x="441" 
d="M420 38q0 -38 -44 -38h-313q-26 0 -34.5 10t-8.5 20q0 12 4 22t14 23l252 378h-216q-44 -1 -44 37t44 38h294q26 0 34 -10t8 -22q0 -20 -18 -43l-256 -375l4 -3h236q44 1 44 -37z" />
    <glyph glyph-name="braceleft" unicode="{" horiz-adv-x="238" 
d="M254 -51q0 -30 -40 -30h-37q-52 0 -77 27.5t-25 79.5v121q0 52 -6 86q-7 35 -41 45q-22 8 -32.5 14t-10.5 23q0 16 10.5 23.5t32.5 13.5q34 9 40.5 44.5t6.5 87.5v120q0 108 102 108h37q40 0 40 -30t-40 -30h-13q-45 0 -45 -48v-156q0 -40 -9 -65t-22.5 -39t-29 -20
t-29.5 -8v-1q14 -2 29.5 -7.5t29 -20t22.5 -39t9 -65.5v-157q0 -48 45 -48h13q40 0 40 -29z" />
    <glyph glyph-name="bar" unicode="|" horiz-adv-x="220" 
d="M152 36q0 -18 -11 -30t-31 -12q-21 0 -31 12t-10 30v687q1 42 41 42q42 0 42 -42v-687z" />
    <glyph glyph-name="braceright" unicode="}" horiz-adv-x="238" 
d="M254 315q0 -16 -11 -23.5t-33 -13.5q-34 -9 -40 -43.5t-6 -87.5v-121q0 -51 -25 -79t-76 -28h-37q-40 0 -41 30q1 29 41 29h13q20 0 31 12q12 14 12 36v157q0 40 9 65t23 39.5t30 20.5q14 6 28 7v1q-14 2 -29 8t-29 20t-23 39t-9 65v156q0 22 -12 35t-31 13h-13
q-40 0 -41 30q1 30 41 30h37q101 0 101 -108v-120q0 -52 6 -86t40 -46q22 -8 33 -14.5t11 -22.5z" />
    <glyph glyph-name="asciitilde" unicode="~" horiz-adv-x="595" 
d="M531 294q0 -21 -11.5 -42t-30 -36.5t-42 -25.5t-45.5 -10q-34 0 -63 10.5t-54 22.5q-26 12 -48.5 23.5t-41.5 11.5q-16 0 -26 -11t-19.5 -23.5t-21.5 -23t-30 -10.5q-15 0 -25 9t-10 19q0 21 11.5 42.5t30 37t42 25t45.5 9.5q34 0 63 -10t54 -24q26 -12 49 -22.5
t41 -10.5q16 0 26.5 10.5t20.5 23.5t21 23t29 10q15 0 25 -9t10 -19z" />
    <glyph glyph-name="uni00A0" unicode="&#xa0;" horiz-adv-x="375" 
 />
    <glyph glyph-name="cent" unicode="&#xa2;" horiz-adv-x="474" 
d="M378 466q-8 -9 -20 -11.5t-24 7.5q-22 22 -48 26v-269q14 3 24.5 8t22.5 13q10 8 22.5 5.5t20.5 -11.5t7 -21.5t-14 -23.5q-12 -9 -33.5 -19.5t-49.5 -13.5v-51q0 -14 -9 -20.5t-18.5 -6.5t-18.5 8q-9 6 -9 20v52q-70 12 -106.5 67t-36.5 129q0 33 9 66t26.5 59.5
t44.5 45t63 24.5v53q0 14 9 21t18.5 7t18.5 -7t9 -20v-51q56 -8 88 -38q12 -12 12 -25.5t-8 -22.5zM231 483q-39 -14 -57 -49.5t-18 -79.5t18 -82t57 -50v261z" />
    <glyph glyph-name="sterling" unicode="&#xa3;" horiz-adv-x="591" 
d="M564 34q0 -12 -8 -23t-31 -11h-461q-21 0 -30.5 10t-9.5 22t10 22t30 12q21 2 34 11.5t19.5 23t8.5 30.5l4 34v47v115h-64q-22 0 -31 10.5t-9 22.5q0 14 8 25t30 11h66v116q0 68 14.5 108t41 62t63.5 28.5t85 6.5q64 0 108 -8.5t70 -30t37 -60t11 -98.5q0 -22 -12 -32.5
t-28 -10.5q-15 -2 -26.5 8.5t-11.5 34.5q0 40 -5.5 64.5t-20.5 37t-39.5 17.5t-65.5 5q-46 0 -73.5 -5t-41.5 -18t-18 -39q-5 -26 -5 -70v-116h197q22 0 30 -11t8 -25q0 -12 -8 -22.5t-30 -10.5h-197v-113q0 -22 0.5 -41.5t-3 -37t-13 -33t-31.5 -30.5h359q22 0 30.5 -12
t8.5 -26z" />
    <glyph glyph-name="yen" unicode="&#xa5;" horiz-adv-x="571" 
d="M530 676q0 -14 -14 -37l-111 -180h73q21 0 31.5 -12t10.5 -26.5t-10 -26.5t-32 -12h-121l-31 -50v-59h152q21 0 31.5 -12t10.5 -26.5t-10 -26.5t-32 -12h-152v-156q0 -46 -44 -46t-44 46v156h-150q-22 0 -32.5 12t-10.5 26.5t10.5 26.5t32.5 12h150v59l-31 50h-119
q-22 0 -32.5 12t-10.5 26.5t10.5 26.5t32.5 12h72l-110 180q-8 12 -11 21q-3 8 -3 16q0 16 11 26t28 10q12 0 22.5 -6t20.5 -22l164 -267l164 267q10 16 20.5 22t22.5 6q16 0 28.5 -10t12.5 -26z" />
    <glyph glyph-name="copyright" unicode="&#xa9;" horiz-adv-x="942" 
d="M622 592q12 -14 12 -28t-7 -23.5t-20 -12t-25 8.5q-15 15 -36.5 25t-51.5 6q-63 -6 -92.5 -53t-29.5 -105q0 -60 29 -108t88 -53q43 -3 77 18q8 3 14 7q12 8 25 5t20.5 -11t7 -21t-16.5 -25q-12 -10 -40 -22t-63 -16q-51 -3 -91 13.5t-67 47.5t-41 74t-14 91q0 40 11 79
t33 69t55 50t78 25q51 4 87.5 -8t57.5 -33zM880 414q0 -84 -32 -158t-87.5 -130t-130 -88t-158.5 -32t-158 32t-129.5 88t-88 130t-32.5 158t32.5 158t88 130t129.5 88t158 32t158.5 -32t130 -88t87.5 -130t32 -158zM806 414q0 69 -26.5 130.5t-72 108t-105.5 73t-128 26.5
t-128 -26.5t-105.5 -73t-72 -108t-26.5 -130.5q0 -70 26.5 -131t72 -107.5t105.5 -73t128 -26.5t128 26.5t105.5 73t72 107.5t26.5 131z" />
    <glyph glyph-name="guillemotleft" unicode="&#xab;" horiz-adv-x="403" 
d="M366 122q8 -12 6 -26t-14 -21q-30 -19 -52 13l-106 158q-10 20 0 39l106 159q10 14 24 18q14 3 28 -6q12 -8 14 -20.5t-6 -24.5l-96 -145zM198 122q8 -12 6 -26t-14 -21q-15 -8 -29 -4.5t-23 17.5l-106 158q-14 21 0 39l106 159q9 14 23.5 17.5t28.5 -5.5q12 -8 14 -20.5
t-6 -24.5l-98 -145z" />
    <glyph glyph-name="registered" unicode="&#xae;" horiz-adv-x="939" 
d="M880 414q0 -84 -32 -158t-87.5 -130t-130 -88t-158.5 -32t-158 32t-129.5 88t-88 130t-32.5 158t32.5 158t88 130t129.5 88t158 32t158.5 -32t130 -88t87.5 -130t32 -158zM806 414q0 69 -26.5 130.5t-72 108t-105.5 73t-128 26.5t-128 -26.5t-105.5 -73t-72 -108
t-26.5 -130.5q0 -70 26.5 -131t72 -107.5t105.5 -73t128 -26.5t128 26.5t105.5 73t72 107.5t26.5 131zM666 506q0 -32 -11 -56t-28 -40t-38 -24t-40 -8l93 -140q30 -48 -12 -62q-20 -8 -34 0t-22 22l-108 176h-70v-161q0 -16 -8 -27.5t-30 -11.5q-18 0 -27.5 11t-9.5 28v393
q0 12 9.5 22t23.5 10l141 1q76 2 123.5 -29.5t47.5 -103.5zM591 508q0 38 -31.5 51t-67.5 13l-96 -2v-129h93q18 0 36 1.5t33 8.5t24 20t9 39v-2z" />
    <glyph glyph-name="guillemotright" unicode="&#xbb;" horiz-adv-x="403" 
d="M366 285q14 -18 0 -39l-106 -158q-22 -32 -53 -13q-12 8 -13.5 21.5t6.5 25.5l96 144l-96 145q-8 12 -6.5 24.5t13.5 20.5q14 9 28 6q15 -4 25 -18zM198 285q10 -20 0 -39l-106 -158q-22 -32 -53 -13q-12 8 -13.5 21.5t6.5 25.5l96 144l-96 145q-8 12 -6.5 24.5
t13.5 20.5q14 9 28 6q15 -4 25 -18z" />
    <glyph glyph-name="onequarter" unicode="&#xbc;" horiz-adv-x="789" 
d="M718 116q0 -12 -9 -21t-22 -9h-13v-54q0 -18 -11 -28t-23.5 -10t-23 10t-10.5 28v54h-150q-24 0 -29 20t3 34l162 235q8 10 21.5 17t27 7t23.5 -8.5t10 -28.5v-215h13q14 0 22.5 -8.5t8.5 -22.5zM226 28q-15 -22 -32 -29t-29.5 -1.5t-16.5 20.5t10 36l410 621
q15 22 33.5 29.5t31.5 4t17 -18t-10 -34.5zM222 340q0 -18 -10.5 -27t-23 -9t-23.5 9t-11 27v300h-40q-20 0 -29.5 10t-9.5 23t9.5 22.5t29.5 9.5h75q15 0 24 -9t9 -21v-335zM606 279l-93 -132h93v132z" />
    <glyph glyph-name="onehalf" unicode="&#xbd;" horiz-adv-x="789" 
d="M718 294q0 -22 -10 -48q-10 -27 -32 -54l-110 -132h130q15 0 22.5 -9t7.5 -20t-7.5 -20t-22.5 -9h-192q-26 0 -32.5 19t8.5 36l144 171q27 32 27 64q0 21 -16.5 34.5t-37.5 13.5t-37 -10t-20 -26q0 -16 -10.5 -24t-23 -8t-23.5 8t-11 26q4 39 36 67.5t89 28.5t89 -32
t32 -76zM196 28q-15 -22 -32.5 -29t-29.5 -2t-16 20t10 35l410 623q15 22 33.5 29.5t31.5 4t17 -18t-10 -34.5zM222 340q0 -18 -10.5 -27.5t-23 -9.5t-23.5 9.5t-11 27.5v300h-40q-20 0 -29.5 10t-9.5 23t9.5 22.5t29.5 9.5h75q15 0 24 -9q9 -8 9 -22v-334z" />
    <glyph glyph-name="threequarters" unicode="&#xbe;" horiz-adv-x="789" 
d="M249 28q-15 -22 -32 -29t-30 -1.5t-17 20.5t10 36l411 621q15 22 33 29.5t31.5 4t17 -18t-9.5 -34.5zM718 117q0 -14 -9 -22.5t-22 -8.5h-13v-54q0 -18 -11 -28t-23.5 -10t-23 10t-10.5 28v54h-150q-24 0 -29 20t3 35l162 234q8 10 21.5 17.5t27 7.5t23.5 -9t10 -29v-215
h13q14 0 22.5 -9t8.5 -21zM326 428q0 -58 -38 -89t-94 -31q-44 0 -72.5 17t-42 39.5t-11.5 43t22 26.5q18 6 27 -4t17 -23.5t21 -26t39 -12.5q28 0 46 16t18 40q0 32 -19 47t-44 17q-18 2 -26.5 10.5t-8.5 19t8 20.5t21 12q27 6 41 22t14 34q0 21 -14 33t-36 12
q-26 0 -36.5 -11.5t-10.5 -23.5q0 -18 -10.5 -26t-23.5 -8t-23 8t-10 26q0 36 30 66q32 30 84 30q50 0 85 -28t35 -74q0 -58 -42 -86q26 -14 40 -40t14 -56zM606 279l-93 -132h93v132z" />
    <glyph glyph-name="multiply" unicode="&#xd7;" horiz-adv-x="526" 
d="M452 458q26 -30 -4 -60l-127 -128l126 -128q33 -30 5 -60q-30 -30 -65 4l-125 126l-126 -126q-32 -30 -60 -4q-30 30 4 65l124 123l-124 124q-34 34 -4 64q30 26 60 -4l126 -126l125 125q37 37 65 5z" />
    <glyph glyph-name="divide" unicode="&#xf7;" horiz-adv-x="525" 
d="M309 423q0 -21 -13.5 -34.5t-34.5 -13.5t-34.5 13.5t-13.5 34.5t13.5 34.5t34.5 13.5t34.5 -13.5t13.5 -34.5zM471 270q0 -15 -12 -25.5t-33 -10.5h-322q-21 0 -33.5 10.5t-12.5 25.5q0 38 48 38h317q48 0 48 -38zM309 123q0 -21 -13.5 -34.5t-34.5 -13.5t-34.5 13.5
t-13.5 34.5t13.5 34.5t34.5 13.5t34.5 -13.5t13.5 -34.5z" />
    <glyph glyph-name="kokaithai" unicode="&#xe01;" horiz-adv-x="516" 
d="M466 40q0 -46 -42 -46q-44 0 -43 46v298q0 63 -34.5 95t-88.5 32t-88.5 -32.5t-34.5 -94.5v-298q0 -46 -42 -46q-43 0 -43 46v296q0 58 18.5 97t49 62t67.5 32t73 9q38 0 75 -10t66.5 -32.5t48 -61t18.5 -96.5v-296z" />
    <glyph glyph-name="khokhaithai" unicode="&#xe02;" horiz-adv-x="474" 
d="M424 150q0 -76 -49 -116t-126 -40q-72 0 -123 40q-51 42 -51 124q0 42 18 74t39 60.5t39 56t18 62.5q0 4 -1.5 11.5t-6.5 16t-15 14.5t-25 6q-14 0 -25.5 -7.5t-16.5 -23.5q-3 -10 -9 -23t-30 -17q-26 -3 -36 13q-10 17 -8 33q2 14 9.5 31.5t22 32.5t37.5 25.5t56 10.5
q64 0 96.5 -37t32.5 -85q0 -50 -17 -82t-37.5 -59t-37.5 -55q-18 -26 -18 -64q0 -22 9 -39t23 -27t29 -15t28 -5q33 0 61.5 19t28.5 67l-1 338q0 22 12 34t31 12q43 0 43 -46v-340z" />
    <glyph glyph-name="khokhuatthai" unicode="&#xe03;" horiz-adv-x="474" 
d="M424 150q0 -76 -49 -116t-126 -40q-72 0 -123 40q-51 42 -51 124q0 38 16.5 68t35.5 56.5t35 48t16 39.5q-20 -8 -37 -7q-33 0 -57 11.5t-40.5 29.5t-25 39.5t-8.5 42.5q0 22 12 36t32 14q21 0 30.5 -15t9.5 -37q0 -21 14.5 -32.5t32.5 -11.5q15 0 24 6t14 13t7 15t2 12
q0 21 11 35.5t32 14.5q15 0 24 -9t13.5 -21t5.5 -26v-26v-16t-2 -18q-6 -60 -24 -95t-38 -61t-35 -50t-15 -62q0 -22 9 -39t23 -27t29 -15t28 -5q33 0 61.5 19t28.5 67l-1 338q0 22 12 34t31 12q43 0 43 -46v-340z" />
    <glyph glyph-name="khokhwaithai" unicode="&#xe04;" horiz-adv-x="516" 
d="M466 40q0 -46 -43 -46q-42 0 -42 46v298q0 63 -34.5 95t-90.5 32q-52 0 -86.5 -32.5t-34.5 -94.5v-28l107 2q50 0 48 -42q-4 -40 -46 -40l-109 1v-191q1 -46 -43 -46q-42 0 -42 46v296q0 58 18.5 97t48 62t66.5 32t73 9q38 0 75.5 -10t67.5 -32.5t48.5 -61t18.5 -96.5
v-296z" />
    <glyph glyph-name="khokhonthai" unicode="&#xe05;" horiz-adv-x="576" 
d="M516 39q0 -45 -44 -45q-42 0 -42 46v390l-50 -50q-16 -16 -40.5 -14t-39.5 14l-68 61q-4 4 -10 5t-10 1q-14 0 -30 -11.5t-30 -33.5t-24 -54.5t-10 -74.5q0 -60 21 -116.5t71 -76.5l2 151q0 46 27 63.5t57 19.5h30q52 0 48 -44q-4 -39 -46 -39h-32v-193q0 -45 -42 -44
q-56 2 -98 24t-70 60t-42 87t-14 105q0 68 19.5 118t49 83t65.5 49.5t67 16.5q16 0 20.5 -3.5t12.5 -9.5l60 -56q15 -14 30 0l54 48q14 12 27 16.5t25 4.5q24 0 40 -15q16 -16 16 -38v-445z" />
    <glyph glyph-name="khorakhangthai" unicode="&#xe06;" horiz-adv-x="520" 
d="M471 178q0 -52 -18 -88t-45.5 -57t-60.5 -30t-63 -9q-39 0 -76 13q-38 13 -60 47l-2 6v-20q0 -46 -44 -46q-42 0 -42 46v118q0 51 18 83.5t40 55.5t40 39t20 34q-20 -8 -37 -7q-33 0 -57 11.5t-40.5 29.5t-25 39.5t-8.5 42.5q0 22 12 36t32 14q21 0 30.5 -15t9.5 -37
q0 -21 14.5 -32.5t32.5 -11.5q15 0 25 6t15 13t6.5 15t1.5 12q0 50 42 50q15 0 24 -9t13.5 -21t5.5 -26v-26v-16t-2 -18q-6 -62 -26.5 -93t-43 -52t-39.5 -41t-17 -56q0 -18 9.5 -38t27.5 -38t42.5 -29t54.5 -11q40 0 73 29t33 86v313q0 46 42 46q44 0 43 -46v-312z" />
    <glyph glyph-name="ngonguthai" unicode="&#xe07;" horiz-adv-x="361" 
d="M312 194q0 -57 -17 -95.5t-43.5 -61.5t-59 -33t-62.5 -10q-39 0 -78.5 15t-67.5 53q-12 18 -12 34t16 27q28 21 54 -17q12 -18 38 -28t48 -10q45 0 71.5 30t26.5 92v256h-36q-44 0 -44 40q0 44 48 44h74q44 0 44 -47v-289z" />
    <glyph glyph-name="chochanthai" unicode="&#xe08;" horiz-adv-x="448" 
d="M399 40q1 -46 -43 -46q-42 0 -42 46v190h-137q-44 0 -45 40q-2 42 48 42h134v32q0 122 -132 121q-42 0 -67 -15.5t-40 -39.5q-21 -36 -55 -26q-20 8 -26 26t4 34q24 39 66 67.5t122 28.5q99 0 156 -46q58 -48 57 -142v-312z" />
    <glyph glyph-name="chochingthai" unicode="&#xe09;" horiz-adv-x="546" 
d="M498 40q0 -46 -44 -46q-42 0 -42 46v20l-2 -6q-22 -34 -59 -47t-77 -13q-30 0 -62 7.5t-59 28t-43 54.5q-18 34 -16 87l2 60h-28q-44 1 -46 41q-2 20 13 31t35 11h68q20 0 32 -13t12 -34l-2 -99q-2 -57 27 -82.5t71 -25.5q24 0 48 9t43 25.5t31 42t12 59.5v110
q0 82 -36 119q-38 37 -120 37q-27 0 -50 -8t-41 -21t-29.5 -26t-15.5 -21q-16 -40 -56 -28q-20 8 -24 26t4 34q21 46 76.5 82.5t140.5 36.5q110 0 173.5 -50.5t63.5 -171.5v-275z" />
    <glyph glyph-name="chochangthai" unicode="&#xe0a;" horiz-adv-x="472" 
d="M424 480q0 -16 -9 -39t-33 -35q-4 -3 -4 -9.5t4 -8.5q24 -12 33 -35t9 -41v-162q0 -76 -49 -116t-126 -40q-72 0 -123 40q-51 42 -51 124q0 42 18 74t39 60.5t39 56t18 62.5q0 4 -1.5 11.5t-6.5 16t-15 14.5t-25 6q-14 0 -25.5 -7.5t-16.5 -23.5q-3 -10 -9 -23t-30 -17
q-26 -3 -36 13q-10 17 -8 33q2 14 9.5 31.5t22 32.5t37.5 25.5t56 10.5q64 0 96.5 -37t32.5 -85q0 -50 -17 -82t-37.5 -59t-37.5 -55q-18 -26 -18 -64q0 -22 9 -39t23 -27t29 -15t28 -5q33 0 61.5 19t28.5 67v156q0 15 -4.5 36.5t-30.5 30.5q-12 4 -12 17.5t12 18.5
q22 8 28.5 29.5t6.5 39.5l-1 63q0 22 12 33.5t31 11.5q43 0 43 -45v-63z" />
    <glyph glyph-name="sosothai" unicode="&#xe0b;" horiz-adv-x="472" 
d="M424 480q0 -16 -9 -39t-33 -35q-4 -3 -4 -9.5t4 -8.5q24 -12 33 -35t9 -41v-162q0 -76 -49 -116t-126 -40q-72 0 -123 40q-51 42 -51 124q0 38 16.5 68t35.5 56.5t35 48t16 39.5q-20 -8 -37 -7q-33 0 -57 11.5t-40.5 29.5t-25 39.5t-8.5 42.5q0 22 12 36t32 14
q21 0 30.5 -15t9.5 -37q0 -21 14.5 -32.5t32.5 -11.5q15 0 25 6t15 13t6.5 15t1.5 12q0 22 10.5 36t31.5 14q15 0 24 -9t13.5 -21t5.5 -26v-26v-16t-2 -18q-6 -60 -24 -95t-38 -61t-35 -50t-15 -62q0 -22 9 -39t23 -27t29 -15t28 -5q33 0 61.5 19t28.5 67v156
q0 15 -4.5 36.5t-30.5 30.5q-12 4 -12 17.5t12 18.5q22 8 28.5 29.5t6.5 39.5l-1 63q0 22 12 33.5t31 11.5q43 0 43 -45v-63z" />
    <glyph glyph-name="chochoethai" unicode="&#xe0c;" horiz-adv-x="819" 
d="M762 186q0 -54 -16 -91t-40.5 -59t-55 -32t-60.5 -10q-39 0 -72 16q-34 18 -56 52l-3 6v-28q1 -46 -43 -46q-42 0 -42 46v298q0 63 -31 92.5t-85 29.5l-123 -1v-373h31q22 0 36 -11t14 -30q0 -45 -50 -45h-55q-34 0 -47.5 16t-13.5 46v421q0 47 43 47l163 2q38 0 75 -9
t65 -31t45.5 -60t17.5 -96v-132q0 -27 10.5 -52.5t28.5 -44.5t40 -30t48 -11q39 0 64.5 31t25.5 87v306q0 46 42 46q44 0 44 -46v-304z" />
    <glyph glyph-name="yoyingthai" unicode="&#xe0d;" horiz-adv-x="819" 
d="M762 188q0 -102 -55 -148t-139 -46q-39 0 -74 10t-62 32t-42.5 59t-15.5 91v152q0 63 -31 92.5t-85 29.5l-123 -1v-373h33q48 0 48 -41q0 -45 -48 -45h-57q-61 0 -61 62v421q0 47 43 47l163 2q38 0 75 -9t65 -31t45.5 -60t17.5 -96v-152q0 -63 32.5 -90.5t75.5 -27.5
q45 0 77 34t32 89v301q0 46 42 46q44 0 44 -46v-302zM750 -60q14 -12 13 -31t-16 -35q-33 -36 -73.5 -55t-103.5 -19t-103.5 19t-73.5 55q-16 16 -16.5 35t13.5 31q30 26 62 -8q24 -26 48 -40.5t70 -14.5q45 0 70 15q24 14 47 40q35 34 63 8z" />
    <glyph glyph-name="dochadathai" unicode="&#xe0e;" horiz-adv-x="531" 
d="M482 -160q0 -26 -12 -45t-38 -25q-15 -3 -30.5 -1.5t-31.5 15.5l-80 80l-72 -72q-34 -34 -62 -8q-15 12 -14.5 31t16.5 35l102 99q12 12 27.5 12.5t27.5 -11.5l81 -79v467q0 63 -35 92.5t-89 29.5l-124 -1v-138v-129t2 -132q0 -60 -62 -60h-48q-50 0 -49 44q-1 40 49 40
h24v399q0 20 12 33q10 14 30 14l166 2q38 0 75 -9t67 -31t49 -60t19 -96v-496z" />
    <glyph glyph-name="topatakthai" unicode="&#xe0f;" horiz-adv-x="531" 
d="M297 -144l-66 -68q-16 -15 -33.5 -14t-29.5 13l-88 90q-14 14 -14 30.5t15 28.5q27 28 54 0l63 -62l60 60q15 14 37.5 14t36.5 -14l64 -63v467q0 63 -34.5 92.5t-88.5 29.5l-123 -1v-397q0 -30 -13.5 -46t-46.5 -16h-50q-50 0 -49 44q-1 40 49 40h24v399q0 20 11.5 33.5
t32.5 13.5l165 2q38 0 75.5 -9t66.5 -31t48 -60t19 -96v-496q0 -26 -12 -45t-38 -25q-15 -3 -30.5 -1.5t-31.5 15.5z" />
    <glyph glyph-name="thothanthai" unicode="&#xe10;" horiz-adv-x="459" 
d="M399 537v-42.5v-92.5t-0.5 -116t-0.5 -116v-90v-40q0 -46 -44 -46q-42 0 -42 46l2 190h-137q-44 0 -45 40q-2 42 48 42h134v32q0 122 -132 121q-42 0 -67 -15.5t-40 -39.5q-21 -36 -55 -26q-20 8 -26 26t4 34q24 39 66 67.5t122 28.5q76 0 128 -27v24q0 45 43 45
q42 0 42 -45zM398 -188q0 -26 -15 -45t-41 -19q-15 0 -28.5 2t-27.5 18l-52 50l-62 -61q-10 -10 -24 -10.5t-25 11.5l-91 92q-15 14 -15.5 30t16.5 28q27 26 54 0l63 -60l62 62q22 21 42 0l58 -57v65q0 18 10.5 30t31.5 12t32.5 -12t11.5 -32v-104z" />
    <glyph glyph-name="thonangmonthothai" unicode="&#xe11;" horiz-adv-x="561" 
d="M513 40q0 -46 -42 -46q-43 0 -43 46l1 364q0 26 -16.5 37.5t-42.5 11.5q-18 0 -39.5 -7.5t-43 -23.5t-41.5 -40q-21 -26 -36 -60q-16 -38 -27.5 -76.5t-11.5 -104.5v-101q0 -46 -42 -46q-43 0 -43 46l1 116q0 75 21 132q20 56 34 81q-8 -3 -10 -4.5t-12 -1.5
q-33 0 -56.5 11.5t-37.5 29.5t-21 39.5t-7 42.5q0 22 12 36t34 14q21 0 30.5 -15t9.5 -37q0 -44 36 -44q15 0 22.5 6t10.5 13t3 15v12q0 21 11 35.5t31 14.5q15 0 24 -6t12 -16t3.5 -21t0.5 -22q20 30 60.5 48t82.5 18q24 0 48 -5.5t42.5 -18t30 -36t11.5 -59.5v-378z" />
    <glyph glyph-name="thophuthaothai" unicode="&#xe12;" horiz-adv-x="861" 
d="M812 171q0 -46 -15 -79.5t-38.5 -55t-53.5 -32.5q-31 -10 -59 -10q-44 0 -77 16t-57 50l-4 6v-26q0 -46 -43 -46q-42 0 -42 46v383l-43 -43q-16 -16 -40.5 -14t-39.5 14l-68 61q-4 4 -10 5t-10 1q-14 0 -30 -11.5t-30 -33.5t-24 -54.5t-10 -74.5q0 -38 8 -73.5t25 -64.5
t45 -47t66 -18q16 0 20 2q3 2 4.5 2t3.5 1q44 8 50 -27q4 -21 -7.5 -33.5t-29.5 -16.5l-9 -2q-4 -2 -30 -2q-58 0 -102.5 22t-74 60t-43.5 87.5t-14 106.5q0 68 19.5 118t49 83t64.5 49.5t68 16.5q16 0 20.5 -3.5t12.5 -9.5l60 -56q15 -14 30 0l54 48q14 12 27 16.5t25 4.5
q24 0 36 -16.5t12 -36.5v-283q0 -27 11 -51t29 -43t40 -30t48 -11q34 0 62 26t28 78v320q0 46 42 46q44 0 44 -46v-319z" />
    <glyph glyph-name="nonenthai" unicode="&#xe13;" horiz-adv-x="822" 
d="M762 40q0 -46 -42 -46q-44 0 -44 46v28l-2 -6q-22 -34 -55.5 -51t-72.5 -17q-32 0 -62.5 10t-55 32t-39.5 59t-15 91v152q0 63 -31 93.5t-85 30.5l-123 -3v-373h31q22 0 36 -11t14 -30q0 -45 -50 -45h-55q-61 0 -61 62v421q0 20 11 33.5t32 13.5l163 2q38 0 75 -9t65 -31
t45.5 -60t17.5 -96v-152q0 -57 25.5 -87.5t64.5 -30.5q24 0 47.5 11t41.5 30t28 44.5t10 52.5v286q0 46 42 46q44 0 44 -46v-450z" />
    <glyph glyph-name="dodekthai" unicode="&#xe14;" horiz-adv-x="571" 
d="M512 40q0 -46 -44 -46q-42 0 -42 46v263q0 24 -4.5 51t-19.5 51t-45 39q-29 16 -79 16q-76 0 -117 -51t-43 -136q0 -38 8.5 -73.5t26 -64.5t44.5 -47t65 -18q18 0 24 2l10 3q45 8 52 -27q4 -21 -8.5 -33.5t-30.5 -16.5q-3 -2 -6 -2q-3 2 -6 0q-6 -2 -14.5 -2h-18.5
q-58 0 -102.5 21t-74 58t-43.5 88t-14 109q3 135 72.5 201t176.5 66q69 0 114 -20.5t71 -51t37 -68t11 -70.5v-287z" />
    <glyph glyph-name="totaothai" unicode="&#xe15;" horiz-adv-x="576" 
d="M516 39q0 -45 -44 -45q-42 0 -42 46v394l-50 -52q-16 -16 -42 -14.5t-40 13.5l-58 54q-4 4 -12 11q-8 6 -14 8q-10 2 -26.5 -9t-32 -34.5t-27 -58t-11.5 -79.5q0 -38 8.5 -73.5t26.5 -64.5t45 -47t65 -18q18 0 24 2q3 2 5.5 2t5.5 1q44 8 51 -27q4 -21 -8 -33.5
t-30 -16.5q-3 -2 -6 -2q-4 2 -7 0q-8 -2 -15.5 -2h-17.5q-58 0 -102.5 22t-74 58.5t-43.5 87t-14 108.5q0 68 19.5 118t49 83t64.5 49.5t68 16.5q12 0 18.5 -3.5t14.5 -9.5l60 -56q15 -14 30 0l54 48q14 12 27 16.5t25 4.5q24 0 40 -15q16 -16 16 -38v-445z" />
    <glyph glyph-name="thothungthai" unicode="&#xe16;" horiz-adv-x="516" 
d="M466 40q0 -46 -43 -46q-42 0 -42 46v298q0 63 -34.5 93.5t-90.5 30.5l-121 -3v-373h33q48 0 48 -41q0 -45 -48 -45h-57q-61 0 -61 62v421q0 20 11 33.5t32 13.5l163 2q38 0 75.5 -9t67.5 -31t48.5 -60t18.5 -96v-296z" />
    <glyph glyph-name="thothahanthai" unicode="&#xe17;" horiz-adv-x="513" 
d="M460 40q0 -46 -42 -46q-44 0 -43 46v335q0 46 -23.5 65t-57.5 19q-32 0 -60 -14.5t-51 -37.5t-35 -51q-13 -30 -13 -58v-258q0 -46 -42 -46q-43 0 -43 46v450q0 46 43 46q42 0 42 -46v-44h3q26 48 74 69t86 21q30 0 59.5 -7t52 -26t36.5 -52t14 -85v-326z" />
    <glyph glyph-name="thothongthai" unicode="&#xe18;" horiz-adv-x="474" 
d="M438 158q0 -40 -17 -71t-46 -52t-67 -32t-80 -11q-33 0 -83.5 10t-82.5 37q-12 9 -12 30v145q0 46 42 47q44 -1 43 -47v-132q16 -9 45.5 -13.5t45.5 -4.5q50 0 89 25t39 65q0 54 -34 74.5t-100 35.5q-34 8 -65.5 17.5t-57 26t-40.5 41.5t-15 62q2 33 20 57t45.5 40t63 23
t71.5 7q20 0 43 -3.5t47 -11t45 -21.5q21 -12 34 -32q12 -16 12.5 -34t-13.5 -28q-15 -10 -31.5 -5t-28.5 23q-16 20 -47 29.5t-61 9.5q-50 0 -82 -17q-30 -16 -32 -38q0 -34 40 -50q40 -15 98 -27q36 -9 67 -22t54.5 -33t37 -49t13.5 -71z" />
    <glyph glyph-name="nonuthai" unicode="&#xe19;" horiz-adv-x="520" 
d="M460 40q0 -46 -43 -46q-42 0 -42 46v28l-3 -6q-22 -34 -63 -51t-79 -17q-30 0 -62.5 7.5t-59 28t-42.5 54.5t-16 87v319q0 46 42 46q44 0 43 -46v-320q0 -57 27.5 -82.5t69.5 -25.5q24 0 50 9.5t46 27.5t33.5 44.5t13.5 60.5v286q0 46 42 46q43 0 43 -46v-450z" />
    <glyph glyph-name="bobaimaithai" unicode="&#xe1a;" horiz-adv-x="523" 
d="M466 194q0 -58 -18.5 -97t-48 -61t-67.5 -32t-76 -10q-36 0 -72.5 9t-66.5 31.5t-49 61.5q-18 40 -18 98v296q0 46 42 46q44 0 43 -46v-298q0 -63 33.5 -95.5t87.5 -32.5t89.5 32.5t35.5 95.5v298q0 46 42 46q43 0 43 -46v-296z" />
    <glyph glyph-name="poplathai" unicode="&#xe1b;" horiz-adv-x="523" 
d="M466 194q0 -58 -18.5 -97t-48.5 -61t-67.5 -32t-75.5 -10q-36 0 -73 9t-66.5 31.5t-48.5 61.5q-18 40 -18 98l-2 296q0 46 44 46q20 0 31.5 -12t11.5 -34l-1 -298q0 -63 34 -95.5t88 -32.5t89 32.5t35 95.5v508q0 46 43 46q39 0 43 -46v-506z" />
    <glyph glyph-name="phophungthai" unicode="&#xe1c;" horiz-adv-x="583" 
d="M524 86q0 -32 -15 -61t-61 -29q-12 0 -28 6t-33 24l-66 66q-15 14 -29 0l-78 -82q-8 -8 -15 -11t-19 -3q-32 0 -59 23t-47 63t-32 90t-12 104q0 45 13 90.5t37 82.5t58 61t78 27h12h8q18 -2 30 -16q12 -13 7 -33q-4 -20 -16.5 -27t-34.5 -5l-3 -2q-22 -4 -41.5 -21
t-33.5 -43t-21 -56.5t-7 -60.5q0 -63 16 -103t28 -59q12 -16 20 -16.5t21 16.5l48 54q26 27 58 25q31 -1 57 -25l74 -73v400q0 45 42 45q44 0 44 -45v-406z" />
    <glyph glyph-name="fofathai" unicode="&#xe1d;" horiz-adv-x="583" 
d="M524 86q0 -32 -15 -61t-61 -29q-12 0 -28 6t-33 24l-66 66q-15 14 -29 0l-78 -82q-8 -8 -15 -11t-19 -3q-32 0 -59 23t-47 63t-32 90t-12 104q0 45 13 90.5t37 82.5t58 61t78 27h12h8q18 -2 30 -16q12 -13 7 -33q-4 -20 -16.5 -27t-34.5 -5l-3 -2q-22 -4 -41.5 -21
t-33.5 -43t-21 -56.5t-7 -60.5q0 -63 16 -103t28 -59q12 -16 20 -16.5t21 16.5l48 54q26 27 58 25q31 -1 57 -25l74 -73v610q0 45 42 45q44 0 44 -45v-616z" />
    <glyph glyph-name="phophanthai" unicode="&#xe1e;" horiz-adv-x="609" 
d="M552 141q0 -63 -42 -105t-105 -42q-30 0 -60.5 14t-42.5 37q-14 -22 -44 -36.5t-60 -14.5q-63 0 -105 42t-42 105v351q-1 45 43 45q42 0 42 -45v-356q0 -26 18 -43t44 -17t44 18t18 44q-2 46 -2 88v80v186q0 21 12 33t32 12q44 0 43 -45v-17.5t-0.5 -40t-0.5 -57v-65.5
v-176q0 -26 18 -43t43 -17q26 0 43 18q18 16 18 42v356q0 45 42 45q44 0 44 -45v-351z" />
    <glyph glyph-name="fofanthai" unicode="&#xe1f;" horiz-adv-x="609" 
d="M552 141q0 -63 -42 -105t-105 -42q-30 0 -60.5 14t-42.5 37q-14 -22 -44 -36.5t-60 -14.5q-63 0 -105 42t-42 105v351q-1 45 43 45q42 0 42 -45v-356q0 -26 18 -43t44 -17t44 18t18 44q-2 46 -2 88v80v186q0 21 12 33t32 12q44 0 43 -45v-17.5t-0.5 -40t-0.5 -57v-65.5
v-176q0 -26 18 -43t43 -17q26 0 43 18q18 16 18 42v566q0 45 42 45q44 0 44 -45v-561z" />
    <glyph glyph-name="phosamphaothai" unicode="&#xe20;" horiz-adv-x="531" 
d="M482 40q0 -46 -44 -46q-42 0 -42 46v298q0 63 -34 92q-34 30 -90 30l-122 -1v-397q0 -30 -13.5 -46t-46.5 -16h-50q-50 0 -49 44q-1 40 49 40h24v399q0 20 11.5 33.5t32.5 13.5l165 2q38 0 75.5 -9t66.5 -31t48 -60t19 -96v-296z" />
    <glyph glyph-name="momathai" unicode="&#xe21;" horiz-adv-x="520" 
d="M471 178q0 -52 -18 -88t-45.5 -57t-60.5 -30t-63 -9q-39 0 -76 13q-38 13 -60 47l-2 6v-20q0 -46 -44 -46q-42 0 -42 46v450q0 46 42 46q44 0 44 -46v-294q0 -34 12 -59t31 -42t43 -25t48 -8q40 0 73 29t33 86v313q0 46 42 46q44 0 43 -46v-312z" />
    <glyph glyph-name="yoyakthai" unicode="&#xe22;" horiz-adv-x="501" 
d="M452 194q0 -58 -19 -97t-48 -61t-67 -32t-76 -10q-34 0 -71 9t-67 29t-50 54t-20 82q0 44 23 73t51 41q-14 2 -26.5 13t-21.5 27t-15 35t-6 37q0 63 38.5 101.5t100.5 38.5h32q46 0 46 -44q0 -42 -46 -42h-26q-26 0 -43 -14t-17 -40t18 -43q16 -17 42 -17h24
q21 2 34.5 -10t12.5 -32q0 -21 -12.5 -30.5t-30.5 -9.5h-11q-30 0 -55.5 -23t-25.5 -61q0 -46 36 -75t86 -29q56 0 90 32.5t34 95.5v298q0 46 42 46q44 0 44 -46v-296z" />
    <glyph glyph-name="roruathai" unicode="&#xe23;" horiz-adv-x="435" 
d="M408 142q0 -39 -16 -66.5t-43 -46.5t-61 -28t-70 -9q-45 0 -95.5 15t-78.5 53q-14 18 -13 34q1 18 15 28q34 21 58 -17q18 -20 51 -29.5t59 -9.5q50 0 80 22t30 52q0 34 -22 52t-53 29t-69.5 20t-70 26.5t-53.5 47t-22 81.5q0 39 17.5 66t44 44.5t59.5 24.5t64 7
q45 0 90 -15t72 -53q12 -16 11.5 -33t-16.5 -27q-32 -21 -56 16q-18 21 -41 30t-60 9q-39 0 -69 -18t-30 -51t21 -49.5t53 -27t70 -20t70 -27t53 -48t21 -82.5z" />
    <glyph glyph-name="ruthai" unicode="&#xe24;" horiz-adv-x="516" 
d="M466 -154q0 -46 -43 -47q-42 1 -42 47v492q0 63 -34.5 92.5t-88.5 29.5l-123 -1v-373h33q48 0 48 -41q0 -45 -48 -45h-57q-61 0 -61 62v421q0 47 43 47l163 2q38 0 75.5 -9t67.5 -31t48.5 -60t18.5 -96v-490z" />
    <glyph glyph-name="lolingthai" unicode="&#xe25;" horiz-adv-x="513" 
d="M472 40q0 -46 -43 -46q-42 0 -42 46v216q-30 -21 -74.5 -23t-92.5 -2q-52 0 -77 -24.5t-25 -54.5q0 -38 33 -63.5t103 -13.5q44 8 52 -27q4 -21 -8 -33q-12 -13 -31 -17q-58 -12 -103.5 -3t-74.5 32t-44 55t-15 68q0 30 10.5 59t32 52t54.5 36t77 13q94 0 138 6
q45 6 45 46q0 10 -6.5 28t-23.5 34.5t-45 28.5t-74 12q-44 0 -71 -14.5t-49 -34.5q-33 -33 -61 -8q-14 12 -13.5 31t16.5 35q28 30 76 48q46 18 102 18q69 0 114.5 -17t72.5 -46t37 -66t10 -77v-294z" />
    <glyph glyph-name="luthai" unicode="&#xe26;" horiz-adv-x="531" 
d="M482 -154q0 -46 -44 -47q-42 1 -42 47v492q0 63 -34 92q-34 30 -90 30l-122 -1v-397q0 -30 -13.5 -46t-46.5 -16h-50q-50 0 -49 44q-1 40 49 40h24v246v153q0 20 11.5 33.5t32.5 13.5l165 2q38 0 75.5 -9t66.5 -31t48 -60t19 -96v-490z" />
    <glyph glyph-name="wowaenthai" unicode="&#xe27;" horiz-adv-x="451" 
d="M418 266q0 -58 -16 -109t-48.5 -88t-80.5 -57q-47 -21 -109 -18q-40 3 -74 18.5t-51 27.5q-14 10 -15.5 25.5t7 27t21.5 15.5q14 2 29 -8t41 -23t70 -9q38 2 65 19.5t45 45t27 62.5t9 71t-9 69.5t-27 60.5t-47 45t-66 21q-38 3 -64 -9.5t-47 -29.5q-14 -12 -28 -9
t-22 14.5t-8 27t14 30.5q26 26 69 41t103 9q54 -4 93.5 -29t66 -62t39.5 -83t13 -96z" />
    <glyph glyph-name="sosalathai" unicode="&#xe28;" horiz-adv-x="516" 
d="M466 39q0 -47 -43 -47q-42 0 -42 47v294q0 56 -36 93.5t-90 37.5t-87 -32.5t-33 -95.5v-26l107 4q52 0 48 -44q-4 -38 -46 -40h-109v-191q1 -47 -43 -47q-42 0 -42 47v295q0 58 18 97.5t47 62t66 31.5t73 9q32 0 66 -9t61 -47v58q-1 44 43 44q42 0 42 -44v-497z" />
    <glyph glyph-name="sorusithai" unicode="&#xe29;" horiz-adv-x="516" 
d="M530 274q-2 -21 -13 -28.5t-33 -8.5l-19 -1l1 -42q0 -58 -18.5 -97.5t-48.5 -62t-67.5 -31.5t-73.5 -9q-38 0 -75 10t-66.5 32t-48.5 60q-18 40 -18 98v296q0 46 43 46q42 0 42 -46v-298q0 -63 34.5 -95.5t90.5 -32.5q52 0 86.5 32.5t34.5 95.5v40l-41 -2
q-52 -3 -78 18.5t-37 65.5q-3 22 10 35t32 11q16 0 23.5 -7t12.5 -19q3 -4 9 -15t24 -10l45 1v180q-1 46 43 46q42 0 42 -46q-2 -30 -1.5 -61t0.5 -57v-58l17 1q24 2 37 -9.5t11 -31.5z" />
    <glyph glyph-name="sosuathai" unicode="&#xe2a;" horiz-adv-x="528" 
d="M472 334v-294q0 -46 -43 -46q-42 0 -42 46v216q-30 -21 -74.5 -23t-92.5 -2q-52 0 -77 -24.5t-25 -54.5q0 -38 33 -63.5t103 -13.5q44 8 52 -27q4 -21 -8 -33q-12 -13 -31 -17q-58 -12 -103.5 -3t-74.5 32t-44 55t-15 68q0 30 10.5 59t32 52t54.5 36t77 13q94 0 138 6
q45 6 45 46q0 10 -6.5 28t-23.5 34.5t-45 28.5t-74 12q-44 0 -71 -14.5t-49 -34.5q-33 -33 -61 -8q-14 12 -13.5 31t16.5 35q28 30 76 48q46 18 102 18q51 0 88 -12q36 -12 62 -32v41q0 45 42 45t42 -45v-203z" />
    <glyph glyph-name="hohipthai" unicode="&#xe2b;" horiz-adv-x="528" 
d="M477 40q1 -46 -43 -46q-42 0 -42 46v185q0 52 -24 86q-24 33 -68 41l-153 -103v-81q0 -34 -1 -70q0 -36 1 -58q0 -22 -12 -34q-11 -12 -31 -12q-44 0 -44 46v450q0 46 44 46q20 0 32 -12t10 -34v-142l265 177q37 23 61 -5q27 -34 -13 -61l-77 -51q42 -21 68.5 -64.5
t26.5 -119.5v-184z" />
    <glyph glyph-name="lochulathai" unicode="&#xe2c;" horiz-adv-x="609" 
d="M552 141q0 -63 -42 -105t-105 -42q-30 0 -60.5 14t-42.5 37q-14 -22 -44 -36.5t-60 -14.5q-63 0 -105 42t-42 105v351q-1 45 43 45q42 0 42 -45v-356q0 -26 18 -43t44 -17t44 18t18 44q-2 20 -2 37v33v89q0 21 12 33t32 12q44 0 43 -45q0 -3 -0.5 -28t-0.5 -55v-78
q0 -26 18 -43t43 -17q26 0 43 18q18 16 18 42v209q0 39 -17 58t-61 25q-16 2 -27 12t-14 25t3 31t25 30l111 74q40 28 62 -4q27 -34 -14 -62l-75 -50q46 -14 69.5 -45t23.5 -95v-203z" />
    <glyph glyph-name="oangthai" unicode="&#xe2d;" horiz-adv-x="528" 
d="M498 267q0 -72 -19 -123t-52 -84.5t-75.5 -49.5t-90.5 -16q-52 0 -96.5 16.5t-76 49t-47 81t-9.5 114.5q4 57 52 57h129q50 0 48 -42q-3 -40 -45 -40l-93 -2q-4 -33 4.5 -61.5t28.5 -50.5t47 -34t58 -12q60 0 104.5 45t44.5 152q0 104 -48 151t-116 47q-50 0 -81 -19.5
t-55 -45.5q-15 -15 -32.5 -16.5t-29.5 10.5q-15 12 -14.5 31t16.5 35q34 34 83 57t111 23q48 0 94 -13.5t81 -45t57 -84t22 -130.5z" />
    <glyph glyph-name="honokhukthai" unicode="&#xe2e;" horiz-adv-x="543" 
d="M496 267q0 -72 -18.5 -123t-51 -84.5t-75 -49.5t-90.5 -16q-52 0 -96.5 16.5t-76 49t-47 81t-9.5 114.5q4 57 52 57h129q50 0 48 -42q-3 -40 -45 -40l-93 -2q-4 -33 4.5 -61.5t28.5 -50.5t47 -34t58 -12q60 0 104.5 45t44.5 152q0 104 -48 151t-116 47q-50 0 -81 -19.5
t-55 -45.5q-15 -15 -32.5 -16.5t-29.5 10.5q-15 12 -14.5 31t16.5 35q34 34 83 57t111 23q44 0 94 -13q48 -13 74 -43v53q0 45 42 45t42 -45v-270z" />
    <glyph glyph-name="paiyannoithai" unicode="&#xe2f;" horiz-adv-x="517" 
d="M471 33q1 -45 -43 -45q-42 0 -42 45v384q-32 -68 -77 -95.5t-102 -27.5q-46 0 -84.5 19t-61.5 49.5t-30 69.5q-7 40 9 80q8 21 24 29.5t35 1.5q21 -8 25 -25q6 -16 -2 -36q-8 -18 -5 -38t15 -35.5t31 -25t44 -9.5q44 0 76 28t65 102q18 42 66 42q30 0 44 -22
q13 -22 13 -48v-443z" />
    <glyph glyph-name="saraathai" unicode="&#xe30;" horiz-adv-x="339" 
d="M314 406q-22 -44 -66 -62t-83 -18q-51 0 -91 22q-42 21 -58 63q-4 16 -1 32q3 15 17 23t34 6t27 -19q17 -45 73 -45q24 0 44 10t32 35q9 16 26.5 18.5t31.5 -5.5t18.5 -25t-4.5 -35zM314 114q-22 -44 -66 -62.5t-83 -18.5q-51 0 -91 21q-42 22 -58 64q-4 16 -1 32t17 24
t34 6q20 -4 27 -20q17 -44 73 -44q24 0 44 10q20 8 32 34q9 16 26.5 19t31.5 -5t18 -25t-4 -37v2z" />
    <glyph glyph-name="maihanakatthai" unicode="&#xe31;" 
d="M102 669q0 -20 -10.5 -29.5t-37.5 -9.5h-180q-40 0 -65 6t-38.5 21t-18 42t-4.5 71q0 46 45 46q18 -2 27.5 -11.5t9.5 -36.5q0 -39 7 -49.5t39 -10.5h180q26 0 36 -11.5t10 -27.5z" />
    <glyph glyph-name="saraaathai" unicode="&#xe32;" horiz-adv-x="366" 
d="M308 40q0 -44 -44 -44q-42 0 -42 44v329q0 57 -29 77t-71 20q-16 0 -40 -9t-36 -29q-10 -15 -26 -21.5t-29 4.5q-16 10 -17.5 26.5t11.5 33.5q27 39 64 54t79 15q28 0 60 -7t58.5 -25t44 -51t17.5 -87v-330z" />
    <glyph glyph-name="saraamthai" unicode="&#xe33;" horiz-adv-x="366" 
d="M15 738q0 -44 -31.5 -75t-76.5 -31q-44 0 -75.5 31t-31.5 75t32 75t75 31q45 0 76.5 -31t31.5 -75zM308 40q0 -44 -44 -44q-42 0 -42 44v329q0 57 -29 77t-71 20q-16 0 -40 -9t-36 -29q-10 -15 -26 -21.5t-29 4.5q-16 10 -17.5 26.5t11.5 33.5q27 39 64 54t79 15
q28 0 60 -7t58.5 -25t44 -51t17.5 -87v-330zM-50 736q0 18 -12.5 31t-30.5 13q-16 0 -29 -13t-13 -31t12.5 -30t29.5 -12q18 0 30.5 12t12.5 30z" />
    <glyph glyph-name="saraithai" unicode="&#xe34;" 
d="M-54 670q2 -40 -46 -40h-284q-50 0 -46 40q0 40 43 40h289q44 0 44 -40z" />
    <glyph glyph-name="saraiithai" unicode="&#xe35;" 
d="M-52 772q0 -6 -1 -21.5t-1 -33.5v-45q0 -42 -46 -42h-284q-50 0 -46 40q0 40 43 40h252v66q1 42 41 44q42 0 42 -48z" />
    <glyph glyph-name="sarauethai" unicode="&#xe36;" 
d="M-8 735q0 -38 -22 -65.5t-57 -36.5q-12 -3 -19.5 -3h-16.5h-261q-50 0 -46 40q0 40 43 40h169q-4 14 -4 25q0 45 32 77q30 31 74 31q45 0 76.5 -31.5t31.5 -76.5zM-75 735q0 16 -12 27q-13 12 -29 12t-27 -11t-11 -28q0 -16 11 -28.5t27 -12.5t28.5 12.5t12.5 28.5z" />
    <glyph glyph-name="saraueethai" unicode="&#xe37;" 
d="M-54 672q0 -42 -46 -42h-284q-50 0 -46 40q0 40 43 40h139v62q0 46 38 48q38 0 38 -50l-2 -60h46v62q0 44 36 48q40 0 40 -50z" />
    <glyph glyph-name="sarauthai" unicode="&#xe38;" 
d="M-52 -210q0 -21 -8.5 -33t-29.5 -12q-44 0 -44 45v74h-36q-48 0 -48 40q0 21 14 32.5t34 11.5h74q20 0 32 -12t12 -34v-112z" />
    <glyph glyph-name="sarauuthai" unicode="&#xe39;" 
d="M-52 -172q0 -39 -36 -62q-34 -24 -84 -24q-51 0 -88.5 21t-37.5 65v36h-29q-48 0 -48 40q0 21 13.5 32.5t34.5 11.5h66q20 0 31.5 -12t11.5 -34v-58q0 -15 9 -27t35 -12q21 0 30.5 12.5t9.5 28.5v62q0 21 8.5 34t29.5 13q20 0 32 -12t12 -33v-82z" />
    <glyph glyph-name="phinthuthai" unicode="&#xe3a;" 
d="M-54 -102q0 -24 -16.5 -40.5t-40.5 -16.5t-40.5 16.5t-16.5 40.5t16.5 40.5t40.5 16.5t40.5 -16.5t16.5 -40.5z" />
    <glyph glyph-name="PUCR2005" unicode="&#xe3e;" 
 />
    <glyph glyph-name="bahtthai" unicode="&#xe3f;" horiz-adv-x="559" 
d="M380 378q52 -8 87 -38.5t50 -72.5t10 -89.5t-32 -86.5t-77 -65t-124 -26h-8v-45q0 -12 -7 -18t-17 -6t-17.5 6t-7.5 18v45h-127q-32 0 -42.5 15t-10.5 36v601q0 54 51 54h129v44q0 12 7.5 18t17.5 6t17 -6t7 -18v-44q57 -2 96.5 -23t61.5 -53.5t28 -71t-2 -74.5t-31 -64
t-59 -40v-2zM286 408q50 6 76 41t27 74t-25 72t-78 35v-222zM237 632h-95v-224h95v224zM303 75q48 0 80.5 19.5t47.5 48t14 63t-18 63t-49.5 48t-80.5 19.5h-11v-261h17zM237 336h-95v-261h95v261z" />
    <glyph glyph-name="saraethai" unicode="&#xe40;" horiz-adv-x="205" 
d="M146 39q0 -47 -42 -47q-44 0 -44 47v453q0 45 42 45q44 0 44 -45v-453z" />
    <glyph glyph-name="saraaethai" unicode="&#xe41;" horiz-adv-x="388" 
d="M326 39q0 -47 -42 -47q-44 0 -44 47v453q0 45 42 45q44 0 44 -45v-453zM146 39q0 -47 -42 -47q-44 0 -44 47v453q0 45 42 45q44 0 44 -45v-453z" />
    <glyph glyph-name="saraothai" unicode="&#xe42;" horiz-adv-x="235" 
d="M304 780q10 -20 10 -36q1 -16 -14 -26t-30.5 -6t-26.5 23q-10 21 -32.5 36t-52.5 17q-26 3 -44 -7.5t-30 -27.5q-3 -4 -3.5 -9.5t6.5 -13.5l61 -79q8 -8 12 -16.5t4 -26.5v-569q0 -47 -44 -47q-21 0 -31.5 14.5t-10.5 32.5v564q0 12 -4 18l-8 12l-64 83q-9 12 -9.5 22
t3.5 18q20 52 64 80q46 28 98 25q62 -3 96.5 -30t49.5 -51z" />
    <glyph glyph-name="saraaimaimuanthai" unicode="&#xe43;" horiz-adv-x="235" 
d="M234 717q-3 -24 -11.5 -44.5t-18 -36t-18.5 -27t-12 -15.5q-15 -20 -15 -45l1 -510q0 -18 -11 -32.5t-32 -14.5q-42 0 -42 47v521q0 39 15 55q12 15 35 43t29 65q3 21 -9.5 43.5t-46.5 22.5q-30 0 -47 -18.5t-13 -44.5q3 -24 -0.5 -36t-23.5 -18q-21 -6 -37.5 9t-20.5 39
q-3 30 7 56t28.5 46.5t45.5 32t59 11.5q72 0 109 -43t29 -106z" />
    <glyph glyph-name="saraaimaimalaithai" unicode="&#xe44;" horiz-adv-x="235" 
d="M160 40q0 -20 -10 -34t-32 -14q-44 0 -43 48l1 558q0 8 8 24.5t17.5 37t21 42t18.5 39.5l-39 -36q-16 -14 -33.5 -13t-29.5 13l-87 78q-18 21 -16 35q1 14 10 24q10 12 28 14t36 -14l64 -56q16 14 31 26l30 24q28 24 57 24q24 0 42 -18t9 -48l-83 -191v-563z" />
    <glyph glyph-name="lakkhangyaothai" unicode="&#xe45;" horiz-adv-x="379" 
d="M308 -154q0 -46 -44 -46q-42 0 -42 46v523q0 57 -29 77t-71 20q-16 0 -40 -10q-24 -8 -36 -28q-10 -15 -26 -21.5t-29 4.5q-16 10 -17.5 26.5t11.5 33.5q27 39 64 54t79 15q28 0 60 -7t58.5 -25t44 -51t17.5 -87v-524z" />
    <glyph glyph-name="maiyamokthai" unicode="&#xe46;" horiz-adv-x="666" 
d="M591 -154q1 -46 -43 -46q-42 0 -42 46v602l-44 -43q-62 -66 -130 0l-40 37q-9 9 -23 12q-13 2 -21 -6q-10 -9 -12 -22.5t12 -25.5q10 -9 10 -24.5t-10 -27.5q-10 -10 -28 -13t-36 13q-22 20 -30 42t-7.5 44t9 40t18.5 30q20 21 47.5 30.5t48.5 9.5q16 0 34 -6t28 -16
l43 -44q21 -22 43 0l44 44q18 18 30 20t24 2q21 0 35.5 -8t23.5 -21t12.5 -27t3.5 -26v-616z" />
    <glyph glyph-name="maitaikhuthai" unicode="&#xe47;" 
d="M-50 846q0 -14 -8 -24t-29 -10h-221q-60 0 -60 -59q0 -16 8 -34.5t27 -22.5l41 39q20 20 38 14.5t22 -17.5q9 -27 22.5 -37.5t21.5 -10.5q22 0 31 15t3 31t1 25.5t19 12.5q15 3 28 -5.5t16 -27.5q9 -45 -14.5 -79.5t-75.5 -34.5q-34 0 -54 9.5t-34 35.5l-32 -32
q-8 -8 -20 -13t-32 3q-38 12 -64 44t-26 86q0 34 12 58.5t31 39.5t45.5 21.5t53.5 6.5h213q21 0 29 -9.5t8 -24.5z" />
    <glyph glyph-name="maiekthai" unicode="&#xe48;" 
d="M-58 945q0 -37 -35 -37t-35 36v116q0 16 7 27t27 11q21 0 28.5 -11t7.5 -29v-113z" />
    <glyph glyph-name="maithothai" unicode="&#xe49;" 
d="M-6 1014q-32 -54 -84 -79.5t-110 -25.5q-21 0 -29 11.5t-8 29.5v55h-45q-18 0 -29 9q-11 10 -11 26t11 26t29 10h76q36 0 36 -38v-58q24 0 42 8t32 19t23 24t13 21q20 28 50 10q12 -8 12 -22t-8 -26z" />
    <glyph glyph-name="maitrithai" unicode="&#xe4a;" 
d="M60 938q0 -30 -36 -30l-36 -2q-38 0 -50.5 10t-9.5 32l3 21q3 27 -13 27q-3 0 -7 -4t-7 -6l-18 -20q-20 -22 -38 0l-18 20l-6.5 6.5t-6.5 3.5q-15 0 -13 -27l2 -21q8 -30 -19 -38q-14 -4 -25.5 3.5t-15.5 25.5l-1 18q-4 52 16.5 77t50.5 25q21 1 41 -19l13 -14l16 14
q20 20 40 19q30 0 51 -21.5t17 -74.5l34 3q14 0 25 -6.5t11 -21.5z" />
    <glyph glyph-name="maichattawathai" unicode="&#xe4b;" 
d="M22 1017q2 -33 -40 -33h-39v-28q-1 -44 -35 -42q-32 0 -31 38v32h-43q-44 0 -42 33q0 31 38 31h47v34q-1 38 31 37q34 3 35 -41v-30h42q37 0 37 -31z" />
    <glyph glyph-name="thanthakhatthai" unicode="&#xe4c;" 
d="M22 904q0 -32 -38 -32l-26 -2q-14 -2 -24 -11t-8 -22v-13q4 -40 -32 -42q-16 -2 -28 7t-12 29l-1 25q-2 33 22.5 61t72.5 32l36 2q38 2 38 -34z" />
    <glyph glyph-name="nikhahitthai" unicode="&#xe4d;" 
d="M15 738q0 -44 -31.5 -75t-76.5 -31q-44 0 -75.5 31t-31.5 75t32 75t75 31q45 0 76.5 -31t31.5 -75zM-50 736q0 18 -12.5 31t-30.5 13q-16 0 -29 -13t-13 -31t12.5 -30t29.5 -12q18 0 30.5 12t12.5 30z" />
    <glyph glyph-name="yamakkanthai" unicode="&#xe4e;" 
d="M-56 657q0 -37 -37 -37h-21q-44 0 -72 28q-27 26 -27 70q0 21 9.5 42.5t26.5 31.5q-39 26 -39 69q-2 40 34 74.5t108 34.5q21 0 31.5 -9.5t10.5 -21t-10 -20.5t-32 -9q-39 0 -56 -15t-18.5 -33t12 -33t37.5 -15h6q15 0 25.5 -7t10.5 -23q0 -14 -10.5 -23t-26.5 -8h-23
q-14 0 -22 -10.5t-8 -24.5q0 -12 11.5 -21t24.5 -10h18q37 0 37 -30z" />
    <glyph glyph-name="fongmanthai" unicode="&#xe4f;" horiz-adv-x="957" 
d="M436 -4q-76 0 -143.5 29t-118 79t-79.5 118t-29 144t29 144t79.5 118t118 79t143.5 29t144 -29t118 -79t79.5 -118t29.5 -144t-29.5 -144t-79.5 -118t-118 -79t-144 -29zM438 666q-60 0 -113 -23t-94 -64t-64 -95.5t-23 -117.5t23 -117.5t64 -95.5t94 -64t113 -23t113 23
t94 64t64 95.5t23 117.5t-23 117.5t-64 95.5t-94 64t-113 23zM436 184q-38 0 -70.5 14.5t-57 39t-39 57.5t-14.5 71t14.5 71t39 57.5t57.5 39.5q32 14 70 14t71 -14.5t58 -39t39 -57.5t14 -71t-14 -71t-39 -57.5t-58 -39t-71 -14.5zM436 471q-44 0 -74 -30.5t-30 -74.5
t30 -74q30 -31 74 -31t75 30.5t31 74.5t-31 74.5t-75 30.5z" />
    <glyph glyph-name="zerothai" unicode="&#xe50;" horiz-adv-x="576" 
d="M531 212q0 -52 -18.5 -92t-51.5 -68t-77.5 -42t-95.5 -14q-50 0 -94 14t-77 42t-53 68q-19 40 -19 92q0 54 18.5 95t51.5 68t77.5 40.5t95.5 13.5q52 0 96.5 -13.5t77.5 -40.5t51 -68t18 -95zM452 212q0 74 -46 109.5t-118 35.5t-118 -36q-47 -35 -47 -109q0 -68 48 -106
t117 -38t116.5 38t47.5 106z" />
    <glyph glyph-name="onethai" unicode="&#xe51;" horiz-adv-x="576" 
d="M524 213q0 -84 -43 -134.5t-107 -72t-136.5 -16t-132.5 33.5q-21 10 -26 28t5 34q10 15 27 15.5t35 -9.5q38 -20 88.5 -25t97 7.5t79.5 45.5q33 34 33 92q0 74 -46 110t-118 36q-22 0 -47.5 -4t-48 -15.5t-37.5 -29t-15 -43.5q0 -28 27 -46t71 0q12 8 33.5 7t30.5 -21
q10 -24 -5 -40t-35 -24q-45 -16 -82.5 -11.5t-64.5 23t-41.5 48.5t-14.5 65q0 42 21.5 72.5t54.5 51t74 30t79 9.5q52 0 97 -13t78 -41t51 -68.5t18 -94.5z" />
    <glyph glyph-name="twothai" unicode="&#xe52;" horiz-adv-x="576" 
d="M549 212q0 -27 -3 -65.5t-9 -60.5q-3 -12 -10.5 -26.5t-21 -28t-33.5 -22.5t-48 -9h-229q-68 0 -113 38q-44 38 -46 114v87.5t-1.5 78t-6 76.5t-13.5 83q-13 47 31 55q20 3 31 -9.5t17 -33.5q24 -81 25 -165t1 -170q0 -44 24 -62t63 -18h189q32 0 47.5 17t18.5 43
q3 18 4.5 34t1.5 42q0 68 -12 106q-8 21 -15 28t-19 7q-24 0 -29.5 -36t-11.5 -87q-2 -14 -10.5 -22t-18.5 -9t-19 7t-11 24q-6 51 -10 87t-28 36q-20 0 -28 -15t-11 -33t-2.5 -34.5t0.5 -20.5q0 -10 2.5 -20t9.5 -14q18 -8 24 -21q5 -13 1 -25t-14 -19t-32 -3q-33 4 -51 31
t-21 65q-3 52 5.5 88t24 58.5t38 33t48.5 10.5q33 0 52 -22q20 -24 27 -58q6 34 24.5 57t46.5 23q63 0 92 -53t29 -167z" />
    <glyph glyph-name="threethai" unicode="&#xe53;" horiz-adv-x="576" 
d="M534 212q0 -68 -8 -108q-7 -42 -13 -64q-8 -21 -19.5 -35t-31.5 -11q-42 8 -30 56q4 26 12.5 64t8.5 96q0 36 -3.5 62t-9.5 43q-8 21 -21 28.5t-25 7.5q-24 0 -42.5 -36t-24.5 -87q-3 -26 -11 -40t-30 -14q-20 0 -28.5 14t-11.5 40q-6 51 -25 87t-41 36t-35 -16.5
t-20 -39.5t-8 -47t-1 -38q0 -60 6 -82q2 -12 7 -24q8 -16 14.5 -21t14.5 -7q12 -2 23 -10t13 -22q3 -20 -8 -34q-10 -12 -33 -14q-40 2 -67 22q-26 22 -40 74q-3 8 -4.5 16t-2.5 18q-6 30 -6 86q0 48 9 89t28.5 71t49.5 46t72 14q30 -2 57 -24t35 -56l2 -18l4 18q8 34 35 56
t56 24q42 2 71.5 -14t47.5 -46t26 -71t8 -89z" />
    <glyph glyph-name="fourthai" unicode="&#xe54;" horiz-adv-x="576" 
d="M558 470q-4 -12 -15.5 -33t-31 -41.5t-47.5 -35.5t-65 -15h-162q-57 0 -94 -34.5t-37 -102.5q0 -58 35.5 -98t92.5 -40q16 2 33 4t41 6q-33 33 -37 66.5t9.5 61.5t39 44t52.5 15q26 -3 35 -11t11 -22q3 -14 -4.5 -29t-27.5 -17q-20 -3 -24 -21.5t9 -38.5t44 -36t80 -12
q21 0 34.5 -10t13.5 -28q0 -16 -10.5 -27.5t-38.5 -14.5q-78 -4 -120 20q-38 -9 -71 -15.5t-63 -7.5q-46 -3 -85 13t-68 45t-45 69q-15 42 -15 88q0 100 60.5 156t161.5 56h147q26 0 50 21t34 53q8 20 22 29t34 1q38 -12 22 -58z" />
    <glyph glyph-name="fivethai" unicode="&#xe55;" horiz-adv-x="576" 
d="M558 470q-4 -12 -15.5 -33t-31 -41.5t-47.5 -35.5t-65 -15h-162q-57 0 -94 -34.5t-37 -102.5q0 -58 35.5 -98t92.5 -40q16 2 33 4t41 6q-33 33 -37 66.5t9.5 61.5t39 44t52.5 15q26 -3 35 -11t11 -22q3 -14 -4.5 -29t-27.5 -17q-20 -3 -24 -21.5t9 -38.5t44 -36t80 -12
q21 0 34.5 -10t13.5 -28q0 -16 -10.5 -27.5t-38.5 -14.5q-78 -4 -120 20q-38 -9 -71 -15.5t-63 -7.5q-46 -3 -85 13t-68 45t-45 69q-15 42 -15 88q0 74 33 121q24 38 55.5 54.5t55.5 20.5q-4 6 -6.5 16t-2.5 17q0 42 30 67.5t75 25.5q48 0 78 -26t30 -67q1 -13 -1 -17h22
q26 0 50 21t34 53q8 20 22 29t34 1q38 -12 22 -58zM312 440q0 15 -13 25.5t-29 10.5q-18 0 -31 -11t-13 -25q0 -15 13 -25.5t29 -10.5q18 0 31 10.5t13 25.5z" />
    <glyph glyph-name="sixthai" unicode="&#xe56;" horiz-adv-x="576" 
d="M538 213q0 -58 -21 -100.5t-57 -70t-82 -40t-98 -11.5q-76 3 -119 28t-59 65q-12 32 -9 65t21 60.5t52 45.5q34 17 82 19q21 0 40.5 -9t19.5 -34q0 -24 -20 -32.5t-34 -6.5q-48 0 -65 -25.5t-6 -49.5q12 -27 39.5 -38t57.5 -13q34 -2 67 7t57.5 28t39.5 47t15 64
q0 68 -42 106t-114 38q-28 0 -67.5 -11t-63.5 -29q-12 -9 -35 -7.5t-35 27.5q-16 34 -34 62t-44 48q-16 12 -24 27q-10 15 -2 31t27.5 22t37.5 -6q30 -21 56.5 -54.5t44.5 -69.5q10 9 28 15t37.5 10.5t39 6.5t34.5 2q105 0 170 -54.5t65 -162.5z" />
    <glyph glyph-name="seventhai" unicode="&#xe57;" horiz-adv-x="576" 
d="M550 219q-28 -231 -164 -225q-24 0 -39 16.5t-9 46.5q4 26 10 60.5t6 92.5q0 20 -1 45t-5 48t-13 38t-26 15q-21 0 -32 -39t-10 -89q0 -54 -39 -54q-18 0 -28 14q-12 14 -10 40q2 50 -9 89t-33 39q-16 0 -26 -15t-14 -38t-5 -48t-1 -45q0 -39 4.5 -66t10.5 -45
q8 -18 14.5 -21.5t14.5 -5.5q12 -2 23 -10t13 -23q2 -20 -9 -32.5t-32 -12.5q-34 0 -62.5 22t-44.5 74q-6 24 -9 48t-3 74q-2 104 31 163.5t101 56.5q26 -2 48 -24t28 -56q4 34 26 56t47 24q68 3 99 -57q32 -59 30 -163q0 -46 -5 -82.5t-10 -60.5q22 8 37.5 52t22.5 101
q3 30 4 95t-11 160q-3 27 3.5 39t27.5 14t31 -13t12 -37q10 -80 11 -139t-5 -122z" />
    <glyph glyph-name="eightthai" unicode="&#xe58;" horiz-adv-x="576" 
d="M558 470q-4 -12 -15.5 -33t-31 -41.5t-47.5 -35.5t-65 -15h-165q-57 0 -94.5 -34.5t-37.5 -102.5q0 -54 28 -91q30 -37 64 -42l74 75q14 14 27.5 17t25 0.5t19.5 -9t10 -14.5q10 -34 24 -51.5t43 -17.5q28 0 43.5 20.5t11.5 42.5q-3 21 6 33q10 11 23 13q18 3 33 -6
q16 -10 20 -34q4 -27 -3 -54t-24 -48t-43 -34q-24 -12 -56 -12q-52 0 -82 16q-32 16 -48 56l-49 -50q-18 -16 -35.5 -20t-47.5 4q-63 16 -104 70t-41 140q0 54 18 93.5t48.5 66t72 39.5t89.5 13h147q26 0 50 21t34 53q8 20 22 29t34 1q38 -12 22 -58z" />
    <glyph glyph-name="ninethai" unicode="&#xe59;" horiz-adv-x="576" 
d="M566 470q-3 -12 -10 -32t-19.5 -38.5t-33.5 -33t-55 -14.5q-26 0 -43.5 -10t-26 -27.5t-6.5 -39t14 -44.5q12 -22 22 -42.5t21 -40.5q16 -32 32 -61t22 -36q8 -12 6.5 -27.5t-21.5 -25.5q-16 -9 -31 -0.5t-23 20.5l-164 285q-16 28 -33 40.5t-46 7.5q-15 -3 -30 -14
t-25 -31t-12 -45t7 -55q9 -34 23 -60t28.5 -42.5t27 -24t22.5 -4.5q21 4 32.5 -6.5t15.5 -23.5q3 -20 -7.5 -32.5t-28.5 -16.5q-30 -8 -59.5 5.5t-56 41t-46.5 65.5q-20 40 -30 80q-14 48 -9.5 90.5t23 75.5t51 52.5t74.5 22.5q38 3 76 -13q39 -16 67 -65q10 44 44 59
q36 16 70 16q30 -2 41 22t19 50q8 20 22 29t33 1q38 -12 23 -58z" />
    <glyph glyph-name="angkhankhuthai" unicode="&#xe5a;" horiz-adv-x="712" 
d="M666 48q0 -21 -11 -40.5t-33 -19.5q-42 0 -42 45v455q0 27 14 41t29.5 14t29 -14.5t13.5 -40.5v-440zM471 33q1 -45 -43 -45q-42 0 -42 45v384q-32 -68 -77 -95.5t-102 -27.5q-46 0 -84.5 19t-61.5 49.5t-30 69.5q-7 40 9 80q8 21 24 29.5t35 1.5q21 -8 25 -25
q6 -16 -2 -36q-8 -18 -5 -38t15 -35.5t31 -25t44 -9.5q44 0 76 28t65 102q18 42 66 42q30 0 44 -22q13 -22 13 -48v-443z" />
    <glyph glyph-name="khomutthai" unicode="&#xe5b;" horiz-adv-x="1297" 
d="M866 300h322q26 0 38 -12t12 -28q0 -20 -11 -32t-36 -12h-355l-60 60q-24 -30 -47.5 -64t-47.5 -64q-14 -18 -31 -17t-32 17l-92 112q-12 -36 -33 -74t-52 -68.5t-73 -49.5q-42 -20 -94 -20q-51 0 -92.5 16.5t-71.5 46t-47 69t-17 87.5q0 46 14 81.5t35 61t45 40.5
q26 16 48 22q33 8 51.5 0.5t23 -21t-5 -29.5t-35.5 -24q-40 -15 -66.5 -48.5t-26.5 -81.5q0 -58 39.5 -98.5t98.5 -40.5q51 0 87 24t59 59.5t34 75.5t11 75q0 39 26 42t52 -27l114 -142l94 124q28 34 60 2z" />
    <glyph glyph-name="ZWSP" unicode="&#x200b;" 
 />
    <glyph glyph-name="endash" unicode="&#x2013;" horiz-adv-x="750" 
d="M702 270q-3 -40 -45 -40h-565q-44 0 -46 40q-2 42 48 42h560q50 0 48 -42z" />
    <glyph glyph-name="emdash" unicode="&#x2014;" horiz-adv-x="1500" 
d="M1444 270q-2 -40 -44 -40h-1308q-44 0 -46 40q-2 42 48 42h1302q50 0 48 -42z" />
    <glyph glyph-name="quoteleft" unicode="&#x2018;" horiz-adv-x="256" 
d="M201 474q-3 -27 -18 -33.5t-47 -2.5q-45 6 -61.5 30t-17 55t8.5 61q10 30 18 50q12 28 27 47t43 9q10 -3 13 -11.5t1 -18t-6 -18.5q-2 -10 -4 -16q-6 -15 -11.5 -28.5t-8.5 -35.5q-4 -20 -2 -35t20 -19q15 -3 31.5 -5.5t13.5 -28.5z" />
    <glyph glyph-name="quoteright" unicode="&#x2019;" horiz-adv-x="256" 
d="M172 495q-12 -30 -27 -48.5t-43 -8.5q-10 3 -13 11.5t-2 18t5 18.5q4 8 7 16q6 16 10.5 30t8.5 34t2 36t-20 19q-8 2 -16.5 2.5t-15 2.5t-10.5 9t-2 21q3 26 17 32t47 2q45 -6 61.5 -31t17.5 -55t-9 -60.5t-18 -48.5z" />
    <glyph glyph-name="quotedblleft" unicode="&#x201c;" horiz-adv-x="397" 
d="M352 495q-3 -26 -17 -33.5t-47 -2.5q-45 6 -61.5 30.5t-16.5 54.5t9 61t17 51q12 28 27 47t45 8q10 -3 12 -11t0 -18t-6 -20t-5 -16q-4 -15 -9.5 -28.5t-9.5 -33.5q-3 -20 -1 -36q3 -16 19 -18q6 -2 10 -2t9 -2q15 -3 21.5 -9t3.5 -22zM182 495q-3 -27 -18.5 -34
t-46.5 -2q-45 6 -61.5 30t-17 54.5t9.5 61.5q8 31 16 51q12 28 27 47t44 8q10 -3 12.5 -11t1 -18t-5 -20t-5.5 -16q-6 -15 -11 -28.5t-9 -33.5t-2 -36t20 -18q4 -2 10 -2t10 -2q14 -3 21 -9t5 -22z" />
    <glyph glyph-name="quotedblright" unicode="&#x201d;" horiz-adv-x="397" 
d="M336 516q-12 -30 -26 -48t-43 -9q-21 9 -15 29t12 36q4 16 10 30q6 12 10 32t2 36.5t-20 19.5q-6 2 -11 1t-9 1q-15 3 -21.5 9.5t-4.5 22.5q3 27 17.5 33.5t47.5 1.5q45 -6 61 -30t16.5 -54.5t-9 -60.5t-17.5 -50zM164 516q-12 -30 -26 -48q-16 -18 -44 -9
q-9 4 -11.5 11.5t-2 17.5t4 19t7.5 17q6 16 10 30q4 12 9 32q4 20 2 36.5t-20 19.5q-4 2 -9.5 1t-9.5 1q-14 3 -21.5 9.5t-4.5 22.5q3 26 18 33q14 7 46 2q45 -6 61.5 -30t16.5 -54.5t-9 -60.5t-17 -50z" />
    <glyph glyph-name="bullet" unicode="&#x2022;" horiz-adv-x="495" 
d="M402 246q0 -32 -12 -60t-34 -50t-50 -34t-60 -12t-60 12t-50 34t-34 50t-12 60t12 60t34 50t50 34t60 12t60 -12t50 -34t34 -50t12 -60z" />
    <glyph glyph-name="Euro" unicode="&#x20ac;" horiz-adv-x="691" 
d="M638 645q15 -14 17 -32.5t-7 -31.5t-25.5 -16t-38.5 14q-21 16 -52.5 34.5t-90.5 18.5q-76 0 -129.5 -40t-80.5 -103h180q21 0 31.5 -12t10.5 -26.5t-10.5 -26.5t-31.5 -12h-201q-4 -30 -4 -60t4 -56h201q21 0 31.5 -12t10.5 -26.5t-10.5 -26.5t-31.5 -12h-181
q27 -64 78.5 -104.5t127.5 -40.5q63 0 100.5 19t63.5 31q22 10 38 4.5t22 -20t1 -32.5t-25 -30q-30 -20 -81 -37t-119 -17q-117 0 -193.5 62t-106.5 165h-82q-22 0 -33 12t-11 26.5t11 26.5t33 12h68q-3 14 -3.5 28t-0.5 28q0 16 1 31t3 29h-68q-22 0 -33 12t-11 26.5
t11 26.5t33 12h82q30 99 107 162t198 63q72 0 121.5 -24t75.5 -45z" />
    <glyph glyph-name="trademark" unicode="&#x2122;" horiz-adv-x="778" 
d="M722 306q0 -14 -8.5 -20.5t-17.5 -6.5t-17.5 7.5t-8.5 21.5v288l2 34l-9 -34l-102 -296q-7 -21 -25 -21t-26 21l-102 296l-9 34l1 -34v-288q0 -14 -7 -21.5t-17 -7.5t-17.5 6.5t-7.5 20.5v369q0 15 9 25q8 10 28 10q16 0 26 -7q8 -7 16 -28l104 -301h3l103 301
q8 21 17 28t25 7q20 0 29 -10t9 -25zM188 657v-351q0 -14 -8.5 -21t-17.5 -7t-17.5 7t-8.5 21v351h-86q-14 0 -21 7.5t-7 17.5t7 17t21 7h226q14 0 20 -7t6 -17t-6 -17.5t-20 -7.5h-88z" />
    <glyph glyph-name="uni25CC" unicode="&#x25cc;" horiz-adv-x="1005" 
d="M388 268l-72 -22l26 70q19 -28 46 -48zM468 620l34 67l34 -66q-8 2 -16 1.5t-16 -0.5h-18t-18 -2zM532 234l-30 -63l-31 63q8 -2 16.5 -2.5t16.5 -0.5t14 0.5t14 2.5zM698 460l62 -32l-62 -29q2 8 2 14.5v14.5v16t-2 16zM312 396l-68 34l68 34q-2 -9 -2.5 -18.5
t-0.5 -17.5t0.5 -16t2.5 -16zM346 544l-19 70l67 -24q-28 -18 -48 -46zM660 308l18 -62l-62 20q28 20 44 42zM615 590l73 24l-25 -71q-21 27 -48 47z" />
    <glyph glyph-name="thothannobasethai" unicode="&#xf700;" horiz-adv-x="459" 
d="M399 537v-42.5v-92.5t-0.5 -116t-0.5 -116v-90v-40q0 -46 -44 -46q-42 0 -42 46l2 190h-137q-44 0 -45 40q-2 42 48 42h134v32q0 122 -132 121q-42 0 -67 -15.5t-40 -39.5q-21 -36 -55 -26q-20 8 -26 26t4 34q24 39 66 67.5t122 28.5q76 0 128 -27v24q0 45 43 45
q42 0 42 -45z" />
    <glyph glyph-name="saraileftthai" unicode="&#xf701;" 
d="M-174 687q2 -41 -46 -41h-246q-50 0 -47 41q-1 39 43 39h252q44 0 44 -39z" />
    <glyph glyph-name="saraiileftthai" unicode="&#xf702;" 
d="M-172 789q0 -6 -1 -21.5t-1 -33.5v-46q0 -42 -46 -42h-246q-50 0 -47 41q-1 39 43 39h215v66q1 42 41 45q42 0 42 -48z" />
    <glyph glyph-name="saraueleftthai" unicode="&#xf703;" 
d="M-172 752q0 -38 -23 -66t-57 -36q-12 -3 -19.5 -3.5t-16.5 -0.5h-178q-50 0 -47 41q-1 39 43 39h88q-4 14 -5 26q0 45 31.5 76.5t75.5 31.5q45 0 76.5 -31.5t31.5 -76.5zM-240 752q0 16 -12 27t-28 11t-28 -11t-12 -27t12 -28q12 -13 28 -13t28 12.5t12 28.5z" />
    <glyph glyph-name="saraueeleftthai" unicode="&#xf704;" 
d="M-174 688q0 -42 -46 -42h-246q-50 0 -47 41q-1 39 43 39h102v63q0 46 38 48q38 0 38 -51l-2 -60h46v63q0 45 36 48q40 0 40 -51z" />
    <glyph glyph-name="maieklowleftthai" unicode="&#xf705;" 
d="M-210 693q0 -49 -42 -47q-39 0 -39 44v124q0 42 39 46q42 0 42 -48v-119z" />
    <glyph glyph-name="maitholowleftthai" unicode="&#xf706;" 
d="M-130 771q-38 -64 -100 -95q-60 -30 -128 -30q-26 0 -36 13t-10 34v66h-52q-21 0 -34.5 10.5t-13.5 31.5q0 20 13.5 31t34.5 11h90q20 0 32 -12t12 -33l-2 -69q28 0 49 9.5t37 23.5t26.5 29t16.5 23q22 32 57 12q15 -9 15.5 -25t-7.5 -30z" />
    <glyph glyph-name="maitrilowleftthai" unicode="&#xf707;" 
d="M-156 682q0 -34 -42 -36l-44 -1q-44 0 -58.5 11.5t-11.5 39.5l4 22q3 15 -1.5 24.5t-14.5 7.5q-3 0 -7.5 -4.5l-7.5 -7.5l-21 -22q-22 -26 -45 0l-21 22l-7.5 7.5t-7.5 4.5q-21 2 -17 -32l5 -22q8 -39 -24 -45q-38 -12 -45 33l-3 21q-8 63 17.5 91.5t60.5 28.5
q26 -1 48 -23l17 -16l16 16q22 22 48 23q34 0 60 -25.5t20 -87.5l38 4q16 2 30 -8t14 -26z" />
    <glyph glyph-name="maichattawalowleftthai" unicode="&#xf708;" 
d="M-160 753q4 -39 -48 -39h-47v-33q-1 -51 -41 -51q-38 2 -37 48v36h-51q-52 0 -50 39q2 37 47 37h54v40q-1 44 37 43q40 1 41 -47v-36h49q44 0 46 -37z" />
    <glyph glyph-name="thanthakhatlowleftthai" unicode="&#xf709;" 
d="M-112 790q0 -38 -47 -38l-29 -2q-16 -3 -28 -12.5t-10 -26.5v-17q3 -46 -38 -48q-21 -3 -33.5 8.5t-12.5 33.5l-2 29q-2 39 26 72t85 39l42 2q47 0 47 -40z" />
    <glyph glyph-name="maieklowrightthai" unicode="&#xf70a;" 
d="M-52 693q0 -49 -42 -47q-40 0 -41 44v124q1 42 41 46q42 0 42 -48v-119z" />
    <glyph glyph-name="maitholowrightthai" unicode="&#xf70b;" 
d="M20 771q-38 -64 -100 -95q-60 -30 -128 -30q-26 0 -36 13t-10 34v66h-52q-21 0 -34.5 10.5t-13.5 31.5q0 20 13.5 31t34.5 11h90q20 0 32 -12t12 -33l-2 -69q28 0 49 9.5t37 23.5t26.5 29t16.5 23q22 32 57 12q15 -9 15.5 -25t-7.5 -30z" />
    <glyph glyph-name="maitrilowrightthai" unicode="&#xf70c;" 
d="M-10 682q0 -16 -11.5 -25t-29.5 -11l-43 -1q-44 0 -59 11.5t-12 39.5l3 22q4 34 -16 32q-3 0 -7.5 -4.5t-8.5 -7.5l-20 -22q-22 -26 -46 0l-20 22l-7.5 7.5t-8.5 4.5q-20 2 -14 -32l2 -22q8 -39 -24 -45q-38 -12 -44 33l-4 21q-6 63 19 91.5t59 28.5q26 -1 48 -23l17 -16
l17 16q24 22 48 23q36 0 60.5 -25.5t18.5 -87.5l41 4q16 2 29 -8t13 -26z" />
    <glyph glyph-name="maichattawalowrightthai" unicode="&#xf70d;" 
d="M40 753q2 -39 -48 -39h-46v-33q0 -51 -40 -51q-38 2 -38 48v36h-51q-51 0 -49 39q2 37 46 37h54v40q0 44 38 43q40 1 40 -47v-36h50q42 0 44 -37z" />
    <glyph glyph-name="thanthakhatlowrightthai" unicode="&#xf70e;" 
d="M30 790q0 -38 -46 -38l-66 -2q-16 -3 -28 -12q-14 -10 -12 -27v-17q3 -46 -37 -48q-21 -3 -34 8.5t-13 33.5l-1 29q-2 39 26 72t85 39l80 2q46 0 46 -40z" />
    <glyph glyph-name="yoyingnobasethai" unicode="&#xf70f;" horiz-adv-x="813" 
d="M762 188q0 -100 -54 -147t-140 -47q-39 0 -74 10t-62 32t-42.5 59t-15.5 91v152q0 63 -31 92.5t-85 29.5l-123 -1v-373h33q48 0 48 -41q0 -45 -48 -45h-57q-61 0 -61 62v421q0 47 43 47l163 2q38 0 75 -9t65 -31t45.5 -60t17.5 -96v-152q0 -63 32.5 -90.5t75.5 -27.5
q45 0 77 34t32 89v301q0 46 42 46q44 0 44 -46v-302z" />
    <glyph glyph-name="maihanakatleftthai" unicode="&#xf710;" 
d="M-153 670q0 -20 -10.5 -29t-37.5 -9h-135q-40 0 -65 6.5t-38.5 22t-18 42.5t-4.5 68q0 47 45 47q18 -2 27.5 -12t9.5 -36q0 -38 7 -49t39 -11h134q26 0 36.5 -12t10.5 -28z" />
    <glyph glyph-name="nikhahitleftthai" unicode="&#xf711;" 
d="M-180 738q0 -44 -31.5 -75t-76.5 -31q-44 0 -75 31t-31 75t31 75t75 31q45 0 76.5 -31t31.5 -75zM-248 736q0 16 -12 28.5t-28 12.5t-28 -12q-11 -13 -11 -29t11.5 -27t27.5 -11t28 11t12 27z" />
    <glyph glyph-name="maitaikhuleftthai" unicode="&#xf712;" 
d="M-147 846q0 -14 -8.5 -24t-28.5 -10h-221q-60 0 -60 -59q0 -16 7.5 -34.5t27.5 -22.5l40 39q20 20 38.5 14.5t21.5 -17.5q9 -27 22.5 -37.5t22.5 -10.5q22 0 30.5 15t2.5 31t1.5 25.5t19.5 12.5q15 3 28 -5.5t15 -27.5q9 -45 -14 -79q-24 -35 -76 -35q-34 0 -53.5 9.5
t-34.5 35.5l-32 -32q-8 -8 -20 -13t-32 3q-38 12 -64 44t-26 86q0 34 12 58.5t31.5 39.5t46 21.5t52.5 6.5h214q21 0 29 -9.5t8 -24.5z" />
    <glyph glyph-name="maiekupperleftthai" unicode="&#xf713;" 
d="M-176 945q0 -37 -34 -37t-34 36v116q0 16 6 27t26 11q21 0 28.5 -11t7.5 -29v-113z" />
    <glyph glyph-name="maithoupperleftthai" unicode="&#xf714;" 
d="M-120 1014q-32 -54 -84 -79.5t-110 -25.5q-21 0 -29 11.5t-8 29.5v55h-45q-18 0 -29 9q-11 10 -11 26t11 26t29 10h76q36 0 36 -38v-58q24 0 42 8t32 19t23 24t13 21q20 28 50 10q12 -8 12 -22t-8 -26z" />
    <glyph glyph-name="maitriupperleftthai" unicode="&#xf715;" 
d="M-72 945q0 -30 -36 -30l-36 -1q-38 0 -50 10q-13 10 -10 32l3 20q3 28 -13 28q-3 0 -7 -4l-7 -7l-18 -19q-18 -20 -38 0l-18 19q-3 3 -6.5 7t-6.5 4q-15 0 -13 -28l4 -20q8 -30 -21 -38q-14 -4 -25 3t-14 25l-2 18q-6 52 15 77t51 25q21 0 41 -19l15 -13l14 13
q20 19 40 19q30 0 51 -22t17 -74l34 4q14 0 25 -7t11 -22z" />
    <glyph glyph-name="maichattawaupperleftthai" unicode="&#xf716;" 
d="M-93 1017q-1 -33 -41 -33h-40v-28q0 -44 -33 -42q-33 0 -33 38v32h-44q-20 0 -32 8t-10 25q2 31 41 31h45v34q0 38 33 37q33 1 33 -41v-30h42q36 0 39 -31z" />
    <glyph glyph-name="thanthakhatupperleftthai" unicode="&#xf717;" 
d="M-82 897q0 -33 -40 -33l-25 -2q-14 -2 -23 -10q-10 -8 -8 -22v-14q2 -40 -34 -42q-16 -2 -27 7t-11 29l-2 26q-2 33 22 60.5t72 31.5l36 2q40 3 40 -33z" />
    <glyph glyph-name="saraulowthai" unicode="&#xf718;" 
d="M-52 -405q0 -21 -8.5 -33t-29.5 -12q-44 0 -44 45v73h-36q-48 0 -48 41q0 21 14 32t34 11h74q20 0 32 -12t12 -32v-113z" />
    <glyph glyph-name="sarauulowthai" unicode="&#xf719;" 
d="M-52 -368q0 -39 -36 -62q-34 -23 -84 -23q-51 0 -88 21q-38 20 -38 64v36h-29q-48 0 -48 41q0 21 13.5 32t34.5 11h66q20 0 31.5 -12t11.5 -32v-59q0 -15 9 -27t35 -12q21 0 30.5 13t9.5 27v64q0 21 8.5 33.5t29.5 12.5q20 0 32 -12t12 -33v-83z" />
    <glyph glyph-name="phinthulowthai" unicode="&#xf71a;" 
d="M-45 -297q0 -24 -16.5 -40.5t-38.5 -16.5q-24 0 -41 16.5t-17 40.5t17 40.5t41 16.5q22 0 38.5 -16.5t16.5 -40.5z" />
    <glyph glyph-name="lochula.short" unicode="&#xf71d;" horiz-adv-x="609" 
d="M552 141q0 -63 -42 -105t-105 -42q-30 0 -60.5 14t-42.5 37q-14 -22 -44 -36.5t-60 -14.5q-63 0 -105 42t-42 105v351q-1 45 43 45q42 0 42 -45v-356q0 -26 18 -43t44 -17t44 18t18 44q-2 20 -2 37v33v89q0 21 12 33t32 12q44 0 43 -45q0 -3 -0.5 -28t-0.5 -55v-78
q0 -26 18 -43t43 -17q26 0 43 18q18 16 18 42v209q0 39 -17 58t-61 25q-16 2 -27 12t-14 25t3 31t25 30l111 74q40 28 62 -4q27 -34 -14 -62l-75 -50q46 -14 69.5 -45t23.5 -95v-203z" />
    <glyph glyph-name="rulakkhangyao" unicode="&#xf881;" horiz-adv-x="789" 
d="M740 -162q0 -45 -44 -45q-42 0 -42 45v524q0 57 -29 77t-71 20q-28 0 -53 -17.5t-42 -37.5q7 -38 7 -68v-490q0 -46 -43 -47q-42 1 -42 47v492q0 63 -34.5 93.5t-88.5 28.5l-123 -1v-373h33q48 0 48 -41q0 -45 -48 -45h-57q-61 0 -61 62v421q0 45 43 47l163 2
q46 2 91 -12t75 -49q28 34 63 47.5t75 13.5q28 0 60 -6.5t58.5 -24.5t44 -51t17.5 -87v-525z" />
    <glyph glyph-name="lulakkhangyao" unicode="&#xf882;" horiz-adv-x="805" 
d="M756 -162q0 -45 -44 -45q-42 0 -42 45v524q0 57 -29 77.5t-71 20.5q-34 0 -57 -20t-39 -38q3 -15 5.5 -30.5t2.5 -35.5v-490q0 -46 -44 -47q-42 1 -42 47v492q0 63 -35 93.5t-89 28.5l-122 -1v-397q0 -30 -13.5 -46t-46.5 -16h-50q-50 0 -49 44q-1 40 49 40h24v246v153
q0 20 11.5 32.5t32.5 14.5l165 2q45 2 90 -12t75 -49q27 34 63 47.5t75 13.5q28 0 60.5 -6.5t59 -24.5t43.5 -51t17 -87v-525z" />
    <glyph glyph-name="yamakkanleftthai" 
d="M-206 657q0 -37 -37 -37h-21q-44 0 -72 28q-27 26 -27 70q0 21 9.5 42.5t26.5 31.5q-39 26 -39 69q-2 40 34 74.5t108 34.5q21 0 31.5 -9.5t10.5 -21t-10 -20.5t-32 -9q-39 0 -56 -15t-18.5 -33t12 -33t37.5 -15h6q15 0 25.5 -7t10.5 -23q0 -14 -10.5 -23t-26.5 -8h-23
q-14 0 -22 -10.5t-8 -24.5q0 -12 11.5 -21t24.5 -10h18q37 0 37 -30z" />
    <glyph glyph-name="saraamleft" horiz-adv-x="366" 
d="M-183 738q0 -44 -31.5 -75t-76.5 -31q-44 0 -75.5 31t-31.5 75t32 75t75 31q45 0 76.5 -31t31.5 -75zM308 40q0 -44 -44 -44q-42 0 -42 44v329q0 57 -29 77t-71 20q-16 0 -40 -9t-36 -29q-10 -15 -26 -21.5t-29 4.5q-16 10 -17.5 26.5t11.5 33.5q27 39 64 54t79 15
q28 0 60 -7t58.5 -25t44 -51t17.5 -87v-330zM-248 736q0 18 -12.5 31t-30.5 13q-16 0 -29 -13t-13 -31t12.5 -30t29.5 -12q18 0 30.5 12t12.5 30z" />
    <glyph glyph-name="uni0E33.alt1" horiz-adv-x="366" 
d="M-183 738q0 -44 -31.5 -75t-76.5 -31q-44 0 -75.5 31t-31.5 75t32 75t75 31q45 0 76.5 -31t31.5 -75zM308 40q0 -44 -44 -44q-42 0 -42 44v329q0 57 -29 77t-71 20q-16 0 -40 -9t-36 -29q-10 -15 -26 -21.5t-29 4.5q-16 10 -17.5 26.5t11.5 33.5q27 39 64 54t79 15
q28 0 60 -7t58.5 -25t44 -51t17.5 -87v-330zM-248 736q0 18 -12.5 31t-30.5 13q-16 0 -29 -13t-13 -31t12.5 -30t29.5 -12q18 0 30.5 12t12.5 30z" />
    </font>
</defs>
</svg>
