<svg xmlns="http://www.w3.org/2000/svg" width="43" height="34" viewBox="0 0 43 34">
    <g fill="none" fill-rule="evenodd">
        <path d="M-6-9h55v50.975H-6z"/>
        <g fill="#333" fill-opacity=".7">
            <path d="M30.993 2.833C30.045 7.06 29.67 9 28.9 12.06c-.738 2.936-1.31 5.66-2.3 6.98-1.004 1.34-2.343 1.632-3.256 1.735-.472.053-.816.076-1.839.08-1.023-.004-1.367-.027-1.84-.08-.911-.103-2.251-.395-3.255-1.735-.989-1.32-1.562-4.045-2.3-6.98-.77-3.06-1.144-5-2.091-9.226 0 0-.946.037-1.364.066-.566.04-1.009.09-1.491.153 0 0 .544 8.69.79 12.37.259 3.873.713 10.398 1.14 15.325 0 0 .794.126 2.112.202 1.386.08 2.002.088 2.002.088.57-2.17 1.276-5.183 2.077-6.467.65-1.045 1.653-1.156 2.222-1.233.893-.122 1.646-.14 1.995-.13h.007a13.05 13.05 0 0 1 1.995.13c.568.077 1.572.188 2.223 1.233.8 1.284 1.506 4.297 2.076 6.467 0 0 .617-.01 2.003-.088 1.317-.076 2.111-.202 2.111-.202.427-4.927.882-11.451 1.141-15.324.247-3.682.79-12.37.79-12.37a23.7 23.7 0 0 0-1.491-.154c-.42-.029-1.365-.066-1.365-.066z"/>
            <path d="M41.94 7.963c-.56-5.519-4.242-6.684-7.475-7.226-1.63-.273-4.523-.505-6.379-.58C26.465.052 22.641 0 21.506 0c-1.135 0-4.96.053-6.581.156-1.856.076-4.75.308-6.379.58-3.232.543-6.915 1.708-7.476 7.227C.918 9.466.874 11.428.901 13.54c.047 3.497.347 5.859.519 7.493.118 1.122.587 4.495 1.189 6.24.827 2.397 1.57 3.096 2.445 3.809 1.6 1.305 4.235 1.706 4.797 1.807 2.975.535 8.996.631 11.654.628 2.66.003 8.681-.093 11.655-.628.562-.101 3.197-.502 4.797-1.807.875-.713 1.619-1.412 2.445-3.809.602-1.745 1.07-5.118 1.19-6.24.171-1.634.472-3.996.517-7.493.028-2.112-.015-4.074-.169-5.577zm-2.022 9.27c-.327 4.41-.719 7.053-1.28 8.959-.492 1.669-1.102 2.79-1.993 3.596-1.487 1.346-3.535 1.634-4.737 1.813-2.595.385-6.967.52-10.403.52-3.436 0-7.807-.134-10.403-.52-1.201-.178-3.249-.467-4.736-1.813-.891-.806-1.501-1.928-1.993-3.596-.561-1.906-.953-4.55-1.28-8.958-.197-2.658-.155-6.963.14-9.277.44-3.45 2.154-5.188 5.825-5.843 1.713-.305 4.016-.521 6.201-.63 1.752-.117 4.636-.177 6.246-.162 1.61-.015 4.495.045 6.246.163 2.186.108 4.488.324 6.202.63 3.67.654 5.384 2.391 5.825 5.841.295 2.315.336 6.62.14 9.278z"/>
        </g>
    </g>
</svg>
