<svg xmlns="http://www.w3.org/2000/svg" xmlns:xlink="http://www.w3.org/1999/xlink" width="43" height="37" viewBox="0 0 43 37">
    <defs>
        <path id="a" d="M21.417 36.51H.017V.002h42.801V36.51h-21.4z"/>
    </defs>
    <g fill="none" fill-rule="evenodd">
        <path d="M-6-7h55v50.97H-6z"/>
        <g>
            <mask id="b" fill="#fff">
                <use xlink:href="#a"/>
            </mask>
            <path fill="#333" fill-opacity=".7" d="M36.755 20.233h-2.198l-1.758-3.1v3.1h-1.391v-4.576h2.417l1.538 3.174v-3.174h1.392v4.576zM21.419 32.056c-5.977 0-11.106-3.469-13.302-8.414 6.264.47 13.486.502 13.486.502 5.082.083 9.621-.154 13.088-.44-2.212 4.912-7.32 8.352-13.272 8.352zM7.455 17.206v3.027H6.064v-4.576h2.343l1.685 3.247v-3.247h1.172v4.576H9.14l-1.685-3.026zm4.835 3.027H13.9v-4.576H12.29v4.576zm3.516-1.698s-.88-.074-1.026-1.18v-.222s-.073-1.181 1.172-1.476h3.296v1.18h-3.003v.665h2.49s.88.295.88 1.181v.221s.073.96-.806 1.329h-3.956v-1.107h3.443v-.59h-2.49zm5.273 0s-.878-.074-1.025-1.18v-.222s-.073-1.181 1.172-1.476h3.296v1.18H21.52v.665h2.49s.88.295.88 1.181v.221s.073.96-.806 1.329h-3.956v-1.107h3.443v-.59h-2.49zm9.962 1.698h-1.465l-.44-.812h-2.343l-.366.812h-1.465l2.05-4.576h1.832l2.197 4.576zM21.42 4.457c5.965 0 11.084 3.455 13.288 8.384-10.49-.884-21.574-.5-26.456-.254 2.265-4.792 7.307-8.13 13.168-8.13zm21.332 10.58c-.023-1.355-1.062-1.38-1.062-1.38a89.648 89.648 0 0 0-1.857-.267C37.602 5.673 30.206.003 21.42.003c-8.718 0-16.066 5.58-18.358 13.205-.508.098-.973.194-1.452.295C.259 13.748.168 14.7.168 14.76c-.307 1.227-.123 5.306 0 6.686.092 1.472 1.288 1.35 1.348 1.38.447.096.946.184 1.481.267 2.22 7.733 9.623 13.416 18.422 13.416 8.767 0 16.15-5.643 18.397-13.334 1.15-.146 1.79-.25 1.79-.25 1.087-.093 1.11-1.39 1.11-1.402.2-1.893.047-6.485.035-6.485z" mask="url(#b)"/>
            <path fill="#000" fill-opacity=".55" d="M27.965 16.911l-.66 1.33h1.319l-.66-1.33" mask="url(#b)"/>
        </g>
    </g>
</svg>
