<svg xmlns="http://www.w3.org/2000/svg" width="45" height="30" viewBox="0 0 45 30">
    <g fill="none" fill-rule="evenodd">
        <path d="M-5-11h55v50.97H-5z"/>
        <path fill="#333" fill-opacity=".7" fill-rule="nonzero" d="M20.943 27.63c-2.343-1.467-4.069-6.532-4.069-12.55 0-.22.001-.438.007-.655l.003.002c-6.517-1.024-11.226-3.83-11.347-7.148l-.02.038C3.924 9.3 3.013 11.59 3.013 14.031c0 7.184 7.886 13.07 17.888 13.591l.043.009zM0 14.557C0 6.518 10.003 0 22.344 0c12.34 0 22.343 6.518 22.343 14.556S34.684 29.112 22.345 29.112 0 22.594 0 14.556zM22.344 2.1c2.382 0 4.408 3.614 5.159 8.656l.003-.007c4.634-.721 7.88-2.386 7.88-4.323 0-2.6-5.84-4.703-13.042-4.703-7.203 0-13.042 2.105-13.042 4.703 0 1.937 3.244 3.6 7.88 4.323l.003.007c.75-5.041 2.777-8.656 5.159-8.656zm1.442 25.522c10.003-.52 17.89-6.407 17.89-13.59 0-2.442-.912-4.733-2.506-6.715l-.02-.038c-.12 3.318-4.828 6.124-11.346 7.148l.003-.002c.004.217.006.435.006.656 0 6.017-1.727 11.082-4.069 12.55l.042-.009zm-1.442-16.491c1.068 0 2.105-.046 3.097-.133h-.001c-.494-3.232-1.694-5.513-3.096-5.513-1.403 0-2.602 2.281-3.097 5.514v-.001c.992.087 2.029.133 3.097.133zm0 11.97c1.793 0 3.256-3.733 3.335-8.415l.009.003a36.446 36.446 0 0 1-6.688 0l.01-.003c.077 4.683 1.54 8.414 3.334 8.414z"/>
    </g>
</svg>
